M48
;DRILL file {KiCad 5.0.2-bee76a0~70~ubuntu18.04.1} date sab 16 feb 2019 11:07:55 CET
;FORMAT={-:-/ absolute / inch / decimal}
FMAT,2
INCH,TZ
T1C0.0138
T2C0.0300
T3C0.0315
T4C0.0315
T5C0.0354
T6C0.0394
T7C0.0400
%
G90
G05
T1
X2.38Y-3.47
X2.3889Y-2.3
X2.39Y-2.12
X2.4689Y-2.4911
X2.4994Y-2.4106
X2.54Y-2.53
X2.54Y-2.7
X2.545Y-2.235
X2.6Y-2.41
X2.63Y-2.56
X2.63Y-3.11
X2.64Y-3.
X2.645Y-2.15
X2.67Y-2.46
X2.6772Y-2.2428
X2.69Y-2.18
X2.7Y-3.63
X2.74Y-2.63
X2.75Y-2.08
X2.75Y-2.53
X2.79Y-2.06
X2.81Y-3.14
X2.84Y-2.12
X2.84Y-2.5874
X2.88Y-3.73
X2.88Y-3.84
X2.91Y-2.21
X2.9994Y-3.1594
X3.03Y-2.28
X3.05Y-3.08
X3.055Y-2.06
X3.06Y-2.9
X3.0652Y-2.21
X3.08Y-2.68
X3.24Y-2.7
X3.24Y-3.16
X3.31Y-2.24
X3.36Y-2.34
X3.37Y-2.45
X3.38Y-3.11
X3.4Y-2.12
X3.4Y-2.24
X3.41Y-2.51
X3.44Y-2.16
X3.45Y-2.48
X3.48Y-1.86
X3.48Y-2.16
X3.5038Y-2.09
X3.52Y-2.46
X3.58Y-1.9029
X3.6Y-3.24
X3.625Y-3.57
X3.63Y-2.43
X3.65Y-2.19
X3.65Y-3.76
X3.66Y-3.668
X3.7Y-3.3432
X3.92Y-3.09
X3.95Y-2.55
X3.95Y-2.95
X3.96Y-3.8847
X3.96Y-3.93
X3.99Y-2.85
X4.04Y-3.26
X4.08Y-3.43
X4.12Y-2.79
X4.2825Y-3.2775
X4.31Y-2.75
X4.39Y-1.84
X4.4Y-2.01
X4.42Y-2.46
T2
X2.91Y-2.34
X2.91Y-2.44
X2.91Y-2.54
X2.91Y-2.64
X3.01Y-2.34
X3.01Y-2.44
X3.01Y-2.54
X3.01Y-2.64
T3
X2.35Y-2.46
X2.5469Y-2.46
X4.24Y-2.55
X4.24Y-2.85
X4.11Y-2.1
X4.11Y-2.4
X3.11Y-3.65
X3.2084Y-3.65
X4.23Y-2.1
X4.23Y-2.4
X3.74Y-3.02
X4.04Y-3.02
X3.99Y-2.1
X3.99Y-2.4
X4.19Y-3.04
X4.19Y-3.2369
X3.75Y-2.1
X3.75Y-2.4
X3.21Y-2.56
X3.21Y-2.6387
X3.78Y-3.82
X3.8784Y-3.82
X4.37Y-3.12
X4.37Y-3.2381
X3.87Y-2.1
X3.87Y-2.4
X3.3431Y-3.55
X3.54Y-3.55
X4.04Y-3.7231
X4.04Y-3.92
X2.35Y-2.63
X2.65Y-2.63
X3.58Y-1.84
X3.58Y-2.0369
X4.38Y-2.1
X4.38Y-2.2969
T4
X2.44Y-2.8
X2.44Y-3.4
X2.54Y-2.8
X2.54Y-3.4
X2.64Y-2.8
X2.64Y-3.4
X2.74Y-2.8
X2.74Y-3.4
X2.79Y-2.9
X2.84Y-2.8
X2.84Y-3.4
X2.89Y-2.9
X2.94Y-2.8
X2.94Y-3.4
X3.04Y-2.8
X3.04Y-3.4
X3.14Y-2.8
X3.14Y-3.4
X3.19Y-2.9
X3.24Y-2.8
X3.24Y-3.4
X3.29Y-2.9
X3.34Y-2.8
X3.34Y-3.4
X3.44Y-2.8
X3.44Y-3.4
X3.54Y-2.8
X3.54Y-2.9
X3.54Y-3.
X3.54Y-3.1
X3.54Y-3.4
T5
X4.28Y-1.93
X4.38Y-1.93
X4.02Y-1.93
X4.12Y-1.93
X3.76Y-1.93
X3.86Y-1.93
T6
X4.19Y-3.89
X4.29Y-3.89
X4.39Y-3.89
X3.52Y-2.56
X3.52Y-2.66
X3.15Y-2.19
X3.15Y-2.29
X3.15Y-2.39
X3.25Y-2.19
X3.25Y-2.29
X3.25Y-2.39
X4.19Y-3.36
X4.29Y-3.36
X4.39Y-3.36
X2.81Y-3.54
X2.91Y-3.54
X4.19Y-3.55
X4.29Y-3.55
X4.39Y-3.55
X3.58Y-2.13
X3.78Y-2.7
X4.0792Y-2.7
X2.38Y-3.06
X2.38Y-3.16
X4.38Y-2.55
X4.38Y-2.65
X4.38Y-2.75
X4.38Y-2.85
X3.77Y-3.55
X3.87Y-3.55
X3.97Y-3.55
X3.77Y-3.36
X3.87Y-3.36
X3.97Y-3.36
X2.45Y-3.54
X2.55Y-3.54
X2.65Y-3.54
X3.28Y-3.86
X3.38Y-3.86
X3.48Y-3.86
X3.58Y-3.86
X2.45Y-3.79
X2.45Y-3.89
X2.55Y-3.79
X2.55Y-3.89
X2.65Y-3.79
X2.65Y-3.89
X4.24Y-3.72
X4.34Y-3.72
X3.77Y-3.17
X3.87Y-3.17
X3.97Y-3.17
T7
X2.4Y-1.9
X2.4Y-2.
X2.5Y-1.9
X2.5Y-2.
X2.6Y-1.9
X2.6Y-2.
X2.7Y-1.9
X2.7Y-2.
X2.8Y-1.9
X2.8Y-2.
X2.9Y-1.9
X2.9Y-2.
X3.Y-1.9
X3.Y-2.
X3.1Y-1.9
X3.1Y-2.
X3.2Y-1.9
X3.2Y-2.
X3.3Y-1.9
X3.3Y-2.
X3.4Y-1.9
X3.4Y-2.
T0
M30
