%TF.GenerationSoftware,KiCad,Pcbnew,5.0.2-bee76a0~70~ubuntu18.04.1*%
%TF.CreationDate,2019-02-16T11:07:58+01:00*%
%TF.ProjectId,GP-Pcb,47502d50-6362-42e6-9b69-6361645f7063,2.0*%
%TF.SameCoordinates,Original*%
%TF.FileFunction,Soldermask,Bot*%
%TF.FilePolarity,Negative*%
%FSLAX46Y46*%
G04 Gerber Fmt 4.6, Leading zero omitted, Abs format (unit mm)*
G04 Created by KiCad (PCBNEW 5.0.2-bee76a0~70~ubuntu18.04.1) date sab 16 feb 2019 11:07:58 CET*
%MOMM*%
%LPD*%
G01*
G04 APERTURE LIST*
%ADD10C,0.010000*%
%ADD11C,0.150000*%
G04 APERTURE END LIST*
D10*
X113420000Y-45720000D02*
X113420000Y-100720000D01*
X58420000Y-100720000D02*
X113420000Y-100720000D01*
X58420000Y-45720000D02*
X58420000Y-100720000D01*
X58420000Y-45720000D02*
X113420000Y-45720000D01*
D11*
G36*
X102864228Y-98749703D02*
X103019100Y-98813853D01*
X103158481Y-98906985D01*
X103277015Y-99025519D01*
X103370147Y-99164900D01*
X103434297Y-99319772D01*
X103467000Y-99484184D01*
X103467000Y-99651816D01*
X103434297Y-99816228D01*
X103370147Y-99971100D01*
X103277015Y-100110481D01*
X103158481Y-100229015D01*
X103019100Y-100322147D01*
X102864228Y-100386297D01*
X102699816Y-100419000D01*
X102532184Y-100419000D01*
X102367772Y-100386297D01*
X102212900Y-100322147D01*
X102073519Y-100229015D01*
X101954985Y-100110481D01*
X101861853Y-99971100D01*
X101797703Y-99816228D01*
X101765000Y-99651816D01*
X101765000Y-99484184D01*
X101797703Y-99319772D01*
X101861853Y-99164900D01*
X101954985Y-99025519D01*
X102073519Y-98906985D01*
X102212900Y-98813853D01*
X102367772Y-98749703D01*
X102532184Y-98717000D01*
X102699816Y-98717000D01*
X102864228Y-98749703D01*
X102864228Y-98749703D01*
G37*
G36*
X111616442Y-97911518D02*
X111682627Y-97918037D01*
X111795853Y-97952384D01*
X111852467Y-97969557D01*
X111991087Y-98043652D01*
X112008991Y-98053222D01*
X112044729Y-98082552D01*
X112146186Y-98165814D01*
X112229448Y-98267271D01*
X112258778Y-98303009D01*
X112258779Y-98303011D01*
X112342443Y-98459533D01*
X112342443Y-98459534D01*
X112393963Y-98629373D01*
X112411359Y-98806000D01*
X112393963Y-98982627D01*
X112380952Y-99025519D01*
X112342443Y-99152467D01*
X112335797Y-99164900D01*
X112258778Y-99308991D01*
X112249930Y-99319772D01*
X112146186Y-99446186D01*
X112044729Y-99529448D01*
X112008991Y-99558778D01*
X112008989Y-99558779D01*
X111852467Y-99642443D01*
X111795853Y-99659616D01*
X111682627Y-99693963D01*
X111616442Y-99700482D01*
X111550260Y-99707000D01*
X111461740Y-99707000D01*
X111395558Y-99700482D01*
X111329373Y-99693963D01*
X111216147Y-99659616D01*
X111159533Y-99642443D01*
X111003011Y-99558779D01*
X111003009Y-99558778D01*
X110967271Y-99529448D01*
X110865814Y-99446186D01*
X110762070Y-99319772D01*
X110753222Y-99308991D01*
X110676203Y-99164900D01*
X110669557Y-99152467D01*
X110631048Y-99025519D01*
X110618037Y-98982627D01*
X110600641Y-98806000D01*
X110618037Y-98629373D01*
X110669557Y-98459534D01*
X110669557Y-98459533D01*
X110753221Y-98303011D01*
X110753222Y-98303009D01*
X110782552Y-98267271D01*
X110865814Y-98165814D01*
X110967271Y-98082552D01*
X111003009Y-98053222D01*
X111020913Y-98043652D01*
X111159533Y-97969557D01*
X111216147Y-97952384D01*
X111329373Y-97918037D01*
X111395558Y-97911518D01*
X111461740Y-97905000D01*
X111550260Y-97905000D01*
X111616442Y-97911518D01*
X111616442Y-97911518D01*
G37*
G36*
X109076442Y-97911518D02*
X109142627Y-97918037D01*
X109255853Y-97952384D01*
X109312467Y-97969557D01*
X109451087Y-98043652D01*
X109468991Y-98053222D01*
X109504729Y-98082552D01*
X109606186Y-98165814D01*
X109689448Y-98267271D01*
X109718778Y-98303009D01*
X109718779Y-98303011D01*
X109802443Y-98459533D01*
X109802443Y-98459534D01*
X109853963Y-98629373D01*
X109871359Y-98806000D01*
X109853963Y-98982627D01*
X109840952Y-99025519D01*
X109802443Y-99152467D01*
X109795797Y-99164900D01*
X109718778Y-99308991D01*
X109709930Y-99319772D01*
X109606186Y-99446186D01*
X109504729Y-99529448D01*
X109468991Y-99558778D01*
X109468989Y-99558779D01*
X109312467Y-99642443D01*
X109255853Y-99659616D01*
X109142627Y-99693963D01*
X109076442Y-99700482D01*
X109010260Y-99707000D01*
X108921740Y-99707000D01*
X108855558Y-99700482D01*
X108789373Y-99693963D01*
X108676147Y-99659616D01*
X108619533Y-99642443D01*
X108463011Y-99558779D01*
X108463009Y-99558778D01*
X108427271Y-99529448D01*
X108325814Y-99446186D01*
X108222070Y-99319772D01*
X108213222Y-99308991D01*
X108136203Y-99164900D01*
X108129557Y-99152467D01*
X108091048Y-99025519D01*
X108078037Y-98982627D01*
X108060641Y-98806000D01*
X108078037Y-98629373D01*
X108129557Y-98459534D01*
X108129557Y-98459533D01*
X108213221Y-98303011D01*
X108213222Y-98303009D01*
X108242552Y-98267271D01*
X108325814Y-98165814D01*
X108427271Y-98082552D01*
X108463009Y-98053222D01*
X108480913Y-98043652D01*
X108619533Y-97969557D01*
X108676147Y-97952384D01*
X108789373Y-97918037D01*
X108855558Y-97911518D01*
X108921740Y-97905000D01*
X109010260Y-97905000D01*
X109076442Y-97911518D01*
X109076442Y-97911518D01*
G37*
G36*
X107327000Y-99707000D02*
X105525000Y-99707000D01*
X105525000Y-97905000D01*
X107327000Y-97905000D01*
X107327000Y-99707000D01*
X107327000Y-99707000D01*
G37*
G36*
X63131000Y-99707000D02*
X61329000Y-99707000D01*
X61329000Y-97905000D01*
X63131000Y-97905000D01*
X63131000Y-99707000D01*
X63131000Y-99707000D01*
G37*
G36*
X64880442Y-97911518D02*
X64946627Y-97918037D01*
X65059853Y-97952384D01*
X65116467Y-97969557D01*
X65255087Y-98043652D01*
X65272991Y-98053222D01*
X65308729Y-98082552D01*
X65410186Y-98165814D01*
X65493448Y-98267271D01*
X65522778Y-98303009D01*
X65522779Y-98303011D01*
X65606443Y-98459533D01*
X65606443Y-98459534D01*
X65657963Y-98629373D01*
X65675359Y-98806000D01*
X65657963Y-98982627D01*
X65644952Y-99025519D01*
X65606443Y-99152467D01*
X65599797Y-99164900D01*
X65522778Y-99308991D01*
X65513930Y-99319772D01*
X65410186Y-99446186D01*
X65308729Y-99529448D01*
X65272991Y-99558778D01*
X65272989Y-99558779D01*
X65116467Y-99642443D01*
X65059853Y-99659616D01*
X64946627Y-99693963D01*
X64880442Y-99700482D01*
X64814260Y-99707000D01*
X64725740Y-99707000D01*
X64659558Y-99700482D01*
X64593373Y-99693963D01*
X64480147Y-99659616D01*
X64423533Y-99642443D01*
X64267011Y-99558779D01*
X64267009Y-99558778D01*
X64231271Y-99529448D01*
X64129814Y-99446186D01*
X64026070Y-99319772D01*
X64017222Y-99308991D01*
X63940203Y-99164900D01*
X63933557Y-99152467D01*
X63895048Y-99025519D01*
X63882037Y-98982627D01*
X63864641Y-98806000D01*
X63882037Y-98629373D01*
X63933557Y-98459534D01*
X63933557Y-98459533D01*
X64017221Y-98303011D01*
X64017222Y-98303009D01*
X64046552Y-98267271D01*
X64129814Y-98165814D01*
X64231271Y-98082552D01*
X64267009Y-98053222D01*
X64284913Y-98043652D01*
X64423533Y-97969557D01*
X64480147Y-97952384D01*
X64593373Y-97918037D01*
X64659558Y-97911518D01*
X64725740Y-97905000D01*
X64814260Y-97905000D01*
X64880442Y-97911518D01*
X64880442Y-97911518D01*
G37*
G36*
X67420442Y-97911518D02*
X67486627Y-97918037D01*
X67599853Y-97952384D01*
X67656467Y-97969557D01*
X67795087Y-98043652D01*
X67812991Y-98053222D01*
X67848729Y-98082552D01*
X67950186Y-98165814D01*
X68033448Y-98267271D01*
X68062778Y-98303009D01*
X68062779Y-98303011D01*
X68146443Y-98459533D01*
X68146443Y-98459534D01*
X68197963Y-98629373D01*
X68215359Y-98806000D01*
X68197963Y-98982627D01*
X68184952Y-99025519D01*
X68146443Y-99152467D01*
X68139797Y-99164900D01*
X68062778Y-99308991D01*
X68053930Y-99319772D01*
X67950186Y-99446186D01*
X67848729Y-99529448D01*
X67812991Y-99558778D01*
X67812989Y-99558779D01*
X67656467Y-99642443D01*
X67599853Y-99659616D01*
X67486627Y-99693963D01*
X67420442Y-99700482D01*
X67354260Y-99707000D01*
X67265740Y-99707000D01*
X67199558Y-99700482D01*
X67133373Y-99693963D01*
X67020147Y-99659616D01*
X66963533Y-99642443D01*
X66807011Y-99558779D01*
X66807009Y-99558778D01*
X66771271Y-99529448D01*
X66669814Y-99446186D01*
X66566070Y-99319772D01*
X66557222Y-99308991D01*
X66480203Y-99164900D01*
X66473557Y-99152467D01*
X66435048Y-99025519D01*
X66422037Y-98982627D01*
X66404641Y-98806000D01*
X66422037Y-98629373D01*
X66473557Y-98459534D01*
X66473557Y-98459533D01*
X66557221Y-98303011D01*
X66557222Y-98303009D01*
X66586552Y-98267271D01*
X66669814Y-98165814D01*
X66771271Y-98082552D01*
X66807009Y-98053222D01*
X66824913Y-98043652D01*
X66963533Y-97969557D01*
X67020147Y-97952384D01*
X67133373Y-97918037D01*
X67199558Y-97911518D01*
X67265740Y-97905000D01*
X67354260Y-97905000D01*
X67420442Y-97911518D01*
X67420442Y-97911518D01*
G37*
G36*
X84213000Y-98945000D02*
X82411000Y-98945000D01*
X82411000Y-97143000D01*
X84213000Y-97143000D01*
X84213000Y-98945000D01*
X84213000Y-98945000D01*
G37*
G36*
X91042443Y-97149519D02*
X91108627Y-97156037D01*
X91221853Y-97190384D01*
X91278467Y-97207557D01*
X91406939Y-97276228D01*
X91434991Y-97291222D01*
X91470729Y-97320552D01*
X91572186Y-97403814D01*
X91655448Y-97505271D01*
X91684778Y-97541009D01*
X91684779Y-97541011D01*
X91768443Y-97697533D01*
X91768443Y-97697534D01*
X91819963Y-97867373D01*
X91837359Y-98044000D01*
X91819963Y-98220627D01*
X91794973Y-98303009D01*
X91768443Y-98390467D01*
X91731526Y-98459533D01*
X91684778Y-98546991D01*
X91655448Y-98582729D01*
X91572186Y-98684186D01*
X91470729Y-98767448D01*
X91434991Y-98796778D01*
X91434989Y-98796779D01*
X91278467Y-98880443D01*
X91221853Y-98897616D01*
X91108627Y-98931963D01*
X91042443Y-98938481D01*
X90976260Y-98945000D01*
X90887740Y-98945000D01*
X90821558Y-98938482D01*
X90755373Y-98931963D01*
X90642147Y-98897616D01*
X90585533Y-98880443D01*
X90429011Y-98796779D01*
X90429009Y-98796778D01*
X90393271Y-98767448D01*
X90291814Y-98684186D01*
X90208552Y-98582729D01*
X90179222Y-98546991D01*
X90132474Y-98459533D01*
X90095557Y-98390467D01*
X90069027Y-98303009D01*
X90044037Y-98220627D01*
X90026641Y-98044000D01*
X90044037Y-97867373D01*
X90095557Y-97697534D01*
X90095557Y-97697533D01*
X90179221Y-97541011D01*
X90179222Y-97541009D01*
X90208552Y-97505271D01*
X90291814Y-97403814D01*
X90393271Y-97320552D01*
X90429009Y-97291222D01*
X90457061Y-97276228D01*
X90585533Y-97207557D01*
X90642147Y-97190384D01*
X90755373Y-97156037D01*
X90821558Y-97149518D01*
X90887740Y-97143000D01*
X90976260Y-97143000D01*
X91042443Y-97149519D01*
X91042443Y-97149519D01*
G37*
G36*
X85962443Y-97149519D02*
X86028627Y-97156037D01*
X86141853Y-97190384D01*
X86198467Y-97207557D01*
X86326939Y-97276228D01*
X86354991Y-97291222D01*
X86390729Y-97320552D01*
X86492186Y-97403814D01*
X86575448Y-97505271D01*
X86604778Y-97541009D01*
X86604779Y-97541011D01*
X86688443Y-97697533D01*
X86688443Y-97697534D01*
X86739963Y-97867373D01*
X86757359Y-98044000D01*
X86739963Y-98220627D01*
X86714973Y-98303009D01*
X86688443Y-98390467D01*
X86651526Y-98459533D01*
X86604778Y-98546991D01*
X86575448Y-98582729D01*
X86492186Y-98684186D01*
X86390729Y-98767448D01*
X86354991Y-98796778D01*
X86354989Y-98796779D01*
X86198467Y-98880443D01*
X86141853Y-98897616D01*
X86028627Y-98931963D01*
X85962443Y-98938481D01*
X85896260Y-98945000D01*
X85807740Y-98945000D01*
X85741558Y-98938482D01*
X85675373Y-98931963D01*
X85562147Y-98897616D01*
X85505533Y-98880443D01*
X85349011Y-98796779D01*
X85349009Y-98796778D01*
X85313271Y-98767448D01*
X85211814Y-98684186D01*
X85128552Y-98582729D01*
X85099222Y-98546991D01*
X85052474Y-98459533D01*
X85015557Y-98390467D01*
X84989027Y-98303009D01*
X84964037Y-98220627D01*
X84946641Y-98044000D01*
X84964037Y-97867373D01*
X85015557Y-97697534D01*
X85015557Y-97697533D01*
X85099221Y-97541011D01*
X85099222Y-97541009D01*
X85128552Y-97505271D01*
X85211814Y-97403814D01*
X85313271Y-97320552D01*
X85349009Y-97291222D01*
X85377061Y-97276228D01*
X85505533Y-97207557D01*
X85562147Y-97190384D01*
X85675373Y-97156037D01*
X85741557Y-97149519D01*
X85807740Y-97143000D01*
X85896260Y-97143000D01*
X85962443Y-97149519D01*
X85962443Y-97149519D01*
G37*
G36*
X88502443Y-97149519D02*
X88568627Y-97156037D01*
X88681853Y-97190384D01*
X88738467Y-97207557D01*
X88866939Y-97276228D01*
X88894991Y-97291222D01*
X88930729Y-97320552D01*
X89032186Y-97403814D01*
X89115448Y-97505271D01*
X89144778Y-97541009D01*
X89144779Y-97541011D01*
X89228443Y-97697533D01*
X89228443Y-97697534D01*
X89279963Y-97867373D01*
X89297359Y-98044000D01*
X89279963Y-98220627D01*
X89254973Y-98303009D01*
X89228443Y-98390467D01*
X89191526Y-98459533D01*
X89144778Y-98546991D01*
X89115448Y-98582729D01*
X89032186Y-98684186D01*
X88930729Y-98767448D01*
X88894991Y-98796778D01*
X88894989Y-98796779D01*
X88738467Y-98880443D01*
X88681853Y-98897616D01*
X88568627Y-98931963D01*
X88502443Y-98938481D01*
X88436260Y-98945000D01*
X88347740Y-98945000D01*
X88281558Y-98938482D01*
X88215373Y-98931963D01*
X88102147Y-98897616D01*
X88045533Y-98880443D01*
X87889011Y-98796779D01*
X87889009Y-98796778D01*
X87853271Y-98767448D01*
X87751814Y-98684186D01*
X87668552Y-98582729D01*
X87639222Y-98546991D01*
X87592474Y-98459533D01*
X87555557Y-98390467D01*
X87529027Y-98303009D01*
X87504037Y-98220627D01*
X87486641Y-98044000D01*
X87504037Y-97867373D01*
X87555557Y-97697534D01*
X87555557Y-97697533D01*
X87639221Y-97541011D01*
X87639222Y-97541009D01*
X87668552Y-97505271D01*
X87751814Y-97403814D01*
X87853271Y-97320552D01*
X87889009Y-97291222D01*
X87917061Y-97276228D01*
X88045533Y-97207557D01*
X88102147Y-97190384D01*
X88215373Y-97156037D01*
X88281558Y-97149518D01*
X88347740Y-97143000D01*
X88436260Y-97143000D01*
X88502443Y-97149519D01*
X88502443Y-97149519D01*
G37*
G36*
X96863000Y-97879000D02*
X95161000Y-97879000D01*
X95161000Y-96177000D01*
X96863000Y-96177000D01*
X96863000Y-97879000D01*
X96863000Y-97879000D01*
G37*
G36*
X98760228Y-96209703D02*
X98915100Y-96273853D01*
X99054481Y-96366985D01*
X99173015Y-96485519D01*
X99266147Y-96624900D01*
X99330297Y-96779772D01*
X99363000Y-96944184D01*
X99363000Y-97111816D01*
X99330297Y-97276228D01*
X99266147Y-97431100D01*
X99173015Y-97570481D01*
X99054481Y-97689015D01*
X98915100Y-97782147D01*
X98760228Y-97846297D01*
X98595816Y-97879000D01*
X98428184Y-97879000D01*
X98263772Y-97846297D01*
X98108900Y-97782147D01*
X97969519Y-97689015D01*
X97850985Y-97570481D01*
X97757853Y-97431100D01*
X97693703Y-97276228D01*
X97661000Y-97111816D01*
X97661000Y-96944184D01*
X97693703Y-96779772D01*
X97757853Y-96624900D01*
X97850985Y-96485519D01*
X97969519Y-96366985D01*
X98108900Y-96273853D01*
X98263772Y-96209703D01*
X98428184Y-96177000D01*
X98595816Y-96177000D01*
X98760228Y-96209703D01*
X98760228Y-96209703D01*
G37*
G36*
X64880443Y-95371519D02*
X64946627Y-95378037D01*
X65059853Y-95412384D01*
X65116467Y-95429557D01*
X65255087Y-95503652D01*
X65272991Y-95513222D01*
X65308729Y-95542552D01*
X65410186Y-95625814D01*
X65493448Y-95727271D01*
X65522778Y-95763009D01*
X65522779Y-95763011D01*
X65606443Y-95919533D01*
X65606443Y-95919534D01*
X65657963Y-96089373D01*
X65675359Y-96266000D01*
X65657963Y-96442627D01*
X65644952Y-96485519D01*
X65606443Y-96612467D01*
X65599797Y-96624900D01*
X65522778Y-96768991D01*
X65513930Y-96779772D01*
X65410186Y-96906186D01*
X65308729Y-96989448D01*
X65272991Y-97018778D01*
X65272989Y-97018779D01*
X65116467Y-97102443D01*
X65059853Y-97119616D01*
X64946627Y-97153963D01*
X64880443Y-97160481D01*
X64814260Y-97167000D01*
X64725740Y-97167000D01*
X64659557Y-97160481D01*
X64593373Y-97153963D01*
X64480147Y-97119616D01*
X64423533Y-97102443D01*
X64267011Y-97018779D01*
X64267009Y-97018778D01*
X64231271Y-96989448D01*
X64129814Y-96906186D01*
X64026070Y-96779772D01*
X64017222Y-96768991D01*
X63940203Y-96624900D01*
X63933557Y-96612467D01*
X63895048Y-96485519D01*
X63882037Y-96442627D01*
X63864641Y-96266000D01*
X63882037Y-96089373D01*
X63933557Y-95919534D01*
X63933557Y-95919533D01*
X64017221Y-95763011D01*
X64017222Y-95763009D01*
X64046552Y-95727271D01*
X64129814Y-95625814D01*
X64231271Y-95542552D01*
X64267009Y-95513222D01*
X64284913Y-95503652D01*
X64423533Y-95429557D01*
X64480147Y-95412384D01*
X64593373Y-95378037D01*
X64659557Y-95371519D01*
X64725740Y-95365000D01*
X64814260Y-95365000D01*
X64880443Y-95371519D01*
X64880443Y-95371519D01*
G37*
G36*
X67420443Y-95371519D02*
X67486627Y-95378037D01*
X67599853Y-95412384D01*
X67656467Y-95429557D01*
X67795087Y-95503652D01*
X67812991Y-95513222D01*
X67848729Y-95542552D01*
X67950186Y-95625814D01*
X68033448Y-95727271D01*
X68062778Y-95763009D01*
X68062779Y-95763011D01*
X68146443Y-95919533D01*
X68146443Y-95919534D01*
X68197963Y-96089373D01*
X68215359Y-96266000D01*
X68197963Y-96442627D01*
X68184952Y-96485519D01*
X68146443Y-96612467D01*
X68139797Y-96624900D01*
X68062778Y-96768991D01*
X68053930Y-96779772D01*
X67950186Y-96906186D01*
X67848729Y-96989448D01*
X67812991Y-97018778D01*
X67812989Y-97018779D01*
X67656467Y-97102443D01*
X67599853Y-97119616D01*
X67486627Y-97153963D01*
X67420443Y-97160481D01*
X67354260Y-97167000D01*
X67265740Y-97167000D01*
X67199557Y-97160481D01*
X67133373Y-97153963D01*
X67020147Y-97119616D01*
X66963533Y-97102443D01*
X66807011Y-97018779D01*
X66807009Y-97018778D01*
X66771271Y-96989448D01*
X66669814Y-96906186D01*
X66566070Y-96779772D01*
X66557222Y-96768991D01*
X66480203Y-96624900D01*
X66473557Y-96612467D01*
X66435048Y-96485519D01*
X66422037Y-96442627D01*
X66404641Y-96266000D01*
X66422037Y-96089373D01*
X66473557Y-95919534D01*
X66473557Y-95919533D01*
X66557221Y-95763011D01*
X66557222Y-95763009D01*
X66586552Y-95727271D01*
X66669814Y-95625814D01*
X66771271Y-95542552D01*
X66807009Y-95513222D01*
X66824913Y-95503652D01*
X66963533Y-95429557D01*
X67020147Y-95412384D01*
X67133373Y-95378037D01*
X67199557Y-95371519D01*
X67265740Y-95365000D01*
X67354260Y-95365000D01*
X67420443Y-95371519D01*
X67420443Y-95371519D01*
G37*
G36*
X62340443Y-95371519D02*
X62406627Y-95378037D01*
X62519853Y-95412384D01*
X62576467Y-95429557D01*
X62715087Y-95503652D01*
X62732991Y-95513222D01*
X62768729Y-95542552D01*
X62870186Y-95625814D01*
X62953448Y-95727271D01*
X62982778Y-95763009D01*
X62982779Y-95763011D01*
X63066443Y-95919533D01*
X63066443Y-95919534D01*
X63117963Y-96089373D01*
X63135359Y-96266000D01*
X63117963Y-96442627D01*
X63104952Y-96485519D01*
X63066443Y-96612467D01*
X63059797Y-96624900D01*
X62982778Y-96768991D01*
X62973930Y-96779772D01*
X62870186Y-96906186D01*
X62768729Y-96989448D01*
X62732991Y-97018778D01*
X62732989Y-97018779D01*
X62576467Y-97102443D01*
X62519853Y-97119616D01*
X62406627Y-97153963D01*
X62340443Y-97160481D01*
X62274260Y-97167000D01*
X62185740Y-97167000D01*
X62119557Y-97160481D01*
X62053373Y-97153963D01*
X61940147Y-97119616D01*
X61883533Y-97102443D01*
X61727011Y-97018779D01*
X61727009Y-97018778D01*
X61691271Y-96989448D01*
X61589814Y-96906186D01*
X61486070Y-96779772D01*
X61477222Y-96768991D01*
X61400203Y-96624900D01*
X61393557Y-96612467D01*
X61355048Y-96485519D01*
X61342037Y-96442627D01*
X61324641Y-96266000D01*
X61342037Y-96089373D01*
X61393557Y-95919534D01*
X61393557Y-95919533D01*
X61477221Y-95763011D01*
X61477222Y-95763009D01*
X61506552Y-95727271D01*
X61589814Y-95625814D01*
X61691271Y-95542552D01*
X61727009Y-95513222D01*
X61744913Y-95503652D01*
X61883533Y-95429557D01*
X61940147Y-95412384D01*
X62053373Y-95378037D01*
X62119557Y-95371519D01*
X62185740Y-95365000D01*
X62274260Y-95365000D01*
X62340443Y-95371519D01*
X62340443Y-95371519D01*
G37*
G36*
X102864228Y-93749703D02*
X103019100Y-93813853D01*
X103158481Y-93906985D01*
X103277015Y-94025519D01*
X103370147Y-94164900D01*
X103434297Y-94319772D01*
X103467000Y-94484184D01*
X103467000Y-94651816D01*
X103434297Y-94816228D01*
X103370147Y-94971100D01*
X103277015Y-95110481D01*
X103158481Y-95229015D01*
X103019100Y-95322147D01*
X102864228Y-95386297D01*
X102699816Y-95419000D01*
X102532184Y-95419000D01*
X102367772Y-95386297D01*
X102212900Y-95322147D01*
X102073519Y-95229015D01*
X101954985Y-95110481D01*
X101861853Y-94971100D01*
X101797703Y-94816228D01*
X101765000Y-94651816D01*
X101765000Y-94484184D01*
X101797703Y-94319772D01*
X101861853Y-94164900D01*
X101954985Y-94025519D01*
X102073519Y-93906985D01*
X102212900Y-93813853D01*
X102367772Y-93749703D01*
X102532184Y-93717000D01*
X102699816Y-93717000D01*
X102864228Y-93749703D01*
X102864228Y-93749703D01*
G37*
G36*
X108597000Y-95389000D02*
X106795000Y-95389000D01*
X106795000Y-93587000D01*
X108597000Y-93587000D01*
X108597000Y-95389000D01*
X108597000Y-95389000D01*
G37*
G36*
X110346442Y-93593518D02*
X110412627Y-93600037D01*
X110525853Y-93634384D01*
X110582467Y-93651557D01*
X110704900Y-93717000D01*
X110738991Y-93735222D01*
X110756636Y-93749703D01*
X110876186Y-93847814D01*
X110924746Y-93906986D01*
X110988778Y-93985009D01*
X110988779Y-93985011D01*
X111072443Y-94141533D01*
X111072443Y-94141534D01*
X111123963Y-94311373D01*
X111141359Y-94488000D01*
X111123963Y-94664627D01*
X111089616Y-94777853D01*
X111072443Y-94834467D01*
X110999410Y-94971100D01*
X110988778Y-94990991D01*
X110959448Y-95026729D01*
X110876186Y-95128186D01*
X110774729Y-95211448D01*
X110738991Y-95240778D01*
X110738989Y-95240779D01*
X110582467Y-95324443D01*
X110525853Y-95341616D01*
X110412627Y-95375963D01*
X110346443Y-95382481D01*
X110280260Y-95389000D01*
X110191740Y-95389000D01*
X110125557Y-95382481D01*
X110059373Y-95375963D01*
X109946147Y-95341616D01*
X109889533Y-95324443D01*
X109733011Y-95240779D01*
X109733009Y-95240778D01*
X109697271Y-95211448D01*
X109595814Y-95128186D01*
X109512552Y-95026729D01*
X109483222Y-94990991D01*
X109472590Y-94971100D01*
X109399557Y-94834467D01*
X109382384Y-94777853D01*
X109348037Y-94664627D01*
X109330641Y-94488000D01*
X109348037Y-94311373D01*
X109399557Y-94141534D01*
X109399557Y-94141533D01*
X109483221Y-93985011D01*
X109483222Y-93985009D01*
X109547254Y-93906986D01*
X109595814Y-93847814D01*
X109715364Y-93749703D01*
X109733009Y-93735222D01*
X109767100Y-93717000D01*
X109889533Y-93651557D01*
X109946147Y-93634384D01*
X110059373Y-93600037D01*
X110125558Y-93593518D01*
X110191740Y-93587000D01*
X110280260Y-93587000D01*
X110346442Y-93593518D01*
X110346442Y-93593518D01*
G37*
G36*
X79845000Y-93561000D02*
X78143000Y-93561000D01*
X78143000Y-91859000D01*
X79845000Y-91859000D01*
X79845000Y-93561000D01*
X79845000Y-93561000D01*
G37*
G36*
X81742228Y-91891703D02*
X81897100Y-91955853D01*
X82036481Y-92048985D01*
X82155015Y-92167519D01*
X82248147Y-92306900D01*
X82312297Y-92461772D01*
X82345000Y-92626184D01*
X82345000Y-92793816D01*
X82312297Y-92958228D01*
X82248147Y-93113100D01*
X82155015Y-93252481D01*
X82036481Y-93371015D01*
X81897100Y-93464147D01*
X81742228Y-93528297D01*
X81577816Y-93561000D01*
X81410184Y-93561000D01*
X81245772Y-93528297D01*
X81090900Y-93464147D01*
X80951519Y-93371015D01*
X80832985Y-93252481D01*
X80739853Y-93113100D01*
X80675703Y-92958228D01*
X80643000Y-92793816D01*
X80643000Y-92626184D01*
X80675703Y-92461772D01*
X80739853Y-92306900D01*
X80832985Y-92167519D01*
X80951519Y-92048985D01*
X81090900Y-91955853D01*
X81245772Y-91891703D01*
X81410184Y-91859000D01*
X81577816Y-91859000D01*
X81742228Y-91891703D01*
X81742228Y-91891703D01*
G37*
G36*
X107327000Y-91071000D02*
X105525000Y-91071000D01*
X105525000Y-89269000D01*
X107327000Y-89269000D01*
X107327000Y-91071000D01*
X107327000Y-91071000D01*
G37*
G36*
X109076443Y-89275519D02*
X109142627Y-89282037D01*
X109255853Y-89316384D01*
X109312467Y-89333557D01*
X109451087Y-89407652D01*
X109468991Y-89417222D01*
X109504729Y-89446552D01*
X109606186Y-89529814D01*
X109686369Y-89627519D01*
X109718778Y-89667009D01*
X109718779Y-89667011D01*
X109802443Y-89823533D01*
X109802443Y-89823534D01*
X109853963Y-89993373D01*
X109871359Y-90170000D01*
X109853963Y-90346627D01*
X109819616Y-90459853D01*
X109802443Y-90516467D01*
X109728348Y-90655087D01*
X109718778Y-90672991D01*
X109689448Y-90708729D01*
X109606186Y-90810186D01*
X109504729Y-90893448D01*
X109468991Y-90922778D01*
X109468989Y-90922779D01*
X109312467Y-91006443D01*
X109264478Y-91021000D01*
X109142627Y-91057963D01*
X109076442Y-91064482D01*
X109010260Y-91071000D01*
X108921740Y-91071000D01*
X108855558Y-91064482D01*
X108789373Y-91057963D01*
X108667522Y-91021000D01*
X108619533Y-91006443D01*
X108463011Y-90922779D01*
X108463009Y-90922778D01*
X108427271Y-90893448D01*
X108325814Y-90810186D01*
X108242552Y-90708729D01*
X108213222Y-90672991D01*
X108203652Y-90655087D01*
X108129557Y-90516467D01*
X108112384Y-90459853D01*
X108078037Y-90346627D01*
X108060641Y-90170000D01*
X108078037Y-89993373D01*
X108129557Y-89823534D01*
X108129557Y-89823533D01*
X108213221Y-89667011D01*
X108213222Y-89667009D01*
X108245631Y-89627519D01*
X108325814Y-89529814D01*
X108427271Y-89446552D01*
X108463009Y-89417222D01*
X108480913Y-89407652D01*
X108619533Y-89333557D01*
X108676147Y-89316384D01*
X108789373Y-89282037D01*
X108855557Y-89275519D01*
X108921740Y-89269000D01*
X109010260Y-89269000D01*
X109076443Y-89275519D01*
X109076443Y-89275519D01*
G37*
G36*
X111616443Y-89275519D02*
X111682627Y-89282037D01*
X111795853Y-89316384D01*
X111852467Y-89333557D01*
X111991087Y-89407652D01*
X112008991Y-89417222D01*
X112044729Y-89446552D01*
X112146186Y-89529814D01*
X112226369Y-89627519D01*
X112258778Y-89667009D01*
X112258779Y-89667011D01*
X112342443Y-89823533D01*
X112342443Y-89823534D01*
X112393963Y-89993373D01*
X112411359Y-90170000D01*
X112393963Y-90346627D01*
X112359616Y-90459853D01*
X112342443Y-90516467D01*
X112268348Y-90655087D01*
X112258778Y-90672991D01*
X112229448Y-90708729D01*
X112146186Y-90810186D01*
X112044729Y-90893448D01*
X112008991Y-90922778D01*
X112008989Y-90922779D01*
X111852467Y-91006443D01*
X111804478Y-91021000D01*
X111682627Y-91057963D01*
X111616442Y-91064482D01*
X111550260Y-91071000D01*
X111461740Y-91071000D01*
X111395558Y-91064482D01*
X111329373Y-91057963D01*
X111207522Y-91021000D01*
X111159533Y-91006443D01*
X111003011Y-90922779D01*
X111003009Y-90922778D01*
X110967271Y-90893448D01*
X110865814Y-90810186D01*
X110782552Y-90708729D01*
X110753222Y-90672991D01*
X110743652Y-90655087D01*
X110669557Y-90516467D01*
X110652384Y-90459853D01*
X110618037Y-90346627D01*
X110600641Y-90170000D01*
X110618037Y-89993373D01*
X110669557Y-89823534D01*
X110669557Y-89823533D01*
X110753221Y-89667011D01*
X110753222Y-89667009D01*
X110785631Y-89627519D01*
X110865814Y-89529814D01*
X110967271Y-89446552D01*
X111003009Y-89417222D01*
X111020913Y-89407652D01*
X111159533Y-89333557D01*
X111216147Y-89316384D01*
X111329373Y-89282037D01*
X111395557Y-89275519D01*
X111461740Y-89269000D01*
X111550260Y-89269000D01*
X111616443Y-89275519D01*
X111616443Y-89275519D01*
G37*
G36*
X100948443Y-89275519D02*
X101014627Y-89282037D01*
X101127853Y-89316384D01*
X101184467Y-89333557D01*
X101323087Y-89407652D01*
X101340991Y-89417222D01*
X101376729Y-89446552D01*
X101478186Y-89529814D01*
X101558369Y-89627519D01*
X101590778Y-89667009D01*
X101590779Y-89667011D01*
X101674443Y-89823533D01*
X101674443Y-89823534D01*
X101725963Y-89993373D01*
X101743359Y-90170000D01*
X101725963Y-90346627D01*
X101691616Y-90459853D01*
X101674443Y-90516467D01*
X101600348Y-90655087D01*
X101590778Y-90672991D01*
X101561448Y-90708729D01*
X101478186Y-90810186D01*
X101376729Y-90893448D01*
X101340991Y-90922778D01*
X101340989Y-90922779D01*
X101184467Y-91006443D01*
X101136478Y-91021000D01*
X101014627Y-91057963D01*
X100948442Y-91064482D01*
X100882260Y-91071000D01*
X100793740Y-91071000D01*
X100727558Y-91064482D01*
X100661373Y-91057963D01*
X100539522Y-91021000D01*
X100491533Y-91006443D01*
X100335011Y-90922779D01*
X100335009Y-90922778D01*
X100299271Y-90893448D01*
X100197814Y-90810186D01*
X100114552Y-90708729D01*
X100085222Y-90672991D01*
X100075652Y-90655087D01*
X100001557Y-90516467D01*
X99984384Y-90459853D01*
X99950037Y-90346627D01*
X99932641Y-90170000D01*
X99950037Y-89993373D01*
X100001557Y-89823534D01*
X100001557Y-89823533D01*
X100085221Y-89667011D01*
X100085222Y-89667009D01*
X100117631Y-89627519D01*
X100197814Y-89529814D01*
X100299271Y-89446552D01*
X100335009Y-89417222D01*
X100352913Y-89407652D01*
X100491533Y-89333557D01*
X100548147Y-89316384D01*
X100661373Y-89282037D01*
X100727557Y-89275519D01*
X100793740Y-89269000D01*
X100882260Y-89269000D01*
X100948443Y-89275519D01*
X100948443Y-89275519D01*
G37*
G36*
X98408443Y-89275519D02*
X98474627Y-89282037D01*
X98587853Y-89316384D01*
X98644467Y-89333557D01*
X98783087Y-89407652D01*
X98800991Y-89417222D01*
X98836729Y-89446552D01*
X98938186Y-89529814D01*
X99018369Y-89627519D01*
X99050778Y-89667009D01*
X99050779Y-89667011D01*
X99134443Y-89823533D01*
X99134443Y-89823534D01*
X99185963Y-89993373D01*
X99203359Y-90170000D01*
X99185963Y-90346627D01*
X99151616Y-90459853D01*
X99134443Y-90516467D01*
X99060348Y-90655087D01*
X99050778Y-90672991D01*
X99021448Y-90708729D01*
X98938186Y-90810186D01*
X98836729Y-90893448D01*
X98800991Y-90922778D01*
X98800989Y-90922779D01*
X98644467Y-91006443D01*
X98596478Y-91021000D01*
X98474627Y-91057963D01*
X98408442Y-91064482D01*
X98342260Y-91071000D01*
X98253740Y-91071000D01*
X98187558Y-91064482D01*
X98121373Y-91057963D01*
X97999522Y-91021000D01*
X97951533Y-91006443D01*
X97795011Y-90922779D01*
X97795009Y-90922778D01*
X97759271Y-90893448D01*
X97657814Y-90810186D01*
X97574552Y-90708729D01*
X97545222Y-90672991D01*
X97535652Y-90655087D01*
X97461557Y-90516467D01*
X97444384Y-90459853D01*
X97410037Y-90346627D01*
X97392641Y-90170000D01*
X97410037Y-89993373D01*
X97461557Y-89823534D01*
X97461557Y-89823533D01*
X97545221Y-89667011D01*
X97545222Y-89667009D01*
X97577631Y-89627519D01*
X97657814Y-89529814D01*
X97759271Y-89446552D01*
X97795009Y-89417222D01*
X97812913Y-89407652D01*
X97951533Y-89333557D01*
X98008147Y-89316384D01*
X98121373Y-89282037D01*
X98187557Y-89275519D01*
X98253740Y-89269000D01*
X98342260Y-89269000D01*
X98408443Y-89275519D01*
X98408443Y-89275519D01*
G37*
G36*
X96659000Y-91071000D02*
X94857000Y-91071000D01*
X94857000Y-89269000D01*
X96659000Y-89269000D01*
X96659000Y-91071000D01*
X96659000Y-91071000D01*
G37*
G36*
X90164228Y-89351703D02*
X90319100Y-89415853D01*
X90458481Y-89508985D01*
X90577015Y-89627519D01*
X90670147Y-89766900D01*
X90734297Y-89921772D01*
X90767000Y-90086184D01*
X90767000Y-90253816D01*
X90734297Y-90418228D01*
X90670147Y-90573100D01*
X90577015Y-90712481D01*
X90458481Y-90831015D01*
X90319100Y-90924147D01*
X90164228Y-90988297D01*
X89999816Y-91021000D01*
X89832184Y-91021000D01*
X89667772Y-90988297D01*
X89512900Y-90924147D01*
X89373519Y-90831015D01*
X89254985Y-90712481D01*
X89161853Y-90573100D01*
X89097703Y-90418228D01*
X89065000Y-90253816D01*
X89065000Y-90086184D01*
X89097703Y-89921772D01*
X89161853Y-89766900D01*
X89254985Y-89627519D01*
X89373519Y-89508985D01*
X89512900Y-89415853D01*
X89667772Y-89351703D01*
X89832184Y-89319000D01*
X89999816Y-89319000D01*
X90164228Y-89351703D01*
X90164228Y-89351703D01*
G37*
G36*
X85164228Y-89351703D02*
X85319100Y-89415853D01*
X85458481Y-89508985D01*
X85577015Y-89627519D01*
X85670147Y-89766900D01*
X85734297Y-89921772D01*
X85767000Y-90086184D01*
X85767000Y-90253816D01*
X85734297Y-90418228D01*
X85670147Y-90573100D01*
X85577015Y-90712481D01*
X85458481Y-90831015D01*
X85319100Y-90924147D01*
X85164228Y-90988297D01*
X84999816Y-91021000D01*
X84832184Y-91021000D01*
X84667772Y-90988297D01*
X84512900Y-90924147D01*
X84373519Y-90831015D01*
X84254985Y-90712481D01*
X84161853Y-90573100D01*
X84097703Y-90418228D01*
X84065000Y-90253816D01*
X84065000Y-90086184D01*
X84097703Y-89921772D01*
X84161853Y-89766900D01*
X84254985Y-89627519D01*
X84373519Y-89508985D01*
X84512900Y-89415853D01*
X84667772Y-89351703D01*
X84832184Y-89319000D01*
X84999816Y-89319000D01*
X85164228Y-89351703D01*
X85164228Y-89351703D01*
G37*
G36*
X71484442Y-89021518D02*
X71550627Y-89028037D01*
X71663853Y-89062384D01*
X71720467Y-89079557D01*
X71859087Y-89153652D01*
X71876991Y-89163222D01*
X71912729Y-89192552D01*
X72014186Y-89275814D01*
X72076466Y-89351704D01*
X72126778Y-89413009D01*
X72126779Y-89413011D01*
X72210443Y-89569533D01*
X72210443Y-89569534D01*
X72261963Y-89739373D01*
X72279359Y-89916000D01*
X72261963Y-90092627D01*
X72238492Y-90170000D01*
X72210443Y-90262467D01*
X72165459Y-90346625D01*
X72126778Y-90418991D01*
X72097448Y-90454729D01*
X72014186Y-90556186D01*
X71912729Y-90639448D01*
X71876991Y-90668778D01*
X71876989Y-90668779D01*
X71720467Y-90752443D01*
X71663853Y-90769616D01*
X71550627Y-90803963D01*
X71487453Y-90810185D01*
X71418260Y-90817000D01*
X71329740Y-90817000D01*
X71260547Y-90810185D01*
X71197373Y-90803963D01*
X71084147Y-90769616D01*
X71027533Y-90752443D01*
X70871011Y-90668779D01*
X70871009Y-90668778D01*
X70835271Y-90639448D01*
X70733814Y-90556186D01*
X70650552Y-90454729D01*
X70621222Y-90418991D01*
X70582541Y-90346625D01*
X70537557Y-90262467D01*
X70509508Y-90170000D01*
X70486037Y-90092627D01*
X70468641Y-89916000D01*
X70486037Y-89739373D01*
X70537557Y-89569534D01*
X70537557Y-89569533D01*
X70621221Y-89413011D01*
X70621222Y-89413009D01*
X70671534Y-89351704D01*
X70733814Y-89275814D01*
X70835271Y-89192552D01*
X70871009Y-89163222D01*
X70888913Y-89153652D01*
X71027533Y-89079557D01*
X71084147Y-89062384D01*
X71197373Y-89028037D01*
X71263558Y-89021518D01*
X71329740Y-89015000D01*
X71418260Y-89015000D01*
X71484442Y-89021518D01*
X71484442Y-89021518D01*
G37*
G36*
X67420442Y-89021518D02*
X67486627Y-89028037D01*
X67599853Y-89062384D01*
X67656467Y-89079557D01*
X67795087Y-89153652D01*
X67812991Y-89163222D01*
X67848729Y-89192552D01*
X67950186Y-89275814D01*
X68012466Y-89351704D01*
X68062778Y-89413009D01*
X68062779Y-89413011D01*
X68146443Y-89569533D01*
X68146443Y-89569534D01*
X68197963Y-89739373D01*
X68215359Y-89916000D01*
X68197963Y-90092627D01*
X68174492Y-90170000D01*
X68146443Y-90262467D01*
X68101459Y-90346625D01*
X68062778Y-90418991D01*
X68033448Y-90454729D01*
X67950186Y-90556186D01*
X67848729Y-90639448D01*
X67812991Y-90668778D01*
X67812989Y-90668779D01*
X67656467Y-90752443D01*
X67599853Y-90769616D01*
X67486627Y-90803963D01*
X67423453Y-90810185D01*
X67354260Y-90817000D01*
X67265740Y-90817000D01*
X67196547Y-90810185D01*
X67133373Y-90803963D01*
X67020147Y-90769616D01*
X66963533Y-90752443D01*
X66807011Y-90668779D01*
X66807009Y-90668778D01*
X66771271Y-90639448D01*
X66669814Y-90556186D01*
X66586552Y-90454729D01*
X66557222Y-90418991D01*
X66518541Y-90346625D01*
X66473557Y-90262467D01*
X66445508Y-90170000D01*
X66422037Y-90092627D01*
X66404641Y-89916000D01*
X66422037Y-89739373D01*
X66473557Y-89569534D01*
X66473557Y-89569533D01*
X66557221Y-89413011D01*
X66557222Y-89413009D01*
X66607534Y-89351704D01*
X66669814Y-89275814D01*
X66771271Y-89192552D01*
X66807009Y-89163222D01*
X66824913Y-89153652D01*
X66963533Y-89079557D01*
X67020147Y-89062384D01*
X67133373Y-89028037D01*
X67199558Y-89021518D01*
X67265740Y-89015000D01*
X67354260Y-89015000D01*
X67420442Y-89021518D01*
X67420442Y-89021518D01*
G37*
G36*
X63131000Y-90817000D02*
X61329000Y-90817000D01*
X61329000Y-89015000D01*
X63131000Y-89015000D01*
X63131000Y-90817000D01*
X63131000Y-90817000D01*
G37*
G36*
X64880442Y-89021518D02*
X64946627Y-89028037D01*
X65059853Y-89062384D01*
X65116467Y-89079557D01*
X65255087Y-89153652D01*
X65272991Y-89163222D01*
X65308729Y-89192552D01*
X65410186Y-89275814D01*
X65472466Y-89351704D01*
X65522778Y-89413009D01*
X65522779Y-89413011D01*
X65606443Y-89569533D01*
X65606443Y-89569534D01*
X65657963Y-89739373D01*
X65675359Y-89916000D01*
X65657963Y-90092627D01*
X65634492Y-90170000D01*
X65606443Y-90262467D01*
X65561459Y-90346625D01*
X65522778Y-90418991D01*
X65493448Y-90454729D01*
X65410186Y-90556186D01*
X65308729Y-90639448D01*
X65272991Y-90668778D01*
X65272989Y-90668779D01*
X65116467Y-90752443D01*
X65059853Y-90769616D01*
X64946627Y-90803963D01*
X64883453Y-90810185D01*
X64814260Y-90817000D01*
X64725740Y-90817000D01*
X64656547Y-90810185D01*
X64593373Y-90803963D01*
X64480147Y-90769616D01*
X64423533Y-90752443D01*
X64267011Y-90668779D01*
X64267009Y-90668778D01*
X64231271Y-90639448D01*
X64129814Y-90556186D01*
X64046552Y-90454729D01*
X64017222Y-90418991D01*
X63978541Y-90346625D01*
X63933557Y-90262467D01*
X63905508Y-90170000D01*
X63882037Y-90092627D01*
X63864641Y-89916000D01*
X63882037Y-89739373D01*
X63933557Y-89569534D01*
X63933557Y-89569533D01*
X64017221Y-89413011D01*
X64017222Y-89413009D01*
X64067534Y-89351704D01*
X64129814Y-89275814D01*
X64231271Y-89192552D01*
X64267009Y-89163222D01*
X64284913Y-89153652D01*
X64423533Y-89079557D01*
X64480147Y-89062384D01*
X64593373Y-89028037D01*
X64659558Y-89021518D01*
X64725740Y-89015000D01*
X64814260Y-89015000D01*
X64880442Y-89021518D01*
X64880442Y-89021518D01*
G37*
G36*
X74815000Y-90817000D02*
X73013000Y-90817000D01*
X73013000Y-89015000D01*
X74815000Y-89015000D01*
X74815000Y-90817000D01*
X74815000Y-90817000D01*
G37*
G36*
X74833134Y-85220778D02*
X74933865Y-85251335D01*
X74984232Y-85266613D01*
X75030648Y-85291423D01*
X75123482Y-85341044D01*
X75245538Y-85441212D01*
X75345706Y-85563267D01*
X75395327Y-85656101D01*
X75420137Y-85702517D01*
X75435415Y-85752884D01*
X75465972Y-85853615D01*
X75477570Y-85971375D01*
X75477570Y-86748625D01*
X75465972Y-86866385D01*
X75435415Y-86967116D01*
X75420137Y-87017483D01*
X75395327Y-87063899D01*
X75345706Y-87156733D01*
X75245538Y-87278788D01*
X75123483Y-87378956D01*
X75030649Y-87428577D01*
X74984233Y-87453387D01*
X74933866Y-87468665D01*
X74833135Y-87499222D01*
X74676000Y-87514698D01*
X74518866Y-87499222D01*
X74418135Y-87468665D01*
X74367768Y-87453387D01*
X74321352Y-87428577D01*
X74228518Y-87378956D01*
X74106463Y-87278788D01*
X74006295Y-87156733D01*
X73931864Y-87017482D01*
X73886028Y-86866385D01*
X73874430Y-86748625D01*
X73874430Y-85971376D01*
X73886028Y-85853616D01*
X73931863Y-85702519D01*
X73931863Y-85702518D01*
X73956673Y-85656102D01*
X74006294Y-85563268D01*
X74106462Y-85441212D01*
X74228517Y-85341044D01*
X74321351Y-85291423D01*
X74367767Y-85266613D01*
X74418134Y-85251335D01*
X74518865Y-85220778D01*
X74676000Y-85205302D01*
X74833134Y-85220778D01*
X74833134Y-85220778D01*
G37*
G36*
X90073134Y-85220778D02*
X90173865Y-85251335D01*
X90224232Y-85266613D01*
X90270648Y-85291423D01*
X90363482Y-85341044D01*
X90485538Y-85441212D01*
X90585706Y-85563267D01*
X90635327Y-85656101D01*
X90660137Y-85702517D01*
X90675415Y-85752884D01*
X90705972Y-85853615D01*
X90717570Y-85971375D01*
X90717570Y-86748625D01*
X90705972Y-86866385D01*
X90675415Y-86967116D01*
X90660137Y-87017483D01*
X90635327Y-87063899D01*
X90585706Y-87156733D01*
X90485538Y-87278788D01*
X90363483Y-87378956D01*
X90270649Y-87428577D01*
X90224233Y-87453387D01*
X90173866Y-87468665D01*
X90073135Y-87499222D01*
X89916000Y-87514698D01*
X89758866Y-87499222D01*
X89658135Y-87468665D01*
X89607768Y-87453387D01*
X89561352Y-87428577D01*
X89468518Y-87378956D01*
X89346463Y-87278788D01*
X89246295Y-87156733D01*
X89171864Y-87017482D01*
X89126028Y-86866385D01*
X89114430Y-86748625D01*
X89114430Y-85971376D01*
X89126028Y-85853616D01*
X89171863Y-85702519D01*
X89171863Y-85702518D01*
X89196673Y-85656102D01*
X89246294Y-85563268D01*
X89346462Y-85441212D01*
X89468517Y-85341044D01*
X89561351Y-85291423D01*
X89607767Y-85266613D01*
X89658134Y-85251335D01*
X89758865Y-85220778D01*
X89916000Y-85205302D01*
X90073134Y-85220778D01*
X90073134Y-85220778D01*
G37*
G36*
X64673134Y-85220778D02*
X64773865Y-85251335D01*
X64824232Y-85266613D01*
X64870648Y-85291423D01*
X64963482Y-85341044D01*
X65085538Y-85441212D01*
X65185706Y-85563267D01*
X65235327Y-85656101D01*
X65260137Y-85702517D01*
X65275415Y-85752884D01*
X65305972Y-85853615D01*
X65317570Y-85971375D01*
X65317570Y-86748625D01*
X65305972Y-86866385D01*
X65275415Y-86967116D01*
X65260137Y-87017483D01*
X65235327Y-87063899D01*
X65185706Y-87156733D01*
X65085538Y-87278788D01*
X64963483Y-87378956D01*
X64870649Y-87428577D01*
X64824233Y-87453387D01*
X64773866Y-87468665D01*
X64673135Y-87499222D01*
X64516000Y-87514698D01*
X64358866Y-87499222D01*
X64258135Y-87468665D01*
X64207768Y-87453387D01*
X64161352Y-87428577D01*
X64068518Y-87378956D01*
X63946463Y-87278788D01*
X63846295Y-87156733D01*
X63771864Y-87017482D01*
X63726028Y-86866385D01*
X63714430Y-86748625D01*
X63714430Y-85971376D01*
X63726028Y-85853616D01*
X63771863Y-85702519D01*
X63771863Y-85702518D01*
X63796673Y-85656102D01*
X63846294Y-85563268D01*
X63946462Y-85441212D01*
X64068517Y-85341044D01*
X64161351Y-85291423D01*
X64207767Y-85266613D01*
X64258134Y-85251335D01*
X64358865Y-85220778D01*
X64516000Y-85205302D01*
X64673134Y-85220778D01*
X64673134Y-85220778D01*
G37*
G36*
X67213134Y-85220778D02*
X67313865Y-85251335D01*
X67364232Y-85266613D01*
X67410648Y-85291423D01*
X67503482Y-85341044D01*
X67625538Y-85441212D01*
X67725706Y-85563267D01*
X67775327Y-85656101D01*
X67800137Y-85702517D01*
X67815415Y-85752884D01*
X67845972Y-85853615D01*
X67857570Y-85971375D01*
X67857570Y-86748625D01*
X67845972Y-86866385D01*
X67815415Y-86967116D01*
X67800137Y-87017483D01*
X67775327Y-87063899D01*
X67725706Y-87156733D01*
X67625538Y-87278788D01*
X67503483Y-87378956D01*
X67410649Y-87428577D01*
X67364233Y-87453387D01*
X67313866Y-87468665D01*
X67213135Y-87499222D01*
X67056000Y-87514698D01*
X66898866Y-87499222D01*
X66798135Y-87468665D01*
X66747768Y-87453387D01*
X66701352Y-87428577D01*
X66608518Y-87378956D01*
X66486463Y-87278788D01*
X66386295Y-87156733D01*
X66311864Y-87017482D01*
X66266028Y-86866385D01*
X66254430Y-86748625D01*
X66254430Y-85971376D01*
X66266028Y-85853616D01*
X66311863Y-85702519D01*
X66311863Y-85702518D01*
X66336673Y-85656102D01*
X66386294Y-85563268D01*
X66486462Y-85441212D01*
X66608517Y-85341044D01*
X66701351Y-85291423D01*
X66747767Y-85266613D01*
X66798134Y-85251335D01*
X66898865Y-85220778D01*
X67056000Y-85205302D01*
X67213134Y-85220778D01*
X67213134Y-85220778D01*
G37*
G36*
X69753134Y-85220778D02*
X69853865Y-85251335D01*
X69904232Y-85266613D01*
X69950648Y-85291423D01*
X70043482Y-85341044D01*
X70165538Y-85441212D01*
X70265706Y-85563267D01*
X70315327Y-85656101D01*
X70340137Y-85702517D01*
X70355415Y-85752884D01*
X70385972Y-85853615D01*
X70397570Y-85971375D01*
X70397570Y-86748625D01*
X70385972Y-86866385D01*
X70355415Y-86967116D01*
X70340137Y-87017483D01*
X70315327Y-87063899D01*
X70265706Y-87156733D01*
X70165538Y-87278788D01*
X70043483Y-87378956D01*
X69950649Y-87428577D01*
X69904233Y-87453387D01*
X69853866Y-87468665D01*
X69753135Y-87499222D01*
X69596000Y-87514698D01*
X69438866Y-87499222D01*
X69338135Y-87468665D01*
X69287768Y-87453387D01*
X69241352Y-87428577D01*
X69148518Y-87378956D01*
X69026463Y-87278788D01*
X68926295Y-87156733D01*
X68851864Y-87017482D01*
X68806028Y-86866385D01*
X68794430Y-86748625D01*
X68794430Y-85971376D01*
X68806028Y-85853616D01*
X68851863Y-85702519D01*
X68851863Y-85702518D01*
X68876673Y-85656102D01*
X68926294Y-85563268D01*
X69026462Y-85441212D01*
X69148517Y-85341044D01*
X69241351Y-85291423D01*
X69287767Y-85266613D01*
X69338134Y-85251335D01*
X69438865Y-85220778D01*
X69596000Y-85205302D01*
X69753134Y-85220778D01*
X69753134Y-85220778D01*
G37*
G36*
X72293134Y-85220778D02*
X72393865Y-85251335D01*
X72444232Y-85266613D01*
X72490648Y-85291423D01*
X72583482Y-85341044D01*
X72705538Y-85441212D01*
X72805706Y-85563267D01*
X72855327Y-85656101D01*
X72880137Y-85702517D01*
X72895415Y-85752884D01*
X72925972Y-85853615D01*
X72937570Y-85971375D01*
X72937570Y-86748625D01*
X72925972Y-86866385D01*
X72895415Y-86967116D01*
X72880137Y-87017483D01*
X72855327Y-87063899D01*
X72805706Y-87156733D01*
X72705538Y-87278788D01*
X72583483Y-87378956D01*
X72490649Y-87428577D01*
X72444233Y-87453387D01*
X72393866Y-87468665D01*
X72293135Y-87499222D01*
X72136000Y-87514698D01*
X71978866Y-87499222D01*
X71878135Y-87468665D01*
X71827768Y-87453387D01*
X71781352Y-87428577D01*
X71688518Y-87378956D01*
X71566463Y-87278788D01*
X71466295Y-87156733D01*
X71391864Y-87017482D01*
X71346028Y-86866385D01*
X71334430Y-86748625D01*
X71334430Y-85971376D01*
X71346028Y-85853616D01*
X71391863Y-85702519D01*
X71391863Y-85702518D01*
X71416673Y-85656102D01*
X71466294Y-85563268D01*
X71566462Y-85441212D01*
X71688517Y-85341044D01*
X71781351Y-85291423D01*
X71827767Y-85266613D01*
X71878134Y-85251335D01*
X71978865Y-85220778D01*
X72136000Y-85205302D01*
X72293134Y-85220778D01*
X72293134Y-85220778D01*
G37*
G36*
X62133134Y-85220778D02*
X62233865Y-85251335D01*
X62284232Y-85266613D01*
X62330648Y-85291423D01*
X62423482Y-85341044D01*
X62545538Y-85441212D01*
X62645706Y-85563267D01*
X62695327Y-85656101D01*
X62720137Y-85702517D01*
X62735415Y-85752884D01*
X62765972Y-85853615D01*
X62777570Y-85971375D01*
X62777570Y-86748625D01*
X62765972Y-86866385D01*
X62735415Y-86967116D01*
X62720137Y-87017483D01*
X62695327Y-87063899D01*
X62645706Y-87156733D01*
X62545538Y-87278788D01*
X62423483Y-87378956D01*
X62330649Y-87428577D01*
X62284233Y-87453387D01*
X62233866Y-87468665D01*
X62133135Y-87499222D01*
X61976000Y-87514698D01*
X61818866Y-87499222D01*
X61718135Y-87468665D01*
X61667768Y-87453387D01*
X61621352Y-87428577D01*
X61528518Y-87378956D01*
X61406463Y-87278788D01*
X61306295Y-87156733D01*
X61231864Y-87017482D01*
X61186028Y-86866385D01*
X61174430Y-86748625D01*
X61174430Y-85971376D01*
X61186028Y-85853616D01*
X61231863Y-85702519D01*
X61231863Y-85702518D01*
X61256673Y-85656102D01*
X61306294Y-85563268D01*
X61406462Y-85441212D01*
X61528517Y-85341044D01*
X61621351Y-85291423D01*
X61667767Y-85266613D01*
X61718134Y-85251335D01*
X61818865Y-85220778D01*
X61976000Y-85205302D01*
X62133134Y-85220778D01*
X62133134Y-85220778D01*
G37*
G36*
X87533134Y-85220778D02*
X87633865Y-85251335D01*
X87684232Y-85266613D01*
X87730648Y-85291423D01*
X87823482Y-85341044D01*
X87945538Y-85441212D01*
X88045706Y-85563267D01*
X88095327Y-85656101D01*
X88120137Y-85702517D01*
X88135415Y-85752884D01*
X88165972Y-85853615D01*
X88177570Y-85971375D01*
X88177570Y-86748625D01*
X88165972Y-86866385D01*
X88135415Y-86967116D01*
X88120137Y-87017483D01*
X88095327Y-87063899D01*
X88045706Y-87156733D01*
X87945538Y-87278788D01*
X87823483Y-87378956D01*
X87730649Y-87428577D01*
X87684233Y-87453387D01*
X87633866Y-87468665D01*
X87533135Y-87499222D01*
X87376000Y-87514698D01*
X87218866Y-87499222D01*
X87118135Y-87468665D01*
X87067768Y-87453387D01*
X87021352Y-87428577D01*
X86928518Y-87378956D01*
X86806463Y-87278788D01*
X86706295Y-87156733D01*
X86631864Y-87017482D01*
X86586028Y-86866385D01*
X86574430Y-86748625D01*
X86574430Y-85971376D01*
X86586028Y-85853616D01*
X86631863Y-85702519D01*
X86631863Y-85702518D01*
X86656673Y-85656102D01*
X86706294Y-85563268D01*
X86806462Y-85441212D01*
X86928517Y-85341044D01*
X87021351Y-85291423D01*
X87067767Y-85266613D01*
X87118134Y-85251335D01*
X87218865Y-85220778D01*
X87376000Y-85205302D01*
X87533134Y-85220778D01*
X87533134Y-85220778D01*
G37*
G36*
X84993134Y-85220778D02*
X85093865Y-85251335D01*
X85144232Y-85266613D01*
X85190648Y-85291423D01*
X85283482Y-85341044D01*
X85405538Y-85441212D01*
X85505706Y-85563267D01*
X85555327Y-85656101D01*
X85580137Y-85702517D01*
X85595415Y-85752884D01*
X85625972Y-85853615D01*
X85637570Y-85971375D01*
X85637570Y-86748625D01*
X85625972Y-86866385D01*
X85595415Y-86967116D01*
X85580137Y-87017483D01*
X85555327Y-87063899D01*
X85505706Y-87156733D01*
X85405538Y-87278788D01*
X85283483Y-87378956D01*
X85190649Y-87428577D01*
X85144233Y-87453387D01*
X85093866Y-87468665D01*
X84993135Y-87499222D01*
X84836000Y-87514698D01*
X84678866Y-87499222D01*
X84578135Y-87468665D01*
X84527768Y-87453387D01*
X84481352Y-87428577D01*
X84388518Y-87378956D01*
X84266463Y-87278788D01*
X84166295Y-87156733D01*
X84091864Y-87017482D01*
X84046028Y-86866385D01*
X84034430Y-86748625D01*
X84034430Y-85971376D01*
X84046028Y-85853616D01*
X84091863Y-85702519D01*
X84091863Y-85702518D01*
X84116673Y-85656102D01*
X84166294Y-85563268D01*
X84266462Y-85441212D01*
X84388517Y-85341044D01*
X84481351Y-85291423D01*
X84527767Y-85266613D01*
X84578134Y-85251335D01*
X84678865Y-85220778D01*
X84836000Y-85205302D01*
X84993134Y-85220778D01*
X84993134Y-85220778D01*
G37*
G36*
X82453134Y-85220778D02*
X82553865Y-85251335D01*
X82604232Y-85266613D01*
X82650648Y-85291423D01*
X82743482Y-85341044D01*
X82865538Y-85441212D01*
X82965706Y-85563267D01*
X83015327Y-85656101D01*
X83040137Y-85702517D01*
X83055415Y-85752884D01*
X83085972Y-85853615D01*
X83097570Y-85971375D01*
X83097570Y-86748625D01*
X83085972Y-86866385D01*
X83055415Y-86967116D01*
X83040137Y-87017483D01*
X83015327Y-87063899D01*
X82965706Y-87156733D01*
X82865538Y-87278788D01*
X82743483Y-87378956D01*
X82650649Y-87428577D01*
X82604233Y-87453387D01*
X82553866Y-87468665D01*
X82453135Y-87499222D01*
X82296000Y-87514698D01*
X82138866Y-87499222D01*
X82038135Y-87468665D01*
X81987768Y-87453387D01*
X81941352Y-87428577D01*
X81848518Y-87378956D01*
X81726463Y-87278788D01*
X81626295Y-87156733D01*
X81551864Y-87017482D01*
X81506028Y-86866385D01*
X81494430Y-86748625D01*
X81494430Y-85971376D01*
X81506028Y-85853616D01*
X81551863Y-85702519D01*
X81551863Y-85702518D01*
X81576673Y-85656102D01*
X81626294Y-85563268D01*
X81726462Y-85441212D01*
X81848517Y-85341044D01*
X81941351Y-85291423D01*
X81987767Y-85266613D01*
X82038134Y-85251335D01*
X82138865Y-85220778D01*
X82296000Y-85205302D01*
X82453134Y-85220778D01*
X82453134Y-85220778D01*
G37*
G36*
X79913134Y-85220778D02*
X80013865Y-85251335D01*
X80064232Y-85266613D01*
X80110648Y-85291423D01*
X80203482Y-85341044D01*
X80325538Y-85441212D01*
X80425706Y-85563267D01*
X80475327Y-85656101D01*
X80500137Y-85702517D01*
X80515415Y-85752884D01*
X80545972Y-85853615D01*
X80557570Y-85971375D01*
X80557570Y-86748625D01*
X80545972Y-86866385D01*
X80515415Y-86967116D01*
X80500137Y-87017483D01*
X80475327Y-87063899D01*
X80425706Y-87156733D01*
X80325538Y-87278788D01*
X80203483Y-87378956D01*
X80110649Y-87428577D01*
X80064233Y-87453387D01*
X80013866Y-87468665D01*
X79913135Y-87499222D01*
X79756000Y-87514698D01*
X79598866Y-87499222D01*
X79498135Y-87468665D01*
X79447768Y-87453387D01*
X79401352Y-87428577D01*
X79308518Y-87378956D01*
X79186463Y-87278788D01*
X79086295Y-87156733D01*
X79011864Y-87017482D01*
X78966028Y-86866385D01*
X78954430Y-86748625D01*
X78954430Y-85971376D01*
X78966028Y-85853616D01*
X79011863Y-85702519D01*
X79011863Y-85702518D01*
X79036673Y-85656102D01*
X79086294Y-85563268D01*
X79186462Y-85441212D01*
X79308517Y-85341044D01*
X79401351Y-85291423D01*
X79447767Y-85266613D01*
X79498134Y-85251335D01*
X79598865Y-85220778D01*
X79756000Y-85205302D01*
X79913134Y-85220778D01*
X79913134Y-85220778D01*
G37*
G36*
X77373134Y-85220778D02*
X77473865Y-85251335D01*
X77524232Y-85266613D01*
X77570648Y-85291423D01*
X77663482Y-85341044D01*
X77785538Y-85441212D01*
X77885706Y-85563267D01*
X77935327Y-85656101D01*
X77960137Y-85702517D01*
X77975415Y-85752884D01*
X78005972Y-85853615D01*
X78017570Y-85971375D01*
X78017570Y-86748625D01*
X78005972Y-86866385D01*
X77975415Y-86967116D01*
X77960137Y-87017483D01*
X77935327Y-87063899D01*
X77885706Y-87156733D01*
X77785538Y-87278788D01*
X77663483Y-87378956D01*
X77570649Y-87428577D01*
X77524233Y-87453387D01*
X77473866Y-87468665D01*
X77373135Y-87499222D01*
X77216000Y-87514698D01*
X77058866Y-87499222D01*
X76958135Y-87468665D01*
X76907768Y-87453387D01*
X76861352Y-87428577D01*
X76768518Y-87378956D01*
X76646463Y-87278788D01*
X76546295Y-87156733D01*
X76471864Y-87017482D01*
X76426028Y-86866385D01*
X76414430Y-86748625D01*
X76414430Y-85971376D01*
X76426028Y-85853616D01*
X76471863Y-85702519D01*
X76471863Y-85702518D01*
X76496673Y-85656102D01*
X76546294Y-85563268D01*
X76646462Y-85441212D01*
X76768517Y-85341044D01*
X76861351Y-85291423D01*
X76907767Y-85266613D01*
X76958134Y-85251335D01*
X77058865Y-85220778D01*
X77216000Y-85205302D01*
X77373134Y-85220778D01*
X77373134Y-85220778D01*
G37*
G36*
X98408442Y-84449518D02*
X98474627Y-84456037D01*
X98587853Y-84490384D01*
X98644467Y-84507557D01*
X98783087Y-84581652D01*
X98800991Y-84591222D01*
X98836729Y-84620552D01*
X98938186Y-84703814D01*
X99021448Y-84805271D01*
X99050778Y-84841009D01*
X99050779Y-84841011D01*
X99134443Y-84997533D01*
X99134443Y-84997534D01*
X99185963Y-85167373D01*
X99203359Y-85344000D01*
X99185963Y-85520627D01*
X99173027Y-85563270D01*
X99134443Y-85690467D01*
X99060348Y-85829087D01*
X99050778Y-85846991D01*
X99045340Y-85853617D01*
X98938186Y-85984186D01*
X98836729Y-86067448D01*
X98800991Y-86096778D01*
X98800989Y-86096779D01*
X98644467Y-86180443D01*
X98587853Y-86197616D01*
X98474627Y-86231963D01*
X98408442Y-86238482D01*
X98342260Y-86245000D01*
X98253740Y-86245000D01*
X98187558Y-86238482D01*
X98121373Y-86231963D01*
X98008147Y-86197616D01*
X97951533Y-86180443D01*
X97795011Y-86096779D01*
X97795009Y-86096778D01*
X97759271Y-86067448D01*
X97657814Y-85984186D01*
X97550660Y-85853617D01*
X97545222Y-85846991D01*
X97535652Y-85829087D01*
X97461557Y-85690467D01*
X97422973Y-85563270D01*
X97410037Y-85520627D01*
X97392641Y-85344000D01*
X97410037Y-85167373D01*
X97461557Y-84997534D01*
X97461557Y-84997533D01*
X97545221Y-84841011D01*
X97545222Y-84841009D01*
X97574552Y-84805271D01*
X97657814Y-84703814D01*
X97759271Y-84620552D01*
X97795009Y-84591222D01*
X97812913Y-84581652D01*
X97951533Y-84507557D01*
X98008147Y-84490384D01*
X98121373Y-84456037D01*
X98187558Y-84449518D01*
X98253740Y-84443000D01*
X98342260Y-84443000D01*
X98408442Y-84449518D01*
X98408442Y-84449518D01*
G37*
G36*
X96659000Y-86245000D02*
X94857000Y-86245000D01*
X94857000Y-84443000D01*
X96659000Y-84443000D01*
X96659000Y-86245000D01*
X96659000Y-86245000D01*
G37*
G36*
X100948442Y-84449518D02*
X101014627Y-84456037D01*
X101127853Y-84490384D01*
X101184467Y-84507557D01*
X101323087Y-84581652D01*
X101340991Y-84591222D01*
X101376729Y-84620552D01*
X101478186Y-84703814D01*
X101561448Y-84805271D01*
X101590778Y-84841009D01*
X101590779Y-84841011D01*
X101674443Y-84997533D01*
X101674443Y-84997534D01*
X101725963Y-85167373D01*
X101743359Y-85344000D01*
X101725963Y-85520627D01*
X101713027Y-85563270D01*
X101674443Y-85690467D01*
X101600348Y-85829087D01*
X101590778Y-85846991D01*
X101585340Y-85853617D01*
X101478186Y-85984186D01*
X101376729Y-86067448D01*
X101340991Y-86096778D01*
X101340989Y-86096779D01*
X101184467Y-86180443D01*
X101127853Y-86197616D01*
X101014627Y-86231963D01*
X100948442Y-86238482D01*
X100882260Y-86245000D01*
X100793740Y-86245000D01*
X100727558Y-86238482D01*
X100661373Y-86231963D01*
X100548147Y-86197616D01*
X100491533Y-86180443D01*
X100335011Y-86096779D01*
X100335009Y-86096778D01*
X100299271Y-86067448D01*
X100197814Y-85984186D01*
X100090660Y-85853617D01*
X100085222Y-85846991D01*
X100075652Y-85829087D01*
X100001557Y-85690467D01*
X99962973Y-85563270D01*
X99950037Y-85520627D01*
X99932641Y-85344000D01*
X99950037Y-85167373D01*
X100001557Y-84997534D01*
X100001557Y-84997533D01*
X100085221Y-84841011D01*
X100085222Y-84841009D01*
X100114552Y-84805271D01*
X100197814Y-84703814D01*
X100299271Y-84620552D01*
X100335009Y-84591222D01*
X100352913Y-84581652D01*
X100491533Y-84507557D01*
X100548147Y-84490384D01*
X100661373Y-84456037D01*
X100727558Y-84449518D01*
X100793740Y-84443000D01*
X100882260Y-84443000D01*
X100948442Y-84449518D01*
X100948442Y-84449518D01*
G37*
G36*
X107327000Y-86245000D02*
X105525000Y-86245000D01*
X105525000Y-84443000D01*
X107327000Y-84443000D01*
X107327000Y-86245000D01*
X107327000Y-86245000D01*
G37*
G36*
X109076442Y-84449518D02*
X109142627Y-84456037D01*
X109255853Y-84490384D01*
X109312467Y-84507557D01*
X109451087Y-84581652D01*
X109468991Y-84591222D01*
X109504729Y-84620552D01*
X109606186Y-84703814D01*
X109689448Y-84805271D01*
X109718778Y-84841009D01*
X109718779Y-84841011D01*
X109802443Y-84997533D01*
X109802443Y-84997534D01*
X109853963Y-85167373D01*
X109871359Y-85344000D01*
X109853963Y-85520627D01*
X109841027Y-85563270D01*
X109802443Y-85690467D01*
X109728348Y-85829087D01*
X109718778Y-85846991D01*
X109713340Y-85853617D01*
X109606186Y-85984186D01*
X109504729Y-86067448D01*
X109468991Y-86096778D01*
X109468989Y-86096779D01*
X109312467Y-86180443D01*
X109255853Y-86197616D01*
X109142627Y-86231963D01*
X109076442Y-86238482D01*
X109010260Y-86245000D01*
X108921740Y-86245000D01*
X108855558Y-86238482D01*
X108789373Y-86231963D01*
X108676147Y-86197616D01*
X108619533Y-86180443D01*
X108463011Y-86096779D01*
X108463009Y-86096778D01*
X108427271Y-86067448D01*
X108325814Y-85984186D01*
X108218660Y-85853617D01*
X108213222Y-85846991D01*
X108203652Y-85829087D01*
X108129557Y-85690467D01*
X108090973Y-85563270D01*
X108078037Y-85520627D01*
X108060641Y-85344000D01*
X108078037Y-85167373D01*
X108129557Y-84997534D01*
X108129557Y-84997533D01*
X108213221Y-84841011D01*
X108213222Y-84841009D01*
X108242552Y-84805271D01*
X108325814Y-84703814D01*
X108427271Y-84620552D01*
X108463009Y-84591222D01*
X108480913Y-84581652D01*
X108619533Y-84507557D01*
X108676147Y-84490384D01*
X108789373Y-84456037D01*
X108855558Y-84449518D01*
X108921740Y-84443000D01*
X109010260Y-84443000D01*
X109076442Y-84449518D01*
X109076442Y-84449518D01*
G37*
G36*
X111616442Y-84449518D02*
X111682627Y-84456037D01*
X111795853Y-84490384D01*
X111852467Y-84507557D01*
X111991087Y-84581652D01*
X112008991Y-84591222D01*
X112044729Y-84620552D01*
X112146186Y-84703814D01*
X112229448Y-84805271D01*
X112258778Y-84841009D01*
X112258779Y-84841011D01*
X112342443Y-84997533D01*
X112342443Y-84997534D01*
X112393963Y-85167373D01*
X112411359Y-85344000D01*
X112393963Y-85520627D01*
X112381027Y-85563270D01*
X112342443Y-85690467D01*
X112268348Y-85829087D01*
X112258778Y-85846991D01*
X112253340Y-85853617D01*
X112146186Y-85984186D01*
X112044729Y-86067448D01*
X112008991Y-86096778D01*
X112008989Y-86096779D01*
X111852467Y-86180443D01*
X111795853Y-86197616D01*
X111682627Y-86231963D01*
X111616442Y-86238482D01*
X111550260Y-86245000D01*
X111461740Y-86245000D01*
X111395558Y-86238482D01*
X111329373Y-86231963D01*
X111216147Y-86197616D01*
X111159533Y-86180443D01*
X111003011Y-86096779D01*
X111003009Y-86096778D01*
X110967271Y-86067448D01*
X110865814Y-85984186D01*
X110758660Y-85853617D01*
X110753222Y-85846991D01*
X110743652Y-85829087D01*
X110669557Y-85690467D01*
X110630973Y-85563270D01*
X110618037Y-85520627D01*
X110600641Y-85344000D01*
X110618037Y-85167373D01*
X110669557Y-84997534D01*
X110669557Y-84997533D01*
X110753221Y-84841011D01*
X110753222Y-84841009D01*
X110782552Y-84805271D01*
X110865814Y-84703814D01*
X110967271Y-84620552D01*
X111003009Y-84591222D01*
X111020913Y-84581652D01*
X111159533Y-84507557D01*
X111216147Y-84490384D01*
X111329373Y-84456037D01*
X111395558Y-84449518D01*
X111461740Y-84443000D01*
X111550260Y-84443000D01*
X111616442Y-84449518D01*
X111616442Y-84449518D01*
G37*
G36*
X111246228Y-81429703D02*
X111401100Y-81493853D01*
X111540481Y-81586985D01*
X111659015Y-81705519D01*
X111752147Y-81844900D01*
X111816297Y-81999772D01*
X111849000Y-82164184D01*
X111849000Y-82331816D01*
X111816297Y-82496228D01*
X111752147Y-82651100D01*
X111659015Y-82790481D01*
X111540481Y-82909015D01*
X111401100Y-83002147D01*
X111246228Y-83066297D01*
X111081816Y-83099000D01*
X110914184Y-83099000D01*
X110749772Y-83066297D01*
X110594900Y-83002147D01*
X110455519Y-82909015D01*
X110336985Y-82790481D01*
X110243853Y-82651100D01*
X110179703Y-82496228D01*
X110147000Y-82331816D01*
X110147000Y-82164184D01*
X110179703Y-81999772D01*
X110243853Y-81844900D01*
X110336985Y-81705519D01*
X110455519Y-81586985D01*
X110594900Y-81493853D01*
X110749772Y-81429703D01*
X110914184Y-81397000D01*
X111081816Y-81397000D01*
X111246228Y-81429703D01*
X111246228Y-81429703D01*
G37*
G36*
X106674228Y-81397703D02*
X106829100Y-81461853D01*
X106968481Y-81554985D01*
X107087015Y-81673519D01*
X107180147Y-81812900D01*
X107244297Y-81967772D01*
X107277000Y-82132184D01*
X107277000Y-82299816D01*
X107244297Y-82464228D01*
X107180147Y-82619100D01*
X107087015Y-82758481D01*
X106968481Y-82877015D01*
X106829100Y-82970147D01*
X106674228Y-83034297D01*
X106509816Y-83067000D01*
X106342184Y-83067000D01*
X106177772Y-83034297D01*
X106022900Y-82970147D01*
X105883519Y-82877015D01*
X105764985Y-82758481D01*
X105671853Y-82619100D01*
X105607703Y-82464228D01*
X105575000Y-82299816D01*
X105575000Y-82132184D01*
X105607703Y-81967772D01*
X105671853Y-81812900D01*
X105764985Y-81673519D01*
X105883519Y-81554985D01*
X106022900Y-81461853D01*
X106177772Y-81397703D01*
X106342184Y-81365000D01*
X106509816Y-81365000D01*
X106674228Y-81397703D01*
X106674228Y-81397703D01*
G37*
G36*
X98408442Y-79623518D02*
X98474627Y-79630037D01*
X98587853Y-79664384D01*
X98644467Y-79681557D01*
X98783087Y-79755652D01*
X98800991Y-79765222D01*
X98831769Y-79790481D01*
X98938186Y-79877814D01*
X99021448Y-79979271D01*
X99050778Y-80015009D01*
X99050779Y-80015011D01*
X99134443Y-80171533D01*
X99134443Y-80171534D01*
X99185963Y-80341373D01*
X99203359Y-80518000D01*
X99185963Y-80694627D01*
X99151616Y-80807853D01*
X99134443Y-80864467D01*
X99113213Y-80904185D01*
X99050778Y-81020991D01*
X99021448Y-81056729D01*
X98938186Y-81158186D01*
X98836729Y-81241448D01*
X98800991Y-81270778D01*
X98800989Y-81270779D01*
X98644467Y-81354443D01*
X98587853Y-81371616D01*
X98474627Y-81405963D01*
X98408442Y-81412482D01*
X98342260Y-81419000D01*
X98253740Y-81419000D01*
X98187558Y-81412482D01*
X98121373Y-81405963D01*
X98008147Y-81371616D01*
X97951533Y-81354443D01*
X97795011Y-81270779D01*
X97795009Y-81270778D01*
X97759271Y-81241448D01*
X97657814Y-81158186D01*
X97574552Y-81056729D01*
X97545222Y-81020991D01*
X97482787Y-80904185D01*
X97461557Y-80864467D01*
X97444384Y-80807853D01*
X97410037Y-80694627D01*
X97392641Y-80518000D01*
X97410037Y-80341373D01*
X97461557Y-80171534D01*
X97461557Y-80171533D01*
X97545221Y-80015011D01*
X97545222Y-80015009D01*
X97574552Y-79979271D01*
X97657814Y-79877814D01*
X97764231Y-79790481D01*
X97795009Y-79765222D01*
X97812913Y-79755652D01*
X97951533Y-79681557D01*
X98008147Y-79664384D01*
X98121373Y-79630037D01*
X98187558Y-79623518D01*
X98253740Y-79617000D01*
X98342260Y-79617000D01*
X98408442Y-79623518D01*
X98408442Y-79623518D01*
G37*
G36*
X100948442Y-79623518D02*
X101014627Y-79630037D01*
X101127853Y-79664384D01*
X101184467Y-79681557D01*
X101323087Y-79755652D01*
X101340991Y-79765222D01*
X101371769Y-79790481D01*
X101478186Y-79877814D01*
X101561448Y-79979271D01*
X101590778Y-80015009D01*
X101590779Y-80015011D01*
X101674443Y-80171533D01*
X101674443Y-80171534D01*
X101725963Y-80341373D01*
X101743359Y-80518000D01*
X101725963Y-80694627D01*
X101691616Y-80807853D01*
X101674443Y-80864467D01*
X101653213Y-80904185D01*
X101590778Y-81020991D01*
X101561448Y-81056729D01*
X101478186Y-81158186D01*
X101376729Y-81241448D01*
X101340991Y-81270778D01*
X101340989Y-81270779D01*
X101184467Y-81354443D01*
X101127853Y-81371616D01*
X101014627Y-81405963D01*
X100948442Y-81412482D01*
X100882260Y-81419000D01*
X100793740Y-81419000D01*
X100727558Y-81412482D01*
X100661373Y-81405963D01*
X100548147Y-81371616D01*
X100491533Y-81354443D01*
X100335011Y-81270779D01*
X100335009Y-81270778D01*
X100299271Y-81241448D01*
X100197814Y-81158186D01*
X100114552Y-81056729D01*
X100085222Y-81020991D01*
X100022787Y-80904185D01*
X100001557Y-80864467D01*
X99984384Y-80807853D01*
X99950037Y-80694627D01*
X99932641Y-80518000D01*
X99950037Y-80341373D01*
X100001557Y-80171534D01*
X100001557Y-80171533D01*
X100085221Y-80015011D01*
X100085222Y-80015009D01*
X100114552Y-79979271D01*
X100197814Y-79877814D01*
X100304231Y-79790481D01*
X100335009Y-79765222D01*
X100352913Y-79755652D01*
X100491533Y-79681557D01*
X100548147Y-79664384D01*
X100661373Y-79630037D01*
X100727558Y-79623518D01*
X100793740Y-79617000D01*
X100882260Y-79617000D01*
X100948442Y-79623518D01*
X100948442Y-79623518D01*
G37*
G36*
X96659000Y-81419000D02*
X94857000Y-81419000D01*
X94857000Y-79617000D01*
X96659000Y-79617000D01*
X96659000Y-81419000D01*
X96659000Y-81419000D01*
G37*
G36*
X60562442Y-79369518D02*
X60628627Y-79376037D01*
X60739619Y-79409706D01*
X60798467Y-79427557D01*
X60904319Y-79484137D01*
X60954991Y-79511222D01*
X60990729Y-79540552D01*
X61092186Y-79623814D01*
X61175448Y-79725271D01*
X61204778Y-79761009D01*
X61204779Y-79761011D01*
X61288443Y-79917533D01*
X61288443Y-79917534D01*
X61339963Y-80087373D01*
X61357359Y-80264000D01*
X61339963Y-80440627D01*
X61316492Y-80518000D01*
X61288443Y-80610467D01*
X61243459Y-80694625D01*
X61204778Y-80766991D01*
X61175448Y-80802729D01*
X61092186Y-80904186D01*
X60990729Y-80987448D01*
X60954991Y-81016778D01*
X60954989Y-81016779D01*
X60798467Y-81100443D01*
X60741853Y-81117616D01*
X60628627Y-81151963D01*
X60565453Y-81158185D01*
X60496260Y-81165000D01*
X60407740Y-81165000D01*
X60338547Y-81158185D01*
X60275373Y-81151963D01*
X60162147Y-81117616D01*
X60105533Y-81100443D01*
X59949011Y-81016779D01*
X59949009Y-81016778D01*
X59913271Y-80987448D01*
X59811814Y-80904186D01*
X59728552Y-80802729D01*
X59699222Y-80766991D01*
X59660541Y-80694625D01*
X59615557Y-80610467D01*
X59587508Y-80518000D01*
X59564037Y-80440627D01*
X59546641Y-80264000D01*
X59564037Y-80087373D01*
X59615557Y-79917534D01*
X59615557Y-79917533D01*
X59699221Y-79761011D01*
X59699222Y-79761009D01*
X59728552Y-79725271D01*
X59811814Y-79623814D01*
X59913271Y-79540552D01*
X59949009Y-79511222D01*
X59999681Y-79484137D01*
X60105533Y-79427557D01*
X60164381Y-79409706D01*
X60275373Y-79376037D01*
X60341558Y-79369518D01*
X60407740Y-79363000D01*
X60496260Y-79363000D01*
X60562442Y-79369518D01*
X60562442Y-79369518D01*
G37*
G36*
X111246228Y-78429703D02*
X111401100Y-78493853D01*
X111540481Y-78586985D01*
X111659015Y-78705519D01*
X111752147Y-78844900D01*
X111816297Y-78999772D01*
X111849000Y-79164184D01*
X111849000Y-79331816D01*
X111816297Y-79496228D01*
X111752147Y-79651100D01*
X111659015Y-79790481D01*
X111540481Y-79909015D01*
X111401100Y-80002147D01*
X111246228Y-80066297D01*
X111081816Y-80099000D01*
X110914184Y-80099000D01*
X110749772Y-80066297D01*
X110594900Y-80002147D01*
X110455519Y-79909015D01*
X110336985Y-79790481D01*
X110243853Y-79651100D01*
X110179703Y-79496228D01*
X110147000Y-79331816D01*
X110147000Y-79164184D01*
X110179703Y-78999772D01*
X110243853Y-78844900D01*
X110336985Y-78705519D01*
X110455519Y-78586985D01*
X110594900Y-78493853D01*
X110749772Y-78429703D01*
X110914184Y-78397000D01*
X111081816Y-78397000D01*
X111246228Y-78429703D01*
X111246228Y-78429703D01*
G37*
G36*
X90343878Y-77942296D02*
X90422385Y-77950028D01*
X90523116Y-77980585D01*
X90573483Y-77995863D01*
X90619899Y-78020673D01*
X90712733Y-78070294D01*
X90834788Y-78170462D01*
X90934956Y-78292517D01*
X90984577Y-78385351D01*
X91009387Y-78431767D01*
X91009387Y-78431768D01*
X91055222Y-78582865D01*
X91070698Y-78740000D01*
X91055222Y-78897135D01*
X91024665Y-78997866D01*
X91009387Y-79048233D01*
X90984577Y-79094649D01*
X90934956Y-79187483D01*
X90834788Y-79309538D01*
X90712733Y-79409706D01*
X90619899Y-79459327D01*
X90573483Y-79484137D01*
X90533624Y-79496228D01*
X90422385Y-79529972D01*
X90343878Y-79537704D01*
X90304626Y-79541570D01*
X89527374Y-79541570D01*
X89488122Y-79537704D01*
X89409615Y-79529972D01*
X89298376Y-79496228D01*
X89258517Y-79484137D01*
X89212101Y-79459327D01*
X89119267Y-79409706D01*
X88997212Y-79309538D01*
X88897044Y-79187483D01*
X88847423Y-79094649D01*
X88822613Y-79048233D01*
X88807335Y-78997866D01*
X88776778Y-78897135D01*
X88761302Y-78740000D01*
X88776778Y-78582865D01*
X88822613Y-78431768D01*
X88822613Y-78431767D01*
X88847423Y-78385351D01*
X88897044Y-78292517D01*
X88997212Y-78170462D01*
X89119267Y-78070294D01*
X89212101Y-78020673D01*
X89258517Y-77995863D01*
X89308884Y-77980585D01*
X89409615Y-77950028D01*
X89488122Y-77942296D01*
X89527374Y-77938430D01*
X90304626Y-77938430D01*
X90343878Y-77942296D01*
X90343878Y-77942296D01*
G37*
G36*
X61353000Y-78625000D02*
X59551000Y-78625000D01*
X59551000Y-76823000D01*
X61353000Y-76823000D01*
X61353000Y-78625000D01*
X61353000Y-78625000D01*
G37*
G36*
X106674228Y-76397703D02*
X106829100Y-76461853D01*
X106968481Y-76554985D01*
X107087015Y-76673519D01*
X107180147Y-76812900D01*
X107244297Y-76967772D01*
X107277000Y-77132184D01*
X107277000Y-77299816D01*
X107244297Y-77464228D01*
X107180147Y-77619100D01*
X107087015Y-77758481D01*
X106968481Y-77877015D01*
X106829100Y-77970147D01*
X106674228Y-78034297D01*
X106509816Y-78067000D01*
X106342184Y-78067000D01*
X106177772Y-78034297D01*
X106022900Y-77970147D01*
X105883519Y-77877015D01*
X105764985Y-77758481D01*
X105671853Y-77619100D01*
X105607703Y-77464228D01*
X105575000Y-77299816D01*
X105575000Y-77132184D01*
X105607703Y-76967772D01*
X105671853Y-76812900D01*
X105764985Y-76673519D01*
X105883519Y-76554985D01*
X106022900Y-76461853D01*
X106177772Y-76397703D01*
X106342184Y-76365000D01*
X106509816Y-76365000D01*
X106674228Y-76397703D01*
X106674228Y-76397703D01*
G37*
G36*
X95162821Y-75869313D02*
X95162824Y-75869314D01*
X95162825Y-75869314D01*
X95323239Y-75917975D01*
X95323241Y-75917976D01*
X95323244Y-75917977D01*
X95471078Y-75996995D01*
X95600659Y-76103341D01*
X95707005Y-76232922D01*
X95786023Y-76380756D01*
X95786024Y-76380759D01*
X95786025Y-76380761D01*
X95810624Y-76461853D01*
X95834687Y-76541179D01*
X95851117Y-76708000D01*
X95834687Y-76874821D01*
X95834686Y-76874824D01*
X95834686Y-76874825D01*
X95799757Y-76989972D01*
X95786023Y-77035244D01*
X95707005Y-77183078D01*
X95600659Y-77312659D01*
X95471078Y-77419005D01*
X95323244Y-77498023D01*
X95323241Y-77498024D01*
X95323239Y-77498025D01*
X95162825Y-77546686D01*
X95162824Y-77546686D01*
X95162821Y-77546687D01*
X95037804Y-77559000D01*
X94954196Y-77559000D01*
X94829179Y-77546687D01*
X94829176Y-77546686D01*
X94829175Y-77546686D01*
X94668761Y-77498025D01*
X94668759Y-77498024D01*
X94668756Y-77498023D01*
X94520922Y-77419005D01*
X94391341Y-77312659D01*
X94284995Y-77183078D01*
X94205977Y-77035244D01*
X94192244Y-76989972D01*
X94157314Y-76874825D01*
X94157314Y-76874824D01*
X94157313Y-76874821D01*
X94140883Y-76708000D01*
X94157313Y-76541179D01*
X94181376Y-76461853D01*
X94205975Y-76380761D01*
X94205976Y-76380759D01*
X94205977Y-76380756D01*
X94284995Y-76232922D01*
X94391341Y-76103341D01*
X94520922Y-75996995D01*
X94668756Y-75917977D01*
X94668759Y-75917976D01*
X94668761Y-75917975D01*
X94829175Y-75869314D01*
X94829176Y-75869314D01*
X94829179Y-75869313D01*
X94954196Y-75857000D01*
X95037804Y-75857000D01*
X95162821Y-75869313D01*
X95162821Y-75869313D01*
G37*
G36*
X102864228Y-75889703D02*
X103019100Y-75953853D01*
X103158481Y-76046985D01*
X103277015Y-76165519D01*
X103370147Y-76304900D01*
X103434297Y-76459772D01*
X103467000Y-76624184D01*
X103467000Y-76791816D01*
X103434297Y-76956228D01*
X103370147Y-77111100D01*
X103277015Y-77250481D01*
X103158481Y-77369015D01*
X103019100Y-77462147D01*
X102864228Y-77526297D01*
X102699816Y-77559000D01*
X102532184Y-77559000D01*
X102367772Y-77526297D01*
X102212900Y-77462147D01*
X102073519Y-77369015D01*
X101954985Y-77250481D01*
X101861853Y-77111100D01*
X101797703Y-76956228D01*
X101765000Y-76791816D01*
X101765000Y-76624184D01*
X101797703Y-76459772D01*
X101861853Y-76304900D01*
X101954985Y-76165519D01*
X102073519Y-76046985D01*
X102212900Y-75953853D01*
X102367772Y-75889703D01*
X102532184Y-75857000D01*
X102699816Y-75857000D01*
X102864228Y-75889703D01*
X102864228Y-75889703D01*
G37*
G36*
X90343878Y-75402296D02*
X90422385Y-75410028D01*
X90523116Y-75440585D01*
X90573483Y-75455863D01*
X90619899Y-75480673D01*
X90712733Y-75530294D01*
X90834788Y-75630462D01*
X90934956Y-75752517D01*
X90984577Y-75845351D01*
X91009387Y-75891767D01*
X91024665Y-75942134D01*
X91055222Y-76042865D01*
X91070698Y-76200000D01*
X91055222Y-76357135D01*
X91042915Y-76397704D01*
X91009387Y-76508233D01*
X90991779Y-76541175D01*
X90934956Y-76647483D01*
X90834788Y-76769538D01*
X90712733Y-76869706D01*
X90619899Y-76919327D01*
X90573483Y-76944137D01*
X90533624Y-76956228D01*
X90422385Y-76989972D01*
X90343878Y-76997704D01*
X90304626Y-77001570D01*
X89527374Y-77001570D01*
X89488122Y-76997704D01*
X89409615Y-76989972D01*
X89298376Y-76956228D01*
X89258517Y-76944137D01*
X89212101Y-76919327D01*
X89119267Y-76869706D01*
X88997212Y-76769538D01*
X88897044Y-76647483D01*
X88840221Y-76541175D01*
X88822613Y-76508233D01*
X88789085Y-76397704D01*
X88776778Y-76357135D01*
X88761302Y-76200000D01*
X88776778Y-76042865D01*
X88807335Y-75942134D01*
X88822613Y-75891767D01*
X88847423Y-75845351D01*
X88897044Y-75752517D01*
X88997212Y-75630462D01*
X89119267Y-75530294D01*
X89212101Y-75480673D01*
X89258517Y-75455863D01*
X89308884Y-75440585D01*
X89409615Y-75410028D01*
X89488122Y-75402296D01*
X89527374Y-75398430D01*
X90304626Y-75398430D01*
X90343878Y-75402296D01*
X90343878Y-75402296D01*
G37*
G36*
X73563134Y-72520778D02*
X73663865Y-72551335D01*
X73714232Y-72566613D01*
X73760648Y-72591423D01*
X73853482Y-72641044D01*
X73975538Y-72741212D01*
X74075706Y-72863267D01*
X74125327Y-72956101D01*
X74150137Y-73002517D01*
X74164848Y-73051014D01*
X74195972Y-73153615D01*
X74207570Y-73271375D01*
X74207570Y-74048625D01*
X74195972Y-74166385D01*
X74165415Y-74267116D01*
X74150137Y-74317483D01*
X74125327Y-74363899D01*
X74075706Y-74456733D01*
X73975538Y-74578788D01*
X73853483Y-74678956D01*
X73760649Y-74728577D01*
X73714233Y-74753387D01*
X73663866Y-74768665D01*
X73563135Y-74799222D01*
X73406000Y-74814698D01*
X73248866Y-74799222D01*
X73148135Y-74768665D01*
X73097768Y-74753387D01*
X73051352Y-74728577D01*
X72958518Y-74678956D01*
X72836463Y-74578788D01*
X72736295Y-74456733D01*
X72661864Y-74317482D01*
X72635186Y-74229538D01*
X72616028Y-74166386D01*
X72604430Y-74048626D01*
X72604430Y-73271375D01*
X72616028Y-73153618D01*
X72616028Y-73153616D01*
X72661863Y-73002519D01*
X72661863Y-73002518D01*
X72699299Y-72932481D01*
X72736294Y-72863268D01*
X72836462Y-72741212D01*
X72958517Y-72641044D01*
X73051351Y-72591423D01*
X73097767Y-72566613D01*
X73148134Y-72551335D01*
X73248865Y-72520778D01*
X73406000Y-72505302D01*
X73563134Y-72520778D01*
X73563134Y-72520778D01*
G37*
G36*
X83723134Y-72520778D02*
X83823865Y-72551335D01*
X83874232Y-72566613D01*
X83920648Y-72591423D01*
X84013482Y-72641044D01*
X84135538Y-72741212D01*
X84235706Y-72863267D01*
X84285327Y-72956101D01*
X84310137Y-73002517D01*
X84324848Y-73051014D01*
X84355972Y-73153615D01*
X84367570Y-73271375D01*
X84367570Y-74048625D01*
X84355972Y-74166385D01*
X84325415Y-74267116D01*
X84310137Y-74317483D01*
X84285327Y-74363899D01*
X84235706Y-74456733D01*
X84135538Y-74578788D01*
X84013483Y-74678956D01*
X83920649Y-74728577D01*
X83874233Y-74753387D01*
X83823866Y-74768665D01*
X83723135Y-74799222D01*
X83566000Y-74814698D01*
X83408866Y-74799222D01*
X83308135Y-74768665D01*
X83257768Y-74753387D01*
X83211352Y-74728577D01*
X83118518Y-74678956D01*
X82996463Y-74578788D01*
X82896295Y-74456733D01*
X82821864Y-74317482D01*
X82795186Y-74229538D01*
X82776028Y-74166386D01*
X82764430Y-74048626D01*
X82764430Y-73271375D01*
X82776028Y-73153618D01*
X82776028Y-73153616D01*
X82821863Y-73002519D01*
X82821863Y-73002518D01*
X82859299Y-72932481D01*
X82896294Y-72863268D01*
X82996462Y-72741212D01*
X83118517Y-72641044D01*
X83211351Y-72591423D01*
X83257767Y-72566613D01*
X83308134Y-72551335D01*
X83408865Y-72520778D01*
X83566000Y-72505302D01*
X83723134Y-72520778D01*
X83723134Y-72520778D01*
G37*
G36*
X81183134Y-72520778D02*
X81283865Y-72551335D01*
X81334232Y-72566613D01*
X81380648Y-72591423D01*
X81473482Y-72641044D01*
X81595538Y-72741212D01*
X81695706Y-72863267D01*
X81745327Y-72956101D01*
X81770137Y-73002517D01*
X81784848Y-73051014D01*
X81815972Y-73153615D01*
X81827570Y-73271375D01*
X81827570Y-74048625D01*
X81815972Y-74166385D01*
X81785415Y-74267116D01*
X81770137Y-74317483D01*
X81745327Y-74363899D01*
X81695706Y-74456733D01*
X81595538Y-74578788D01*
X81473483Y-74678956D01*
X81380649Y-74728577D01*
X81334233Y-74753387D01*
X81283866Y-74768665D01*
X81183135Y-74799222D01*
X81026000Y-74814698D01*
X80868866Y-74799222D01*
X80768135Y-74768665D01*
X80717768Y-74753387D01*
X80671352Y-74728577D01*
X80578518Y-74678956D01*
X80456463Y-74578788D01*
X80356295Y-74456733D01*
X80281864Y-74317482D01*
X80255186Y-74229538D01*
X80236028Y-74166386D01*
X80224430Y-74048626D01*
X80224430Y-73271375D01*
X80236028Y-73153618D01*
X80236028Y-73153616D01*
X80281863Y-73002519D01*
X80281863Y-73002518D01*
X80319299Y-72932481D01*
X80356294Y-72863268D01*
X80456462Y-72741212D01*
X80578517Y-72641044D01*
X80671351Y-72591423D01*
X80717767Y-72566613D01*
X80768134Y-72551335D01*
X80868865Y-72520778D01*
X81026000Y-72505302D01*
X81183134Y-72520778D01*
X81183134Y-72520778D01*
G37*
G36*
X71023134Y-72520778D02*
X71123865Y-72551335D01*
X71174232Y-72566613D01*
X71220648Y-72591423D01*
X71313482Y-72641044D01*
X71435538Y-72741212D01*
X71535706Y-72863267D01*
X71585327Y-72956101D01*
X71610137Y-73002517D01*
X71624848Y-73051014D01*
X71655972Y-73153615D01*
X71667570Y-73271375D01*
X71667570Y-74048625D01*
X71655972Y-74166385D01*
X71625415Y-74267116D01*
X71610137Y-74317483D01*
X71585327Y-74363899D01*
X71535706Y-74456733D01*
X71435538Y-74578788D01*
X71313483Y-74678956D01*
X71220649Y-74728577D01*
X71174233Y-74753387D01*
X71123866Y-74768665D01*
X71023135Y-74799222D01*
X70866000Y-74814698D01*
X70708866Y-74799222D01*
X70608135Y-74768665D01*
X70557768Y-74753387D01*
X70511352Y-74728577D01*
X70418518Y-74678956D01*
X70296463Y-74578788D01*
X70196295Y-74456733D01*
X70121864Y-74317482D01*
X70095186Y-74229538D01*
X70076028Y-74166386D01*
X70064430Y-74048626D01*
X70064430Y-73271375D01*
X70076028Y-73153618D01*
X70076028Y-73153616D01*
X70121863Y-73002519D01*
X70121863Y-73002518D01*
X70159299Y-72932481D01*
X70196294Y-72863268D01*
X70296462Y-72741212D01*
X70418517Y-72641044D01*
X70511351Y-72591423D01*
X70557767Y-72566613D01*
X70608134Y-72551335D01*
X70708865Y-72520778D01*
X70866000Y-72505302D01*
X71023134Y-72520778D01*
X71023134Y-72520778D01*
G37*
G36*
X90343878Y-72862296D02*
X90422385Y-72870028D01*
X90523116Y-72900585D01*
X90573483Y-72915863D01*
X90619899Y-72940673D01*
X90712733Y-72990294D01*
X90834788Y-73090462D01*
X90934956Y-73212517D01*
X90976906Y-73291000D01*
X91009387Y-73351767D01*
X91009387Y-73351768D01*
X91055222Y-73502865D01*
X91070698Y-73660000D01*
X91055222Y-73817135D01*
X91024665Y-73917866D01*
X91009387Y-73968233D01*
X90984577Y-74014649D01*
X90934956Y-74107483D01*
X90834788Y-74229538D01*
X90712733Y-74329706D01*
X90619899Y-74379327D01*
X90573483Y-74404137D01*
X90523116Y-74419415D01*
X90422385Y-74449972D01*
X90353737Y-74456733D01*
X90304626Y-74461570D01*
X89527374Y-74461570D01*
X89478263Y-74456733D01*
X89409615Y-74449972D01*
X89308884Y-74419415D01*
X89258517Y-74404137D01*
X89212101Y-74379327D01*
X89119267Y-74329706D01*
X88997212Y-74229538D01*
X88897044Y-74107483D01*
X88847423Y-74014649D01*
X88822613Y-73968233D01*
X88807335Y-73917866D01*
X88776778Y-73817135D01*
X88761302Y-73660000D01*
X88776778Y-73502865D01*
X88822613Y-73351768D01*
X88822613Y-73351767D01*
X88855094Y-73291000D01*
X88897044Y-73212517D01*
X88997212Y-73090462D01*
X89119267Y-72990294D01*
X89212101Y-72940673D01*
X89258517Y-72915863D01*
X89308884Y-72900585D01*
X89409615Y-72870028D01*
X89488122Y-72862296D01*
X89527374Y-72858430D01*
X90304626Y-72858430D01*
X90343878Y-72862296D01*
X90343878Y-72862296D01*
G37*
G36*
X112153000Y-73291000D02*
X110351000Y-73291000D01*
X110351000Y-71489000D01*
X112153000Y-71489000D01*
X112153000Y-73291000D01*
X112153000Y-73291000D01*
G37*
G36*
X107944228Y-71571703D02*
X108099100Y-71635853D01*
X108238481Y-71728985D01*
X108357015Y-71847519D01*
X108450147Y-71986900D01*
X108514297Y-72141772D01*
X108547000Y-72306184D01*
X108547000Y-72473816D01*
X108514297Y-72638228D01*
X108450147Y-72793100D01*
X108357015Y-72932481D01*
X108238481Y-73051015D01*
X108099100Y-73144147D01*
X107944228Y-73208297D01*
X107779816Y-73241000D01*
X107612184Y-73241000D01*
X107447772Y-73208297D01*
X107292900Y-73144147D01*
X107153519Y-73051015D01*
X107034985Y-72932481D01*
X106941853Y-72793100D01*
X106877703Y-72638228D01*
X106845000Y-72473816D01*
X106845000Y-72306184D01*
X106877703Y-72141772D01*
X106941853Y-71986900D01*
X107034985Y-71847519D01*
X107153519Y-71728985D01*
X107292900Y-71635853D01*
X107447772Y-71571703D01*
X107612184Y-71539000D01*
X107779816Y-71539000D01*
X107944228Y-71571703D01*
X107944228Y-71571703D01*
G37*
G36*
X74833134Y-69980778D02*
X74933865Y-70011335D01*
X74984232Y-70026613D01*
X75030648Y-70051423D01*
X75123482Y-70101044D01*
X75245538Y-70201212D01*
X75345706Y-70323267D01*
X75395327Y-70416101D01*
X75420137Y-70462517D01*
X75428530Y-70490185D01*
X75465972Y-70613615D01*
X75477570Y-70731375D01*
X75477570Y-71508625D01*
X75465972Y-71626385D01*
X75435415Y-71727116D01*
X75420137Y-71777483D01*
X75395327Y-71823899D01*
X75345706Y-71916733D01*
X75245538Y-72038788D01*
X75123483Y-72138956D01*
X75030649Y-72188577D01*
X74984233Y-72213387D01*
X74933866Y-72228665D01*
X74833135Y-72259222D01*
X74676000Y-72274698D01*
X74518866Y-72259222D01*
X74418135Y-72228665D01*
X74367768Y-72213387D01*
X74321352Y-72188577D01*
X74228518Y-72138956D01*
X74106463Y-72038788D01*
X74006295Y-71916733D01*
X73931864Y-71777482D01*
X73917153Y-71728986D01*
X73886028Y-71626386D01*
X73874430Y-71508626D01*
X73874430Y-70731375D01*
X73886028Y-70613618D01*
X73886028Y-70613616D01*
X73923470Y-70490186D01*
X73931863Y-70462518D01*
X73990407Y-70352991D01*
X74006294Y-70323268D01*
X74106462Y-70201212D01*
X74228517Y-70101044D01*
X74321351Y-70051423D01*
X74367767Y-70026613D01*
X74418134Y-70011335D01*
X74518865Y-69980778D01*
X74676000Y-69965302D01*
X74833134Y-69980778D01*
X74833134Y-69980778D01*
G37*
G36*
X82453134Y-69980778D02*
X82553865Y-70011335D01*
X82604232Y-70026613D01*
X82650648Y-70051423D01*
X82743482Y-70101044D01*
X82865538Y-70201212D01*
X82965706Y-70323267D01*
X83015327Y-70416101D01*
X83040137Y-70462517D01*
X83048530Y-70490185D01*
X83085972Y-70613615D01*
X83097570Y-70731375D01*
X83097570Y-71508625D01*
X83085972Y-71626385D01*
X83055415Y-71727116D01*
X83040137Y-71777483D01*
X83015327Y-71823899D01*
X82965706Y-71916733D01*
X82865538Y-72038788D01*
X82743483Y-72138956D01*
X82650649Y-72188577D01*
X82604233Y-72213387D01*
X82553866Y-72228665D01*
X82453135Y-72259222D01*
X82296000Y-72274698D01*
X82138866Y-72259222D01*
X82038135Y-72228665D01*
X81987768Y-72213387D01*
X81941352Y-72188577D01*
X81848518Y-72138956D01*
X81726463Y-72038788D01*
X81626295Y-71916733D01*
X81551864Y-71777482D01*
X81537153Y-71728986D01*
X81506028Y-71626386D01*
X81494430Y-71508626D01*
X81494430Y-70731375D01*
X81506028Y-70613618D01*
X81506028Y-70613616D01*
X81543470Y-70490186D01*
X81551863Y-70462518D01*
X81610407Y-70352991D01*
X81626294Y-70323268D01*
X81726462Y-70201212D01*
X81848517Y-70101044D01*
X81941351Y-70051423D01*
X81987767Y-70026613D01*
X82038134Y-70011335D01*
X82138865Y-69980778D01*
X82296000Y-69965302D01*
X82453134Y-69980778D01*
X82453134Y-69980778D01*
G37*
G36*
X84993134Y-69980778D02*
X85093865Y-70011335D01*
X85144232Y-70026613D01*
X85190648Y-70051423D01*
X85283482Y-70101044D01*
X85405538Y-70201212D01*
X85505706Y-70323267D01*
X85555327Y-70416101D01*
X85580137Y-70462517D01*
X85588530Y-70490185D01*
X85625972Y-70613615D01*
X85637570Y-70731375D01*
X85637570Y-71508625D01*
X85625972Y-71626385D01*
X85595415Y-71727116D01*
X85580137Y-71777483D01*
X85555327Y-71823899D01*
X85505706Y-71916733D01*
X85405538Y-72038788D01*
X85283483Y-72138956D01*
X85190649Y-72188577D01*
X85144233Y-72213387D01*
X85093866Y-72228665D01*
X84993135Y-72259222D01*
X84836000Y-72274698D01*
X84678866Y-72259222D01*
X84578135Y-72228665D01*
X84527768Y-72213387D01*
X84481352Y-72188577D01*
X84388518Y-72138956D01*
X84266463Y-72038788D01*
X84166295Y-71916733D01*
X84091864Y-71777482D01*
X84077153Y-71728986D01*
X84046028Y-71626386D01*
X84034430Y-71508626D01*
X84034430Y-70731375D01*
X84046028Y-70613618D01*
X84046028Y-70613616D01*
X84083470Y-70490186D01*
X84091863Y-70462518D01*
X84150407Y-70352991D01*
X84166294Y-70323268D01*
X84266462Y-70201212D01*
X84388517Y-70101044D01*
X84481351Y-70051423D01*
X84527767Y-70026613D01*
X84578134Y-70011335D01*
X84678865Y-69980778D01*
X84836000Y-69965302D01*
X84993134Y-69980778D01*
X84993134Y-69980778D01*
G37*
G36*
X87533134Y-69980778D02*
X87633865Y-70011335D01*
X87684232Y-70026613D01*
X87730648Y-70051423D01*
X87823482Y-70101044D01*
X87945538Y-70201212D01*
X88045706Y-70323267D01*
X88095327Y-70416101D01*
X88120137Y-70462517D01*
X88128530Y-70490185D01*
X88165972Y-70613615D01*
X88177570Y-70731375D01*
X88177570Y-71508625D01*
X88165972Y-71626385D01*
X88135415Y-71727116D01*
X88120137Y-71777483D01*
X88095327Y-71823899D01*
X88045706Y-71916733D01*
X87945538Y-72038788D01*
X87823483Y-72138956D01*
X87730649Y-72188577D01*
X87684233Y-72213387D01*
X87633866Y-72228665D01*
X87533135Y-72259222D01*
X87376000Y-72274698D01*
X87218866Y-72259222D01*
X87118135Y-72228665D01*
X87067768Y-72213387D01*
X87021352Y-72188577D01*
X86928518Y-72138956D01*
X86806463Y-72038788D01*
X86706295Y-71916733D01*
X86631864Y-71777482D01*
X86617153Y-71728986D01*
X86586028Y-71626386D01*
X86574430Y-71508626D01*
X86574430Y-70731375D01*
X86586028Y-70613618D01*
X86586028Y-70613616D01*
X86623470Y-70490186D01*
X86631863Y-70462518D01*
X86690407Y-70352991D01*
X86706294Y-70323268D01*
X86806462Y-70201212D01*
X86928517Y-70101044D01*
X87021351Y-70051423D01*
X87067767Y-70026613D01*
X87118134Y-70011335D01*
X87218865Y-69980778D01*
X87376000Y-69965302D01*
X87533134Y-69980778D01*
X87533134Y-69980778D01*
G37*
G36*
X90073134Y-69980778D02*
X90173865Y-70011335D01*
X90224232Y-70026613D01*
X90270648Y-70051423D01*
X90363482Y-70101044D01*
X90485538Y-70201212D01*
X90585706Y-70323267D01*
X90635327Y-70416101D01*
X90660137Y-70462517D01*
X90668530Y-70490185D01*
X90705972Y-70613615D01*
X90717570Y-70731375D01*
X90717570Y-71508625D01*
X90705972Y-71626385D01*
X90675415Y-71727116D01*
X90660137Y-71777483D01*
X90635327Y-71823899D01*
X90585706Y-71916733D01*
X90485538Y-72038788D01*
X90363483Y-72138956D01*
X90270649Y-72188577D01*
X90224233Y-72213387D01*
X90173866Y-72228665D01*
X90073135Y-72259222D01*
X89916000Y-72274698D01*
X89758866Y-72259222D01*
X89658135Y-72228665D01*
X89607768Y-72213387D01*
X89561352Y-72188577D01*
X89468518Y-72138956D01*
X89346463Y-72038788D01*
X89246295Y-71916733D01*
X89171864Y-71777482D01*
X89157153Y-71728986D01*
X89126028Y-71626386D01*
X89114430Y-71508626D01*
X89114430Y-70731375D01*
X89126028Y-70613618D01*
X89126028Y-70613616D01*
X89163470Y-70490186D01*
X89171863Y-70462518D01*
X89230407Y-70352991D01*
X89246294Y-70323268D01*
X89346462Y-70201212D01*
X89468517Y-70101044D01*
X89561351Y-70051423D01*
X89607767Y-70026613D01*
X89658134Y-70011335D01*
X89758865Y-69980778D01*
X89916000Y-69965302D01*
X90073134Y-69980778D01*
X90073134Y-69980778D01*
G37*
G36*
X79913134Y-69980778D02*
X80013865Y-70011335D01*
X80064232Y-70026613D01*
X80110648Y-70051423D01*
X80203482Y-70101044D01*
X80325538Y-70201212D01*
X80425706Y-70323267D01*
X80475327Y-70416101D01*
X80500137Y-70462517D01*
X80508530Y-70490185D01*
X80545972Y-70613615D01*
X80557570Y-70731375D01*
X80557570Y-71508625D01*
X80545972Y-71626385D01*
X80515415Y-71727116D01*
X80500137Y-71777483D01*
X80475327Y-71823899D01*
X80425706Y-71916733D01*
X80325538Y-72038788D01*
X80203483Y-72138956D01*
X80110649Y-72188577D01*
X80064233Y-72213387D01*
X80013866Y-72228665D01*
X79913135Y-72259222D01*
X79756000Y-72274698D01*
X79598866Y-72259222D01*
X79498135Y-72228665D01*
X79447768Y-72213387D01*
X79401352Y-72188577D01*
X79308518Y-72138956D01*
X79186463Y-72038788D01*
X79086295Y-71916733D01*
X79011864Y-71777482D01*
X78997153Y-71728986D01*
X78966028Y-71626386D01*
X78954430Y-71508626D01*
X78954430Y-70731375D01*
X78966028Y-70613618D01*
X78966028Y-70613616D01*
X79003470Y-70490186D01*
X79011863Y-70462518D01*
X79070407Y-70352991D01*
X79086294Y-70323268D01*
X79186462Y-70201212D01*
X79308517Y-70101044D01*
X79401351Y-70051423D01*
X79447767Y-70026613D01*
X79498134Y-70011335D01*
X79598865Y-69980778D01*
X79756000Y-69965302D01*
X79913134Y-69980778D01*
X79913134Y-69980778D01*
G37*
G36*
X69753134Y-69980778D02*
X69853865Y-70011335D01*
X69904232Y-70026613D01*
X69950648Y-70051423D01*
X70043482Y-70101044D01*
X70165538Y-70201212D01*
X70265706Y-70323267D01*
X70315327Y-70416101D01*
X70340137Y-70462517D01*
X70348530Y-70490185D01*
X70385972Y-70613615D01*
X70397570Y-70731375D01*
X70397570Y-71508625D01*
X70385972Y-71626385D01*
X70355415Y-71727116D01*
X70340137Y-71777483D01*
X70315327Y-71823899D01*
X70265706Y-71916733D01*
X70165538Y-72038788D01*
X70043483Y-72138956D01*
X69950649Y-72188577D01*
X69904233Y-72213387D01*
X69853866Y-72228665D01*
X69753135Y-72259222D01*
X69596000Y-72274698D01*
X69438866Y-72259222D01*
X69338135Y-72228665D01*
X69287768Y-72213387D01*
X69241352Y-72188577D01*
X69148518Y-72138956D01*
X69026463Y-72038788D01*
X68926295Y-71916733D01*
X68851864Y-71777482D01*
X68837153Y-71728986D01*
X68806028Y-71626386D01*
X68794430Y-71508626D01*
X68794430Y-70731375D01*
X68806028Y-70613618D01*
X68806028Y-70613616D01*
X68843470Y-70490186D01*
X68851863Y-70462518D01*
X68910407Y-70352991D01*
X68926294Y-70323268D01*
X69026462Y-70201212D01*
X69148517Y-70101044D01*
X69241351Y-70051423D01*
X69287767Y-70026613D01*
X69338134Y-70011335D01*
X69438865Y-69980778D01*
X69596000Y-69965302D01*
X69753134Y-69980778D01*
X69753134Y-69980778D01*
G37*
G36*
X72293134Y-69980778D02*
X72393865Y-70011335D01*
X72444232Y-70026613D01*
X72490648Y-70051423D01*
X72583482Y-70101044D01*
X72705538Y-70201212D01*
X72805706Y-70323267D01*
X72855327Y-70416101D01*
X72880137Y-70462517D01*
X72888530Y-70490185D01*
X72925972Y-70613615D01*
X72937570Y-70731375D01*
X72937570Y-71508625D01*
X72925972Y-71626385D01*
X72895415Y-71727116D01*
X72880137Y-71777483D01*
X72855327Y-71823899D01*
X72805706Y-71916733D01*
X72705538Y-72038788D01*
X72583483Y-72138956D01*
X72490649Y-72188577D01*
X72444233Y-72213387D01*
X72393866Y-72228665D01*
X72293135Y-72259222D01*
X72136000Y-72274698D01*
X71978866Y-72259222D01*
X71878135Y-72228665D01*
X71827768Y-72213387D01*
X71781352Y-72188577D01*
X71688518Y-72138956D01*
X71566463Y-72038788D01*
X71466295Y-71916733D01*
X71391864Y-71777482D01*
X71377153Y-71728986D01*
X71346028Y-71626386D01*
X71334430Y-71508626D01*
X71334430Y-70731375D01*
X71346028Y-70613618D01*
X71346028Y-70613616D01*
X71383470Y-70490186D01*
X71391863Y-70462518D01*
X71450407Y-70352991D01*
X71466294Y-70323268D01*
X71566462Y-70201212D01*
X71688517Y-70101044D01*
X71781351Y-70051423D01*
X71827767Y-70026613D01*
X71878134Y-70011335D01*
X71978865Y-69980778D01*
X72136000Y-69965302D01*
X72293134Y-69980778D01*
X72293134Y-69980778D01*
G37*
G36*
X77373134Y-69980778D02*
X77473865Y-70011335D01*
X77524232Y-70026613D01*
X77570648Y-70051423D01*
X77663482Y-70101044D01*
X77785538Y-70201212D01*
X77885706Y-70323267D01*
X77935327Y-70416101D01*
X77960137Y-70462517D01*
X77968530Y-70490185D01*
X78005972Y-70613615D01*
X78017570Y-70731375D01*
X78017570Y-71508625D01*
X78005972Y-71626385D01*
X77975415Y-71727116D01*
X77960137Y-71777483D01*
X77935327Y-71823899D01*
X77885706Y-71916733D01*
X77785538Y-72038788D01*
X77663483Y-72138956D01*
X77570649Y-72188577D01*
X77524233Y-72213387D01*
X77473866Y-72228665D01*
X77373135Y-72259222D01*
X77216000Y-72274698D01*
X77058866Y-72259222D01*
X76958135Y-72228665D01*
X76907768Y-72213387D01*
X76861352Y-72188577D01*
X76768518Y-72138956D01*
X76646463Y-72038788D01*
X76546295Y-71916733D01*
X76471864Y-71777482D01*
X76457153Y-71728986D01*
X76426028Y-71626386D01*
X76414430Y-71508626D01*
X76414430Y-70731375D01*
X76426028Y-70613618D01*
X76426028Y-70613616D01*
X76463470Y-70490186D01*
X76471863Y-70462518D01*
X76530407Y-70352991D01*
X76546294Y-70323268D01*
X76646462Y-70201212D01*
X76768517Y-70101044D01*
X76861351Y-70051423D01*
X76907767Y-70026613D01*
X76958134Y-70011335D01*
X77058865Y-69980778D01*
X77216000Y-69965302D01*
X77373134Y-69980778D01*
X77373134Y-69980778D01*
G37*
G36*
X62133134Y-69980778D02*
X62233865Y-70011335D01*
X62284232Y-70026613D01*
X62330648Y-70051423D01*
X62423482Y-70101044D01*
X62545538Y-70201212D01*
X62645706Y-70323267D01*
X62695327Y-70416101D01*
X62720137Y-70462517D01*
X62728530Y-70490185D01*
X62765972Y-70613615D01*
X62777570Y-70731375D01*
X62777570Y-71508625D01*
X62765972Y-71626385D01*
X62735415Y-71727116D01*
X62720137Y-71777483D01*
X62695327Y-71823899D01*
X62645706Y-71916733D01*
X62545538Y-72038788D01*
X62423483Y-72138956D01*
X62330649Y-72188577D01*
X62284233Y-72213387D01*
X62233866Y-72228665D01*
X62133135Y-72259222D01*
X61976000Y-72274698D01*
X61818866Y-72259222D01*
X61718135Y-72228665D01*
X61667768Y-72213387D01*
X61621352Y-72188577D01*
X61528518Y-72138956D01*
X61406463Y-72038788D01*
X61306295Y-71916733D01*
X61231864Y-71777482D01*
X61217153Y-71728986D01*
X61186028Y-71626386D01*
X61174430Y-71508626D01*
X61174430Y-70731375D01*
X61186028Y-70613618D01*
X61186028Y-70613616D01*
X61223470Y-70490186D01*
X61231863Y-70462518D01*
X61290407Y-70352991D01*
X61306294Y-70323268D01*
X61406462Y-70201212D01*
X61528517Y-70101044D01*
X61621351Y-70051423D01*
X61667767Y-70026613D01*
X61718134Y-70011335D01*
X61818865Y-69980778D01*
X61976000Y-69965302D01*
X62133134Y-69980778D01*
X62133134Y-69980778D01*
G37*
G36*
X67213134Y-69980778D02*
X67313865Y-70011335D01*
X67364232Y-70026613D01*
X67410648Y-70051423D01*
X67503482Y-70101044D01*
X67625538Y-70201212D01*
X67725706Y-70323267D01*
X67775327Y-70416101D01*
X67800137Y-70462517D01*
X67808530Y-70490185D01*
X67845972Y-70613615D01*
X67857570Y-70731375D01*
X67857570Y-71508625D01*
X67845972Y-71626385D01*
X67815415Y-71727116D01*
X67800137Y-71777483D01*
X67775327Y-71823899D01*
X67725706Y-71916733D01*
X67625538Y-72038788D01*
X67503483Y-72138956D01*
X67410649Y-72188577D01*
X67364233Y-72213387D01*
X67313866Y-72228665D01*
X67213135Y-72259222D01*
X67056000Y-72274698D01*
X66898866Y-72259222D01*
X66798135Y-72228665D01*
X66747768Y-72213387D01*
X66701352Y-72188577D01*
X66608518Y-72138956D01*
X66486463Y-72038788D01*
X66386295Y-71916733D01*
X66311864Y-71777482D01*
X66297153Y-71728986D01*
X66266028Y-71626386D01*
X66254430Y-71508626D01*
X66254430Y-70731375D01*
X66266028Y-70613618D01*
X66266028Y-70613616D01*
X66303470Y-70490186D01*
X66311863Y-70462518D01*
X66370407Y-70352991D01*
X66386294Y-70323268D01*
X66486462Y-70201212D01*
X66608517Y-70101044D01*
X66701351Y-70051423D01*
X66747767Y-70026613D01*
X66798134Y-70011335D01*
X66898865Y-69980778D01*
X67056000Y-69965302D01*
X67213134Y-69980778D01*
X67213134Y-69980778D01*
G37*
G36*
X64673134Y-69980778D02*
X64773865Y-70011335D01*
X64824232Y-70026613D01*
X64870648Y-70051423D01*
X64963482Y-70101044D01*
X65085538Y-70201212D01*
X65185706Y-70323267D01*
X65235327Y-70416101D01*
X65260137Y-70462517D01*
X65268530Y-70490185D01*
X65305972Y-70613615D01*
X65317570Y-70731375D01*
X65317570Y-71508625D01*
X65305972Y-71626385D01*
X65275415Y-71727116D01*
X65260137Y-71777483D01*
X65235327Y-71823899D01*
X65185706Y-71916733D01*
X65085538Y-72038788D01*
X64963483Y-72138956D01*
X64870649Y-72188577D01*
X64824233Y-72213387D01*
X64773866Y-72228665D01*
X64673135Y-72259222D01*
X64516000Y-72274698D01*
X64358866Y-72259222D01*
X64258135Y-72228665D01*
X64207768Y-72213387D01*
X64161352Y-72188577D01*
X64068518Y-72138956D01*
X63946463Y-72038788D01*
X63846295Y-71916733D01*
X63771864Y-71777482D01*
X63757153Y-71728986D01*
X63726028Y-71626386D01*
X63714430Y-71508626D01*
X63714430Y-70731375D01*
X63726028Y-70613618D01*
X63726028Y-70613616D01*
X63763470Y-70490186D01*
X63771863Y-70462518D01*
X63830407Y-70352991D01*
X63846294Y-70323268D01*
X63946462Y-70201212D01*
X64068517Y-70101044D01*
X64161351Y-70051423D01*
X64207767Y-70026613D01*
X64258134Y-70011335D01*
X64358865Y-69980778D01*
X64516000Y-69965302D01*
X64673134Y-69980778D01*
X64673134Y-69980778D01*
G37*
G36*
X111362443Y-68955519D02*
X111428627Y-68962037D01*
X111541853Y-68996384D01*
X111598467Y-69013557D01*
X111718719Y-69077834D01*
X111754991Y-69097222D01*
X111790729Y-69126552D01*
X111892186Y-69209814D01*
X111975448Y-69311271D01*
X112004778Y-69347009D01*
X112004779Y-69347011D01*
X112088443Y-69503533D01*
X112090825Y-69511385D01*
X112139963Y-69673373D01*
X112157359Y-69850000D01*
X112139963Y-70026627D01*
X112117389Y-70101044D01*
X112088443Y-70196467D01*
X112085906Y-70201213D01*
X112004778Y-70352991D01*
X111975448Y-70388729D01*
X111892186Y-70490186D01*
X111790729Y-70573448D01*
X111754991Y-70602778D01*
X111754989Y-70602779D01*
X111598467Y-70686443D01*
X111541853Y-70703616D01*
X111428627Y-70737963D01*
X111362443Y-70744481D01*
X111296260Y-70751000D01*
X111207740Y-70751000D01*
X111141557Y-70744481D01*
X111075373Y-70737963D01*
X110962147Y-70703616D01*
X110905533Y-70686443D01*
X110749011Y-70602779D01*
X110749009Y-70602778D01*
X110713271Y-70573448D01*
X110611814Y-70490186D01*
X110528552Y-70388729D01*
X110499222Y-70352991D01*
X110418094Y-70201213D01*
X110415557Y-70196467D01*
X110386611Y-70101044D01*
X110364037Y-70026627D01*
X110346641Y-69850000D01*
X110364037Y-69673373D01*
X110413175Y-69511385D01*
X110415557Y-69503533D01*
X110499221Y-69347011D01*
X110499222Y-69347009D01*
X110528552Y-69311271D01*
X110611814Y-69209814D01*
X110713271Y-69126552D01*
X110749009Y-69097222D01*
X110785281Y-69077834D01*
X110905533Y-69013557D01*
X110962147Y-68996384D01*
X111075373Y-68962037D01*
X111141557Y-68955519D01*
X111207740Y-68949000D01*
X111296260Y-68949000D01*
X111362443Y-68955519D01*
X111362443Y-68955519D01*
G37*
G36*
X97063000Y-69631000D02*
X94961000Y-69631000D01*
X94961000Y-67529000D01*
X97063000Y-67529000D01*
X97063000Y-69631000D01*
X97063000Y-69631000D01*
G37*
G36*
X103918565Y-67569389D02*
X104109834Y-67648615D01*
X104281976Y-67763637D01*
X104428363Y-67910024D01*
X104543385Y-68082166D01*
X104622611Y-68273435D01*
X104663000Y-68476484D01*
X104663000Y-68683516D01*
X104622611Y-68886565D01*
X104543385Y-69077834D01*
X104428363Y-69249976D01*
X104281976Y-69396363D01*
X104109834Y-69511385D01*
X103918565Y-69590611D01*
X103715516Y-69631000D01*
X103508484Y-69631000D01*
X103305435Y-69590611D01*
X103114166Y-69511385D01*
X102942024Y-69396363D01*
X102795637Y-69249976D01*
X102680615Y-69077834D01*
X102601389Y-68886565D01*
X102561000Y-68683516D01*
X102561000Y-68476484D01*
X102601389Y-68273435D01*
X102680615Y-68082166D01*
X102795637Y-67910024D01*
X102942024Y-67763637D01*
X103114166Y-67648615D01*
X103305435Y-67569389D01*
X103508484Y-67529000D01*
X103715516Y-67529000D01*
X103918565Y-67569389D01*
X103918565Y-67569389D01*
G37*
G36*
X90309000Y-68465000D02*
X88507000Y-68465000D01*
X88507000Y-66663000D01*
X90309000Y-66663000D01*
X90309000Y-68465000D01*
X90309000Y-68465000D01*
G37*
G36*
X111362443Y-66415519D02*
X111428627Y-66422037D01*
X111541853Y-66456384D01*
X111598467Y-66473557D01*
X111718547Y-66537742D01*
X111754991Y-66557222D01*
X111790729Y-66586552D01*
X111892186Y-66669814D01*
X111975448Y-66771271D01*
X112004778Y-66807009D01*
X112004779Y-66807011D01*
X112088443Y-66963533D01*
X112088443Y-66963534D01*
X112139963Y-67133373D01*
X112157359Y-67310000D01*
X112139963Y-67486627D01*
X112107991Y-67592025D01*
X112088443Y-67656467D01*
X112023403Y-67778146D01*
X112004778Y-67812991D01*
X111984453Y-67837757D01*
X111892186Y-67950186D01*
X111790729Y-68033448D01*
X111754991Y-68062778D01*
X111754989Y-68062779D01*
X111598467Y-68146443D01*
X111541853Y-68163616D01*
X111428627Y-68197963D01*
X111362443Y-68204481D01*
X111296260Y-68211000D01*
X111207740Y-68211000D01*
X111141557Y-68204481D01*
X111075373Y-68197963D01*
X110962147Y-68163616D01*
X110905533Y-68146443D01*
X110749011Y-68062779D01*
X110749009Y-68062778D01*
X110713271Y-68033448D01*
X110611814Y-67950186D01*
X110519547Y-67837757D01*
X110499222Y-67812991D01*
X110480597Y-67778146D01*
X110415557Y-67656467D01*
X110396009Y-67592025D01*
X110364037Y-67486627D01*
X110346641Y-67310000D01*
X110364037Y-67133373D01*
X110415557Y-66963534D01*
X110415557Y-66963533D01*
X110499221Y-66807011D01*
X110499222Y-66807009D01*
X110528552Y-66771271D01*
X110611814Y-66669814D01*
X110713271Y-66586552D01*
X110749009Y-66557222D01*
X110785453Y-66537742D01*
X110905533Y-66473557D01*
X110962147Y-66456384D01*
X111075373Y-66422037D01*
X111141557Y-66415519D01*
X111207740Y-66409000D01*
X111296260Y-66409000D01*
X111362443Y-66415519D01*
X111362443Y-66415519D01*
G37*
G36*
X81782228Y-66205703D02*
X81937100Y-66269853D01*
X82076481Y-66362985D01*
X82195015Y-66481519D01*
X82288147Y-66620900D01*
X82352297Y-66775772D01*
X82385000Y-66940184D01*
X82385000Y-67107816D01*
X82352297Y-67272228D01*
X82288147Y-67427100D01*
X82195015Y-67566481D01*
X82076481Y-67685015D01*
X81937100Y-67778147D01*
X81782228Y-67842297D01*
X81617816Y-67875000D01*
X81450184Y-67875000D01*
X81285772Y-67842297D01*
X81130900Y-67778147D01*
X80991519Y-67685015D01*
X80872985Y-67566481D01*
X80779853Y-67427100D01*
X80715703Y-67272228D01*
X80683000Y-67107816D01*
X80683000Y-66940184D01*
X80715703Y-66775772D01*
X80779853Y-66620900D01*
X80872985Y-66481519D01*
X80991519Y-66362985D01*
X81130900Y-66269853D01*
X81285772Y-66205703D01*
X81450184Y-66173000D01*
X81617816Y-66173000D01*
X81782228Y-66205703D01*
X81782228Y-66205703D01*
G37*
G36*
X77267000Y-67869000D02*
X75641000Y-67869000D01*
X75641000Y-66243000D01*
X77267000Y-66243000D01*
X77267000Y-67869000D01*
X77267000Y-67869000D01*
G37*
G36*
X74151142Y-66274242D02*
X74299102Y-66335530D01*
X74340191Y-66362985D01*
X74432257Y-66424501D01*
X74545499Y-66537743D01*
X74558514Y-66557222D01*
X74634470Y-66670898D01*
X74695758Y-66818858D01*
X74727000Y-66975925D01*
X74727000Y-67136075D01*
X74695758Y-67293142D01*
X74634470Y-67441102D01*
X74604051Y-67486627D01*
X74548752Y-67569389D01*
X74545498Y-67574258D01*
X74432258Y-67687498D01*
X74299102Y-67776470D01*
X74299101Y-67776471D01*
X74299100Y-67776471D01*
X74265583Y-67790354D01*
X74151142Y-67837758D01*
X73994075Y-67869000D01*
X73833925Y-67869000D01*
X73676858Y-67837758D01*
X73562417Y-67790354D01*
X73528900Y-67776471D01*
X73528899Y-67776471D01*
X73528898Y-67776470D01*
X73395742Y-67687498D01*
X73282502Y-67574258D01*
X73279249Y-67569389D01*
X73223949Y-67486627D01*
X73193530Y-67441102D01*
X73132242Y-67293142D01*
X73101000Y-67136075D01*
X73101000Y-66975925D01*
X73132242Y-66818858D01*
X73193530Y-66670898D01*
X73269486Y-66557222D01*
X73282501Y-66537743D01*
X73395743Y-66424501D01*
X73487809Y-66362985D01*
X73528898Y-66335530D01*
X73676858Y-66274242D01*
X73833925Y-66243000D01*
X73994075Y-66243000D01*
X74151142Y-66274242D01*
X74151142Y-66274242D01*
G37*
G36*
X67558228Y-65983703D02*
X67713100Y-66047853D01*
X67852481Y-66140985D01*
X67971015Y-66259519D01*
X68064147Y-66398900D01*
X68128297Y-66553772D01*
X68161000Y-66718184D01*
X68161000Y-66885816D01*
X68128297Y-67050228D01*
X68064147Y-67205100D01*
X67971015Y-67344481D01*
X67852481Y-67463015D01*
X67713100Y-67556147D01*
X67558228Y-67620297D01*
X67393816Y-67653000D01*
X67226184Y-67653000D01*
X67061772Y-67620297D01*
X66906900Y-67556147D01*
X66767519Y-67463015D01*
X66648985Y-67344481D01*
X66555853Y-67205100D01*
X66491703Y-67050228D01*
X66459000Y-66885816D01*
X66459000Y-66718184D01*
X66491703Y-66553772D01*
X66555853Y-66398900D01*
X66648985Y-66259519D01*
X66767519Y-66140985D01*
X66906900Y-66047853D01*
X67061772Y-65983703D01*
X67226184Y-65951000D01*
X67393816Y-65951000D01*
X67558228Y-65983703D01*
X67558228Y-65983703D01*
G37*
G36*
X59856821Y-65963313D02*
X59856824Y-65963314D01*
X59856825Y-65963314D01*
X60017239Y-66011975D01*
X60017241Y-66011976D01*
X60017244Y-66011977D01*
X60165078Y-66090995D01*
X60294659Y-66197341D01*
X60401005Y-66326922D01*
X60480023Y-66474756D01*
X60480024Y-66474759D01*
X60480025Y-66474761D01*
X60528686Y-66635175D01*
X60528687Y-66635179D01*
X60545117Y-66802000D01*
X60528687Y-66968821D01*
X60528686Y-66968824D01*
X60528686Y-66968825D01*
X60486524Y-67107816D01*
X60480023Y-67129244D01*
X60401005Y-67277078D01*
X60294659Y-67406659D01*
X60165078Y-67513005D01*
X60017244Y-67592023D01*
X60017241Y-67592024D01*
X60017239Y-67592025D01*
X59856825Y-67640686D01*
X59856824Y-67640686D01*
X59856821Y-67640687D01*
X59731804Y-67653000D01*
X59648196Y-67653000D01*
X59523179Y-67640687D01*
X59523176Y-67640686D01*
X59523175Y-67640686D01*
X59362761Y-67592025D01*
X59362759Y-67592024D01*
X59362756Y-67592023D01*
X59214922Y-67513005D01*
X59085341Y-67406659D01*
X58978995Y-67277078D01*
X58899977Y-67129244D01*
X58893477Y-67107816D01*
X58851314Y-66968825D01*
X58851314Y-66968824D01*
X58851313Y-66968821D01*
X58834883Y-66802000D01*
X58851313Y-66635179D01*
X58851314Y-66635175D01*
X58899975Y-66474761D01*
X58899976Y-66474759D01*
X58899977Y-66474756D01*
X58978995Y-66326922D01*
X59085341Y-66197341D01*
X59214922Y-66090995D01*
X59362756Y-66011977D01*
X59362759Y-66011976D01*
X59362761Y-66011975D01*
X59523175Y-65963314D01*
X59523176Y-65963314D01*
X59523179Y-65963313D01*
X59648196Y-65951000D01*
X59731804Y-65951000D01*
X59856821Y-65963313D01*
X59856821Y-65963313D01*
G37*
G36*
X89518443Y-64129519D02*
X89584627Y-64136037D01*
X89697853Y-64170384D01*
X89754467Y-64187557D01*
X89893087Y-64261652D01*
X89910991Y-64271222D01*
X89920294Y-64278857D01*
X90048186Y-64383814D01*
X90131448Y-64485271D01*
X90160778Y-64521009D01*
X90160779Y-64521011D01*
X90244443Y-64677533D01*
X90244443Y-64677534D01*
X90295963Y-64847373D01*
X90313359Y-65024000D01*
X90295963Y-65200627D01*
X90266499Y-65297757D01*
X90244443Y-65370467D01*
X90242202Y-65374659D01*
X90160778Y-65526991D01*
X90131448Y-65562729D01*
X90048186Y-65664186D01*
X89946729Y-65747448D01*
X89910991Y-65776778D01*
X89910989Y-65776779D01*
X89754467Y-65860443D01*
X89706478Y-65875000D01*
X89584627Y-65911963D01*
X89518443Y-65918481D01*
X89452260Y-65925000D01*
X89363740Y-65925000D01*
X89297557Y-65918481D01*
X89231373Y-65911963D01*
X89109522Y-65875000D01*
X89061533Y-65860443D01*
X88905011Y-65776779D01*
X88905009Y-65776778D01*
X88869271Y-65747448D01*
X88767814Y-65664186D01*
X88684552Y-65562729D01*
X88655222Y-65526991D01*
X88573798Y-65374659D01*
X88571557Y-65370467D01*
X88549501Y-65297757D01*
X88520037Y-65200627D01*
X88502641Y-65024000D01*
X88520037Y-64847373D01*
X88571557Y-64677534D01*
X88571557Y-64677533D01*
X88655221Y-64521011D01*
X88655222Y-64521009D01*
X88684552Y-64485271D01*
X88767814Y-64383814D01*
X88895706Y-64278857D01*
X88905009Y-64271222D01*
X88922913Y-64261652D01*
X89061533Y-64187557D01*
X89118147Y-64170384D01*
X89231373Y-64136037D01*
X89297557Y-64129519D01*
X89363740Y-64123000D01*
X89452260Y-64123000D01*
X89518443Y-64129519D01*
X89518443Y-64129519D01*
G37*
G36*
X82385000Y-65875000D02*
X80683000Y-65875000D01*
X80683000Y-64173000D01*
X82385000Y-64173000D01*
X82385000Y-65875000D01*
X82385000Y-65875000D01*
G37*
G36*
X111362442Y-63875518D02*
X111428627Y-63882037D01*
X111541853Y-63916384D01*
X111598467Y-63933557D01*
X111685311Y-63979977D01*
X111754991Y-64017222D01*
X111790729Y-64046552D01*
X111892186Y-64129814D01*
X111975448Y-64231271D01*
X112004778Y-64267009D01*
X112004779Y-64267011D01*
X112088443Y-64423533D01*
X112105616Y-64480147D01*
X112139963Y-64593373D01*
X112157359Y-64770000D01*
X112139963Y-64946627D01*
X112116492Y-65024000D01*
X112088443Y-65116467D01*
X112019698Y-65245078D01*
X112004778Y-65272991D01*
X111984453Y-65297757D01*
X111892186Y-65410186D01*
X111790729Y-65493448D01*
X111754991Y-65522778D01*
X111754989Y-65522779D01*
X111598467Y-65606443D01*
X111591069Y-65608687D01*
X111428627Y-65657963D01*
X111365453Y-65664185D01*
X111296260Y-65671000D01*
X111207740Y-65671000D01*
X111138547Y-65664185D01*
X111075373Y-65657963D01*
X110912931Y-65608687D01*
X110905533Y-65606443D01*
X110749011Y-65522779D01*
X110749009Y-65522778D01*
X110713271Y-65493448D01*
X110611814Y-65410186D01*
X110519547Y-65297757D01*
X110499222Y-65272991D01*
X110484302Y-65245078D01*
X110415557Y-65116467D01*
X110387508Y-65024000D01*
X110364037Y-64946627D01*
X110346641Y-64770000D01*
X110364037Y-64593373D01*
X110398384Y-64480147D01*
X110415557Y-64423533D01*
X110499221Y-64267011D01*
X110499222Y-64267009D01*
X110528552Y-64231271D01*
X110611814Y-64129814D01*
X110713271Y-64046552D01*
X110749009Y-64017222D01*
X110818689Y-63979977D01*
X110905533Y-63933557D01*
X110962147Y-63916384D01*
X111075373Y-63882037D01*
X111141558Y-63875518D01*
X111207740Y-63869000D01*
X111296260Y-63869000D01*
X111362442Y-63875518D01*
X111362442Y-63875518D01*
G37*
G36*
X107862821Y-63931313D02*
X107862824Y-63931314D01*
X107862825Y-63931314D01*
X108023239Y-63979975D01*
X108023241Y-63979976D01*
X108023244Y-63979977D01*
X108171078Y-64058995D01*
X108300659Y-64165341D01*
X108407005Y-64294922D01*
X108486023Y-64442756D01*
X108486024Y-64442759D01*
X108486025Y-64442761D01*
X108531713Y-64593375D01*
X108534687Y-64603179D01*
X108551117Y-64770000D01*
X108534687Y-64936821D01*
X108534686Y-64936824D01*
X108534686Y-64936825D01*
X108508242Y-65024000D01*
X108486023Y-65097244D01*
X108407005Y-65245078D01*
X108300659Y-65374659D01*
X108171078Y-65481005D01*
X108023244Y-65560023D01*
X108023241Y-65560024D01*
X108023239Y-65560025D01*
X107862825Y-65608686D01*
X107862824Y-65608686D01*
X107862821Y-65608687D01*
X107737804Y-65621000D01*
X107654196Y-65621000D01*
X107529179Y-65608687D01*
X107529176Y-65608686D01*
X107529175Y-65608686D01*
X107368761Y-65560025D01*
X107368759Y-65560024D01*
X107368756Y-65560023D01*
X107220922Y-65481005D01*
X107091341Y-65374659D01*
X106984995Y-65245078D01*
X106905977Y-65097244D01*
X106883759Y-65024000D01*
X106857314Y-64936825D01*
X106857314Y-64936824D01*
X106857313Y-64936821D01*
X106840883Y-64770000D01*
X106857313Y-64603179D01*
X106860287Y-64593375D01*
X106905975Y-64442761D01*
X106905976Y-64442759D01*
X106905977Y-64442756D01*
X106984995Y-64294922D01*
X107091341Y-64165341D01*
X107220922Y-64058995D01*
X107368756Y-63979977D01*
X107368759Y-63979976D01*
X107368761Y-63979975D01*
X107529175Y-63931314D01*
X107529176Y-63931314D01*
X107529179Y-63931313D01*
X107654196Y-63919000D01*
X107737804Y-63919000D01*
X107862821Y-63931313D01*
X107862821Y-63931313D01*
G37*
G36*
X76691142Y-63734242D02*
X76839102Y-63795530D01*
X76906130Y-63840317D01*
X76972257Y-63884501D01*
X77085499Y-63997743D01*
X77098514Y-64017222D01*
X77174470Y-64130898D01*
X77235758Y-64278858D01*
X77267000Y-64435925D01*
X77267000Y-64596075D01*
X77235758Y-64753142D01*
X77174470Y-64901102D01*
X77085498Y-65034258D01*
X76972258Y-65147498D01*
X76839102Y-65236470D01*
X76691142Y-65297758D01*
X76534075Y-65329000D01*
X76373925Y-65329000D01*
X76216858Y-65297758D01*
X76068898Y-65236470D01*
X75935742Y-65147498D01*
X75822502Y-65034258D01*
X75733530Y-64901102D01*
X75672242Y-64753142D01*
X75641000Y-64596075D01*
X75641000Y-64435925D01*
X75672242Y-64278858D01*
X75733530Y-64130898D01*
X75809486Y-64017222D01*
X75822501Y-63997743D01*
X75935743Y-63884501D01*
X76001870Y-63840317D01*
X76068898Y-63795530D01*
X76216858Y-63734242D01*
X76373925Y-63703000D01*
X76534075Y-63703000D01*
X76691142Y-63734242D01*
X76691142Y-63734242D01*
G37*
G36*
X74151142Y-63734242D02*
X74299102Y-63795530D01*
X74366130Y-63840317D01*
X74432257Y-63884501D01*
X74545499Y-63997743D01*
X74558514Y-64017222D01*
X74634470Y-64130898D01*
X74695758Y-64278858D01*
X74727000Y-64435925D01*
X74727000Y-64596075D01*
X74695758Y-64753142D01*
X74634470Y-64901102D01*
X74545498Y-65034258D01*
X74432258Y-65147498D01*
X74299102Y-65236470D01*
X74151142Y-65297758D01*
X73994075Y-65329000D01*
X73833925Y-65329000D01*
X73676858Y-65297758D01*
X73528898Y-65236470D01*
X73395742Y-65147498D01*
X73282502Y-65034258D01*
X73193530Y-64901102D01*
X73132242Y-64753142D01*
X73101000Y-64596075D01*
X73101000Y-64435925D01*
X73132242Y-64278858D01*
X73193530Y-64130898D01*
X73269486Y-64017222D01*
X73282501Y-63997743D01*
X73395743Y-63884501D01*
X73461870Y-63840317D01*
X73528898Y-63795530D01*
X73676858Y-63734242D01*
X73833925Y-63703000D01*
X73994075Y-63703000D01*
X74151142Y-63734242D01*
X74151142Y-63734242D01*
G37*
G36*
X64938228Y-61665703D02*
X65093100Y-61729853D01*
X65232481Y-61822985D01*
X65351015Y-61941519D01*
X65444147Y-62080900D01*
X65508297Y-62235772D01*
X65541000Y-62400184D01*
X65541000Y-62567816D01*
X65508297Y-62732228D01*
X65444147Y-62887100D01*
X65351015Y-63026481D01*
X65232481Y-63145015D01*
X65093100Y-63238147D01*
X64938228Y-63302297D01*
X64773816Y-63335000D01*
X64606184Y-63335000D01*
X64441772Y-63302297D01*
X64286900Y-63238147D01*
X64147519Y-63145015D01*
X64028985Y-63026481D01*
X63935853Y-62887100D01*
X63871703Y-62732228D01*
X63839000Y-62567816D01*
X63839000Y-62400184D01*
X63871703Y-62235772D01*
X63935853Y-62080900D01*
X64028985Y-61941519D01*
X64147519Y-61822985D01*
X64286900Y-61729853D01*
X64441772Y-61665703D01*
X64606184Y-61633000D01*
X64773816Y-61633000D01*
X64938228Y-61665703D01*
X64938228Y-61665703D01*
G37*
G36*
X59938228Y-61665703D02*
X60093100Y-61729853D01*
X60232481Y-61822985D01*
X60351015Y-61941519D01*
X60444147Y-62080900D01*
X60508297Y-62235772D01*
X60541000Y-62400184D01*
X60541000Y-62567816D01*
X60508297Y-62732228D01*
X60444147Y-62887100D01*
X60351015Y-63026481D01*
X60232481Y-63145015D01*
X60093100Y-63238147D01*
X59938228Y-63302297D01*
X59773816Y-63335000D01*
X59606184Y-63335000D01*
X59441772Y-63302297D01*
X59286900Y-63238147D01*
X59147519Y-63145015D01*
X59028985Y-63026481D01*
X58935853Y-62887100D01*
X58871703Y-62732228D01*
X58839000Y-62567816D01*
X58839000Y-62400184D01*
X58871703Y-62235772D01*
X58935853Y-62080900D01*
X59028985Y-61941519D01*
X59147519Y-61822985D01*
X59286900Y-61729853D01*
X59441772Y-61665703D01*
X59606184Y-61633000D01*
X59773816Y-61633000D01*
X59938228Y-61665703D01*
X59938228Y-61665703D01*
G37*
G36*
X76691142Y-61194242D02*
X76839102Y-61255530D01*
X76886558Y-61287239D01*
X76972257Y-61344501D01*
X77085499Y-61457743D01*
X77086191Y-61458779D01*
X77174470Y-61590898D01*
X77235758Y-61738858D01*
X77267000Y-61895925D01*
X77267000Y-62056075D01*
X77235758Y-62213142D01*
X77174470Y-62361102D01*
X77085498Y-62494258D01*
X76972258Y-62607498D01*
X76839102Y-62696470D01*
X76691142Y-62757758D01*
X76534075Y-62789000D01*
X76373925Y-62789000D01*
X76216858Y-62757758D01*
X76068898Y-62696470D01*
X75935742Y-62607498D01*
X75822502Y-62494258D01*
X75733530Y-62361102D01*
X75672242Y-62213142D01*
X75641000Y-62056075D01*
X75641000Y-61895925D01*
X75672242Y-61738858D01*
X75733530Y-61590898D01*
X75821809Y-61458779D01*
X75822501Y-61457743D01*
X75935743Y-61344501D01*
X76021442Y-61287239D01*
X76068898Y-61255530D01*
X76216858Y-61194242D01*
X76373925Y-61163000D01*
X76534075Y-61163000D01*
X76691142Y-61194242D01*
X76691142Y-61194242D01*
G37*
G36*
X74151142Y-61194242D02*
X74299102Y-61255530D01*
X74346558Y-61287239D01*
X74432257Y-61344501D01*
X74545499Y-61457743D01*
X74546191Y-61458779D01*
X74634470Y-61590898D01*
X74695758Y-61738858D01*
X74727000Y-61895925D01*
X74727000Y-62056075D01*
X74695758Y-62213142D01*
X74634470Y-62361102D01*
X74545498Y-62494258D01*
X74432258Y-62607498D01*
X74299102Y-62696470D01*
X74151142Y-62757758D01*
X73994075Y-62789000D01*
X73833925Y-62789000D01*
X73676858Y-62757758D01*
X73528898Y-62696470D01*
X73395742Y-62607498D01*
X73282502Y-62494258D01*
X73193530Y-62361102D01*
X73132242Y-62213142D01*
X73101000Y-62056075D01*
X73101000Y-61895925D01*
X73132242Y-61738858D01*
X73193530Y-61590898D01*
X73281809Y-61458779D01*
X73282501Y-61457743D01*
X73395743Y-61344501D01*
X73481442Y-61287239D01*
X73528898Y-61255530D01*
X73676858Y-61194242D01*
X73833925Y-61163000D01*
X73994075Y-61163000D01*
X74151142Y-61194242D01*
X74151142Y-61194242D01*
G37*
G36*
X95416821Y-60121313D02*
X95416824Y-60121314D01*
X95416825Y-60121314D01*
X95577239Y-60169975D01*
X95577241Y-60169976D01*
X95577244Y-60169977D01*
X95725078Y-60248995D01*
X95854659Y-60355341D01*
X95961005Y-60484922D01*
X96040023Y-60632756D01*
X96040024Y-60632759D01*
X96040025Y-60632761D01*
X96088686Y-60793175D01*
X96088687Y-60793179D01*
X96105117Y-60960000D01*
X96088687Y-61126821D01*
X96088686Y-61126824D01*
X96088686Y-61126825D01*
X96049644Y-61255530D01*
X96040023Y-61287244D01*
X95961005Y-61435078D01*
X95854659Y-61564659D01*
X95725078Y-61671005D01*
X95577244Y-61750023D01*
X95577241Y-61750024D01*
X95577239Y-61750025D01*
X95416825Y-61798686D01*
X95416824Y-61798686D01*
X95416821Y-61798687D01*
X95291804Y-61811000D01*
X95208196Y-61811000D01*
X95083179Y-61798687D01*
X95083176Y-61798686D01*
X95083175Y-61798686D01*
X94922761Y-61750025D01*
X94922759Y-61750024D01*
X94922756Y-61750023D01*
X94774922Y-61671005D01*
X94645341Y-61564659D01*
X94538995Y-61435078D01*
X94459977Y-61287244D01*
X94450357Y-61255530D01*
X94411314Y-61126825D01*
X94411314Y-61126824D01*
X94411313Y-61126821D01*
X94394883Y-60960000D01*
X94411313Y-60793179D01*
X94411314Y-60793175D01*
X94459975Y-60632761D01*
X94459976Y-60632759D01*
X94459977Y-60632756D01*
X94538995Y-60484922D01*
X94645341Y-60355341D01*
X94774922Y-60248995D01*
X94922756Y-60169977D01*
X94922759Y-60169976D01*
X94922761Y-60169975D01*
X95083175Y-60121314D01*
X95083176Y-60121314D01*
X95083179Y-60121313D01*
X95208196Y-60109000D01*
X95291804Y-60109000D01*
X95416821Y-60121313D01*
X95416821Y-60121313D01*
G37*
G36*
X98464821Y-60121313D02*
X98464824Y-60121314D01*
X98464825Y-60121314D01*
X98625239Y-60169975D01*
X98625241Y-60169976D01*
X98625244Y-60169977D01*
X98773078Y-60248995D01*
X98902659Y-60355341D01*
X99009005Y-60484922D01*
X99088023Y-60632756D01*
X99088024Y-60632759D01*
X99088025Y-60632761D01*
X99136686Y-60793175D01*
X99136687Y-60793179D01*
X99153117Y-60960000D01*
X99136687Y-61126821D01*
X99136686Y-61126824D01*
X99136686Y-61126825D01*
X99097644Y-61255530D01*
X99088023Y-61287244D01*
X99009005Y-61435078D01*
X98902659Y-61564659D01*
X98773078Y-61671005D01*
X98625244Y-61750023D01*
X98625241Y-61750024D01*
X98625239Y-61750025D01*
X98464825Y-61798686D01*
X98464824Y-61798686D01*
X98464821Y-61798687D01*
X98339804Y-61811000D01*
X98256196Y-61811000D01*
X98131179Y-61798687D01*
X98131176Y-61798686D01*
X98131175Y-61798686D01*
X97970761Y-61750025D01*
X97970759Y-61750024D01*
X97970756Y-61750023D01*
X97822922Y-61671005D01*
X97693341Y-61564659D01*
X97586995Y-61435078D01*
X97507977Y-61287244D01*
X97498357Y-61255530D01*
X97459314Y-61126825D01*
X97459314Y-61126824D01*
X97459313Y-61126821D01*
X97442883Y-60960000D01*
X97459313Y-60793179D01*
X97459314Y-60793175D01*
X97507975Y-60632761D01*
X97507976Y-60632759D01*
X97507977Y-60632756D01*
X97586995Y-60484922D01*
X97693341Y-60355341D01*
X97822922Y-60248995D01*
X97970756Y-60169977D01*
X97970759Y-60169976D01*
X97970761Y-60169975D01*
X98131175Y-60121314D01*
X98131176Y-60121314D01*
X98131179Y-60121313D01*
X98256196Y-60109000D01*
X98339804Y-60109000D01*
X98464821Y-60121313D01*
X98464821Y-60121313D01*
G37*
G36*
X101512821Y-60121313D02*
X101512824Y-60121314D01*
X101512825Y-60121314D01*
X101673239Y-60169975D01*
X101673241Y-60169976D01*
X101673244Y-60169977D01*
X101821078Y-60248995D01*
X101950659Y-60355341D01*
X102057005Y-60484922D01*
X102136023Y-60632756D01*
X102136024Y-60632759D01*
X102136025Y-60632761D01*
X102184686Y-60793175D01*
X102184687Y-60793179D01*
X102201117Y-60960000D01*
X102184687Y-61126821D01*
X102184686Y-61126824D01*
X102184686Y-61126825D01*
X102145644Y-61255530D01*
X102136023Y-61287244D01*
X102057005Y-61435078D01*
X101950659Y-61564659D01*
X101821078Y-61671005D01*
X101673244Y-61750023D01*
X101673241Y-61750024D01*
X101673239Y-61750025D01*
X101512825Y-61798686D01*
X101512824Y-61798686D01*
X101512821Y-61798687D01*
X101387804Y-61811000D01*
X101304196Y-61811000D01*
X101179179Y-61798687D01*
X101179176Y-61798686D01*
X101179175Y-61798686D01*
X101018761Y-61750025D01*
X101018759Y-61750024D01*
X101018756Y-61750023D01*
X100870922Y-61671005D01*
X100741341Y-61564659D01*
X100634995Y-61435078D01*
X100555977Y-61287244D01*
X100546357Y-61255530D01*
X100507314Y-61126825D01*
X100507314Y-61126824D01*
X100507313Y-61126821D01*
X100490883Y-60960000D01*
X100507313Y-60793179D01*
X100507314Y-60793175D01*
X100555975Y-60632761D01*
X100555976Y-60632759D01*
X100555977Y-60632756D01*
X100634995Y-60484922D01*
X100741341Y-60355341D01*
X100870922Y-60248995D01*
X101018756Y-60169977D01*
X101018759Y-60169976D01*
X101018761Y-60169975D01*
X101179175Y-60121314D01*
X101179176Y-60121314D01*
X101179179Y-60121313D01*
X101304196Y-60109000D01*
X101387804Y-60109000D01*
X101512821Y-60121313D01*
X101512821Y-60121313D01*
G37*
G36*
X107608821Y-60121313D02*
X107608824Y-60121314D01*
X107608825Y-60121314D01*
X107769239Y-60169975D01*
X107769241Y-60169976D01*
X107769244Y-60169977D01*
X107917078Y-60248995D01*
X108046659Y-60355341D01*
X108153005Y-60484922D01*
X108232023Y-60632756D01*
X108232024Y-60632759D01*
X108232025Y-60632761D01*
X108280686Y-60793175D01*
X108280687Y-60793179D01*
X108297117Y-60960000D01*
X108280687Y-61126821D01*
X108280686Y-61126824D01*
X108280686Y-61126825D01*
X108241644Y-61255530D01*
X108232023Y-61287244D01*
X108153005Y-61435078D01*
X108046659Y-61564659D01*
X107917078Y-61671005D01*
X107769244Y-61750023D01*
X107769241Y-61750024D01*
X107769239Y-61750025D01*
X107608825Y-61798686D01*
X107608824Y-61798686D01*
X107608821Y-61798687D01*
X107483804Y-61811000D01*
X107400196Y-61811000D01*
X107275179Y-61798687D01*
X107275176Y-61798686D01*
X107275175Y-61798686D01*
X107114761Y-61750025D01*
X107114759Y-61750024D01*
X107114756Y-61750023D01*
X106966922Y-61671005D01*
X106837341Y-61564659D01*
X106730995Y-61435078D01*
X106651977Y-61287244D01*
X106642357Y-61255530D01*
X106603314Y-61126825D01*
X106603314Y-61126824D01*
X106603313Y-61126821D01*
X106586883Y-60960000D01*
X106603313Y-60793179D01*
X106603314Y-60793175D01*
X106651975Y-60632761D01*
X106651976Y-60632759D01*
X106651977Y-60632756D01*
X106730995Y-60484922D01*
X106837341Y-60355341D01*
X106966922Y-60248995D01*
X107114756Y-60169977D01*
X107114759Y-60169976D01*
X107114761Y-60169975D01*
X107275175Y-60121314D01*
X107275176Y-60121314D01*
X107275179Y-60121313D01*
X107400196Y-60109000D01*
X107483804Y-60109000D01*
X107608821Y-60121313D01*
X107608821Y-60121313D01*
G37*
G36*
X104642228Y-60141703D02*
X104797100Y-60205853D01*
X104936481Y-60298985D01*
X105055015Y-60417519D01*
X105148147Y-60556900D01*
X105212297Y-60711772D01*
X105245000Y-60876184D01*
X105245000Y-61043816D01*
X105212297Y-61208228D01*
X105148147Y-61363100D01*
X105055015Y-61502481D01*
X104936481Y-61621015D01*
X104797100Y-61714147D01*
X104642228Y-61778297D01*
X104477816Y-61811000D01*
X104310184Y-61811000D01*
X104145772Y-61778297D01*
X103990900Y-61714147D01*
X103851519Y-61621015D01*
X103732985Y-61502481D01*
X103639853Y-61363100D01*
X103575703Y-61208228D01*
X103543000Y-61043816D01*
X103543000Y-60876184D01*
X103575703Y-60711772D01*
X103639853Y-60556900D01*
X103732985Y-60417519D01*
X103851519Y-60298985D01*
X103990900Y-60205853D01*
X104145772Y-60141703D01*
X104310184Y-60109000D01*
X104477816Y-60109000D01*
X104642228Y-60141703D01*
X104642228Y-60141703D01*
G37*
G36*
X80120443Y-59811519D02*
X80186627Y-59818037D01*
X80299853Y-59852384D01*
X80356467Y-59869557D01*
X80422775Y-59905000D01*
X80512991Y-59953222D01*
X80514253Y-59954258D01*
X80650186Y-60065814D01*
X80712466Y-60141704D01*
X80762778Y-60203009D01*
X80762779Y-60203011D01*
X80846443Y-60359533D01*
X80846443Y-60359534D01*
X80897963Y-60529373D01*
X80915359Y-60706000D01*
X80897963Y-60882627D01*
X80874492Y-60960000D01*
X80846443Y-61052467D01*
X80806699Y-61126821D01*
X80762778Y-61208991D01*
X80733448Y-61244729D01*
X80650186Y-61346186D01*
X80548729Y-61429448D01*
X80512991Y-61458778D01*
X80512989Y-61458779D01*
X80356467Y-61542443D01*
X80299853Y-61559616D01*
X80186627Y-61593963D01*
X80120442Y-61600482D01*
X80054260Y-61607000D01*
X79965740Y-61607000D01*
X79899558Y-61600482D01*
X79833373Y-61593963D01*
X79720147Y-61559616D01*
X79663533Y-61542443D01*
X79507011Y-61458779D01*
X79507009Y-61458778D01*
X79471271Y-61429448D01*
X79369814Y-61346186D01*
X79286552Y-61244729D01*
X79257222Y-61208991D01*
X79213301Y-61126821D01*
X79173557Y-61052467D01*
X79145508Y-60960000D01*
X79122037Y-60882627D01*
X79104641Y-60706000D01*
X79122037Y-60529373D01*
X79173557Y-60359534D01*
X79173557Y-60359533D01*
X79257221Y-60203011D01*
X79257222Y-60203009D01*
X79307534Y-60141704D01*
X79369814Y-60065814D01*
X79505747Y-59954258D01*
X79507009Y-59953222D01*
X79597225Y-59905000D01*
X79663533Y-59869557D01*
X79720147Y-59852384D01*
X79833373Y-59818037D01*
X79899557Y-59811519D01*
X79965740Y-59805000D01*
X80054260Y-59805000D01*
X80120443Y-59811519D01*
X80120443Y-59811519D01*
G37*
G36*
X83451000Y-61607000D02*
X81649000Y-61607000D01*
X81649000Y-59805000D01*
X83451000Y-59805000D01*
X83451000Y-61607000D01*
X83451000Y-61607000D01*
G37*
G36*
X76691142Y-58654242D02*
X76839102Y-58715530D01*
X76880363Y-58743100D01*
X76972257Y-58804501D01*
X77085499Y-58917743D01*
X77086191Y-58918779D01*
X77174470Y-59050898D01*
X77235758Y-59198858D01*
X77267000Y-59355925D01*
X77267000Y-59516075D01*
X77235758Y-59673142D01*
X77196813Y-59767161D01*
X77174471Y-59821100D01*
X77086191Y-59953222D01*
X77085498Y-59954258D01*
X76972258Y-60067498D01*
X76839102Y-60156470D01*
X76691142Y-60217758D01*
X76534075Y-60249000D01*
X76373925Y-60249000D01*
X76216858Y-60217758D01*
X76068898Y-60156470D01*
X75935742Y-60067498D01*
X75822502Y-59954258D01*
X75821810Y-59953222D01*
X75733529Y-59821100D01*
X75711187Y-59767161D01*
X75672242Y-59673142D01*
X75641000Y-59516075D01*
X75641000Y-59355925D01*
X75672242Y-59198858D01*
X75733530Y-59050898D01*
X75821809Y-58918779D01*
X75822501Y-58917743D01*
X75935743Y-58804501D01*
X76027637Y-58743100D01*
X76068898Y-58715530D01*
X76216858Y-58654242D01*
X76373925Y-58623000D01*
X76534075Y-58623000D01*
X76691142Y-58654242D01*
X76691142Y-58654242D01*
G37*
G36*
X74151142Y-58654242D02*
X74299102Y-58715530D01*
X74340363Y-58743100D01*
X74432257Y-58804501D01*
X74545499Y-58917743D01*
X74546191Y-58918779D01*
X74634470Y-59050898D01*
X74695758Y-59198858D01*
X74727000Y-59355925D01*
X74727000Y-59516075D01*
X74695758Y-59673142D01*
X74656813Y-59767161D01*
X74634471Y-59821100D01*
X74546191Y-59953222D01*
X74545498Y-59954258D01*
X74432258Y-60067498D01*
X74299102Y-60156470D01*
X74151142Y-60217758D01*
X73994075Y-60249000D01*
X73833925Y-60249000D01*
X73676858Y-60217758D01*
X73528898Y-60156470D01*
X73395742Y-60067498D01*
X73282502Y-59954258D01*
X73281810Y-59953222D01*
X73193529Y-59821100D01*
X73171187Y-59767161D01*
X73132242Y-59673142D01*
X73101000Y-59516075D01*
X73101000Y-59355925D01*
X73132242Y-59198858D01*
X73193530Y-59050898D01*
X73281809Y-58918779D01*
X73282501Y-58917743D01*
X73395743Y-58804501D01*
X73487637Y-58743100D01*
X73528898Y-58715530D01*
X73676858Y-58654242D01*
X73833925Y-58623000D01*
X73994075Y-58623000D01*
X74151142Y-58654242D01*
X74151142Y-58654242D01*
G37*
G36*
X62173000Y-59905000D02*
X61271000Y-59905000D01*
X61271000Y-57903000D01*
X62173000Y-57903000D01*
X62173000Y-59905000D01*
X62173000Y-59905000D01*
G37*
G36*
X90488433Y-57054893D02*
X90578657Y-57072839D01*
X90684267Y-57116585D01*
X90833621Y-57178449D01*
X91063089Y-57331774D01*
X91258226Y-57526911D01*
X91411551Y-57756379D01*
X91472283Y-57903000D01*
X91508061Y-57989373D01*
X91517161Y-58011344D01*
X91571000Y-58282012D01*
X91571000Y-58557988D01*
X91517161Y-58828656D01*
X91411551Y-59083621D01*
X91258226Y-59313089D01*
X91063089Y-59508226D01*
X90833621Y-59661551D01*
X90684267Y-59723415D01*
X90578657Y-59767161D01*
X90488433Y-59785107D01*
X90307988Y-59821000D01*
X90032012Y-59821000D01*
X89851567Y-59785107D01*
X89761343Y-59767161D01*
X89655733Y-59723415D01*
X89506379Y-59661551D01*
X89276911Y-59508226D01*
X89081774Y-59313089D01*
X88928449Y-59083621D01*
X88822839Y-58828656D01*
X88769000Y-58557988D01*
X88769000Y-58282012D01*
X88822839Y-58011344D01*
X88831940Y-57989373D01*
X88867717Y-57903000D01*
X88928449Y-57756379D01*
X89081774Y-57526911D01*
X89276911Y-57331774D01*
X89506379Y-57178449D01*
X89655733Y-57116585D01*
X89761343Y-57072839D01*
X89851567Y-57054893D01*
X90032012Y-57019000D01*
X90307988Y-57019000D01*
X90488433Y-57054893D01*
X90488433Y-57054893D01*
G37*
G36*
X111500228Y-57521703D02*
X111655100Y-57585853D01*
X111794481Y-57678985D01*
X111913015Y-57797519D01*
X112006147Y-57936900D01*
X112070297Y-58091772D01*
X112103000Y-58256184D01*
X112103000Y-58423816D01*
X112070297Y-58588228D01*
X112006147Y-58743100D01*
X111913015Y-58882481D01*
X111794481Y-59001015D01*
X111655100Y-59094147D01*
X111500228Y-59158297D01*
X111335816Y-59191000D01*
X111168184Y-59191000D01*
X111003772Y-59158297D01*
X110848900Y-59094147D01*
X110709519Y-59001015D01*
X110590985Y-58882481D01*
X110497853Y-58743100D01*
X110433703Y-58588228D01*
X110401000Y-58423816D01*
X110401000Y-58256184D01*
X110433703Y-58091772D01*
X110497853Y-57936900D01*
X110590985Y-57797519D01*
X110709519Y-57678985D01*
X110848900Y-57585853D01*
X111003772Y-57521703D01*
X111168184Y-57489000D01*
X111335816Y-57489000D01*
X111500228Y-57521703D01*
X111500228Y-57521703D01*
G37*
G36*
X80120443Y-57271519D02*
X80186627Y-57278037D01*
X80299853Y-57312384D01*
X80356467Y-57329557D01*
X80495087Y-57403652D01*
X80512991Y-57413222D01*
X80548729Y-57442552D01*
X80650186Y-57525814D01*
X80733448Y-57627271D01*
X80762778Y-57663009D01*
X80762779Y-57663011D01*
X80846443Y-57819533D01*
X80846443Y-57819534D01*
X80897963Y-57989373D01*
X80915359Y-58166000D01*
X80897963Y-58342627D01*
X80863616Y-58455853D01*
X80846443Y-58512467D01*
X80822112Y-58557986D01*
X80762778Y-58668991D01*
X80733448Y-58704729D01*
X80650186Y-58806186D01*
X80557219Y-58882481D01*
X80512991Y-58918778D01*
X80512989Y-58918779D01*
X80356467Y-59002443D01*
X80299853Y-59019616D01*
X80186627Y-59053963D01*
X80120443Y-59060481D01*
X80054260Y-59067000D01*
X79965740Y-59067000D01*
X79899557Y-59060481D01*
X79833373Y-59053963D01*
X79720147Y-59019616D01*
X79663533Y-59002443D01*
X79507011Y-58918779D01*
X79507009Y-58918778D01*
X79462781Y-58882481D01*
X79369814Y-58806186D01*
X79286552Y-58704729D01*
X79257222Y-58668991D01*
X79197888Y-58557986D01*
X79173557Y-58512467D01*
X79156384Y-58455853D01*
X79122037Y-58342627D01*
X79104641Y-58166000D01*
X79122037Y-57989373D01*
X79173557Y-57819534D01*
X79173557Y-57819533D01*
X79257221Y-57663011D01*
X79257222Y-57663009D01*
X79286552Y-57627271D01*
X79369814Y-57525814D01*
X79471271Y-57442552D01*
X79507009Y-57413222D01*
X79524913Y-57403652D01*
X79663533Y-57329557D01*
X79720147Y-57312384D01*
X79833373Y-57278037D01*
X79899557Y-57271519D01*
X79965740Y-57265000D01*
X80054260Y-57265000D01*
X80120443Y-57271519D01*
X80120443Y-57271519D01*
G37*
G36*
X82660443Y-57271519D02*
X82726627Y-57278037D01*
X82839853Y-57312384D01*
X82896467Y-57329557D01*
X83035087Y-57403652D01*
X83052991Y-57413222D01*
X83088729Y-57442552D01*
X83190186Y-57525814D01*
X83273448Y-57627271D01*
X83302778Y-57663009D01*
X83302779Y-57663011D01*
X83386443Y-57819533D01*
X83386443Y-57819534D01*
X83437963Y-57989373D01*
X83455359Y-58166000D01*
X83437963Y-58342627D01*
X83403616Y-58455853D01*
X83386443Y-58512467D01*
X83362112Y-58557986D01*
X83302778Y-58668991D01*
X83273448Y-58704729D01*
X83190186Y-58806186D01*
X83097219Y-58882481D01*
X83052991Y-58918778D01*
X83052989Y-58918779D01*
X82896467Y-59002443D01*
X82839853Y-59019616D01*
X82726627Y-59053963D01*
X82660443Y-59060481D01*
X82594260Y-59067000D01*
X82505740Y-59067000D01*
X82439557Y-59060481D01*
X82373373Y-59053963D01*
X82260147Y-59019616D01*
X82203533Y-59002443D01*
X82047011Y-58918779D01*
X82047009Y-58918778D01*
X82002781Y-58882481D01*
X81909814Y-58806186D01*
X81826552Y-58704729D01*
X81797222Y-58668991D01*
X81737888Y-58557986D01*
X81713557Y-58512467D01*
X81696384Y-58455853D01*
X81662037Y-58342627D01*
X81644641Y-58166000D01*
X81662037Y-57989373D01*
X81713557Y-57819534D01*
X81713557Y-57819533D01*
X81797221Y-57663011D01*
X81797222Y-57663009D01*
X81826552Y-57627271D01*
X81909814Y-57525814D01*
X82011271Y-57442552D01*
X82047009Y-57413222D01*
X82064913Y-57403652D01*
X82203533Y-57329557D01*
X82260147Y-57312384D01*
X82373373Y-57278037D01*
X82439557Y-57271519D01*
X82505740Y-57265000D01*
X82594260Y-57265000D01*
X82660443Y-57271519D01*
X82660443Y-57271519D01*
G37*
G36*
X63123000Y-56905000D02*
X62221000Y-56905000D01*
X62221000Y-54903000D01*
X63123000Y-54903000D01*
X63123000Y-56905000D01*
X63123000Y-56905000D01*
G37*
G36*
X61223000Y-56905000D02*
X60321000Y-56905000D01*
X60321000Y-54903000D01*
X61223000Y-54903000D01*
X61223000Y-56905000D01*
X61223000Y-56905000D01*
G37*
G36*
X82660442Y-54731518D02*
X82726627Y-54738037D01*
X82839853Y-54772384D01*
X82896467Y-54789557D01*
X83035087Y-54863652D01*
X83052991Y-54873222D01*
X83088729Y-54902552D01*
X83190186Y-54985814D01*
X83273448Y-55087271D01*
X83302778Y-55123009D01*
X83302779Y-55123011D01*
X83386443Y-55279533D01*
X83386443Y-55279534D01*
X83437963Y-55449373D01*
X83455359Y-55626000D01*
X83437963Y-55802627D01*
X83403616Y-55915853D01*
X83386443Y-55972467D01*
X83312348Y-56111087D01*
X83302778Y-56128991D01*
X83273448Y-56164729D01*
X83190186Y-56266186D01*
X83088729Y-56349448D01*
X83052991Y-56378778D01*
X83052989Y-56378779D01*
X82896467Y-56462443D01*
X82839853Y-56479616D01*
X82726627Y-56513963D01*
X82660442Y-56520482D01*
X82594260Y-56527000D01*
X82505740Y-56527000D01*
X82439558Y-56520482D01*
X82373373Y-56513963D01*
X82260147Y-56479616D01*
X82203533Y-56462443D01*
X82047011Y-56378779D01*
X82047009Y-56378778D01*
X82011271Y-56349448D01*
X81909814Y-56266186D01*
X81826552Y-56164729D01*
X81797222Y-56128991D01*
X81787652Y-56111087D01*
X81713557Y-55972467D01*
X81696384Y-55915853D01*
X81662037Y-55802627D01*
X81644641Y-55626000D01*
X81662037Y-55449373D01*
X81713557Y-55279534D01*
X81713557Y-55279533D01*
X81797221Y-55123011D01*
X81797222Y-55123009D01*
X81826552Y-55087271D01*
X81909814Y-54985814D01*
X82011271Y-54902552D01*
X82047009Y-54873222D01*
X82064913Y-54863652D01*
X82203533Y-54789557D01*
X82260147Y-54772384D01*
X82373373Y-54738037D01*
X82439558Y-54731518D01*
X82505740Y-54725000D01*
X82594260Y-54725000D01*
X82660442Y-54731518D01*
X82660442Y-54731518D01*
G37*
G36*
X80120442Y-54731518D02*
X80186627Y-54738037D01*
X80299853Y-54772384D01*
X80356467Y-54789557D01*
X80495087Y-54863652D01*
X80512991Y-54873222D01*
X80548729Y-54902552D01*
X80650186Y-54985814D01*
X80733448Y-55087271D01*
X80762778Y-55123009D01*
X80762779Y-55123011D01*
X80846443Y-55279533D01*
X80846443Y-55279534D01*
X80897963Y-55449373D01*
X80915359Y-55626000D01*
X80897963Y-55802627D01*
X80863616Y-55915853D01*
X80846443Y-55972467D01*
X80772348Y-56111087D01*
X80762778Y-56128991D01*
X80733448Y-56164729D01*
X80650186Y-56266186D01*
X80548729Y-56349448D01*
X80512991Y-56378778D01*
X80512989Y-56378779D01*
X80356467Y-56462443D01*
X80299853Y-56479616D01*
X80186627Y-56513963D01*
X80120442Y-56520482D01*
X80054260Y-56527000D01*
X79965740Y-56527000D01*
X79899558Y-56520482D01*
X79833373Y-56513963D01*
X79720147Y-56479616D01*
X79663533Y-56462443D01*
X79507011Y-56378779D01*
X79507009Y-56378778D01*
X79471271Y-56349448D01*
X79369814Y-56266186D01*
X79286552Y-56164729D01*
X79257222Y-56128991D01*
X79247652Y-56111087D01*
X79173557Y-55972467D01*
X79156384Y-55915853D01*
X79122037Y-55802627D01*
X79104641Y-55626000D01*
X79122037Y-55449373D01*
X79173557Y-55279534D01*
X79173557Y-55279533D01*
X79257221Y-55123011D01*
X79257222Y-55123009D01*
X79286552Y-55087271D01*
X79369814Y-54985814D01*
X79471271Y-54902552D01*
X79507009Y-54873222D01*
X79524913Y-54863652D01*
X79663533Y-54789557D01*
X79720147Y-54772384D01*
X79833373Y-54738037D01*
X79899558Y-54731518D01*
X79965740Y-54725000D01*
X80054260Y-54725000D01*
X80120442Y-54731518D01*
X80120442Y-54731518D01*
G37*
G36*
X91833000Y-55003000D02*
X90031000Y-55003000D01*
X90031000Y-53201000D01*
X91833000Y-53201000D01*
X91833000Y-55003000D01*
X91833000Y-55003000D01*
G37*
G36*
X107690228Y-52521703D02*
X107845100Y-52585853D01*
X107984481Y-52678985D01*
X108103015Y-52797519D01*
X108196147Y-52936900D01*
X108260297Y-53091772D01*
X108293000Y-53256184D01*
X108293000Y-53423816D01*
X108260297Y-53588228D01*
X108196147Y-53743100D01*
X108103015Y-53882481D01*
X107984481Y-54001015D01*
X107845100Y-54094147D01*
X107690228Y-54158297D01*
X107525816Y-54191000D01*
X107358184Y-54191000D01*
X107193772Y-54158297D01*
X107038900Y-54094147D01*
X106899519Y-54001015D01*
X106780985Y-53882481D01*
X106687853Y-53743100D01*
X106623703Y-53588228D01*
X106591000Y-53423816D01*
X106591000Y-53256184D01*
X106623703Y-53091772D01*
X106687853Y-52936900D01*
X106780985Y-52797519D01*
X106899519Y-52678985D01*
X107038900Y-52585853D01*
X107193772Y-52521703D01*
X107358184Y-52489000D01*
X107525816Y-52489000D01*
X107690228Y-52521703D01*
X107690228Y-52521703D01*
G37*
G36*
X111500228Y-52521703D02*
X111655100Y-52585853D01*
X111794481Y-52678985D01*
X111913015Y-52797519D01*
X112006147Y-52936900D01*
X112070297Y-53091772D01*
X112103000Y-53256184D01*
X112103000Y-53423816D01*
X112070297Y-53588228D01*
X112006147Y-53743100D01*
X111913015Y-53882481D01*
X111794481Y-54001015D01*
X111655100Y-54094147D01*
X111500228Y-54158297D01*
X111335816Y-54191000D01*
X111168184Y-54191000D01*
X111003772Y-54158297D01*
X110848900Y-54094147D01*
X110709519Y-54001015D01*
X110590985Y-53882481D01*
X110497853Y-53743100D01*
X110433703Y-53588228D01*
X110401000Y-53423816D01*
X110401000Y-53256184D01*
X110433703Y-53091772D01*
X110497853Y-52936900D01*
X110590985Y-52797519D01*
X110709519Y-52678985D01*
X110848900Y-52585853D01*
X111003772Y-52521703D01*
X111168184Y-52489000D01*
X111335816Y-52489000D01*
X111500228Y-52521703D01*
X111500228Y-52521703D01*
G37*
G36*
X104560821Y-52501313D02*
X104560824Y-52501314D01*
X104560825Y-52501314D01*
X104721239Y-52549975D01*
X104721241Y-52549976D01*
X104721244Y-52549977D01*
X104869078Y-52628995D01*
X104998659Y-52735341D01*
X105105005Y-52864922D01*
X105184023Y-53012756D01*
X105184024Y-53012759D01*
X105184025Y-53012761D01*
X105232686Y-53173175D01*
X105232687Y-53173179D01*
X105249117Y-53340000D01*
X105232687Y-53506821D01*
X105232686Y-53506824D01*
X105232686Y-53506825D01*
X105207993Y-53588228D01*
X105184023Y-53667244D01*
X105105005Y-53815078D01*
X104998659Y-53944659D01*
X104869078Y-54051005D01*
X104721244Y-54130023D01*
X104721241Y-54130024D01*
X104721239Y-54130025D01*
X104560825Y-54178686D01*
X104560824Y-54178686D01*
X104560821Y-54178687D01*
X104435804Y-54191000D01*
X104352196Y-54191000D01*
X104227179Y-54178687D01*
X104227176Y-54178686D01*
X104227175Y-54178686D01*
X104066761Y-54130025D01*
X104066759Y-54130024D01*
X104066756Y-54130023D01*
X103918922Y-54051005D01*
X103789341Y-53944659D01*
X103682995Y-53815078D01*
X103603977Y-53667244D01*
X103580008Y-53588228D01*
X103555314Y-53506825D01*
X103555314Y-53506824D01*
X103555313Y-53506821D01*
X103538883Y-53340000D01*
X103555313Y-53173179D01*
X103555314Y-53173175D01*
X103603975Y-53012761D01*
X103603976Y-53012759D01*
X103603977Y-53012756D01*
X103682995Y-52864922D01*
X103789341Y-52735341D01*
X103918922Y-52628995D01*
X104066756Y-52549977D01*
X104066759Y-52549976D01*
X104066761Y-52549975D01*
X104227175Y-52501314D01*
X104227176Y-52501314D01*
X104227179Y-52501313D01*
X104352196Y-52489000D01*
X104435804Y-52489000D01*
X104560821Y-52501313D01*
X104560821Y-52501313D01*
G37*
G36*
X101594228Y-52521703D02*
X101749100Y-52585853D01*
X101888481Y-52678985D01*
X102007015Y-52797519D01*
X102100147Y-52936900D01*
X102164297Y-53091772D01*
X102197000Y-53256184D01*
X102197000Y-53423816D01*
X102164297Y-53588228D01*
X102100147Y-53743100D01*
X102007015Y-53882481D01*
X101888481Y-54001015D01*
X101749100Y-54094147D01*
X101594228Y-54158297D01*
X101429816Y-54191000D01*
X101262184Y-54191000D01*
X101097772Y-54158297D01*
X100942900Y-54094147D01*
X100803519Y-54001015D01*
X100684985Y-53882481D01*
X100591853Y-53743100D01*
X100527703Y-53588228D01*
X100495000Y-53423816D01*
X100495000Y-53256184D01*
X100527703Y-53091772D01*
X100591853Y-52936900D01*
X100684985Y-52797519D01*
X100803519Y-52678985D01*
X100942900Y-52585853D01*
X101097772Y-52521703D01*
X101262184Y-52489000D01*
X101429816Y-52489000D01*
X101594228Y-52521703D01*
X101594228Y-52521703D01*
G37*
G36*
X98546228Y-52521703D02*
X98701100Y-52585853D01*
X98840481Y-52678985D01*
X98959015Y-52797519D01*
X99052147Y-52936900D01*
X99116297Y-53091772D01*
X99149000Y-53256184D01*
X99149000Y-53423816D01*
X99116297Y-53588228D01*
X99052147Y-53743100D01*
X98959015Y-53882481D01*
X98840481Y-54001015D01*
X98701100Y-54094147D01*
X98546228Y-54158297D01*
X98381816Y-54191000D01*
X98214184Y-54191000D01*
X98049772Y-54158297D01*
X97894900Y-54094147D01*
X97755519Y-54001015D01*
X97636985Y-53882481D01*
X97543853Y-53743100D01*
X97479703Y-53588228D01*
X97447000Y-53423816D01*
X97447000Y-53256184D01*
X97479703Y-53091772D01*
X97543853Y-52936900D01*
X97636985Y-52797519D01*
X97755519Y-52678985D01*
X97894900Y-52585853D01*
X98049772Y-52521703D01*
X98214184Y-52489000D01*
X98381816Y-52489000D01*
X98546228Y-52521703D01*
X98546228Y-52521703D01*
G37*
G36*
X95498228Y-52521703D02*
X95653100Y-52585853D01*
X95792481Y-52678985D01*
X95911015Y-52797519D01*
X96004147Y-52936900D01*
X96068297Y-53091772D01*
X96101000Y-53256184D01*
X96101000Y-53423816D01*
X96068297Y-53588228D01*
X96004147Y-53743100D01*
X95911015Y-53882481D01*
X95792481Y-54001015D01*
X95653100Y-54094147D01*
X95498228Y-54158297D01*
X95333816Y-54191000D01*
X95166184Y-54191000D01*
X95001772Y-54158297D01*
X94846900Y-54094147D01*
X94707519Y-54001015D01*
X94588985Y-53882481D01*
X94495853Y-53743100D01*
X94431703Y-53588228D01*
X94399000Y-53423816D01*
X94399000Y-53256184D01*
X94431703Y-53091772D01*
X94495853Y-52936900D01*
X94588985Y-52797519D01*
X94707519Y-52678985D01*
X94846900Y-52585853D01*
X95001772Y-52521703D01*
X95166184Y-52489000D01*
X95333816Y-52489000D01*
X95498228Y-52521703D01*
X95498228Y-52521703D01*
G37*
G36*
X91180228Y-50917703D02*
X91335100Y-50981853D01*
X91474481Y-51074985D01*
X91593015Y-51193519D01*
X91686147Y-51332900D01*
X91750297Y-51487772D01*
X91783000Y-51652184D01*
X91783000Y-51819816D01*
X91750297Y-51984228D01*
X91686147Y-52139100D01*
X91593015Y-52278481D01*
X91474481Y-52397015D01*
X91335100Y-52490147D01*
X91180228Y-52554297D01*
X91015816Y-52587000D01*
X90848184Y-52587000D01*
X90683772Y-52554297D01*
X90528900Y-52490147D01*
X90389519Y-52397015D01*
X90270985Y-52278481D01*
X90177853Y-52139100D01*
X90113703Y-51984228D01*
X90081000Y-51819816D01*
X90081000Y-51652184D01*
X90113703Y-51487772D01*
X90177853Y-51332900D01*
X90270985Y-51193519D01*
X90389519Y-51074985D01*
X90528900Y-50981853D01*
X90683772Y-50917703D01*
X90848184Y-50885000D01*
X91015816Y-50885000D01*
X91180228Y-50917703D01*
X91180228Y-50917703D01*
G37*
G36*
X78919294Y-49898633D02*
X79091694Y-49950931D01*
X79091696Y-49950932D01*
X79250583Y-50035859D01*
X79250585Y-50035860D01*
X79250584Y-50035860D01*
X79389849Y-50150151D01*
X79504140Y-50289416D01*
X79589069Y-50448306D01*
X79641367Y-50620706D01*
X79659025Y-50800000D01*
X79641367Y-50979294D01*
X79589069Y-51151694D01*
X79589068Y-51151696D01*
X79504141Y-51310583D01*
X79389849Y-51449849D01*
X79250583Y-51564141D01*
X79091696Y-51649068D01*
X79091694Y-51649069D01*
X78919294Y-51701367D01*
X78784931Y-51714600D01*
X78695069Y-51714600D01*
X78560706Y-51701367D01*
X78388306Y-51649069D01*
X78388304Y-51649068D01*
X78229417Y-51564141D01*
X78090151Y-51449849D01*
X77975859Y-51310583D01*
X77890932Y-51151696D01*
X77890931Y-51151694D01*
X77838633Y-50979294D01*
X77820975Y-50800000D01*
X77838633Y-50620706D01*
X77890931Y-50448306D01*
X77975860Y-50289416D01*
X78090151Y-50150151D01*
X78229416Y-50035860D01*
X78229415Y-50035860D01*
X78229417Y-50035859D01*
X78388304Y-49950932D01*
X78388306Y-49950931D01*
X78560706Y-49898633D01*
X78695069Y-49885400D01*
X78784931Y-49885400D01*
X78919294Y-49898633D01*
X78919294Y-49898633D01*
G37*
G36*
X81459294Y-49898633D02*
X81631694Y-49950931D01*
X81631696Y-49950932D01*
X81790583Y-50035859D01*
X81790585Y-50035860D01*
X81790584Y-50035860D01*
X81929849Y-50150151D01*
X82044140Y-50289416D01*
X82129069Y-50448306D01*
X82181367Y-50620706D01*
X82199025Y-50800000D01*
X82181367Y-50979294D01*
X82129069Y-51151694D01*
X82129068Y-51151696D01*
X82044141Y-51310583D01*
X81929849Y-51449849D01*
X81790583Y-51564141D01*
X81631696Y-51649068D01*
X81631694Y-51649069D01*
X81459294Y-51701367D01*
X81324931Y-51714600D01*
X81235069Y-51714600D01*
X81100706Y-51701367D01*
X80928306Y-51649069D01*
X80928304Y-51649068D01*
X80769417Y-51564141D01*
X80630151Y-51449849D01*
X80515859Y-51310583D01*
X80430932Y-51151696D01*
X80430931Y-51151694D01*
X80378633Y-50979294D01*
X80360975Y-50800000D01*
X80378633Y-50620706D01*
X80430931Y-50448306D01*
X80515860Y-50289416D01*
X80630151Y-50150151D01*
X80769416Y-50035860D01*
X80769415Y-50035860D01*
X80769417Y-50035859D01*
X80928304Y-49950932D01*
X80928306Y-49950931D01*
X81100706Y-49898633D01*
X81235069Y-49885400D01*
X81324931Y-49885400D01*
X81459294Y-49898633D01*
X81459294Y-49898633D01*
G37*
G36*
X76379294Y-49898633D02*
X76551694Y-49950931D01*
X76551696Y-49950932D01*
X76710583Y-50035859D01*
X76710585Y-50035860D01*
X76710584Y-50035860D01*
X76849849Y-50150151D01*
X76964140Y-50289416D01*
X77049069Y-50448306D01*
X77101367Y-50620706D01*
X77119025Y-50800000D01*
X77101367Y-50979294D01*
X77049069Y-51151694D01*
X77049068Y-51151696D01*
X76964141Y-51310583D01*
X76849849Y-51449849D01*
X76710583Y-51564141D01*
X76551696Y-51649068D01*
X76551694Y-51649069D01*
X76379294Y-51701367D01*
X76244931Y-51714600D01*
X76155069Y-51714600D01*
X76020706Y-51701367D01*
X75848306Y-51649069D01*
X75848304Y-51649068D01*
X75689417Y-51564141D01*
X75550151Y-51449849D01*
X75435859Y-51310583D01*
X75350932Y-51151696D01*
X75350931Y-51151694D01*
X75298633Y-50979294D01*
X75280975Y-50800000D01*
X75298633Y-50620706D01*
X75350931Y-50448306D01*
X75435860Y-50289416D01*
X75550151Y-50150151D01*
X75689416Y-50035860D01*
X75689415Y-50035860D01*
X75689417Y-50035859D01*
X75848304Y-49950932D01*
X75848306Y-49950931D01*
X76020706Y-49898633D01*
X76155069Y-49885400D01*
X76244931Y-49885400D01*
X76379294Y-49898633D01*
X76379294Y-49898633D01*
G37*
G36*
X73839294Y-49898633D02*
X74011694Y-49950931D01*
X74011696Y-49950932D01*
X74170583Y-50035859D01*
X74170585Y-50035860D01*
X74170584Y-50035860D01*
X74309849Y-50150151D01*
X74424140Y-50289416D01*
X74509069Y-50448306D01*
X74561367Y-50620706D01*
X74579025Y-50800000D01*
X74561367Y-50979294D01*
X74509069Y-51151694D01*
X74509068Y-51151696D01*
X74424141Y-51310583D01*
X74309849Y-51449849D01*
X74170583Y-51564141D01*
X74011696Y-51649068D01*
X74011694Y-51649069D01*
X73839294Y-51701367D01*
X73704931Y-51714600D01*
X73615069Y-51714600D01*
X73480706Y-51701367D01*
X73308306Y-51649069D01*
X73308304Y-51649068D01*
X73149417Y-51564141D01*
X73010151Y-51449849D01*
X72895859Y-51310583D01*
X72810932Y-51151696D01*
X72810931Y-51151694D01*
X72758633Y-50979294D01*
X72740975Y-50800000D01*
X72758633Y-50620706D01*
X72810931Y-50448306D01*
X72895860Y-50289416D01*
X73010151Y-50150151D01*
X73149416Y-50035860D01*
X73149415Y-50035860D01*
X73149417Y-50035859D01*
X73308304Y-49950932D01*
X73308306Y-49950931D01*
X73480706Y-49898633D01*
X73615069Y-49885400D01*
X73704931Y-49885400D01*
X73839294Y-49898633D01*
X73839294Y-49898633D01*
G37*
G36*
X71299294Y-49898633D02*
X71471694Y-49950931D01*
X71471696Y-49950932D01*
X71630583Y-50035859D01*
X71630585Y-50035860D01*
X71630584Y-50035860D01*
X71769849Y-50150151D01*
X71884140Y-50289416D01*
X71969069Y-50448306D01*
X72021367Y-50620706D01*
X72039025Y-50800000D01*
X72021367Y-50979294D01*
X71969069Y-51151694D01*
X71969068Y-51151696D01*
X71884141Y-51310583D01*
X71769849Y-51449849D01*
X71630583Y-51564141D01*
X71471696Y-51649068D01*
X71471694Y-51649069D01*
X71299294Y-51701367D01*
X71164931Y-51714600D01*
X71075069Y-51714600D01*
X70940706Y-51701367D01*
X70768306Y-51649069D01*
X70768304Y-51649068D01*
X70609417Y-51564141D01*
X70470151Y-51449849D01*
X70355859Y-51310583D01*
X70270932Y-51151696D01*
X70270931Y-51151694D01*
X70218633Y-50979294D01*
X70200975Y-50800000D01*
X70218633Y-50620706D01*
X70270931Y-50448306D01*
X70355860Y-50289416D01*
X70470151Y-50150151D01*
X70609416Y-50035860D01*
X70609415Y-50035860D01*
X70609417Y-50035859D01*
X70768304Y-49950932D01*
X70768306Y-49950931D01*
X70940706Y-49898633D01*
X71075069Y-49885400D01*
X71164931Y-49885400D01*
X71299294Y-49898633D01*
X71299294Y-49898633D01*
G37*
G36*
X83999294Y-49898633D02*
X84171694Y-49950931D01*
X84171696Y-49950932D01*
X84330583Y-50035859D01*
X84330585Y-50035860D01*
X84330584Y-50035860D01*
X84469849Y-50150151D01*
X84584140Y-50289416D01*
X84669069Y-50448306D01*
X84721367Y-50620706D01*
X84739025Y-50800000D01*
X84721367Y-50979294D01*
X84669069Y-51151694D01*
X84669068Y-51151696D01*
X84584141Y-51310583D01*
X84469849Y-51449849D01*
X84330583Y-51564141D01*
X84171696Y-51649068D01*
X84171694Y-51649069D01*
X83999294Y-51701367D01*
X83864931Y-51714600D01*
X83775069Y-51714600D01*
X83640706Y-51701367D01*
X83468306Y-51649069D01*
X83468304Y-51649068D01*
X83309417Y-51564141D01*
X83170151Y-51449849D01*
X83055859Y-51310583D01*
X82970932Y-51151696D01*
X82970931Y-51151694D01*
X82918633Y-50979294D01*
X82900975Y-50800000D01*
X82918633Y-50620706D01*
X82970931Y-50448306D01*
X83055860Y-50289416D01*
X83170151Y-50150151D01*
X83309416Y-50035860D01*
X83309415Y-50035860D01*
X83309417Y-50035859D01*
X83468304Y-49950932D01*
X83468306Y-49950931D01*
X83640706Y-49898633D01*
X83775069Y-49885400D01*
X83864931Y-49885400D01*
X83999294Y-49898633D01*
X83999294Y-49898633D01*
G37*
G36*
X86539294Y-49898633D02*
X86711694Y-49950931D01*
X86711696Y-49950932D01*
X86870583Y-50035859D01*
X86870585Y-50035860D01*
X86870584Y-50035860D01*
X87009849Y-50150151D01*
X87124140Y-50289416D01*
X87209069Y-50448306D01*
X87261367Y-50620706D01*
X87279025Y-50800000D01*
X87261367Y-50979294D01*
X87209069Y-51151694D01*
X87209068Y-51151696D01*
X87124141Y-51310583D01*
X87009849Y-51449849D01*
X86870583Y-51564141D01*
X86711696Y-51649068D01*
X86711694Y-51649069D01*
X86539294Y-51701367D01*
X86404931Y-51714600D01*
X86315069Y-51714600D01*
X86180706Y-51701367D01*
X86008306Y-51649069D01*
X86008304Y-51649068D01*
X85849417Y-51564141D01*
X85710151Y-51449849D01*
X85595859Y-51310583D01*
X85510932Y-51151696D01*
X85510931Y-51151694D01*
X85458633Y-50979294D01*
X85440975Y-50800000D01*
X85458633Y-50620706D01*
X85510931Y-50448306D01*
X85595860Y-50289416D01*
X85710151Y-50150151D01*
X85849416Y-50035860D01*
X85849415Y-50035860D01*
X85849417Y-50035859D01*
X86008304Y-49950932D01*
X86008306Y-49950931D01*
X86180706Y-49898633D01*
X86315069Y-49885400D01*
X86404931Y-49885400D01*
X86539294Y-49898633D01*
X86539294Y-49898633D01*
G37*
G36*
X68759294Y-49898633D02*
X68931694Y-49950931D01*
X68931696Y-49950932D01*
X69090583Y-50035859D01*
X69090585Y-50035860D01*
X69090584Y-50035860D01*
X69229849Y-50150151D01*
X69344140Y-50289416D01*
X69429069Y-50448306D01*
X69481367Y-50620706D01*
X69499025Y-50800000D01*
X69481367Y-50979294D01*
X69429069Y-51151694D01*
X69429068Y-51151696D01*
X69344141Y-51310583D01*
X69229849Y-51449849D01*
X69090583Y-51564141D01*
X68931696Y-51649068D01*
X68931694Y-51649069D01*
X68759294Y-51701367D01*
X68624931Y-51714600D01*
X68535069Y-51714600D01*
X68400706Y-51701367D01*
X68228306Y-51649069D01*
X68228304Y-51649068D01*
X68069417Y-51564141D01*
X67930151Y-51449849D01*
X67815859Y-51310583D01*
X67730932Y-51151696D01*
X67730931Y-51151694D01*
X67678633Y-50979294D01*
X67660975Y-50800000D01*
X67678633Y-50620706D01*
X67730931Y-50448306D01*
X67815860Y-50289416D01*
X67930151Y-50150151D01*
X68069416Y-50035860D01*
X68069415Y-50035860D01*
X68069417Y-50035859D01*
X68228304Y-49950932D01*
X68228306Y-49950931D01*
X68400706Y-49898633D01*
X68535069Y-49885400D01*
X68624931Y-49885400D01*
X68759294Y-49898633D01*
X68759294Y-49898633D01*
G37*
G36*
X66219294Y-49898633D02*
X66391694Y-49950931D01*
X66391696Y-49950932D01*
X66550583Y-50035859D01*
X66550585Y-50035860D01*
X66550584Y-50035860D01*
X66689849Y-50150151D01*
X66804140Y-50289416D01*
X66889069Y-50448306D01*
X66941367Y-50620706D01*
X66959025Y-50800000D01*
X66941367Y-50979294D01*
X66889069Y-51151694D01*
X66889068Y-51151696D01*
X66804141Y-51310583D01*
X66689849Y-51449849D01*
X66550583Y-51564141D01*
X66391696Y-51649068D01*
X66391694Y-51649069D01*
X66219294Y-51701367D01*
X66084931Y-51714600D01*
X65995069Y-51714600D01*
X65860706Y-51701367D01*
X65688306Y-51649069D01*
X65688304Y-51649068D01*
X65529417Y-51564141D01*
X65390151Y-51449849D01*
X65275859Y-51310583D01*
X65190932Y-51151696D01*
X65190931Y-51151694D01*
X65138633Y-50979294D01*
X65120975Y-50800000D01*
X65138633Y-50620706D01*
X65190931Y-50448306D01*
X65275860Y-50289416D01*
X65390151Y-50150151D01*
X65529416Y-50035860D01*
X65529415Y-50035860D01*
X65529417Y-50035859D01*
X65688304Y-49950932D01*
X65688306Y-49950931D01*
X65860706Y-49898633D01*
X65995069Y-49885400D01*
X66084931Y-49885400D01*
X66219294Y-49898633D01*
X66219294Y-49898633D01*
G37*
G36*
X63679294Y-49898633D02*
X63851694Y-49950931D01*
X63851696Y-49950932D01*
X64010583Y-50035859D01*
X64010585Y-50035860D01*
X64010584Y-50035860D01*
X64149849Y-50150151D01*
X64264140Y-50289416D01*
X64349069Y-50448306D01*
X64401367Y-50620706D01*
X64419025Y-50800000D01*
X64401367Y-50979294D01*
X64349069Y-51151694D01*
X64349068Y-51151696D01*
X64264141Y-51310583D01*
X64149849Y-51449849D01*
X64010583Y-51564141D01*
X63851696Y-51649068D01*
X63851694Y-51649069D01*
X63679294Y-51701367D01*
X63544931Y-51714600D01*
X63455069Y-51714600D01*
X63320706Y-51701367D01*
X63148306Y-51649069D01*
X63148304Y-51649068D01*
X62989417Y-51564141D01*
X62850151Y-51449849D01*
X62735859Y-51310583D01*
X62650932Y-51151696D01*
X62650931Y-51151694D01*
X62598633Y-50979294D01*
X62580975Y-50800000D01*
X62598633Y-50620706D01*
X62650931Y-50448306D01*
X62735860Y-50289416D01*
X62850151Y-50150151D01*
X62989416Y-50035860D01*
X62989415Y-50035860D01*
X62989417Y-50035859D01*
X63148304Y-49950932D01*
X63148306Y-49950931D01*
X63320706Y-49898633D01*
X63455069Y-49885400D01*
X63544931Y-49885400D01*
X63679294Y-49898633D01*
X63679294Y-49898633D01*
G37*
G36*
X61139294Y-49898633D02*
X61311694Y-49950931D01*
X61311696Y-49950932D01*
X61470583Y-50035859D01*
X61470585Y-50035860D01*
X61470584Y-50035860D01*
X61609849Y-50150151D01*
X61724140Y-50289416D01*
X61809069Y-50448306D01*
X61861367Y-50620706D01*
X61879025Y-50800000D01*
X61861367Y-50979294D01*
X61809069Y-51151694D01*
X61809068Y-51151696D01*
X61724141Y-51310583D01*
X61609849Y-51449849D01*
X61470583Y-51564141D01*
X61311696Y-51649068D01*
X61311694Y-51649069D01*
X61139294Y-51701367D01*
X61004931Y-51714600D01*
X60915069Y-51714600D01*
X60780706Y-51701367D01*
X60608306Y-51649069D01*
X60608304Y-51649068D01*
X60449417Y-51564141D01*
X60310151Y-51449849D01*
X60195859Y-51310583D01*
X60110932Y-51151696D01*
X60110931Y-51151694D01*
X60058633Y-50979294D01*
X60040975Y-50800000D01*
X60058633Y-50620706D01*
X60110931Y-50448306D01*
X60195860Y-50289416D01*
X60310151Y-50150151D01*
X60449416Y-50035860D01*
X60449415Y-50035860D01*
X60449417Y-50035859D01*
X60608304Y-49950932D01*
X60608306Y-49950931D01*
X60780706Y-49898633D01*
X60915069Y-49885400D01*
X61004931Y-49885400D01*
X61139294Y-49898633D01*
X61139294Y-49898633D01*
G37*
G36*
X109663000Y-49973000D02*
X107761000Y-49973000D01*
X107761000Y-48071000D01*
X109663000Y-48071000D01*
X109663000Y-49973000D01*
X109663000Y-49973000D01*
G37*
G36*
X96455000Y-49973000D02*
X94553000Y-49973000D01*
X94553000Y-48071000D01*
X96455000Y-48071000D01*
X96455000Y-49973000D01*
X96455000Y-49973000D01*
G37*
G36*
X98321396Y-48107546D02*
X98494466Y-48179234D01*
X98650230Y-48283312D01*
X98782688Y-48415770D01*
X98886766Y-48571534D01*
X98958454Y-48744604D01*
X98995000Y-48928333D01*
X98995000Y-49115667D01*
X98958454Y-49299396D01*
X98886766Y-49472466D01*
X98782688Y-49628230D01*
X98650230Y-49760688D01*
X98494466Y-49864766D01*
X98321396Y-49936454D01*
X98137667Y-49973000D01*
X97950333Y-49973000D01*
X97766604Y-49936454D01*
X97593534Y-49864766D01*
X97437770Y-49760688D01*
X97305312Y-49628230D01*
X97201234Y-49472466D01*
X97129546Y-49299396D01*
X97093000Y-49115667D01*
X97093000Y-48928333D01*
X97129546Y-48744604D01*
X97201234Y-48571534D01*
X97305312Y-48415770D01*
X97437770Y-48283312D01*
X97593534Y-48179234D01*
X97766604Y-48107546D01*
X97950333Y-48071000D01*
X98137667Y-48071000D01*
X98321396Y-48107546D01*
X98321396Y-48107546D01*
G37*
G36*
X111529396Y-48107546D02*
X111702466Y-48179234D01*
X111858230Y-48283312D01*
X111990688Y-48415770D01*
X112094766Y-48571534D01*
X112166454Y-48744604D01*
X112203000Y-48928333D01*
X112203000Y-49115667D01*
X112166454Y-49299396D01*
X112094766Y-49472466D01*
X111990688Y-49628230D01*
X111858230Y-49760688D01*
X111702466Y-49864766D01*
X111529396Y-49936454D01*
X111345667Y-49973000D01*
X111158333Y-49973000D01*
X110974604Y-49936454D01*
X110801534Y-49864766D01*
X110645770Y-49760688D01*
X110513312Y-49628230D01*
X110409234Y-49472466D01*
X110337546Y-49299396D01*
X110301000Y-49115667D01*
X110301000Y-48928333D01*
X110337546Y-48744604D01*
X110409234Y-48571534D01*
X110513312Y-48415770D01*
X110645770Y-48283312D01*
X110801534Y-48179234D01*
X110974604Y-48107546D01*
X111158333Y-48071000D01*
X111345667Y-48071000D01*
X111529396Y-48107546D01*
X111529396Y-48107546D01*
G37*
G36*
X103059000Y-49973000D02*
X101157000Y-49973000D01*
X101157000Y-48071000D01*
X103059000Y-48071000D01*
X103059000Y-49973000D01*
X103059000Y-49973000D01*
G37*
G36*
X104925396Y-48107546D02*
X105098466Y-48179234D01*
X105254230Y-48283312D01*
X105386688Y-48415770D01*
X105490766Y-48571534D01*
X105562454Y-48744604D01*
X105599000Y-48928333D01*
X105599000Y-49115667D01*
X105562454Y-49299396D01*
X105490766Y-49472466D01*
X105386688Y-49628230D01*
X105254230Y-49760688D01*
X105098466Y-49864766D01*
X104925396Y-49936454D01*
X104741667Y-49973000D01*
X104554333Y-49973000D01*
X104370604Y-49936454D01*
X104197534Y-49864766D01*
X104041770Y-49760688D01*
X103909312Y-49628230D01*
X103805234Y-49472466D01*
X103733546Y-49299396D01*
X103697000Y-49115667D01*
X103697000Y-48928333D01*
X103733546Y-48744604D01*
X103805234Y-48571534D01*
X103909312Y-48415770D01*
X104041770Y-48283312D01*
X104197534Y-48179234D01*
X104370604Y-48107546D01*
X104554333Y-48071000D01*
X104741667Y-48071000D01*
X104925396Y-48107546D01*
X104925396Y-48107546D01*
G37*
G36*
X71299294Y-47358633D02*
X71471694Y-47410931D01*
X71471696Y-47410932D01*
X71630583Y-47495859D01*
X71630585Y-47495860D01*
X71630584Y-47495860D01*
X71769849Y-47610151D01*
X71884140Y-47749416D01*
X71969069Y-47908306D01*
X72021367Y-48080706D01*
X72039025Y-48260000D01*
X72021367Y-48439294D01*
X71969069Y-48611694D01*
X71969068Y-48611696D01*
X71884141Y-48770583D01*
X71769849Y-48909849D01*
X71630583Y-49024141D01*
X71471696Y-49109068D01*
X71471694Y-49109069D01*
X71299294Y-49161367D01*
X71164931Y-49174600D01*
X71075069Y-49174600D01*
X70940706Y-49161367D01*
X70768306Y-49109069D01*
X70768304Y-49109068D01*
X70609417Y-49024141D01*
X70470151Y-48909849D01*
X70355859Y-48770583D01*
X70270932Y-48611696D01*
X70270931Y-48611694D01*
X70218633Y-48439294D01*
X70200975Y-48260000D01*
X70218633Y-48080706D01*
X70270931Y-47908306D01*
X70355860Y-47749416D01*
X70470151Y-47610151D01*
X70609416Y-47495860D01*
X70609415Y-47495860D01*
X70609417Y-47495859D01*
X70768304Y-47410932D01*
X70768306Y-47410931D01*
X70940706Y-47358633D01*
X71075069Y-47345400D01*
X71164931Y-47345400D01*
X71299294Y-47358633D01*
X71299294Y-47358633D01*
G37*
G36*
X81459294Y-47358633D02*
X81631694Y-47410931D01*
X81631696Y-47410932D01*
X81790583Y-47495859D01*
X81790585Y-47495860D01*
X81790584Y-47495860D01*
X81929849Y-47610151D01*
X82044140Y-47749416D01*
X82129069Y-47908306D01*
X82181367Y-48080706D01*
X82199025Y-48260000D01*
X82181367Y-48439294D01*
X82129069Y-48611694D01*
X82129068Y-48611696D01*
X82044141Y-48770583D01*
X81929849Y-48909849D01*
X81790583Y-49024141D01*
X81631696Y-49109068D01*
X81631694Y-49109069D01*
X81459294Y-49161367D01*
X81324931Y-49174600D01*
X81235069Y-49174600D01*
X81100706Y-49161367D01*
X80928306Y-49109069D01*
X80928304Y-49109068D01*
X80769417Y-49024141D01*
X80630151Y-48909849D01*
X80515859Y-48770583D01*
X80430932Y-48611696D01*
X80430931Y-48611694D01*
X80378633Y-48439294D01*
X80360975Y-48260000D01*
X80378633Y-48080706D01*
X80430931Y-47908306D01*
X80515860Y-47749416D01*
X80630151Y-47610151D01*
X80769416Y-47495860D01*
X80769415Y-47495860D01*
X80769417Y-47495859D01*
X80928304Y-47410932D01*
X80928306Y-47410931D01*
X81100706Y-47358633D01*
X81235069Y-47345400D01*
X81324931Y-47345400D01*
X81459294Y-47358633D01*
X81459294Y-47358633D01*
G37*
G36*
X78919294Y-47358633D02*
X79091694Y-47410931D01*
X79091696Y-47410932D01*
X79250583Y-47495859D01*
X79250585Y-47495860D01*
X79250584Y-47495860D01*
X79389849Y-47610151D01*
X79504140Y-47749416D01*
X79589069Y-47908306D01*
X79641367Y-48080706D01*
X79659025Y-48260000D01*
X79641367Y-48439294D01*
X79589069Y-48611694D01*
X79589068Y-48611696D01*
X79504141Y-48770583D01*
X79389849Y-48909849D01*
X79250583Y-49024141D01*
X79091696Y-49109068D01*
X79091694Y-49109069D01*
X78919294Y-49161367D01*
X78784931Y-49174600D01*
X78695069Y-49174600D01*
X78560706Y-49161367D01*
X78388306Y-49109069D01*
X78388304Y-49109068D01*
X78229417Y-49024141D01*
X78090151Y-48909849D01*
X77975859Y-48770583D01*
X77890932Y-48611696D01*
X77890931Y-48611694D01*
X77838633Y-48439294D01*
X77820975Y-48260000D01*
X77838633Y-48080706D01*
X77890931Y-47908306D01*
X77975860Y-47749416D01*
X78090151Y-47610151D01*
X78229416Y-47495860D01*
X78229415Y-47495860D01*
X78229417Y-47495859D01*
X78388304Y-47410932D01*
X78388306Y-47410931D01*
X78560706Y-47358633D01*
X78695069Y-47345400D01*
X78784931Y-47345400D01*
X78919294Y-47358633D01*
X78919294Y-47358633D01*
G37*
G36*
X76379294Y-47358633D02*
X76551694Y-47410931D01*
X76551696Y-47410932D01*
X76710583Y-47495859D01*
X76710585Y-47495860D01*
X76710584Y-47495860D01*
X76849849Y-47610151D01*
X76964140Y-47749416D01*
X77049069Y-47908306D01*
X77101367Y-48080706D01*
X77119025Y-48260000D01*
X77101367Y-48439294D01*
X77049069Y-48611694D01*
X77049068Y-48611696D01*
X76964141Y-48770583D01*
X76849849Y-48909849D01*
X76710583Y-49024141D01*
X76551696Y-49109068D01*
X76551694Y-49109069D01*
X76379294Y-49161367D01*
X76244931Y-49174600D01*
X76155069Y-49174600D01*
X76020706Y-49161367D01*
X75848306Y-49109069D01*
X75848304Y-49109068D01*
X75689417Y-49024141D01*
X75550151Y-48909849D01*
X75435859Y-48770583D01*
X75350932Y-48611696D01*
X75350931Y-48611694D01*
X75298633Y-48439294D01*
X75280975Y-48260000D01*
X75298633Y-48080706D01*
X75350931Y-47908306D01*
X75435860Y-47749416D01*
X75550151Y-47610151D01*
X75689416Y-47495860D01*
X75689415Y-47495860D01*
X75689417Y-47495859D01*
X75848304Y-47410932D01*
X75848306Y-47410931D01*
X76020706Y-47358633D01*
X76155069Y-47345400D01*
X76244931Y-47345400D01*
X76379294Y-47358633D01*
X76379294Y-47358633D01*
G37*
G36*
X73839294Y-47358633D02*
X74011694Y-47410931D01*
X74011696Y-47410932D01*
X74170583Y-47495859D01*
X74170585Y-47495860D01*
X74170584Y-47495860D01*
X74309849Y-47610151D01*
X74424140Y-47749416D01*
X74509069Y-47908306D01*
X74561367Y-48080706D01*
X74579025Y-48260000D01*
X74561367Y-48439294D01*
X74509069Y-48611694D01*
X74509068Y-48611696D01*
X74424141Y-48770583D01*
X74309849Y-48909849D01*
X74170583Y-49024141D01*
X74011696Y-49109068D01*
X74011694Y-49109069D01*
X73839294Y-49161367D01*
X73704931Y-49174600D01*
X73615069Y-49174600D01*
X73480706Y-49161367D01*
X73308306Y-49109069D01*
X73308304Y-49109068D01*
X73149417Y-49024141D01*
X73010151Y-48909849D01*
X72895859Y-48770583D01*
X72810932Y-48611696D01*
X72810931Y-48611694D01*
X72758633Y-48439294D01*
X72740975Y-48260000D01*
X72758633Y-48080706D01*
X72810931Y-47908306D01*
X72895860Y-47749416D01*
X73010151Y-47610151D01*
X73149416Y-47495860D01*
X73149415Y-47495860D01*
X73149417Y-47495859D01*
X73308304Y-47410932D01*
X73308306Y-47410931D01*
X73480706Y-47358633D01*
X73615069Y-47345400D01*
X73704931Y-47345400D01*
X73839294Y-47358633D01*
X73839294Y-47358633D01*
G37*
G36*
X61874600Y-49174600D02*
X60045400Y-49174600D01*
X60045400Y-47345400D01*
X61874600Y-47345400D01*
X61874600Y-49174600D01*
X61874600Y-49174600D01*
G37*
G36*
X63679294Y-47358633D02*
X63851694Y-47410931D01*
X63851696Y-47410932D01*
X64010583Y-47495859D01*
X64010585Y-47495860D01*
X64010584Y-47495860D01*
X64149849Y-47610151D01*
X64264140Y-47749416D01*
X64349069Y-47908306D01*
X64401367Y-48080706D01*
X64419025Y-48260000D01*
X64401367Y-48439294D01*
X64349069Y-48611694D01*
X64349068Y-48611696D01*
X64264141Y-48770583D01*
X64149849Y-48909849D01*
X64010583Y-49024141D01*
X63851696Y-49109068D01*
X63851694Y-49109069D01*
X63679294Y-49161367D01*
X63544931Y-49174600D01*
X63455069Y-49174600D01*
X63320706Y-49161367D01*
X63148306Y-49109069D01*
X63148304Y-49109068D01*
X62989417Y-49024141D01*
X62850151Y-48909849D01*
X62735859Y-48770583D01*
X62650932Y-48611696D01*
X62650931Y-48611694D01*
X62598633Y-48439294D01*
X62580975Y-48260000D01*
X62598633Y-48080706D01*
X62650931Y-47908306D01*
X62735860Y-47749416D01*
X62850151Y-47610151D01*
X62989416Y-47495860D01*
X62989415Y-47495860D01*
X62989417Y-47495859D01*
X63148304Y-47410932D01*
X63148306Y-47410931D01*
X63320706Y-47358633D01*
X63455069Y-47345400D01*
X63544931Y-47345400D01*
X63679294Y-47358633D01*
X63679294Y-47358633D01*
G37*
G36*
X66219294Y-47358633D02*
X66391694Y-47410931D01*
X66391696Y-47410932D01*
X66550583Y-47495859D01*
X66550585Y-47495860D01*
X66550584Y-47495860D01*
X66689849Y-47610151D01*
X66804140Y-47749416D01*
X66889069Y-47908306D01*
X66941367Y-48080706D01*
X66959025Y-48260000D01*
X66941367Y-48439294D01*
X66889069Y-48611694D01*
X66889068Y-48611696D01*
X66804141Y-48770583D01*
X66689849Y-48909849D01*
X66550583Y-49024141D01*
X66391696Y-49109068D01*
X66391694Y-49109069D01*
X66219294Y-49161367D01*
X66084931Y-49174600D01*
X65995069Y-49174600D01*
X65860706Y-49161367D01*
X65688306Y-49109069D01*
X65688304Y-49109068D01*
X65529417Y-49024141D01*
X65390151Y-48909849D01*
X65275859Y-48770583D01*
X65190932Y-48611696D01*
X65190931Y-48611694D01*
X65138633Y-48439294D01*
X65120975Y-48260000D01*
X65138633Y-48080706D01*
X65190931Y-47908306D01*
X65275860Y-47749416D01*
X65390151Y-47610151D01*
X65529416Y-47495860D01*
X65529415Y-47495860D01*
X65529417Y-47495859D01*
X65688304Y-47410932D01*
X65688306Y-47410931D01*
X65860706Y-47358633D01*
X65995069Y-47345400D01*
X66084931Y-47345400D01*
X66219294Y-47358633D01*
X66219294Y-47358633D01*
G37*
G36*
X68759294Y-47358633D02*
X68931694Y-47410931D01*
X68931696Y-47410932D01*
X69090583Y-47495859D01*
X69090585Y-47495860D01*
X69090584Y-47495860D01*
X69229849Y-47610151D01*
X69344140Y-47749416D01*
X69429069Y-47908306D01*
X69481367Y-48080706D01*
X69499025Y-48260000D01*
X69481367Y-48439294D01*
X69429069Y-48611694D01*
X69429068Y-48611696D01*
X69344141Y-48770583D01*
X69229849Y-48909849D01*
X69090583Y-49024141D01*
X68931696Y-49109068D01*
X68931694Y-49109069D01*
X68759294Y-49161367D01*
X68624931Y-49174600D01*
X68535069Y-49174600D01*
X68400706Y-49161367D01*
X68228306Y-49109069D01*
X68228304Y-49109068D01*
X68069417Y-49024141D01*
X67930151Y-48909849D01*
X67815859Y-48770583D01*
X67730932Y-48611696D01*
X67730931Y-48611694D01*
X67678633Y-48439294D01*
X67660975Y-48260000D01*
X67678633Y-48080706D01*
X67730931Y-47908306D01*
X67815860Y-47749416D01*
X67930151Y-47610151D01*
X68069416Y-47495860D01*
X68069415Y-47495860D01*
X68069417Y-47495859D01*
X68228304Y-47410932D01*
X68228306Y-47410931D01*
X68400706Y-47358633D01*
X68535069Y-47345400D01*
X68624931Y-47345400D01*
X68759294Y-47358633D01*
X68759294Y-47358633D01*
G37*
G36*
X86539294Y-47358633D02*
X86711694Y-47410931D01*
X86711696Y-47410932D01*
X86870583Y-47495859D01*
X86870585Y-47495860D01*
X86870584Y-47495860D01*
X87009849Y-47610151D01*
X87124140Y-47749416D01*
X87209069Y-47908306D01*
X87261367Y-48080706D01*
X87279025Y-48260000D01*
X87261367Y-48439294D01*
X87209069Y-48611694D01*
X87209068Y-48611696D01*
X87124141Y-48770583D01*
X87009849Y-48909849D01*
X86870583Y-49024141D01*
X86711696Y-49109068D01*
X86711694Y-49109069D01*
X86539294Y-49161367D01*
X86404931Y-49174600D01*
X86315069Y-49174600D01*
X86180706Y-49161367D01*
X86008306Y-49109069D01*
X86008304Y-49109068D01*
X85849417Y-49024141D01*
X85710151Y-48909849D01*
X85595859Y-48770583D01*
X85510932Y-48611696D01*
X85510931Y-48611694D01*
X85458633Y-48439294D01*
X85440975Y-48260000D01*
X85458633Y-48080706D01*
X85510931Y-47908306D01*
X85595860Y-47749416D01*
X85710151Y-47610151D01*
X85849416Y-47495860D01*
X85849415Y-47495860D01*
X85849417Y-47495859D01*
X86008304Y-47410932D01*
X86008306Y-47410931D01*
X86180706Y-47358633D01*
X86315069Y-47345400D01*
X86404931Y-47345400D01*
X86539294Y-47358633D01*
X86539294Y-47358633D01*
G37*
G36*
X83999294Y-47358633D02*
X84171694Y-47410931D01*
X84171696Y-47410932D01*
X84330583Y-47495859D01*
X84330585Y-47495860D01*
X84330584Y-47495860D01*
X84469849Y-47610151D01*
X84584140Y-47749416D01*
X84669069Y-47908306D01*
X84721367Y-48080706D01*
X84739025Y-48260000D01*
X84721367Y-48439294D01*
X84669069Y-48611694D01*
X84669068Y-48611696D01*
X84584141Y-48770583D01*
X84469849Y-48909849D01*
X84330583Y-49024141D01*
X84171696Y-49109068D01*
X84171694Y-49109069D01*
X83999294Y-49161367D01*
X83864931Y-49174600D01*
X83775069Y-49174600D01*
X83640706Y-49161367D01*
X83468306Y-49109069D01*
X83468304Y-49109068D01*
X83309417Y-49024141D01*
X83170151Y-48909849D01*
X83055859Y-48770583D01*
X82970932Y-48611696D01*
X82970931Y-48611694D01*
X82918633Y-48439294D01*
X82900975Y-48260000D01*
X82918633Y-48080706D01*
X82970931Y-47908306D01*
X83055860Y-47749416D01*
X83170151Y-47610151D01*
X83309416Y-47495860D01*
X83309415Y-47495860D01*
X83309417Y-47495859D01*
X83468304Y-47410932D01*
X83468306Y-47410931D01*
X83640706Y-47358633D01*
X83775069Y-47345400D01*
X83864931Y-47345400D01*
X83999294Y-47358633D01*
X83999294Y-47358633D01*
G37*
G36*
X91180228Y-45917703D02*
X91335100Y-45981853D01*
X91474481Y-46074985D01*
X91593015Y-46193519D01*
X91686147Y-46332900D01*
X91750297Y-46487772D01*
X91783000Y-46652184D01*
X91783000Y-46819816D01*
X91750297Y-46984228D01*
X91686147Y-47139100D01*
X91593015Y-47278481D01*
X91474481Y-47397015D01*
X91335100Y-47490147D01*
X91180228Y-47554297D01*
X91015816Y-47587000D01*
X90848184Y-47587000D01*
X90683772Y-47554297D01*
X90528900Y-47490147D01*
X90389519Y-47397015D01*
X90270985Y-47278481D01*
X90177853Y-47139100D01*
X90113703Y-46984228D01*
X90081000Y-46819816D01*
X90081000Y-46652184D01*
X90113703Y-46487772D01*
X90177853Y-46332900D01*
X90270985Y-46193519D01*
X90389519Y-46074985D01*
X90528900Y-45981853D01*
X90683772Y-45917703D01*
X90848184Y-45885000D01*
X91015816Y-45885000D01*
X91180228Y-45917703D01*
X91180228Y-45917703D01*
G37*
M02*
