%TF.GenerationSoftware,KiCad,Pcbnew,5.0.2-bee76a0~70~ubuntu18.04.1*%
%TF.CreationDate,2019-02-16T11:07:58+01:00*%
%TF.ProjectId,GP-Pcb,47502d50-6362-42e6-9b69-6361645f7063,2.0*%
%TF.SameCoordinates,Original*%
%TF.FileFunction,Copper,L1,Top*%
%TF.FilePolarity,Positive*%
%FSLAX46Y46*%
G04 Gerber Fmt 4.6, Leading zero omitted, Abs format (unit mm)*
G04 Created by KiCad (PCBNEW 5.0.2-bee76a0~70~ubuntu18.04.1) date sab 16 feb 2019 11:07:58 CET*
%MOMM*%
%LPD*%
G01*
G04 APERTURE LIST*
%ADD10C,0.010000*%
%ADD11R,1.700000X1.700000*%
%ADD12C,1.600000*%
%ADD13R,1.600000X1.600000*%
%ADD14O,1.700000X1.700000*%
%ADD15R,1.524000X1.524000*%
%ADD16C,1.524000*%
%ADD17O,1.600000X1.600000*%
%ADD18O,1.727200X1.727200*%
%ADD19R,1.727200X1.727200*%
%ADD20O,1.501140X2.199640*%
%ADD21O,2.199640X1.501140*%
%ADD22R,2.000000X2.000000*%
%ADD23C,2.000000*%
%ADD24R,1.800000X1.800000*%
%ADD25C,1.800000*%
%ADD26R,3.800000X2.000000*%
%ADD27R,1.500000X2.000000*%
%ADD28C,0.650000*%
%ADD29C,0.160000*%
%ADD30C,0.300000*%
%ADD31C,0.800000*%
%ADD32C,0.254000*%
G04 APERTURE END LIST*
D10*
X113420000Y-45720000D02*
X113420000Y-100720000D01*
X58420000Y-100720000D02*
X113420000Y-100720000D01*
X58420000Y-45720000D02*
X58420000Y-100720000D01*
X58420000Y-45720000D02*
X113420000Y-45720000D01*
D11*
X90932000Y-54102000D03*
D12*
X89916000Y-90170000D03*
X84916000Y-90170000D03*
D13*
X78994000Y-92710000D03*
D12*
X81494000Y-92710000D03*
D11*
X82550000Y-60706000D03*
D14*
X80010000Y-60706000D03*
X82550000Y-58166000D03*
X80010000Y-58166000D03*
X82550000Y-55626000D03*
X80010000Y-55626000D03*
D15*
X76454000Y-67056000D03*
D16*
X73914000Y-67056000D03*
X76454000Y-64516000D03*
X73914000Y-64516000D03*
X76454000Y-61976000D03*
X73914000Y-61976000D03*
X76454000Y-59436000D03*
X73914000Y-59436000D03*
D12*
X67310000Y-66802000D03*
D17*
X59690000Y-66802000D03*
D12*
X90932000Y-46736000D03*
X90932000Y-51736000D03*
X59690000Y-62484000D03*
X64690000Y-62484000D03*
D18*
X83820000Y-50800000D03*
X83820000Y-48260000D03*
X81280000Y-50800000D03*
X81280000Y-48260000D03*
X78740000Y-50800000D03*
X78740000Y-48260000D03*
X76200000Y-50800000D03*
X76200000Y-48260000D03*
X73660000Y-50800000D03*
X73660000Y-48260000D03*
X71120000Y-50800000D03*
X71120000Y-48260000D03*
D19*
X60960000Y-48260000D03*
D18*
X60960000Y-50800000D03*
X63500000Y-48260000D03*
X63500000Y-50800000D03*
X66040000Y-48260000D03*
X66040000Y-50800000D03*
X68580000Y-48260000D03*
X68580000Y-50800000D03*
X86360000Y-48260000D03*
X86360000Y-50800000D03*
D20*
X81026000Y-73660000D03*
X83566000Y-73660000D03*
X61976000Y-86360000D03*
X64516000Y-86360000D03*
X67056000Y-86360000D03*
X69596000Y-86360000D03*
X72136000Y-86360000D03*
X74676000Y-86360000D03*
X77216000Y-86360000D03*
X79756000Y-86360000D03*
X82296000Y-86360000D03*
X84836000Y-86360000D03*
X87376000Y-86360000D03*
X89916000Y-86360000D03*
X89916000Y-71120000D03*
X87376000Y-71120000D03*
X84836000Y-71120000D03*
X82296000Y-71120000D03*
X79756000Y-71120000D03*
X77216000Y-71120000D03*
X74676000Y-71120000D03*
X72136000Y-71120000D03*
X69596000Y-71120000D03*
X67056000Y-71120000D03*
X64516000Y-71120000D03*
X61976000Y-71120000D03*
X73406000Y-73660000D03*
X70866000Y-73660000D03*
D21*
X89916000Y-73660000D03*
X89916000Y-76200000D03*
X89916000Y-78740000D03*
D22*
X96012000Y-68580000D03*
D23*
X103612000Y-68580000D03*
D12*
X111252000Y-58340000D03*
X111252000Y-53340000D03*
X106426000Y-77216000D03*
X106426000Y-82216000D03*
X98512000Y-97028000D03*
D13*
X96012000Y-97028000D03*
D12*
X102616000Y-94568000D03*
X102616000Y-99568000D03*
D13*
X81534000Y-65024000D03*
D12*
X81534000Y-67024000D03*
D24*
X95504000Y-49022000D03*
D25*
X98044000Y-49022000D03*
D24*
X102108000Y-49022000D03*
D25*
X104648000Y-49022000D03*
X111252000Y-49022000D03*
D24*
X108712000Y-49022000D03*
D14*
X111252000Y-64770000D03*
X111252000Y-67310000D03*
X111252000Y-69850000D03*
D11*
X111252000Y-72390000D03*
D14*
X67310000Y-96266000D03*
X67310000Y-98806000D03*
X64770000Y-96266000D03*
X64770000Y-98806000D03*
X62230000Y-96266000D03*
D11*
X62230000Y-98806000D03*
D14*
X90932000Y-98044000D03*
X88392000Y-98044000D03*
X85852000Y-98044000D03*
D11*
X83312000Y-98044000D03*
D14*
X100838000Y-90170000D03*
X98298000Y-90170000D03*
D11*
X95758000Y-90170000D03*
X106426000Y-85344000D03*
D14*
X108966000Y-85344000D03*
X111506000Y-85344000D03*
X100838000Y-85344000D03*
X98298000Y-85344000D03*
D11*
X95758000Y-85344000D03*
X95758000Y-80518000D03*
D14*
X98298000Y-80518000D03*
X100838000Y-80518000D03*
D11*
X106426000Y-98806000D03*
D14*
X108966000Y-98806000D03*
X111506000Y-98806000D03*
D11*
X62230000Y-89916000D03*
D14*
X64770000Y-89916000D03*
X67310000Y-89916000D03*
X71374000Y-89916000D03*
D11*
X73914000Y-89916000D03*
X107696000Y-94488000D03*
D14*
X110236000Y-94488000D03*
X111506000Y-90170000D03*
X108966000Y-90170000D03*
D11*
X106426000Y-90170000D03*
D14*
X60452000Y-80264000D03*
D11*
X60452000Y-77724000D03*
X89408000Y-67564000D03*
D14*
X89408000Y-65024000D03*
D12*
X107696000Y-72390000D03*
D17*
X107696000Y-64770000D03*
D12*
X104394000Y-60960000D03*
D17*
X104394000Y-53340000D03*
X107442000Y-60960000D03*
D12*
X107442000Y-53340000D03*
X95250000Y-53340000D03*
D17*
X95250000Y-60960000D03*
X98298000Y-60960000D03*
D12*
X98298000Y-53340000D03*
X101346000Y-53340000D03*
D17*
X101346000Y-60960000D03*
D12*
X110998000Y-79248000D03*
X110998000Y-82248000D03*
D17*
X94996000Y-76708000D03*
D12*
X102616000Y-76708000D03*
D26*
X73152000Y-99416000D03*
D27*
X73152000Y-93116000D03*
X70852000Y-93116000D03*
X75452000Y-93116000D03*
D28*
X73914000Y-56134000D03*
X77856011Y-56134000D03*
X93980000Y-84917998D03*
X71374000Y-79756000D03*
X60678000Y-58420000D03*
X85852000Y-78994000D03*
X66802000Y-65024000D03*
X66802000Y-78994000D03*
X111760000Y-51054000D03*
X111506000Y-46736000D03*
X68326000Y-55372000D03*
X103632000Y-87122000D03*
X104648000Y-70866000D03*
X109474000Y-69850000D03*
X92964000Y-93167999D03*
X92710000Y-55626000D03*
X82296000Y-80264000D03*
X76185420Y-80249420D03*
X99568000Y-78486000D03*
X102616000Y-82804000D03*
X108776001Y-83247999D03*
X112268000Y-62484000D03*
X77470000Y-78232000D03*
X100330000Y-74930000D03*
X100330000Y-64770000D03*
X100584000Y-99822000D03*
X100584000Y-98672002D03*
X67818000Y-62484000D03*
X69596000Y-66802000D03*
X68002001Y-56965999D03*
X101346000Y-72390000D03*
X92710000Y-95504000D03*
X60452000Y-88138000D03*
X92074000Y-90678000D03*
X92202000Y-61722000D03*
X73152000Y-94742000D03*
X73152000Y-97536000D03*
X76962000Y-57912000D03*
X64516000Y-68580000D03*
X64516000Y-64262000D03*
X69850000Y-52832000D03*
X69850000Y-64262000D03*
X72136000Y-65720000D03*
X72136000Y-53848000D03*
X60706000Y-53848000D03*
X86360000Y-53848000D03*
X77596399Y-52324000D03*
X70866000Y-52324000D03*
X77724000Y-73660000D03*
X91440000Y-82296000D03*
X90932000Y-48334402D03*
X89408000Y-62484000D03*
X87630000Y-62992000D03*
X88997000Y-53086000D03*
X82296000Y-68580000D03*
X78232000Y-68072000D03*
X85344000Y-59436000D03*
X84074000Y-56896000D03*
X86360000Y-56896000D03*
X85598000Y-62230000D03*
X88392000Y-47244000D03*
X87376000Y-54864000D03*
X88392000Y-54864000D03*
X64643601Y-56768399D03*
X62709290Y-63274710D03*
X66040000Y-61214000D03*
X63485420Y-61228580D03*
X67056000Y-76200000D03*
X86614000Y-63754000D03*
X68580000Y-92202000D03*
X67183601Y-54610000D03*
D29*
X73914000Y-56134000D02*
X77978000Y-56134000D01*
X91158168Y-87739830D02*
X93980000Y-84917998D01*
X79876010Y-87739830D02*
X91158168Y-87739830D01*
X79756000Y-87619820D02*
X79876010Y-87739830D01*
X79756000Y-86360000D02*
X79756000Y-87619820D01*
D30*
X81502000Y-67056000D02*
X81534000Y-67024000D01*
X76454000Y-67056000D02*
X81502000Y-67056000D01*
D31*
X88392000Y-98044000D02*
X90932000Y-98044000D01*
D29*
X59690000Y-59408000D02*
X60678000Y-58420000D01*
X59690000Y-62484000D02*
X59690000Y-59408000D01*
D30*
X82665370Y-67024000D02*
X82697370Y-67056000D01*
X81534000Y-67024000D02*
X82665370Y-67024000D01*
X82697370Y-67056000D02*
X85598000Y-67056000D01*
D29*
X59690000Y-62484000D02*
X62230000Y-65024000D01*
X62230000Y-65024000D02*
X66802000Y-65024000D01*
D31*
X97111999Y-98428001D02*
X98512000Y-97028000D01*
X94731999Y-98428001D02*
X97111999Y-98428001D01*
X94347998Y-98044000D02*
X94731999Y-98428001D01*
X90932000Y-98044000D02*
X94347998Y-98044000D01*
X102616000Y-98436630D02*
X102616000Y-99568000D01*
X101207370Y-97028000D02*
X102616000Y-98436630D01*
X98512000Y-97028000D02*
X101207370Y-97028000D01*
X108966000Y-97603919D02*
X108966000Y-98806000D01*
X104828001Y-97355999D02*
X108718080Y-97355999D01*
X108718080Y-97355999D02*
X108966000Y-97603919D01*
X102616000Y-99568000D02*
X104828001Y-97355999D01*
D30*
X80694001Y-93509999D02*
X81494000Y-92710000D01*
X77246001Y-93860001D02*
X80343999Y-93860001D01*
X76502000Y-93116000D02*
X77246001Y-93860001D01*
X80343999Y-93860001D02*
X80694001Y-93509999D01*
X75452000Y-93116000D02*
X76502000Y-93116000D01*
X84034000Y-90170000D02*
X84916000Y-90170000D01*
X81494000Y-92710000D02*
X84034000Y-90170000D01*
X104394000Y-60960000D02*
X107442000Y-60960000D01*
X110062000Y-58340000D02*
X111252000Y-58340000D01*
X107442000Y-60960000D02*
X110062000Y-58340000D01*
D29*
X79756000Y-70770750D02*
X79756000Y-71120000D01*
X80786580Y-69740170D02*
X79756000Y-70770750D01*
X90342880Y-69740170D02*
X80786580Y-69740170D01*
X90462711Y-69860001D02*
X90342880Y-69740170D01*
X109004380Y-69860001D02*
X90462711Y-69860001D01*
X109014381Y-69850000D02*
X109004380Y-69860001D01*
X109474000Y-69850000D02*
X109014381Y-69850000D01*
D31*
X62230000Y-98806000D02*
X64770000Y-98806000D01*
X67310000Y-98806000D02*
X64770000Y-98806000D01*
X104725999Y-93167999D02*
X92964000Y-93167999D01*
X106046000Y-94488000D02*
X104725999Y-93167999D01*
X107696000Y-94488000D02*
X106046000Y-94488000D01*
D30*
X102108000Y-55626000D02*
X104394000Y-53340000D01*
X82550000Y-55626000D02*
X92710000Y-55626000D01*
X92710000Y-55626000D02*
X102108000Y-55626000D01*
D31*
X83312000Y-98044000D02*
X85852000Y-98044000D01*
X86122226Y-98044000D02*
X83312000Y-98044000D01*
X90998227Y-93167999D02*
X86122226Y-98044000D01*
X92964000Y-93167999D02*
X90998227Y-93167999D01*
D29*
X83566000Y-73660000D02*
X89916000Y-73660000D01*
X105918000Y-76708000D02*
X106426000Y-77216000D01*
X102616000Y-76708000D02*
X105918000Y-76708000D01*
X108458000Y-79248000D02*
X110998000Y-79248000D01*
X106426000Y-77216000D02*
X108458000Y-79248000D01*
X102870000Y-73660000D02*
X106426000Y-77216000D01*
X89916000Y-73660000D02*
X102870000Y-73660000D01*
D31*
X95758000Y-90170000D02*
X98298000Y-90170000D01*
X100838000Y-90170000D02*
X98298000Y-90170000D01*
X101687999Y-89320001D02*
X100838000Y-90170000D01*
X102288001Y-88719999D02*
X101687999Y-89320001D01*
X108718080Y-88719999D02*
X102288001Y-88719999D01*
X108966000Y-88967919D02*
X108718080Y-88719999D01*
X108966000Y-90170000D02*
X108966000Y-88967919D01*
D29*
X68580000Y-48260000D02*
X70834990Y-46005010D01*
X90201010Y-46005010D02*
X90932000Y-46736000D01*
X70834990Y-46005010D02*
X90201010Y-46005010D01*
D30*
X79514001Y-65943999D02*
X80434000Y-65024000D01*
X80434000Y-65024000D02*
X81534000Y-65024000D01*
X75026001Y-65943999D02*
X79514001Y-65943999D01*
X73914000Y-67056000D02*
X75026001Y-65943999D01*
D29*
X82281420Y-80249420D02*
X82296000Y-80264000D01*
X76185420Y-80249420D02*
X82281420Y-80249420D01*
X95585998Y-78486000D02*
X99568000Y-78486000D01*
X93807998Y-80264000D02*
X95585998Y-78486000D01*
X82296000Y-80264000D02*
X93807998Y-80264000D01*
X98044000Y-50546000D02*
X98044000Y-49022000D01*
X95250000Y-53340000D02*
X98044000Y-50546000D01*
X102291001Y-83128999D02*
X102616000Y-82804000D01*
X86807181Y-83128999D02*
X102291001Y-83128999D01*
X84836000Y-85100180D02*
X86807181Y-83128999D01*
X84836000Y-86360000D02*
X84836000Y-85100180D01*
X103467999Y-50202001D02*
X104648000Y-49022000D01*
X101435999Y-50202001D02*
X103467999Y-50202001D01*
X98298000Y-53340000D02*
X101435999Y-50202001D01*
X110071999Y-50202001D02*
X111252000Y-49022000D01*
X104483999Y-50202001D02*
X110071999Y-50202001D01*
X101346000Y-53340000D02*
X104483999Y-50202001D01*
X89820750Y-83566000D02*
X87376000Y-86010750D01*
X87376000Y-86010750D02*
X87376000Y-86360000D01*
X107998381Y-83566000D02*
X89820750Y-83566000D01*
X108316382Y-83247999D02*
X107998381Y-83566000D01*
X108776001Y-83247999D02*
X108316382Y-83247999D01*
X107696000Y-64770000D02*
X109982000Y-62484000D01*
X109982000Y-62484000D02*
X112268000Y-62484000D01*
X92396178Y-77709420D02*
X95175598Y-74930000D01*
X77470000Y-78232000D02*
X77992580Y-77709420D01*
X77992580Y-77709420D02*
X92396178Y-77709420D01*
X95175598Y-74930000D02*
X100330000Y-74930000D01*
X100330000Y-64770000D02*
X107696000Y-64770000D01*
D31*
X106426000Y-85344000D02*
X108966000Y-85344000D01*
X111506000Y-85344000D02*
X108966000Y-85344000D01*
D30*
X107696000Y-72390000D02*
X111252000Y-72390000D01*
X95250000Y-60960000D02*
X98298000Y-60960000D01*
X98298000Y-60960000D02*
X101346000Y-60960000D01*
D31*
X73982002Y-96266000D02*
X67310000Y-96266000D01*
X77210003Y-99494001D02*
X73982002Y-96266000D01*
X100256001Y-99494001D02*
X77210003Y-99494001D01*
X100584000Y-99822000D02*
X100256001Y-99494001D01*
X100584000Y-99166002D02*
X100256001Y-99494001D01*
X100584000Y-98672002D02*
X100584000Y-99166002D01*
D30*
X64690000Y-62484000D02*
X67818000Y-62484000D01*
X67310000Y-66802000D02*
X69596000Y-66802000D01*
X81349999Y-56965999D02*
X68002001Y-56965999D01*
X82550000Y-58166000D02*
X81349999Y-56965999D01*
X101346000Y-72390000D02*
X107696000Y-72390000D01*
X67310000Y-89916000D02*
X71374000Y-89916000D01*
D31*
X99524003Y-95968001D02*
X99060002Y-95504000D01*
X111686001Y-95184001D02*
X110902001Y-95968001D01*
X111506000Y-90170000D02*
X111506000Y-91372081D01*
X110902001Y-95968001D02*
X99524003Y-95968001D01*
X111686001Y-91552082D02*
X111686001Y-95184001D01*
X111506000Y-91372081D02*
X111686001Y-91552082D01*
X99060002Y-95504000D02*
X92710000Y-95504000D01*
X100838000Y-85344000D02*
X98298000Y-85344000D01*
X98298000Y-85344000D02*
X95758000Y-85344000D01*
D30*
X73286000Y-88138000D02*
X73914000Y-88766000D01*
X73914000Y-88766000D02*
X73914000Y-89916000D01*
X60452000Y-88138000D02*
X73286000Y-88138000D01*
X73152000Y-99416000D02*
X73152000Y-97536000D01*
X73152000Y-93116000D02*
X73152000Y-94742000D01*
X91186000Y-60706000D02*
X92202000Y-61722000D01*
X82550000Y-60706000D02*
X91186000Y-60706000D01*
X95758000Y-86994000D02*
X92074000Y-90678000D01*
X95758000Y-85344000D02*
X95758000Y-86994000D01*
X76949999Y-91765999D02*
X77894000Y-92710000D01*
X74252001Y-91765999D02*
X76949999Y-91765999D01*
X73152000Y-92866000D02*
X74252001Y-91765999D01*
X77894000Y-92710000D02*
X78994000Y-92710000D01*
X73152000Y-93116000D02*
X73152000Y-92866000D01*
X75064000Y-89916000D02*
X73914000Y-89916000D01*
X77300000Y-89916000D02*
X75064000Y-89916000D01*
X78994000Y-91610000D02*
X77300000Y-89916000D01*
X78994000Y-92710000D02*
X78994000Y-91610000D01*
X91749001Y-90353001D02*
X92074000Y-90678000D01*
X90296000Y-88900000D02*
X91749001Y-90353001D01*
X78316000Y-88900000D02*
X90296000Y-88900000D01*
X77300000Y-89916000D02*
X78316000Y-88900000D01*
D29*
X73413839Y-68098001D02*
X72871999Y-67556161D01*
X75453821Y-68098001D02*
X73413839Y-68098001D01*
X77216000Y-71120000D02*
X77216000Y-69860180D01*
X77216000Y-69860180D02*
X75453821Y-68098001D01*
X72871999Y-67556161D02*
X72871999Y-58935839D01*
X72871999Y-58935839D02*
X73895838Y-57912000D01*
X73895838Y-57912000D02*
X76962000Y-57912000D01*
X74676000Y-69860180D02*
X73395820Y-68580000D01*
X74676000Y-71120000D02*
X74676000Y-69860180D01*
X73395820Y-68580000D02*
X64516000Y-68580000D01*
X64516000Y-64262000D02*
X69850000Y-64262000D01*
X69850000Y-50124672D02*
X69850000Y-52832000D01*
X70571071Y-49403601D02*
X69850000Y-50124672D01*
X85216399Y-49403601D02*
X70571071Y-49403601D01*
X86360000Y-48260000D02*
X85216399Y-49403601D01*
X59690000Y-66802000D02*
X60772000Y-65720000D01*
X70104000Y-65720000D02*
X70546000Y-65720000D01*
X72136000Y-65720000D02*
X70104000Y-65720000D01*
X60772000Y-65720000D02*
X70104000Y-65720000D01*
X72136000Y-53848000D02*
X60706000Y-53848000D01*
X72136000Y-53848000D02*
X86360000Y-53848000D01*
X77596399Y-52324000D02*
X70866000Y-52324000D01*
X73406000Y-73660000D02*
X77724000Y-73660000D01*
X72136000Y-86010750D02*
X72136000Y-86360000D01*
X75850750Y-82296000D02*
X72136000Y-86010750D01*
X91440000Y-82296000D02*
X75850750Y-82296000D01*
X71120000Y-48260000D02*
X73014980Y-46365020D01*
X88962618Y-46365020D02*
X90932000Y-48334402D01*
X81788000Y-46365020D02*
X88962618Y-46365020D01*
X73014980Y-46365020D02*
X81788000Y-46365020D01*
X76454000Y-46365020D02*
X81788000Y-46365020D01*
X79467599Y-61836001D02*
X84467999Y-61836001D01*
X78109599Y-60478001D02*
X79467599Y-61836001D01*
X73914000Y-59436000D02*
X74956001Y-60478001D01*
X74956001Y-60478001D02*
X78109599Y-60478001D01*
X84467999Y-61836001D02*
X84836000Y-61468000D01*
X88392000Y-61468000D02*
X84836000Y-61468000D01*
X89408000Y-62484000D02*
X88392000Y-61468000D01*
X75036010Y-63393990D02*
X82656010Y-63393990D01*
X73914000Y-64516000D02*
X75036010Y-63393990D01*
X82656010Y-63393990D02*
X83058000Y-62992000D01*
X83058000Y-62992000D02*
X87630000Y-62992000D01*
X83820000Y-50800000D02*
X86106000Y-53086000D01*
X86106000Y-53086000D02*
X88997000Y-53086000D01*
X78740000Y-68580000D02*
X78232000Y-68072000D01*
X82296000Y-68580000D02*
X78740000Y-68580000D01*
X85344000Y-59436000D02*
X84074000Y-59436000D01*
X76454000Y-59436000D02*
X84074000Y-59436000D01*
X84074000Y-59436000D02*
X84328000Y-59436000D01*
X84074000Y-56896000D02*
X86360000Y-56896000D01*
X82522869Y-63018001D02*
X83310870Y-62230000D01*
X73914000Y-61976000D02*
X74956001Y-63018001D01*
X74956001Y-63018001D02*
X82522869Y-63018001D01*
X83310870Y-62230000D02*
X85598000Y-62230000D01*
X82814970Y-46725030D02*
X87873030Y-46725030D01*
X81280000Y-48260000D02*
X82814970Y-46725030D01*
X87873030Y-46725030D02*
X88392000Y-47244000D01*
X87376000Y-54864000D02*
X88392000Y-54864000D01*
X62709290Y-58702710D02*
X64643601Y-56768399D01*
X62709290Y-63274710D02*
X62709290Y-58702710D01*
X66025420Y-61228580D02*
X66040000Y-61214000D01*
X63485420Y-61228580D02*
X66025420Y-61228580D01*
X82306180Y-76200000D02*
X89916000Y-76200000D01*
X81026000Y-74919820D02*
X82306180Y-76200000D01*
X81026000Y-73660000D02*
X81026000Y-74919820D01*
X82306180Y-76200000D02*
X82052180Y-75946000D01*
X82306180Y-76200000D02*
X67056000Y-76200000D01*
X76454000Y-64516000D02*
X77216000Y-63754000D01*
X77216000Y-63754000D02*
X86614000Y-63754000D01*
D30*
X63430001Y-95065999D02*
X63079999Y-95416001D01*
X68649999Y-95065999D02*
X63430001Y-95065999D01*
X69099990Y-95515990D02*
X68649999Y-95065999D01*
X84570010Y-95515990D02*
X69099990Y-95515990D01*
X89916000Y-90170000D02*
X84570010Y-95515990D01*
X63079999Y-95416001D02*
X62230000Y-96266000D01*
X65619999Y-90765999D02*
X65619999Y-92876001D01*
X65619999Y-92876001D02*
X63079999Y-95416001D01*
X64770000Y-89916000D02*
X65619999Y-90765999D01*
X69494000Y-93116000D02*
X68580000Y-92202000D01*
X70852000Y-93116000D02*
X69494000Y-93116000D01*
D29*
X90932000Y-53594000D02*
X91694000Y-54356000D01*
X70218001Y-54495999D02*
X70104000Y-54610000D01*
X70104000Y-54610000D02*
X67183601Y-54610000D01*
X90932000Y-51736000D02*
X90932000Y-54102000D01*
X86607403Y-54495999D02*
X86106000Y-54495999D01*
X90932000Y-54102000D02*
X87001402Y-54102000D01*
X87001402Y-54102000D02*
X86607403Y-54495999D01*
X86106000Y-54495999D02*
X70218001Y-54495999D01*
D32*
G36*
X112780000Y-61656980D02*
X112458956Y-61524000D01*
X112077044Y-61524000D01*
X111724203Y-61670151D01*
X111625354Y-61769000D01*
X110052416Y-61769000D01*
X109981999Y-61754993D01*
X109911582Y-61769000D01*
X109703021Y-61810485D01*
X109466514Y-61968514D01*
X109426626Y-62028211D01*
X108072967Y-63381871D01*
X107837333Y-63335000D01*
X107554667Y-63335000D01*
X107136091Y-63418260D01*
X106661423Y-63735423D01*
X106447888Y-64055000D01*
X100972646Y-64055000D01*
X100873797Y-63956151D01*
X100520956Y-63810000D01*
X100139044Y-63810000D01*
X99786203Y-63956151D01*
X99516151Y-64226203D01*
X99370000Y-64579044D01*
X99370000Y-64960956D01*
X99516151Y-65313797D01*
X99786203Y-65583849D01*
X100139044Y-65730000D01*
X100520956Y-65730000D01*
X100873797Y-65583849D01*
X100972646Y-65485000D01*
X106447888Y-65485000D01*
X106661423Y-65804577D01*
X107136091Y-66121740D01*
X107554667Y-66205000D01*
X107837333Y-66205000D01*
X108255909Y-66121740D01*
X108730577Y-65804577D01*
X109047740Y-65329909D01*
X109159113Y-64770000D01*
X109088123Y-64413110D01*
X109810524Y-64413110D01*
X109931845Y-64643000D01*
X111125000Y-64643000D01*
X111125000Y-63449181D01*
X111379000Y-63449181D01*
X111379000Y-64643000D01*
X112572155Y-64643000D01*
X112693476Y-64413110D01*
X112523645Y-64003076D01*
X112133358Y-63574817D01*
X111608892Y-63328514D01*
X111379000Y-63449181D01*
X111125000Y-63449181D01*
X110895108Y-63328514D01*
X110370642Y-63574817D01*
X109980355Y-64003076D01*
X109810524Y-64413110D01*
X109088123Y-64413110D01*
X109084129Y-64393033D01*
X110278163Y-63199000D01*
X111625354Y-63199000D01*
X111724203Y-63297849D01*
X112077044Y-63444000D01*
X112458956Y-63444000D01*
X112780000Y-63311020D01*
X112780001Y-84577748D01*
X112576625Y-84273375D01*
X112085418Y-83945161D01*
X111652256Y-83859000D01*
X111359744Y-83859000D01*
X110926582Y-83945161D01*
X110435375Y-84273375D01*
X110411571Y-84309000D01*
X110060429Y-84309000D01*
X110036625Y-84273375D01*
X109545418Y-83945161D01*
X109454558Y-83927088D01*
X109589850Y-83791796D01*
X109736001Y-83438955D01*
X109736001Y-83057043D01*
X109589850Y-82704202D01*
X109319798Y-82434150D01*
X108966957Y-82287999D01*
X108585045Y-82287999D01*
X108232204Y-82434150D01*
X108105394Y-82560960D01*
X108037403Y-82574484D01*
X107800896Y-82732513D01*
X107761005Y-82792214D01*
X107734097Y-82819122D01*
X107872965Y-82432777D01*
X107850547Y-81962561D01*
X109563000Y-81962561D01*
X109563000Y-82533439D01*
X109781466Y-83060862D01*
X110185138Y-83464534D01*
X110712561Y-83683000D01*
X111283439Y-83683000D01*
X111810862Y-83464534D01*
X112214534Y-83060862D01*
X112433000Y-82533439D01*
X112433000Y-81962561D01*
X112214534Y-81435138D01*
X111810862Y-81031466D01*
X111283439Y-80813000D01*
X110712561Y-80813000D01*
X110185138Y-81031466D01*
X109781466Y-81435138D01*
X109563000Y-81962561D01*
X107850547Y-81962561D01*
X107845778Y-81862546D01*
X107679864Y-81461995D01*
X107433745Y-81387861D01*
X106605605Y-82216000D01*
X106619748Y-82230142D01*
X106440142Y-82409748D01*
X106426000Y-82395605D01*
X106411858Y-82409748D01*
X106232252Y-82230142D01*
X106246395Y-82216000D01*
X105418255Y-81387861D01*
X105172136Y-81461995D01*
X104979035Y-81999223D01*
X105006222Y-82569454D01*
X105122842Y-82851000D01*
X103576000Y-82851000D01*
X103576000Y-82613044D01*
X103429849Y-82260203D01*
X103159797Y-81990151D01*
X102806956Y-81844000D01*
X102425044Y-81844000D01*
X102072203Y-81990151D01*
X101802151Y-82260203D01*
X101738447Y-82413999D01*
X92400000Y-82413999D01*
X92400000Y-82105044D01*
X92253849Y-81752203D01*
X91983797Y-81482151D01*
X91630956Y-81336000D01*
X91249044Y-81336000D01*
X90896203Y-81482151D01*
X90797354Y-81581000D01*
X75921168Y-81581000D01*
X75850750Y-81566993D01*
X75780332Y-81581000D01*
X75571771Y-81622485D01*
X75335264Y-81780514D01*
X75295375Y-81840212D01*
X72470930Y-84664658D01*
X72136000Y-84598036D01*
X71595378Y-84705572D01*
X71137060Y-85011811D01*
X70850455Y-85440746D01*
X70827499Y-85363183D01*
X70485944Y-84941202D01*
X70008903Y-84682050D01*
X69937275Y-84667867D01*
X69723000Y-84790521D01*
X69723000Y-86233000D01*
X69743000Y-86233000D01*
X69743000Y-86487000D01*
X69723000Y-86487000D01*
X69723000Y-86507000D01*
X69469000Y-86507000D01*
X69469000Y-86487000D01*
X69449000Y-86487000D01*
X69449000Y-86233000D01*
X69469000Y-86233000D01*
X69469000Y-84790521D01*
X69254725Y-84667867D01*
X69183097Y-84682050D01*
X68706056Y-84941202D01*
X68364501Y-85363183D01*
X68341545Y-85440745D01*
X68054939Y-85011810D01*
X67596621Y-84705572D01*
X67056000Y-84598036D01*
X66515378Y-84705572D01*
X66057060Y-85011811D01*
X65786000Y-85417481D01*
X65514939Y-85011810D01*
X65056621Y-84705572D01*
X64516000Y-84598036D01*
X63975378Y-84705572D01*
X63517060Y-85011811D01*
X63246000Y-85417481D01*
X62974939Y-85011810D01*
X62516621Y-84705572D01*
X61976000Y-84598036D01*
X61435378Y-84705572D01*
X60977060Y-85011811D01*
X60670822Y-85470129D01*
X60590430Y-85874288D01*
X60590430Y-86845713D01*
X60657744Y-87184125D01*
X60642956Y-87178000D01*
X60261044Y-87178000D01*
X59908203Y-87324151D01*
X59638151Y-87594203D01*
X59492000Y-87947044D01*
X59492000Y-88328956D01*
X59638151Y-88681797D01*
X59908203Y-88951849D01*
X60261044Y-89098000D01*
X60642956Y-89098000D01*
X60733669Y-89060426D01*
X60732560Y-89066000D01*
X60732560Y-90766000D01*
X60781843Y-91013765D01*
X60922191Y-91223809D01*
X61132235Y-91364157D01*
X61380000Y-91413440D01*
X63080000Y-91413440D01*
X63327765Y-91364157D01*
X63537809Y-91223809D01*
X63678157Y-91013765D01*
X63687184Y-90968381D01*
X63699375Y-90986625D01*
X64190582Y-91314839D01*
X64623744Y-91401000D01*
X64834999Y-91401000D01*
X64835000Y-92550842D01*
X62929593Y-94456250D01*
X62864048Y-94500046D01*
X62820252Y-94565591D01*
X62695692Y-94690151D01*
X62579594Y-94806250D01*
X62579590Y-94806252D01*
X62566917Y-94818925D01*
X62376256Y-94781000D01*
X62083744Y-94781000D01*
X61650582Y-94867161D01*
X61159375Y-95195375D01*
X60831161Y-95686582D01*
X60715908Y-96266000D01*
X60831161Y-96845418D01*
X61159375Y-97336625D01*
X61177619Y-97348816D01*
X61132235Y-97357843D01*
X60922191Y-97498191D01*
X60781843Y-97708235D01*
X60732560Y-97956000D01*
X60732560Y-99656000D01*
X60781843Y-99903765D01*
X60899600Y-100080000D01*
X59060000Y-100080000D01*
X59060000Y-80853653D01*
X59381375Y-81334625D01*
X59872582Y-81662839D01*
X60305744Y-81749000D01*
X60598256Y-81749000D01*
X61031418Y-81662839D01*
X61522625Y-81334625D01*
X61850839Y-80843418D01*
X61966092Y-80264000D01*
X61850839Y-79684582D01*
X61522625Y-79193375D01*
X61504381Y-79181184D01*
X61549765Y-79172157D01*
X61759809Y-79031809D01*
X61900157Y-78821765D01*
X61949440Y-78574000D01*
X61949440Y-76874000D01*
X61900157Y-76626235D01*
X61759809Y-76416191D01*
X61549765Y-76275843D01*
X61302000Y-76226560D01*
X59602000Y-76226560D01*
X59354235Y-76275843D01*
X59144191Y-76416191D01*
X59060000Y-76542191D01*
X59060000Y-68106907D01*
X59130091Y-68153740D01*
X59548667Y-68237000D01*
X59831333Y-68237000D01*
X60249909Y-68153740D01*
X60724577Y-67836577D01*
X61041740Y-67361909D01*
X61153113Y-66802000D01*
X61080112Y-66435000D01*
X65908784Y-66435000D01*
X65875000Y-66516561D01*
X65875000Y-67087439D01*
X66093466Y-67614862D01*
X66343604Y-67865000D01*
X65158646Y-67865000D01*
X65059797Y-67766151D01*
X64706956Y-67620000D01*
X64325044Y-67620000D01*
X63972203Y-67766151D01*
X63702151Y-68036203D01*
X63556000Y-68389044D01*
X63556000Y-68770956D01*
X63702151Y-69123797D01*
X63972203Y-69393849D01*
X64096813Y-69445464D01*
X63626056Y-69701202D01*
X63284501Y-70123183D01*
X63261545Y-70200745D01*
X62974939Y-69771810D01*
X62516621Y-69465572D01*
X61976000Y-69358036D01*
X61435378Y-69465572D01*
X60977060Y-69771811D01*
X60670822Y-70230129D01*
X60590430Y-70634288D01*
X60590430Y-71605713D01*
X60670822Y-72009872D01*
X60977061Y-72468190D01*
X61435379Y-72774428D01*
X61976000Y-72881964D01*
X62516622Y-72774428D01*
X62974940Y-72468190D01*
X63261545Y-72039255D01*
X63284501Y-72116817D01*
X63626056Y-72538798D01*
X64103097Y-72797950D01*
X64174725Y-72812133D01*
X64389000Y-72689479D01*
X64389000Y-71247000D01*
X64369000Y-71247000D01*
X64369000Y-70993000D01*
X64389000Y-70993000D01*
X64389000Y-70973000D01*
X64643000Y-70973000D01*
X64643000Y-70993000D01*
X64663000Y-70993000D01*
X64663000Y-71247000D01*
X64643000Y-71247000D01*
X64643000Y-72689479D01*
X64857275Y-72812133D01*
X64928903Y-72797950D01*
X65405944Y-72538798D01*
X65747499Y-72116817D01*
X65770455Y-72039255D01*
X66057061Y-72468190D01*
X66515379Y-72774428D01*
X67056000Y-72881964D01*
X67596622Y-72774428D01*
X68054940Y-72468190D01*
X68326000Y-72062520D01*
X68597061Y-72468190D01*
X69055379Y-72774428D01*
X69540762Y-72870977D01*
X69480430Y-73174288D01*
X69480430Y-74145713D01*
X69560822Y-74549872D01*
X69867061Y-75008190D01*
X70325379Y-75314428D01*
X70866000Y-75421964D01*
X71406622Y-75314428D01*
X71864940Y-75008190D01*
X72136000Y-74602520D01*
X72407061Y-75008190D01*
X72865379Y-75314428D01*
X73406000Y-75421964D01*
X73946622Y-75314428D01*
X74404940Y-75008190D01*
X74711178Y-74549872D01*
X74745962Y-74375000D01*
X77081354Y-74375000D01*
X77180203Y-74473849D01*
X77533044Y-74620000D01*
X77914956Y-74620000D01*
X78267797Y-74473849D01*
X78537849Y-74203797D01*
X78684000Y-73850956D01*
X78684000Y-73469044D01*
X78537849Y-73116203D01*
X78267797Y-72846151D01*
X77914956Y-72700000D01*
X77868011Y-72700000D01*
X78214940Y-72468190D01*
X78486000Y-72062520D01*
X78757061Y-72468190D01*
X79215379Y-72774428D01*
X79700762Y-72870977D01*
X79640430Y-73174288D01*
X79640430Y-74145713D01*
X79720822Y-74549872D01*
X80027061Y-75008190D01*
X80384876Y-75247274D01*
X80510515Y-75435306D01*
X80570213Y-75475195D01*
X80580018Y-75485000D01*
X67698646Y-75485000D01*
X67599797Y-75386151D01*
X67246956Y-75240000D01*
X66865044Y-75240000D01*
X66512203Y-75386151D01*
X66242151Y-75656203D01*
X66096000Y-76009044D01*
X66096000Y-76390956D01*
X66242151Y-76743797D01*
X66512203Y-77013849D01*
X66865044Y-77160000D01*
X67246956Y-77160000D01*
X67599797Y-77013849D01*
X67698646Y-76915000D01*
X82235761Y-76915000D01*
X82266480Y-76921110D01*
X82306179Y-76929007D01*
X82306180Y-76929007D01*
X82376598Y-76915000D01*
X88378088Y-76915000D01*
X88431154Y-76994420D01*
X78062998Y-76994420D01*
X77992580Y-76980413D01*
X77922162Y-76994420D01*
X77713601Y-77035905D01*
X77477094Y-77193934D01*
X77437205Y-77253632D01*
X77418837Y-77272000D01*
X77279044Y-77272000D01*
X76926203Y-77418151D01*
X76656151Y-77688203D01*
X76510000Y-78041044D01*
X76510000Y-78422956D01*
X76656151Y-78775797D01*
X76926203Y-79045849D01*
X77279044Y-79192000D01*
X77660956Y-79192000D01*
X78013797Y-79045849D01*
X78283849Y-78775797D01*
X78429394Y-78424420D01*
X88238575Y-78424420D01*
X88346521Y-78613000D01*
X89789000Y-78613000D01*
X89789000Y-78593000D01*
X90043000Y-78593000D01*
X90043000Y-78613000D01*
X91485479Y-78613000D01*
X91593425Y-78424420D01*
X92325761Y-78424420D01*
X92396178Y-78438427D01*
X92466595Y-78424420D01*
X92466596Y-78424420D01*
X92675157Y-78382935D01*
X92911664Y-78224906D01*
X92951555Y-78165205D01*
X93737539Y-77379221D01*
X93764959Y-77445423D01*
X94140866Y-77860389D01*
X94646959Y-78099914D01*
X94868998Y-77978630D01*
X94868998Y-78143000D01*
X94917835Y-78143000D01*
X93511836Y-79549000D01*
X91378771Y-79549000D01*
X91593950Y-79152903D01*
X91608133Y-79081275D01*
X91485479Y-78867000D01*
X90043000Y-78867000D01*
X90043000Y-78887000D01*
X89789000Y-78887000D01*
X89789000Y-78867000D01*
X88346521Y-78867000D01*
X88223867Y-79081275D01*
X88238050Y-79152903D01*
X88453229Y-79549000D01*
X82938646Y-79549000D01*
X82839797Y-79450151D01*
X82486956Y-79304000D01*
X82105044Y-79304000D01*
X81752203Y-79450151D01*
X81667934Y-79534420D01*
X76828066Y-79534420D01*
X76729217Y-79435571D01*
X76376376Y-79289420D01*
X75994464Y-79289420D01*
X75641623Y-79435571D01*
X75371571Y-79705623D01*
X75225420Y-80058464D01*
X75225420Y-80440376D01*
X75371571Y-80793217D01*
X75641623Y-81063269D01*
X75994464Y-81209420D01*
X76376376Y-81209420D01*
X76729217Y-81063269D01*
X76828066Y-80964420D01*
X81638774Y-80964420D01*
X81752203Y-81077849D01*
X82105044Y-81224000D01*
X82486956Y-81224000D01*
X82839797Y-81077849D01*
X82938646Y-80979000D01*
X93737581Y-80979000D01*
X93807998Y-80993007D01*
X93878415Y-80979000D01*
X93878416Y-80979000D01*
X94086977Y-80937515D01*
X94273000Y-80813218D01*
X94273000Y-81494309D01*
X94369673Y-81727698D01*
X94548301Y-81906327D01*
X94781690Y-82003000D01*
X95472250Y-82003000D01*
X95631000Y-81844250D01*
X95631000Y-80645000D01*
X95885000Y-80645000D01*
X95885000Y-81844250D01*
X96043750Y-82003000D01*
X96734310Y-82003000D01*
X96967699Y-81906327D01*
X97146327Y-81727698D01*
X97233136Y-81518122D01*
X97531076Y-81789645D01*
X97941110Y-81959476D01*
X98171000Y-81838155D01*
X98171000Y-80645000D01*
X98425000Y-80645000D01*
X98425000Y-81838155D01*
X98654890Y-81959476D01*
X99064924Y-81789645D01*
X99493183Y-81399358D01*
X99568000Y-81240046D01*
X99642817Y-81399358D01*
X100071076Y-81789645D01*
X100481110Y-81959476D01*
X100711000Y-81838155D01*
X100711000Y-80645000D01*
X100965000Y-80645000D01*
X100965000Y-81838155D01*
X101194890Y-81959476D01*
X101604924Y-81789645D01*
X102033183Y-81399358D01*
X102122929Y-81208255D01*
X105597861Y-81208255D01*
X106426000Y-82036395D01*
X107254139Y-81208255D01*
X107180005Y-80962136D01*
X106642777Y-80769035D01*
X106072546Y-80796222D01*
X105671995Y-80962136D01*
X105597861Y-81208255D01*
X102122929Y-81208255D01*
X102279486Y-80874892D01*
X102158819Y-80645000D01*
X100965000Y-80645000D01*
X100711000Y-80645000D01*
X98425000Y-80645000D01*
X98171000Y-80645000D01*
X95885000Y-80645000D01*
X95631000Y-80645000D01*
X95611000Y-80645000D01*
X95611000Y-80391000D01*
X95631000Y-80391000D01*
X95631000Y-80371000D01*
X95885000Y-80371000D01*
X95885000Y-80391000D01*
X98171000Y-80391000D01*
X98171000Y-80371000D01*
X98425000Y-80371000D01*
X98425000Y-80391000D01*
X100711000Y-80391000D01*
X100711000Y-79197845D01*
X100965000Y-79197845D01*
X100965000Y-80391000D01*
X102158819Y-80391000D01*
X102279486Y-80161108D01*
X102033183Y-79636642D01*
X101604924Y-79246355D01*
X101194890Y-79076524D01*
X100965000Y-79197845D01*
X100711000Y-79197845D01*
X100481110Y-79076524D01*
X100231904Y-79179742D01*
X100381849Y-79029797D01*
X100528000Y-78676956D01*
X100528000Y-78295044D01*
X100381849Y-77942203D01*
X100111797Y-77672151D01*
X99758956Y-77526000D01*
X99377044Y-77526000D01*
X99024203Y-77672151D01*
X98925354Y-77771000D01*
X95932109Y-77771000D01*
X96227041Y-77445423D01*
X96387904Y-77057039D01*
X96265915Y-76835000D01*
X95123000Y-76835000D01*
X95123000Y-76855000D01*
X94869000Y-76855000D01*
X94869000Y-76835000D01*
X94849000Y-76835000D01*
X94849000Y-76581000D01*
X94869000Y-76581000D01*
X94869000Y-76561000D01*
X95123000Y-76561000D01*
X95123000Y-76581000D01*
X96265915Y-76581000D01*
X96387904Y-76358961D01*
X96227041Y-75970577D01*
X95932109Y-75645000D01*
X99687354Y-75645000D01*
X99786203Y-75743849D01*
X100139044Y-75890000D01*
X100520956Y-75890000D01*
X100873797Y-75743849D01*
X101143849Y-75473797D01*
X101290000Y-75120956D01*
X101290000Y-74739044D01*
X101143849Y-74386203D01*
X101132646Y-74375000D01*
X102573838Y-74375000D01*
X104191837Y-75993000D01*
X103873070Y-75993000D01*
X103832534Y-75895138D01*
X103428862Y-75491466D01*
X102901439Y-75273000D01*
X102330561Y-75273000D01*
X101803138Y-75491466D01*
X101399466Y-75895138D01*
X101181000Y-76422561D01*
X101181000Y-76993439D01*
X101399466Y-77520862D01*
X101803138Y-77924534D01*
X102330561Y-78143000D01*
X102901439Y-78143000D01*
X103428862Y-77924534D01*
X103832534Y-77520862D01*
X103873070Y-77423000D01*
X104991000Y-77423000D01*
X104991000Y-77501439D01*
X105209466Y-78028862D01*
X105613138Y-78432534D01*
X106140561Y-78651000D01*
X106711439Y-78651000D01*
X106809302Y-78610464D01*
X107902625Y-79703788D01*
X107942514Y-79763486D01*
X108179021Y-79921515D01*
X108387582Y-79963000D01*
X108387583Y-79963000D01*
X108458000Y-79977007D01*
X108528417Y-79963000D01*
X109740930Y-79963000D01*
X109781466Y-80060862D01*
X110185138Y-80464534D01*
X110712561Y-80683000D01*
X111283439Y-80683000D01*
X111810862Y-80464534D01*
X112214534Y-80060862D01*
X112433000Y-79533439D01*
X112433000Y-78962561D01*
X112214534Y-78435138D01*
X111810862Y-78031466D01*
X111283439Y-77813000D01*
X110712561Y-77813000D01*
X110185138Y-78031466D01*
X109781466Y-78435138D01*
X109740930Y-78533000D01*
X108754163Y-78533000D01*
X107820464Y-77599302D01*
X107861000Y-77501439D01*
X107861000Y-76930561D01*
X107642534Y-76403138D01*
X107238862Y-75999466D01*
X106711439Y-75781000D01*
X106140561Y-75781000D01*
X106042699Y-75821536D01*
X103425377Y-73204215D01*
X103405856Y-73175000D01*
X106467925Y-73175000D01*
X106479466Y-73202862D01*
X106883138Y-73606534D01*
X107410561Y-73825000D01*
X107981439Y-73825000D01*
X108508862Y-73606534D01*
X108912534Y-73202862D01*
X108924075Y-73175000D01*
X109754560Y-73175000D01*
X109754560Y-73240000D01*
X109803843Y-73487765D01*
X109944191Y-73697809D01*
X110154235Y-73838157D01*
X110402000Y-73887440D01*
X112102000Y-73887440D01*
X112349765Y-73838157D01*
X112559809Y-73697809D01*
X112700157Y-73487765D01*
X112749440Y-73240000D01*
X112749440Y-71540000D01*
X112700157Y-71292235D01*
X112559809Y-71082191D01*
X112349765Y-70941843D01*
X112304381Y-70932816D01*
X112322625Y-70920625D01*
X112650839Y-70429418D01*
X112766092Y-69850000D01*
X112650839Y-69270582D01*
X112322625Y-68779375D01*
X112024239Y-68580000D01*
X112322625Y-68380625D01*
X112650839Y-67889418D01*
X112766092Y-67310000D01*
X112650839Y-66730582D01*
X112322625Y-66239375D01*
X112003522Y-66026157D01*
X112133358Y-65965183D01*
X112523645Y-65536924D01*
X112693476Y-65126890D01*
X112572155Y-64897000D01*
X111379000Y-64897000D01*
X111379000Y-64917000D01*
X111125000Y-64917000D01*
X111125000Y-64897000D01*
X109931845Y-64897000D01*
X109810524Y-65126890D01*
X109980355Y-65536924D01*
X110370642Y-65965183D01*
X110500478Y-66026157D01*
X110181375Y-66239375D01*
X109853161Y-66730582D01*
X109737908Y-67310000D01*
X109853161Y-67889418D01*
X110181375Y-68380625D01*
X110479761Y-68580000D01*
X110181375Y-68779375D01*
X110011536Y-69033557D01*
X109664956Y-68890000D01*
X109283044Y-68890000D01*
X108930203Y-69036151D01*
X108821353Y-69145001D01*
X105146282Y-69145001D01*
X105257908Y-68844539D01*
X105233856Y-68194540D01*
X105031387Y-67705736D01*
X104764532Y-67607073D01*
X103791605Y-68580000D01*
X103805748Y-68594143D01*
X103626143Y-68773748D01*
X103612000Y-68759605D01*
X103597858Y-68773748D01*
X103418253Y-68594143D01*
X103432395Y-68580000D01*
X102459468Y-67607073D01*
X102192613Y-67705736D01*
X101966092Y-68315461D01*
X101990144Y-68965460D01*
X102064512Y-69145001D01*
X97659440Y-69145001D01*
X97659440Y-67580000D01*
X97629100Y-67427468D01*
X102639073Y-67427468D01*
X103612000Y-68400395D01*
X104584927Y-67427468D01*
X104486264Y-67160613D01*
X103876539Y-66934092D01*
X103226540Y-66958144D01*
X102737736Y-67160613D01*
X102639073Y-67427468D01*
X97629100Y-67427468D01*
X97610157Y-67332235D01*
X97469809Y-67122191D01*
X97259765Y-66981843D01*
X97012000Y-66932560D01*
X95012000Y-66932560D01*
X94764235Y-66981843D01*
X94554191Y-67122191D01*
X94413843Y-67332235D01*
X94364560Y-67580000D01*
X94364560Y-69145001D01*
X90739112Y-69145001D01*
X90621859Y-69066655D01*
X90426821Y-69027860D01*
X90505765Y-69012157D01*
X90715809Y-68871809D01*
X90856157Y-68661765D01*
X90905440Y-68414000D01*
X90905440Y-66714000D01*
X90856157Y-66466235D01*
X90715809Y-66256191D01*
X90505765Y-66115843D01*
X90460381Y-66106816D01*
X90478625Y-66094625D01*
X90806839Y-65603418D01*
X90922092Y-65024000D01*
X90806839Y-64444582D01*
X90478625Y-63953375D01*
X89987418Y-63625161D01*
X89554256Y-63539000D01*
X89261744Y-63539000D01*
X88828582Y-63625161D01*
X88337375Y-63953375D01*
X88009161Y-64444582D01*
X87893908Y-65024000D01*
X88009161Y-65603418D01*
X88337375Y-66094625D01*
X88355619Y-66106816D01*
X88310235Y-66115843D01*
X88100191Y-66256191D01*
X87959843Y-66466235D01*
X87910560Y-66714000D01*
X87910560Y-68414000D01*
X87959843Y-68661765D01*
X88100191Y-68871809D01*
X88310235Y-69012157D01*
X88375656Y-69025170D01*
X83150701Y-69025170D01*
X83256000Y-68770956D01*
X83256000Y-68389044D01*
X83109849Y-68036203D01*
X82839797Y-67766151D01*
X82798303Y-67748964D01*
X82980965Y-67240777D01*
X82953778Y-66670546D01*
X82792395Y-66280933D01*
X82932157Y-66071765D01*
X82981440Y-65824000D01*
X82981440Y-64469000D01*
X85971354Y-64469000D01*
X86070203Y-64567849D01*
X86423044Y-64714000D01*
X86804956Y-64714000D01*
X87157797Y-64567849D01*
X87427849Y-64297797D01*
X87571082Y-63952000D01*
X87820956Y-63952000D01*
X88173797Y-63805849D01*
X88443849Y-63535797D01*
X88590000Y-63182956D01*
X88590000Y-63017776D01*
X88594151Y-63027797D01*
X88864203Y-63297849D01*
X89217044Y-63444000D01*
X89598956Y-63444000D01*
X89951797Y-63297849D01*
X90221849Y-63027797D01*
X90368000Y-62674956D01*
X90368000Y-62293044D01*
X90221849Y-61940203D01*
X89951797Y-61670151D01*
X89598956Y-61524000D01*
X89459163Y-61524000D01*
X89426163Y-61491000D01*
X90860843Y-61491000D01*
X91242000Y-61872158D01*
X91242000Y-61912956D01*
X91388151Y-62265797D01*
X91658203Y-62535849D01*
X92011044Y-62682000D01*
X92392956Y-62682000D01*
X92745797Y-62535849D01*
X93015849Y-62265797D01*
X93162000Y-61912956D01*
X93162000Y-61531044D01*
X93015849Y-61178203D01*
X92797646Y-60960000D01*
X93786887Y-60960000D01*
X93898260Y-61519909D01*
X94215423Y-61994577D01*
X94690091Y-62311740D01*
X95108667Y-62395000D01*
X95391333Y-62395000D01*
X95809909Y-62311740D01*
X96284577Y-61994577D01*
X96451339Y-61745000D01*
X97096661Y-61745000D01*
X97263423Y-61994577D01*
X97738091Y-62311740D01*
X98156667Y-62395000D01*
X98439333Y-62395000D01*
X98857909Y-62311740D01*
X99332577Y-61994577D01*
X99499339Y-61745000D01*
X100144661Y-61745000D01*
X100311423Y-61994577D01*
X100786091Y-62311740D01*
X101204667Y-62395000D01*
X101487333Y-62395000D01*
X101905909Y-62311740D01*
X102380577Y-61994577D01*
X102697740Y-61519909D01*
X102809113Y-60960000D01*
X102752336Y-60674561D01*
X102959000Y-60674561D01*
X102959000Y-61245439D01*
X103177466Y-61772862D01*
X103581138Y-62176534D01*
X104108561Y-62395000D01*
X104679439Y-62395000D01*
X105206862Y-62176534D01*
X105610534Y-61772862D01*
X105622075Y-61745000D01*
X106240661Y-61745000D01*
X106407423Y-61994577D01*
X106882091Y-62311740D01*
X107300667Y-62395000D01*
X107583333Y-62395000D01*
X108001909Y-62311740D01*
X108476577Y-61994577D01*
X108793740Y-61519909D01*
X108905113Y-60960000D01*
X108846554Y-60665603D01*
X110197381Y-59314777D01*
X110439138Y-59556534D01*
X110966561Y-59775000D01*
X111537439Y-59775000D01*
X112064862Y-59556534D01*
X112468534Y-59152862D01*
X112687000Y-58625439D01*
X112687000Y-58054561D01*
X112468534Y-57527138D01*
X112064862Y-57123466D01*
X111537439Y-56905000D01*
X110966561Y-56905000D01*
X110439138Y-57123466D01*
X110035466Y-57527138D01*
X110027448Y-57546495D01*
X109984688Y-57555000D01*
X109984684Y-57555000D01*
X109755708Y-57600546D01*
X109496047Y-57774047D01*
X109452251Y-57839592D01*
X107736397Y-59555446D01*
X107583333Y-59525000D01*
X107300667Y-59525000D01*
X106882091Y-59608260D01*
X106407423Y-59925423D01*
X106240661Y-60175000D01*
X105622075Y-60175000D01*
X105610534Y-60147138D01*
X105206862Y-59743466D01*
X104679439Y-59525000D01*
X104108561Y-59525000D01*
X103581138Y-59743466D01*
X103177466Y-60147138D01*
X102959000Y-60674561D01*
X102752336Y-60674561D01*
X102697740Y-60400091D01*
X102380577Y-59925423D01*
X101905909Y-59608260D01*
X101487333Y-59525000D01*
X101204667Y-59525000D01*
X100786091Y-59608260D01*
X100311423Y-59925423D01*
X100144661Y-60175000D01*
X99499339Y-60175000D01*
X99332577Y-59925423D01*
X98857909Y-59608260D01*
X98439333Y-59525000D01*
X98156667Y-59525000D01*
X97738091Y-59608260D01*
X97263423Y-59925423D01*
X97096661Y-60175000D01*
X96451339Y-60175000D01*
X96284577Y-59925423D01*
X95809909Y-59608260D01*
X95391333Y-59525000D01*
X95108667Y-59525000D01*
X94690091Y-59608260D01*
X94215423Y-59925423D01*
X93898260Y-60400091D01*
X93786887Y-60960000D01*
X92797646Y-60960000D01*
X92745797Y-60908151D01*
X92392956Y-60762000D01*
X92352158Y-60762000D01*
X91795749Y-60205592D01*
X91751953Y-60140047D01*
X91492292Y-59966546D01*
X91440891Y-59956322D01*
X91852801Y-59544412D01*
X92155000Y-58814841D01*
X92155000Y-58025159D01*
X91852801Y-57295588D01*
X91294412Y-56737199D01*
X90564841Y-56435000D01*
X89775159Y-56435000D01*
X89045588Y-56737199D01*
X88487199Y-57295588D01*
X88185000Y-58025159D01*
X88185000Y-58814841D01*
X88487199Y-59544412D01*
X88863787Y-59921000D01*
X86182203Y-59921000D01*
X86304000Y-59626956D01*
X86304000Y-59245044D01*
X86157849Y-58892203D01*
X85887797Y-58622151D01*
X85534956Y-58476000D01*
X85153044Y-58476000D01*
X84800203Y-58622151D01*
X84701354Y-58721000D01*
X83953696Y-58721000D01*
X84064092Y-58166000D01*
X84002429Y-57856000D01*
X84264956Y-57856000D01*
X84617797Y-57709849D01*
X84716646Y-57611000D01*
X85717354Y-57611000D01*
X85816203Y-57709849D01*
X86169044Y-57856000D01*
X86550956Y-57856000D01*
X86903797Y-57709849D01*
X87173849Y-57439797D01*
X87320000Y-57086956D01*
X87320000Y-56705044D01*
X87198203Y-56411000D01*
X92137354Y-56411000D01*
X92166203Y-56439849D01*
X92519044Y-56586000D01*
X92900956Y-56586000D01*
X93253797Y-56439849D01*
X93282646Y-56411000D01*
X102030688Y-56411000D01*
X102108000Y-56426378D01*
X102185312Y-56411000D01*
X102185316Y-56411000D01*
X102414292Y-56365454D01*
X102673953Y-56191953D01*
X102717749Y-56126408D01*
X104099604Y-54744554D01*
X104252667Y-54775000D01*
X104535333Y-54775000D01*
X104953909Y-54691740D01*
X105428577Y-54374577D01*
X105446505Y-54347745D01*
X106613861Y-54347745D01*
X106687995Y-54593864D01*
X107225223Y-54786965D01*
X107795454Y-54759778D01*
X108196005Y-54593864D01*
X108270139Y-54347745D01*
X110423861Y-54347745D01*
X110497995Y-54593864D01*
X111035223Y-54786965D01*
X111605454Y-54759778D01*
X112006005Y-54593864D01*
X112080139Y-54347745D01*
X111252000Y-53519605D01*
X110423861Y-54347745D01*
X108270139Y-54347745D01*
X107442000Y-53519605D01*
X106613861Y-54347745D01*
X105446505Y-54347745D01*
X105745740Y-53899909D01*
X105857113Y-53340000D01*
X105813994Y-53123223D01*
X105995035Y-53123223D01*
X106022222Y-53693454D01*
X106188136Y-54094005D01*
X106434255Y-54168139D01*
X107262395Y-53340000D01*
X107621605Y-53340000D01*
X108449745Y-54168139D01*
X108695864Y-54094005D01*
X108888965Y-53556777D01*
X108868295Y-53123223D01*
X109805035Y-53123223D01*
X109832222Y-53693454D01*
X109998136Y-54094005D01*
X110244255Y-54168139D01*
X111072395Y-53340000D01*
X111431605Y-53340000D01*
X112259745Y-54168139D01*
X112505864Y-54094005D01*
X112698965Y-53556777D01*
X112671778Y-52986546D01*
X112505864Y-52585995D01*
X112259745Y-52511861D01*
X111431605Y-53340000D01*
X111072395Y-53340000D01*
X110244255Y-52511861D01*
X109998136Y-52585995D01*
X109805035Y-53123223D01*
X108868295Y-53123223D01*
X108861778Y-52986546D01*
X108695864Y-52585995D01*
X108449745Y-52511861D01*
X107621605Y-53340000D01*
X107262395Y-53340000D01*
X106434255Y-52511861D01*
X106188136Y-52585995D01*
X105995035Y-53123223D01*
X105813994Y-53123223D01*
X105745740Y-52780091D01*
X105446506Y-52332255D01*
X106613861Y-52332255D01*
X107442000Y-53160395D01*
X108270139Y-52332255D01*
X110423861Y-52332255D01*
X111252000Y-53160395D01*
X112080139Y-52332255D01*
X112006005Y-52086136D01*
X111468777Y-51893035D01*
X110898546Y-51920222D01*
X110497995Y-52086136D01*
X110423861Y-52332255D01*
X108270139Y-52332255D01*
X108196005Y-52086136D01*
X107658777Y-51893035D01*
X107088546Y-51920222D01*
X106687995Y-52086136D01*
X106613861Y-52332255D01*
X105446506Y-52332255D01*
X105428577Y-52305423D01*
X104953909Y-51988260D01*
X104535333Y-51905000D01*
X104252667Y-51905000D01*
X103834091Y-51988260D01*
X103456814Y-52240348D01*
X104780162Y-50917001D01*
X110001582Y-50917001D01*
X110071999Y-50931008D01*
X110142416Y-50917001D01*
X110142417Y-50917001D01*
X110350978Y-50875516D01*
X110587485Y-50717487D01*
X110627376Y-50657786D01*
X110792162Y-50493001D01*
X110946670Y-50557000D01*
X111557330Y-50557000D01*
X112121507Y-50323310D01*
X112553310Y-49891507D01*
X112780000Y-49344229D01*
X112780000Y-61656980D01*
X112780000Y-61656980D01*
G37*
X112780000Y-61656980D02*
X112458956Y-61524000D01*
X112077044Y-61524000D01*
X111724203Y-61670151D01*
X111625354Y-61769000D01*
X110052416Y-61769000D01*
X109981999Y-61754993D01*
X109911582Y-61769000D01*
X109703021Y-61810485D01*
X109466514Y-61968514D01*
X109426626Y-62028211D01*
X108072967Y-63381871D01*
X107837333Y-63335000D01*
X107554667Y-63335000D01*
X107136091Y-63418260D01*
X106661423Y-63735423D01*
X106447888Y-64055000D01*
X100972646Y-64055000D01*
X100873797Y-63956151D01*
X100520956Y-63810000D01*
X100139044Y-63810000D01*
X99786203Y-63956151D01*
X99516151Y-64226203D01*
X99370000Y-64579044D01*
X99370000Y-64960956D01*
X99516151Y-65313797D01*
X99786203Y-65583849D01*
X100139044Y-65730000D01*
X100520956Y-65730000D01*
X100873797Y-65583849D01*
X100972646Y-65485000D01*
X106447888Y-65485000D01*
X106661423Y-65804577D01*
X107136091Y-66121740D01*
X107554667Y-66205000D01*
X107837333Y-66205000D01*
X108255909Y-66121740D01*
X108730577Y-65804577D01*
X109047740Y-65329909D01*
X109159113Y-64770000D01*
X109088123Y-64413110D01*
X109810524Y-64413110D01*
X109931845Y-64643000D01*
X111125000Y-64643000D01*
X111125000Y-63449181D01*
X111379000Y-63449181D01*
X111379000Y-64643000D01*
X112572155Y-64643000D01*
X112693476Y-64413110D01*
X112523645Y-64003076D01*
X112133358Y-63574817D01*
X111608892Y-63328514D01*
X111379000Y-63449181D01*
X111125000Y-63449181D01*
X110895108Y-63328514D01*
X110370642Y-63574817D01*
X109980355Y-64003076D01*
X109810524Y-64413110D01*
X109088123Y-64413110D01*
X109084129Y-64393033D01*
X110278163Y-63199000D01*
X111625354Y-63199000D01*
X111724203Y-63297849D01*
X112077044Y-63444000D01*
X112458956Y-63444000D01*
X112780000Y-63311020D01*
X112780001Y-84577748D01*
X112576625Y-84273375D01*
X112085418Y-83945161D01*
X111652256Y-83859000D01*
X111359744Y-83859000D01*
X110926582Y-83945161D01*
X110435375Y-84273375D01*
X110411571Y-84309000D01*
X110060429Y-84309000D01*
X110036625Y-84273375D01*
X109545418Y-83945161D01*
X109454558Y-83927088D01*
X109589850Y-83791796D01*
X109736001Y-83438955D01*
X109736001Y-83057043D01*
X109589850Y-82704202D01*
X109319798Y-82434150D01*
X108966957Y-82287999D01*
X108585045Y-82287999D01*
X108232204Y-82434150D01*
X108105394Y-82560960D01*
X108037403Y-82574484D01*
X107800896Y-82732513D01*
X107761005Y-82792214D01*
X107734097Y-82819122D01*
X107872965Y-82432777D01*
X107850547Y-81962561D01*
X109563000Y-81962561D01*
X109563000Y-82533439D01*
X109781466Y-83060862D01*
X110185138Y-83464534D01*
X110712561Y-83683000D01*
X111283439Y-83683000D01*
X111810862Y-83464534D01*
X112214534Y-83060862D01*
X112433000Y-82533439D01*
X112433000Y-81962561D01*
X112214534Y-81435138D01*
X111810862Y-81031466D01*
X111283439Y-80813000D01*
X110712561Y-80813000D01*
X110185138Y-81031466D01*
X109781466Y-81435138D01*
X109563000Y-81962561D01*
X107850547Y-81962561D01*
X107845778Y-81862546D01*
X107679864Y-81461995D01*
X107433745Y-81387861D01*
X106605605Y-82216000D01*
X106619748Y-82230142D01*
X106440142Y-82409748D01*
X106426000Y-82395605D01*
X106411858Y-82409748D01*
X106232252Y-82230142D01*
X106246395Y-82216000D01*
X105418255Y-81387861D01*
X105172136Y-81461995D01*
X104979035Y-81999223D01*
X105006222Y-82569454D01*
X105122842Y-82851000D01*
X103576000Y-82851000D01*
X103576000Y-82613044D01*
X103429849Y-82260203D01*
X103159797Y-81990151D01*
X102806956Y-81844000D01*
X102425044Y-81844000D01*
X102072203Y-81990151D01*
X101802151Y-82260203D01*
X101738447Y-82413999D01*
X92400000Y-82413999D01*
X92400000Y-82105044D01*
X92253849Y-81752203D01*
X91983797Y-81482151D01*
X91630956Y-81336000D01*
X91249044Y-81336000D01*
X90896203Y-81482151D01*
X90797354Y-81581000D01*
X75921168Y-81581000D01*
X75850750Y-81566993D01*
X75780332Y-81581000D01*
X75571771Y-81622485D01*
X75335264Y-81780514D01*
X75295375Y-81840212D01*
X72470930Y-84664658D01*
X72136000Y-84598036D01*
X71595378Y-84705572D01*
X71137060Y-85011811D01*
X70850455Y-85440746D01*
X70827499Y-85363183D01*
X70485944Y-84941202D01*
X70008903Y-84682050D01*
X69937275Y-84667867D01*
X69723000Y-84790521D01*
X69723000Y-86233000D01*
X69743000Y-86233000D01*
X69743000Y-86487000D01*
X69723000Y-86487000D01*
X69723000Y-86507000D01*
X69469000Y-86507000D01*
X69469000Y-86487000D01*
X69449000Y-86487000D01*
X69449000Y-86233000D01*
X69469000Y-86233000D01*
X69469000Y-84790521D01*
X69254725Y-84667867D01*
X69183097Y-84682050D01*
X68706056Y-84941202D01*
X68364501Y-85363183D01*
X68341545Y-85440745D01*
X68054939Y-85011810D01*
X67596621Y-84705572D01*
X67056000Y-84598036D01*
X66515378Y-84705572D01*
X66057060Y-85011811D01*
X65786000Y-85417481D01*
X65514939Y-85011810D01*
X65056621Y-84705572D01*
X64516000Y-84598036D01*
X63975378Y-84705572D01*
X63517060Y-85011811D01*
X63246000Y-85417481D01*
X62974939Y-85011810D01*
X62516621Y-84705572D01*
X61976000Y-84598036D01*
X61435378Y-84705572D01*
X60977060Y-85011811D01*
X60670822Y-85470129D01*
X60590430Y-85874288D01*
X60590430Y-86845713D01*
X60657744Y-87184125D01*
X60642956Y-87178000D01*
X60261044Y-87178000D01*
X59908203Y-87324151D01*
X59638151Y-87594203D01*
X59492000Y-87947044D01*
X59492000Y-88328956D01*
X59638151Y-88681797D01*
X59908203Y-88951849D01*
X60261044Y-89098000D01*
X60642956Y-89098000D01*
X60733669Y-89060426D01*
X60732560Y-89066000D01*
X60732560Y-90766000D01*
X60781843Y-91013765D01*
X60922191Y-91223809D01*
X61132235Y-91364157D01*
X61380000Y-91413440D01*
X63080000Y-91413440D01*
X63327765Y-91364157D01*
X63537809Y-91223809D01*
X63678157Y-91013765D01*
X63687184Y-90968381D01*
X63699375Y-90986625D01*
X64190582Y-91314839D01*
X64623744Y-91401000D01*
X64834999Y-91401000D01*
X64835000Y-92550842D01*
X62929593Y-94456250D01*
X62864048Y-94500046D01*
X62820252Y-94565591D01*
X62695692Y-94690151D01*
X62579594Y-94806250D01*
X62579590Y-94806252D01*
X62566917Y-94818925D01*
X62376256Y-94781000D01*
X62083744Y-94781000D01*
X61650582Y-94867161D01*
X61159375Y-95195375D01*
X60831161Y-95686582D01*
X60715908Y-96266000D01*
X60831161Y-96845418D01*
X61159375Y-97336625D01*
X61177619Y-97348816D01*
X61132235Y-97357843D01*
X60922191Y-97498191D01*
X60781843Y-97708235D01*
X60732560Y-97956000D01*
X60732560Y-99656000D01*
X60781843Y-99903765D01*
X60899600Y-100080000D01*
X59060000Y-100080000D01*
X59060000Y-80853653D01*
X59381375Y-81334625D01*
X59872582Y-81662839D01*
X60305744Y-81749000D01*
X60598256Y-81749000D01*
X61031418Y-81662839D01*
X61522625Y-81334625D01*
X61850839Y-80843418D01*
X61966092Y-80264000D01*
X61850839Y-79684582D01*
X61522625Y-79193375D01*
X61504381Y-79181184D01*
X61549765Y-79172157D01*
X61759809Y-79031809D01*
X61900157Y-78821765D01*
X61949440Y-78574000D01*
X61949440Y-76874000D01*
X61900157Y-76626235D01*
X61759809Y-76416191D01*
X61549765Y-76275843D01*
X61302000Y-76226560D01*
X59602000Y-76226560D01*
X59354235Y-76275843D01*
X59144191Y-76416191D01*
X59060000Y-76542191D01*
X59060000Y-68106907D01*
X59130091Y-68153740D01*
X59548667Y-68237000D01*
X59831333Y-68237000D01*
X60249909Y-68153740D01*
X60724577Y-67836577D01*
X61041740Y-67361909D01*
X61153113Y-66802000D01*
X61080112Y-66435000D01*
X65908784Y-66435000D01*
X65875000Y-66516561D01*
X65875000Y-67087439D01*
X66093466Y-67614862D01*
X66343604Y-67865000D01*
X65158646Y-67865000D01*
X65059797Y-67766151D01*
X64706956Y-67620000D01*
X64325044Y-67620000D01*
X63972203Y-67766151D01*
X63702151Y-68036203D01*
X63556000Y-68389044D01*
X63556000Y-68770956D01*
X63702151Y-69123797D01*
X63972203Y-69393849D01*
X64096813Y-69445464D01*
X63626056Y-69701202D01*
X63284501Y-70123183D01*
X63261545Y-70200745D01*
X62974939Y-69771810D01*
X62516621Y-69465572D01*
X61976000Y-69358036D01*
X61435378Y-69465572D01*
X60977060Y-69771811D01*
X60670822Y-70230129D01*
X60590430Y-70634288D01*
X60590430Y-71605713D01*
X60670822Y-72009872D01*
X60977061Y-72468190D01*
X61435379Y-72774428D01*
X61976000Y-72881964D01*
X62516622Y-72774428D01*
X62974940Y-72468190D01*
X63261545Y-72039255D01*
X63284501Y-72116817D01*
X63626056Y-72538798D01*
X64103097Y-72797950D01*
X64174725Y-72812133D01*
X64389000Y-72689479D01*
X64389000Y-71247000D01*
X64369000Y-71247000D01*
X64369000Y-70993000D01*
X64389000Y-70993000D01*
X64389000Y-70973000D01*
X64643000Y-70973000D01*
X64643000Y-70993000D01*
X64663000Y-70993000D01*
X64663000Y-71247000D01*
X64643000Y-71247000D01*
X64643000Y-72689479D01*
X64857275Y-72812133D01*
X64928903Y-72797950D01*
X65405944Y-72538798D01*
X65747499Y-72116817D01*
X65770455Y-72039255D01*
X66057061Y-72468190D01*
X66515379Y-72774428D01*
X67056000Y-72881964D01*
X67596622Y-72774428D01*
X68054940Y-72468190D01*
X68326000Y-72062520D01*
X68597061Y-72468190D01*
X69055379Y-72774428D01*
X69540762Y-72870977D01*
X69480430Y-73174288D01*
X69480430Y-74145713D01*
X69560822Y-74549872D01*
X69867061Y-75008190D01*
X70325379Y-75314428D01*
X70866000Y-75421964D01*
X71406622Y-75314428D01*
X71864940Y-75008190D01*
X72136000Y-74602520D01*
X72407061Y-75008190D01*
X72865379Y-75314428D01*
X73406000Y-75421964D01*
X73946622Y-75314428D01*
X74404940Y-75008190D01*
X74711178Y-74549872D01*
X74745962Y-74375000D01*
X77081354Y-74375000D01*
X77180203Y-74473849D01*
X77533044Y-74620000D01*
X77914956Y-74620000D01*
X78267797Y-74473849D01*
X78537849Y-74203797D01*
X78684000Y-73850956D01*
X78684000Y-73469044D01*
X78537849Y-73116203D01*
X78267797Y-72846151D01*
X77914956Y-72700000D01*
X77868011Y-72700000D01*
X78214940Y-72468190D01*
X78486000Y-72062520D01*
X78757061Y-72468190D01*
X79215379Y-72774428D01*
X79700762Y-72870977D01*
X79640430Y-73174288D01*
X79640430Y-74145713D01*
X79720822Y-74549872D01*
X80027061Y-75008190D01*
X80384876Y-75247274D01*
X80510515Y-75435306D01*
X80570213Y-75475195D01*
X80580018Y-75485000D01*
X67698646Y-75485000D01*
X67599797Y-75386151D01*
X67246956Y-75240000D01*
X66865044Y-75240000D01*
X66512203Y-75386151D01*
X66242151Y-75656203D01*
X66096000Y-76009044D01*
X66096000Y-76390956D01*
X66242151Y-76743797D01*
X66512203Y-77013849D01*
X66865044Y-77160000D01*
X67246956Y-77160000D01*
X67599797Y-77013849D01*
X67698646Y-76915000D01*
X82235761Y-76915000D01*
X82266480Y-76921110D01*
X82306179Y-76929007D01*
X82306180Y-76929007D01*
X82376598Y-76915000D01*
X88378088Y-76915000D01*
X88431154Y-76994420D01*
X78062998Y-76994420D01*
X77992580Y-76980413D01*
X77922162Y-76994420D01*
X77713601Y-77035905D01*
X77477094Y-77193934D01*
X77437205Y-77253632D01*
X77418837Y-77272000D01*
X77279044Y-77272000D01*
X76926203Y-77418151D01*
X76656151Y-77688203D01*
X76510000Y-78041044D01*
X76510000Y-78422956D01*
X76656151Y-78775797D01*
X76926203Y-79045849D01*
X77279044Y-79192000D01*
X77660956Y-79192000D01*
X78013797Y-79045849D01*
X78283849Y-78775797D01*
X78429394Y-78424420D01*
X88238575Y-78424420D01*
X88346521Y-78613000D01*
X89789000Y-78613000D01*
X89789000Y-78593000D01*
X90043000Y-78593000D01*
X90043000Y-78613000D01*
X91485479Y-78613000D01*
X91593425Y-78424420D01*
X92325761Y-78424420D01*
X92396178Y-78438427D01*
X92466595Y-78424420D01*
X92466596Y-78424420D01*
X92675157Y-78382935D01*
X92911664Y-78224906D01*
X92951555Y-78165205D01*
X93737539Y-77379221D01*
X93764959Y-77445423D01*
X94140866Y-77860389D01*
X94646959Y-78099914D01*
X94868998Y-77978630D01*
X94868998Y-78143000D01*
X94917835Y-78143000D01*
X93511836Y-79549000D01*
X91378771Y-79549000D01*
X91593950Y-79152903D01*
X91608133Y-79081275D01*
X91485479Y-78867000D01*
X90043000Y-78867000D01*
X90043000Y-78887000D01*
X89789000Y-78887000D01*
X89789000Y-78867000D01*
X88346521Y-78867000D01*
X88223867Y-79081275D01*
X88238050Y-79152903D01*
X88453229Y-79549000D01*
X82938646Y-79549000D01*
X82839797Y-79450151D01*
X82486956Y-79304000D01*
X82105044Y-79304000D01*
X81752203Y-79450151D01*
X81667934Y-79534420D01*
X76828066Y-79534420D01*
X76729217Y-79435571D01*
X76376376Y-79289420D01*
X75994464Y-79289420D01*
X75641623Y-79435571D01*
X75371571Y-79705623D01*
X75225420Y-80058464D01*
X75225420Y-80440376D01*
X75371571Y-80793217D01*
X75641623Y-81063269D01*
X75994464Y-81209420D01*
X76376376Y-81209420D01*
X76729217Y-81063269D01*
X76828066Y-80964420D01*
X81638774Y-80964420D01*
X81752203Y-81077849D01*
X82105044Y-81224000D01*
X82486956Y-81224000D01*
X82839797Y-81077849D01*
X82938646Y-80979000D01*
X93737581Y-80979000D01*
X93807998Y-80993007D01*
X93878415Y-80979000D01*
X93878416Y-80979000D01*
X94086977Y-80937515D01*
X94273000Y-80813218D01*
X94273000Y-81494309D01*
X94369673Y-81727698D01*
X94548301Y-81906327D01*
X94781690Y-82003000D01*
X95472250Y-82003000D01*
X95631000Y-81844250D01*
X95631000Y-80645000D01*
X95885000Y-80645000D01*
X95885000Y-81844250D01*
X96043750Y-82003000D01*
X96734310Y-82003000D01*
X96967699Y-81906327D01*
X97146327Y-81727698D01*
X97233136Y-81518122D01*
X97531076Y-81789645D01*
X97941110Y-81959476D01*
X98171000Y-81838155D01*
X98171000Y-80645000D01*
X98425000Y-80645000D01*
X98425000Y-81838155D01*
X98654890Y-81959476D01*
X99064924Y-81789645D01*
X99493183Y-81399358D01*
X99568000Y-81240046D01*
X99642817Y-81399358D01*
X100071076Y-81789645D01*
X100481110Y-81959476D01*
X100711000Y-81838155D01*
X100711000Y-80645000D01*
X100965000Y-80645000D01*
X100965000Y-81838155D01*
X101194890Y-81959476D01*
X101604924Y-81789645D01*
X102033183Y-81399358D01*
X102122929Y-81208255D01*
X105597861Y-81208255D01*
X106426000Y-82036395D01*
X107254139Y-81208255D01*
X107180005Y-80962136D01*
X106642777Y-80769035D01*
X106072546Y-80796222D01*
X105671995Y-80962136D01*
X105597861Y-81208255D01*
X102122929Y-81208255D01*
X102279486Y-80874892D01*
X102158819Y-80645000D01*
X100965000Y-80645000D01*
X100711000Y-80645000D01*
X98425000Y-80645000D01*
X98171000Y-80645000D01*
X95885000Y-80645000D01*
X95631000Y-80645000D01*
X95611000Y-80645000D01*
X95611000Y-80391000D01*
X95631000Y-80391000D01*
X95631000Y-80371000D01*
X95885000Y-80371000D01*
X95885000Y-80391000D01*
X98171000Y-80391000D01*
X98171000Y-80371000D01*
X98425000Y-80371000D01*
X98425000Y-80391000D01*
X100711000Y-80391000D01*
X100711000Y-79197845D01*
X100965000Y-79197845D01*
X100965000Y-80391000D01*
X102158819Y-80391000D01*
X102279486Y-80161108D01*
X102033183Y-79636642D01*
X101604924Y-79246355D01*
X101194890Y-79076524D01*
X100965000Y-79197845D01*
X100711000Y-79197845D01*
X100481110Y-79076524D01*
X100231904Y-79179742D01*
X100381849Y-79029797D01*
X100528000Y-78676956D01*
X100528000Y-78295044D01*
X100381849Y-77942203D01*
X100111797Y-77672151D01*
X99758956Y-77526000D01*
X99377044Y-77526000D01*
X99024203Y-77672151D01*
X98925354Y-77771000D01*
X95932109Y-77771000D01*
X96227041Y-77445423D01*
X96387904Y-77057039D01*
X96265915Y-76835000D01*
X95123000Y-76835000D01*
X95123000Y-76855000D01*
X94869000Y-76855000D01*
X94869000Y-76835000D01*
X94849000Y-76835000D01*
X94849000Y-76581000D01*
X94869000Y-76581000D01*
X94869000Y-76561000D01*
X95123000Y-76561000D01*
X95123000Y-76581000D01*
X96265915Y-76581000D01*
X96387904Y-76358961D01*
X96227041Y-75970577D01*
X95932109Y-75645000D01*
X99687354Y-75645000D01*
X99786203Y-75743849D01*
X100139044Y-75890000D01*
X100520956Y-75890000D01*
X100873797Y-75743849D01*
X101143849Y-75473797D01*
X101290000Y-75120956D01*
X101290000Y-74739044D01*
X101143849Y-74386203D01*
X101132646Y-74375000D01*
X102573838Y-74375000D01*
X104191837Y-75993000D01*
X103873070Y-75993000D01*
X103832534Y-75895138D01*
X103428862Y-75491466D01*
X102901439Y-75273000D01*
X102330561Y-75273000D01*
X101803138Y-75491466D01*
X101399466Y-75895138D01*
X101181000Y-76422561D01*
X101181000Y-76993439D01*
X101399466Y-77520862D01*
X101803138Y-77924534D01*
X102330561Y-78143000D01*
X102901439Y-78143000D01*
X103428862Y-77924534D01*
X103832534Y-77520862D01*
X103873070Y-77423000D01*
X104991000Y-77423000D01*
X104991000Y-77501439D01*
X105209466Y-78028862D01*
X105613138Y-78432534D01*
X106140561Y-78651000D01*
X106711439Y-78651000D01*
X106809302Y-78610464D01*
X107902625Y-79703788D01*
X107942514Y-79763486D01*
X108179021Y-79921515D01*
X108387582Y-79963000D01*
X108387583Y-79963000D01*
X108458000Y-79977007D01*
X108528417Y-79963000D01*
X109740930Y-79963000D01*
X109781466Y-80060862D01*
X110185138Y-80464534D01*
X110712561Y-80683000D01*
X111283439Y-80683000D01*
X111810862Y-80464534D01*
X112214534Y-80060862D01*
X112433000Y-79533439D01*
X112433000Y-78962561D01*
X112214534Y-78435138D01*
X111810862Y-78031466D01*
X111283439Y-77813000D01*
X110712561Y-77813000D01*
X110185138Y-78031466D01*
X109781466Y-78435138D01*
X109740930Y-78533000D01*
X108754163Y-78533000D01*
X107820464Y-77599302D01*
X107861000Y-77501439D01*
X107861000Y-76930561D01*
X107642534Y-76403138D01*
X107238862Y-75999466D01*
X106711439Y-75781000D01*
X106140561Y-75781000D01*
X106042699Y-75821536D01*
X103425377Y-73204215D01*
X103405856Y-73175000D01*
X106467925Y-73175000D01*
X106479466Y-73202862D01*
X106883138Y-73606534D01*
X107410561Y-73825000D01*
X107981439Y-73825000D01*
X108508862Y-73606534D01*
X108912534Y-73202862D01*
X108924075Y-73175000D01*
X109754560Y-73175000D01*
X109754560Y-73240000D01*
X109803843Y-73487765D01*
X109944191Y-73697809D01*
X110154235Y-73838157D01*
X110402000Y-73887440D01*
X112102000Y-73887440D01*
X112349765Y-73838157D01*
X112559809Y-73697809D01*
X112700157Y-73487765D01*
X112749440Y-73240000D01*
X112749440Y-71540000D01*
X112700157Y-71292235D01*
X112559809Y-71082191D01*
X112349765Y-70941843D01*
X112304381Y-70932816D01*
X112322625Y-70920625D01*
X112650839Y-70429418D01*
X112766092Y-69850000D01*
X112650839Y-69270582D01*
X112322625Y-68779375D01*
X112024239Y-68580000D01*
X112322625Y-68380625D01*
X112650839Y-67889418D01*
X112766092Y-67310000D01*
X112650839Y-66730582D01*
X112322625Y-66239375D01*
X112003522Y-66026157D01*
X112133358Y-65965183D01*
X112523645Y-65536924D01*
X112693476Y-65126890D01*
X112572155Y-64897000D01*
X111379000Y-64897000D01*
X111379000Y-64917000D01*
X111125000Y-64917000D01*
X111125000Y-64897000D01*
X109931845Y-64897000D01*
X109810524Y-65126890D01*
X109980355Y-65536924D01*
X110370642Y-65965183D01*
X110500478Y-66026157D01*
X110181375Y-66239375D01*
X109853161Y-66730582D01*
X109737908Y-67310000D01*
X109853161Y-67889418D01*
X110181375Y-68380625D01*
X110479761Y-68580000D01*
X110181375Y-68779375D01*
X110011536Y-69033557D01*
X109664956Y-68890000D01*
X109283044Y-68890000D01*
X108930203Y-69036151D01*
X108821353Y-69145001D01*
X105146282Y-69145001D01*
X105257908Y-68844539D01*
X105233856Y-68194540D01*
X105031387Y-67705736D01*
X104764532Y-67607073D01*
X103791605Y-68580000D01*
X103805748Y-68594143D01*
X103626143Y-68773748D01*
X103612000Y-68759605D01*
X103597858Y-68773748D01*
X103418253Y-68594143D01*
X103432395Y-68580000D01*
X102459468Y-67607073D01*
X102192613Y-67705736D01*
X101966092Y-68315461D01*
X101990144Y-68965460D01*
X102064512Y-69145001D01*
X97659440Y-69145001D01*
X97659440Y-67580000D01*
X97629100Y-67427468D01*
X102639073Y-67427468D01*
X103612000Y-68400395D01*
X104584927Y-67427468D01*
X104486264Y-67160613D01*
X103876539Y-66934092D01*
X103226540Y-66958144D01*
X102737736Y-67160613D01*
X102639073Y-67427468D01*
X97629100Y-67427468D01*
X97610157Y-67332235D01*
X97469809Y-67122191D01*
X97259765Y-66981843D01*
X97012000Y-66932560D01*
X95012000Y-66932560D01*
X94764235Y-66981843D01*
X94554191Y-67122191D01*
X94413843Y-67332235D01*
X94364560Y-67580000D01*
X94364560Y-69145001D01*
X90739112Y-69145001D01*
X90621859Y-69066655D01*
X90426821Y-69027860D01*
X90505765Y-69012157D01*
X90715809Y-68871809D01*
X90856157Y-68661765D01*
X90905440Y-68414000D01*
X90905440Y-66714000D01*
X90856157Y-66466235D01*
X90715809Y-66256191D01*
X90505765Y-66115843D01*
X90460381Y-66106816D01*
X90478625Y-66094625D01*
X90806839Y-65603418D01*
X90922092Y-65024000D01*
X90806839Y-64444582D01*
X90478625Y-63953375D01*
X89987418Y-63625161D01*
X89554256Y-63539000D01*
X89261744Y-63539000D01*
X88828582Y-63625161D01*
X88337375Y-63953375D01*
X88009161Y-64444582D01*
X87893908Y-65024000D01*
X88009161Y-65603418D01*
X88337375Y-66094625D01*
X88355619Y-66106816D01*
X88310235Y-66115843D01*
X88100191Y-66256191D01*
X87959843Y-66466235D01*
X87910560Y-66714000D01*
X87910560Y-68414000D01*
X87959843Y-68661765D01*
X88100191Y-68871809D01*
X88310235Y-69012157D01*
X88375656Y-69025170D01*
X83150701Y-69025170D01*
X83256000Y-68770956D01*
X83256000Y-68389044D01*
X83109849Y-68036203D01*
X82839797Y-67766151D01*
X82798303Y-67748964D01*
X82980965Y-67240777D01*
X82953778Y-66670546D01*
X82792395Y-66280933D01*
X82932157Y-66071765D01*
X82981440Y-65824000D01*
X82981440Y-64469000D01*
X85971354Y-64469000D01*
X86070203Y-64567849D01*
X86423044Y-64714000D01*
X86804956Y-64714000D01*
X87157797Y-64567849D01*
X87427849Y-64297797D01*
X87571082Y-63952000D01*
X87820956Y-63952000D01*
X88173797Y-63805849D01*
X88443849Y-63535797D01*
X88590000Y-63182956D01*
X88590000Y-63017776D01*
X88594151Y-63027797D01*
X88864203Y-63297849D01*
X89217044Y-63444000D01*
X89598956Y-63444000D01*
X89951797Y-63297849D01*
X90221849Y-63027797D01*
X90368000Y-62674956D01*
X90368000Y-62293044D01*
X90221849Y-61940203D01*
X89951797Y-61670151D01*
X89598956Y-61524000D01*
X89459163Y-61524000D01*
X89426163Y-61491000D01*
X90860843Y-61491000D01*
X91242000Y-61872158D01*
X91242000Y-61912956D01*
X91388151Y-62265797D01*
X91658203Y-62535849D01*
X92011044Y-62682000D01*
X92392956Y-62682000D01*
X92745797Y-62535849D01*
X93015849Y-62265797D01*
X93162000Y-61912956D01*
X93162000Y-61531044D01*
X93015849Y-61178203D01*
X92797646Y-60960000D01*
X93786887Y-60960000D01*
X93898260Y-61519909D01*
X94215423Y-61994577D01*
X94690091Y-62311740D01*
X95108667Y-62395000D01*
X95391333Y-62395000D01*
X95809909Y-62311740D01*
X96284577Y-61994577D01*
X96451339Y-61745000D01*
X97096661Y-61745000D01*
X97263423Y-61994577D01*
X97738091Y-62311740D01*
X98156667Y-62395000D01*
X98439333Y-62395000D01*
X98857909Y-62311740D01*
X99332577Y-61994577D01*
X99499339Y-61745000D01*
X100144661Y-61745000D01*
X100311423Y-61994577D01*
X100786091Y-62311740D01*
X101204667Y-62395000D01*
X101487333Y-62395000D01*
X101905909Y-62311740D01*
X102380577Y-61994577D01*
X102697740Y-61519909D01*
X102809113Y-60960000D01*
X102752336Y-60674561D01*
X102959000Y-60674561D01*
X102959000Y-61245439D01*
X103177466Y-61772862D01*
X103581138Y-62176534D01*
X104108561Y-62395000D01*
X104679439Y-62395000D01*
X105206862Y-62176534D01*
X105610534Y-61772862D01*
X105622075Y-61745000D01*
X106240661Y-61745000D01*
X106407423Y-61994577D01*
X106882091Y-62311740D01*
X107300667Y-62395000D01*
X107583333Y-62395000D01*
X108001909Y-62311740D01*
X108476577Y-61994577D01*
X108793740Y-61519909D01*
X108905113Y-60960000D01*
X108846554Y-60665603D01*
X110197381Y-59314777D01*
X110439138Y-59556534D01*
X110966561Y-59775000D01*
X111537439Y-59775000D01*
X112064862Y-59556534D01*
X112468534Y-59152862D01*
X112687000Y-58625439D01*
X112687000Y-58054561D01*
X112468534Y-57527138D01*
X112064862Y-57123466D01*
X111537439Y-56905000D01*
X110966561Y-56905000D01*
X110439138Y-57123466D01*
X110035466Y-57527138D01*
X110027448Y-57546495D01*
X109984688Y-57555000D01*
X109984684Y-57555000D01*
X109755708Y-57600546D01*
X109496047Y-57774047D01*
X109452251Y-57839592D01*
X107736397Y-59555446D01*
X107583333Y-59525000D01*
X107300667Y-59525000D01*
X106882091Y-59608260D01*
X106407423Y-59925423D01*
X106240661Y-60175000D01*
X105622075Y-60175000D01*
X105610534Y-60147138D01*
X105206862Y-59743466D01*
X104679439Y-59525000D01*
X104108561Y-59525000D01*
X103581138Y-59743466D01*
X103177466Y-60147138D01*
X102959000Y-60674561D01*
X102752336Y-60674561D01*
X102697740Y-60400091D01*
X102380577Y-59925423D01*
X101905909Y-59608260D01*
X101487333Y-59525000D01*
X101204667Y-59525000D01*
X100786091Y-59608260D01*
X100311423Y-59925423D01*
X100144661Y-60175000D01*
X99499339Y-60175000D01*
X99332577Y-59925423D01*
X98857909Y-59608260D01*
X98439333Y-59525000D01*
X98156667Y-59525000D01*
X97738091Y-59608260D01*
X97263423Y-59925423D01*
X97096661Y-60175000D01*
X96451339Y-60175000D01*
X96284577Y-59925423D01*
X95809909Y-59608260D01*
X95391333Y-59525000D01*
X95108667Y-59525000D01*
X94690091Y-59608260D01*
X94215423Y-59925423D01*
X93898260Y-60400091D01*
X93786887Y-60960000D01*
X92797646Y-60960000D01*
X92745797Y-60908151D01*
X92392956Y-60762000D01*
X92352158Y-60762000D01*
X91795749Y-60205592D01*
X91751953Y-60140047D01*
X91492292Y-59966546D01*
X91440891Y-59956322D01*
X91852801Y-59544412D01*
X92155000Y-58814841D01*
X92155000Y-58025159D01*
X91852801Y-57295588D01*
X91294412Y-56737199D01*
X90564841Y-56435000D01*
X89775159Y-56435000D01*
X89045588Y-56737199D01*
X88487199Y-57295588D01*
X88185000Y-58025159D01*
X88185000Y-58814841D01*
X88487199Y-59544412D01*
X88863787Y-59921000D01*
X86182203Y-59921000D01*
X86304000Y-59626956D01*
X86304000Y-59245044D01*
X86157849Y-58892203D01*
X85887797Y-58622151D01*
X85534956Y-58476000D01*
X85153044Y-58476000D01*
X84800203Y-58622151D01*
X84701354Y-58721000D01*
X83953696Y-58721000D01*
X84064092Y-58166000D01*
X84002429Y-57856000D01*
X84264956Y-57856000D01*
X84617797Y-57709849D01*
X84716646Y-57611000D01*
X85717354Y-57611000D01*
X85816203Y-57709849D01*
X86169044Y-57856000D01*
X86550956Y-57856000D01*
X86903797Y-57709849D01*
X87173849Y-57439797D01*
X87320000Y-57086956D01*
X87320000Y-56705044D01*
X87198203Y-56411000D01*
X92137354Y-56411000D01*
X92166203Y-56439849D01*
X92519044Y-56586000D01*
X92900956Y-56586000D01*
X93253797Y-56439849D01*
X93282646Y-56411000D01*
X102030688Y-56411000D01*
X102108000Y-56426378D01*
X102185312Y-56411000D01*
X102185316Y-56411000D01*
X102414292Y-56365454D01*
X102673953Y-56191953D01*
X102717749Y-56126408D01*
X104099604Y-54744554D01*
X104252667Y-54775000D01*
X104535333Y-54775000D01*
X104953909Y-54691740D01*
X105428577Y-54374577D01*
X105446505Y-54347745D01*
X106613861Y-54347745D01*
X106687995Y-54593864D01*
X107225223Y-54786965D01*
X107795454Y-54759778D01*
X108196005Y-54593864D01*
X108270139Y-54347745D01*
X110423861Y-54347745D01*
X110497995Y-54593864D01*
X111035223Y-54786965D01*
X111605454Y-54759778D01*
X112006005Y-54593864D01*
X112080139Y-54347745D01*
X111252000Y-53519605D01*
X110423861Y-54347745D01*
X108270139Y-54347745D01*
X107442000Y-53519605D01*
X106613861Y-54347745D01*
X105446505Y-54347745D01*
X105745740Y-53899909D01*
X105857113Y-53340000D01*
X105813994Y-53123223D01*
X105995035Y-53123223D01*
X106022222Y-53693454D01*
X106188136Y-54094005D01*
X106434255Y-54168139D01*
X107262395Y-53340000D01*
X107621605Y-53340000D01*
X108449745Y-54168139D01*
X108695864Y-54094005D01*
X108888965Y-53556777D01*
X108868295Y-53123223D01*
X109805035Y-53123223D01*
X109832222Y-53693454D01*
X109998136Y-54094005D01*
X110244255Y-54168139D01*
X111072395Y-53340000D01*
X111431605Y-53340000D01*
X112259745Y-54168139D01*
X112505864Y-54094005D01*
X112698965Y-53556777D01*
X112671778Y-52986546D01*
X112505864Y-52585995D01*
X112259745Y-52511861D01*
X111431605Y-53340000D01*
X111072395Y-53340000D01*
X110244255Y-52511861D01*
X109998136Y-52585995D01*
X109805035Y-53123223D01*
X108868295Y-53123223D01*
X108861778Y-52986546D01*
X108695864Y-52585995D01*
X108449745Y-52511861D01*
X107621605Y-53340000D01*
X107262395Y-53340000D01*
X106434255Y-52511861D01*
X106188136Y-52585995D01*
X105995035Y-53123223D01*
X105813994Y-53123223D01*
X105745740Y-52780091D01*
X105446506Y-52332255D01*
X106613861Y-52332255D01*
X107442000Y-53160395D01*
X108270139Y-52332255D01*
X110423861Y-52332255D01*
X111252000Y-53160395D01*
X112080139Y-52332255D01*
X112006005Y-52086136D01*
X111468777Y-51893035D01*
X110898546Y-51920222D01*
X110497995Y-52086136D01*
X110423861Y-52332255D01*
X108270139Y-52332255D01*
X108196005Y-52086136D01*
X107658777Y-51893035D01*
X107088546Y-51920222D01*
X106687995Y-52086136D01*
X106613861Y-52332255D01*
X105446506Y-52332255D01*
X105428577Y-52305423D01*
X104953909Y-51988260D01*
X104535333Y-51905000D01*
X104252667Y-51905000D01*
X103834091Y-51988260D01*
X103456814Y-52240348D01*
X104780162Y-50917001D01*
X110001582Y-50917001D01*
X110071999Y-50931008D01*
X110142416Y-50917001D01*
X110142417Y-50917001D01*
X110350978Y-50875516D01*
X110587485Y-50717487D01*
X110627376Y-50657786D01*
X110792162Y-50493001D01*
X110946670Y-50557000D01*
X111557330Y-50557000D01*
X112121507Y-50323310D01*
X112553310Y-49891507D01*
X112780000Y-49344229D01*
X112780000Y-61656980D01*
G36*
X112780001Y-98039749D02*
X112576625Y-97735375D01*
X112085418Y-97407161D01*
X111652256Y-97321000D01*
X111359744Y-97321000D01*
X110926582Y-97407161D01*
X110435375Y-97735375D01*
X110222157Y-98054478D01*
X110161183Y-97924642D01*
X109732924Y-97534355D01*
X109322890Y-97364524D01*
X109093000Y-97485845D01*
X109093000Y-98679000D01*
X109113000Y-98679000D01*
X109113000Y-98933000D01*
X109093000Y-98933000D01*
X109093000Y-98953000D01*
X108839000Y-98953000D01*
X108839000Y-98933000D01*
X108819000Y-98933000D01*
X108819000Y-98679000D01*
X108839000Y-98679000D01*
X108839000Y-97485845D01*
X108609110Y-97364524D01*
X108199076Y-97534355D01*
X107894739Y-97811708D01*
X107874157Y-97708235D01*
X107733809Y-97498191D01*
X107523765Y-97357843D01*
X107276000Y-97308560D01*
X105576000Y-97308560D01*
X105328235Y-97357843D01*
X105118191Y-97498191D01*
X104977843Y-97708235D01*
X104928560Y-97956000D01*
X104928560Y-99656000D01*
X104977843Y-99903765D01*
X105095600Y-100080000D01*
X104292338Y-100080000D01*
X104394904Y-97003001D01*
X110800067Y-97003001D01*
X110902001Y-97023277D01*
X111003935Y-97003001D01*
X111003936Y-97003001D01*
X111305838Y-96942949D01*
X111648194Y-96714194D01*
X111705938Y-96627774D01*
X112345777Y-95987936D01*
X112432194Y-95930194D01*
X112660949Y-95587838D01*
X112721001Y-95285936D01*
X112721001Y-95285931D01*
X112741276Y-95184002D01*
X112721001Y-95082072D01*
X112721001Y-91654016D01*
X112741277Y-91552082D01*
X112714498Y-91417454D01*
X112660949Y-91148245D01*
X112649650Y-91131335D01*
X112780001Y-90936252D01*
X112780001Y-98039749D01*
X112780001Y-98039749D01*
G37*
X112780001Y-98039749D02*
X112576625Y-97735375D01*
X112085418Y-97407161D01*
X111652256Y-97321000D01*
X111359744Y-97321000D01*
X110926582Y-97407161D01*
X110435375Y-97735375D01*
X110222157Y-98054478D01*
X110161183Y-97924642D01*
X109732924Y-97534355D01*
X109322890Y-97364524D01*
X109093000Y-97485845D01*
X109093000Y-98679000D01*
X109113000Y-98679000D01*
X109113000Y-98933000D01*
X109093000Y-98933000D01*
X109093000Y-98953000D01*
X108839000Y-98953000D01*
X108839000Y-98933000D01*
X108819000Y-98933000D01*
X108819000Y-98679000D01*
X108839000Y-98679000D01*
X108839000Y-97485845D01*
X108609110Y-97364524D01*
X108199076Y-97534355D01*
X107894739Y-97811708D01*
X107874157Y-97708235D01*
X107733809Y-97498191D01*
X107523765Y-97357843D01*
X107276000Y-97308560D01*
X105576000Y-97308560D01*
X105328235Y-97357843D01*
X105118191Y-97498191D01*
X104977843Y-97708235D01*
X104928560Y-97956000D01*
X104928560Y-99656000D01*
X104977843Y-99903765D01*
X105095600Y-100080000D01*
X104292338Y-100080000D01*
X104394904Y-97003001D01*
X110800067Y-97003001D01*
X110902001Y-97023277D01*
X111003935Y-97003001D01*
X111003936Y-97003001D01*
X111305838Y-96942949D01*
X111648194Y-96714194D01*
X111705938Y-96627774D01*
X112345777Y-95987936D01*
X112432194Y-95930194D01*
X112660949Y-95587838D01*
X112721001Y-95285936D01*
X112721001Y-95285931D01*
X112741276Y-95184002D01*
X112721001Y-95082072D01*
X112721001Y-91654016D01*
X112741277Y-91552082D01*
X112714498Y-91417454D01*
X112660949Y-91148245D01*
X112649650Y-91131335D01*
X112780001Y-90936252D01*
X112780001Y-98039749D01*
G36*
X93809786Y-94469000D02*
X92608065Y-94469000D01*
X92306163Y-94529052D01*
X91963807Y-94757807D01*
X91735052Y-95100163D01*
X91654724Y-95504000D01*
X91735052Y-95907837D01*
X91963807Y-96250193D01*
X92306163Y-96478948D01*
X92608065Y-96539000D01*
X93738407Y-96539000D01*
X93672200Y-98459001D01*
X92346196Y-98459001D01*
X92373486Y-98400892D01*
X92252819Y-98171000D01*
X91059000Y-98171000D01*
X91059000Y-98191000D01*
X90805000Y-98191000D01*
X90805000Y-98171000D01*
X88519000Y-98171000D01*
X88519000Y-98191000D01*
X88265000Y-98191000D01*
X88265000Y-98171000D01*
X88245000Y-98171000D01*
X88245000Y-97917000D01*
X88265000Y-97917000D01*
X88265000Y-97897000D01*
X88519000Y-97897000D01*
X88519000Y-97917000D01*
X90805000Y-97917000D01*
X90805000Y-96723845D01*
X91059000Y-96723845D01*
X91059000Y-97917000D01*
X92252819Y-97917000D01*
X92373486Y-97687108D01*
X92127183Y-97162642D01*
X91698924Y-96772355D01*
X91288890Y-96602524D01*
X91059000Y-96723845D01*
X90805000Y-96723845D01*
X90575110Y-96602524D01*
X90165076Y-96772355D01*
X89736817Y-97162642D01*
X89662000Y-97321954D01*
X89587183Y-97162642D01*
X89158924Y-96772355D01*
X88945839Y-96684098D01*
X91426938Y-94202999D01*
X93818959Y-94202999D01*
X93809786Y-94469000D01*
X93809786Y-94469000D01*
G37*
X93809786Y-94469000D02*
X92608065Y-94469000D01*
X92306163Y-94529052D01*
X91963807Y-94757807D01*
X91735052Y-95100163D01*
X91654724Y-95504000D01*
X91735052Y-95907837D01*
X91963807Y-96250193D01*
X92306163Y-96478948D01*
X92608065Y-96539000D01*
X93738407Y-96539000D01*
X93672200Y-98459001D01*
X92346196Y-98459001D01*
X92373486Y-98400892D01*
X92252819Y-98171000D01*
X91059000Y-98171000D01*
X91059000Y-98191000D01*
X90805000Y-98191000D01*
X90805000Y-98171000D01*
X88519000Y-98171000D01*
X88519000Y-98191000D01*
X88265000Y-98191000D01*
X88265000Y-98171000D01*
X88245000Y-98171000D01*
X88245000Y-97917000D01*
X88265000Y-97917000D01*
X88265000Y-97897000D01*
X88519000Y-97897000D01*
X88519000Y-97917000D01*
X90805000Y-97917000D01*
X90805000Y-96723845D01*
X91059000Y-96723845D01*
X91059000Y-97917000D01*
X92252819Y-97917000D01*
X92373486Y-97687108D01*
X92127183Y-97162642D01*
X91698924Y-96772355D01*
X91288890Y-96602524D01*
X91059000Y-96723845D01*
X90805000Y-96723845D01*
X90575110Y-96602524D01*
X90165076Y-96772355D01*
X89736817Y-97162642D01*
X89662000Y-97321954D01*
X89587183Y-97162642D01*
X89158924Y-96772355D01*
X88945839Y-96684098D01*
X91426938Y-94202999D01*
X93818959Y-94202999D01*
X93809786Y-94469000D01*
G36*
X104928560Y-84494000D02*
X104928560Y-86194000D01*
X104977843Y-86441765D01*
X105118191Y-86651809D01*
X105328235Y-86792157D01*
X105576000Y-86841440D01*
X107276000Y-86841440D01*
X107523765Y-86792157D01*
X107733809Y-86651809D01*
X107874157Y-86441765D01*
X107883184Y-86396381D01*
X107895375Y-86414625D01*
X108386582Y-86742839D01*
X108819744Y-86829000D01*
X109112256Y-86829000D01*
X109545418Y-86742839D01*
X110036625Y-86414625D01*
X110060429Y-86379000D01*
X110411571Y-86379000D01*
X110435375Y-86414625D01*
X110926582Y-86742839D01*
X111359744Y-86829000D01*
X111652256Y-86829000D01*
X112085418Y-86742839D01*
X112576625Y-86414625D01*
X112780001Y-86110252D01*
X112780001Y-89403748D01*
X112576625Y-89099375D01*
X112085418Y-88771161D01*
X111652256Y-88685000D01*
X111359744Y-88685000D01*
X110926582Y-88771161D01*
X110435375Y-89099375D01*
X110236000Y-89397761D01*
X110036625Y-89099375D01*
X110001000Y-89075571D01*
X110001000Y-89069853D01*
X110021276Y-88967919D01*
X110001000Y-88865984D01*
X109940948Y-88564082D01*
X109712193Y-88221726D01*
X109625773Y-88163982D01*
X109522017Y-88060226D01*
X109464273Y-87973806D01*
X109121917Y-87745051D01*
X108820015Y-87684999D01*
X108820014Y-87684999D01*
X108718080Y-87664723D01*
X108616146Y-87684999D01*
X102389935Y-87684999D01*
X102288001Y-87664723D01*
X102186066Y-87684999D01*
X101884164Y-87745051D01*
X101541808Y-87973806D01*
X101484064Y-88060226D01*
X101028225Y-88516065D01*
X101028222Y-88516067D01*
X100859289Y-88685000D01*
X100691744Y-88685000D01*
X100258582Y-88771161D01*
X99767375Y-89099375D01*
X99743571Y-89135000D01*
X99392429Y-89135000D01*
X99368625Y-89099375D01*
X98877418Y-88771161D01*
X98444256Y-88685000D01*
X98151744Y-88685000D01*
X97718582Y-88771161D01*
X97227375Y-89099375D01*
X97215184Y-89117619D01*
X97206157Y-89072235D01*
X97065809Y-88862191D01*
X96855765Y-88721843D01*
X96608000Y-88672560D01*
X95189597Y-88672560D01*
X96258408Y-87603749D01*
X96323953Y-87559953D01*
X96497454Y-87300292D01*
X96543000Y-87071316D01*
X96543000Y-87071312D01*
X96558378Y-86994000D01*
X96543000Y-86916688D01*
X96543000Y-86841440D01*
X96608000Y-86841440D01*
X96855765Y-86792157D01*
X97065809Y-86651809D01*
X97206157Y-86441765D01*
X97215184Y-86396381D01*
X97227375Y-86414625D01*
X97718582Y-86742839D01*
X98151744Y-86829000D01*
X98444256Y-86829000D01*
X98877418Y-86742839D01*
X99368625Y-86414625D01*
X99392429Y-86379000D01*
X99743571Y-86379000D01*
X99767375Y-86414625D01*
X100258582Y-86742839D01*
X100691744Y-86829000D01*
X100984256Y-86829000D01*
X101417418Y-86742839D01*
X101908625Y-86414625D01*
X102236839Y-85923418D01*
X102352092Y-85344000D01*
X102236839Y-84764582D01*
X101913720Y-84281000D01*
X104970928Y-84281000D01*
X104928560Y-84494000D01*
X104928560Y-84494000D01*
G37*
X104928560Y-84494000D02*
X104928560Y-86194000D01*
X104977843Y-86441765D01*
X105118191Y-86651809D01*
X105328235Y-86792157D01*
X105576000Y-86841440D01*
X107276000Y-86841440D01*
X107523765Y-86792157D01*
X107733809Y-86651809D01*
X107874157Y-86441765D01*
X107883184Y-86396381D01*
X107895375Y-86414625D01*
X108386582Y-86742839D01*
X108819744Y-86829000D01*
X109112256Y-86829000D01*
X109545418Y-86742839D01*
X110036625Y-86414625D01*
X110060429Y-86379000D01*
X110411571Y-86379000D01*
X110435375Y-86414625D01*
X110926582Y-86742839D01*
X111359744Y-86829000D01*
X111652256Y-86829000D01*
X112085418Y-86742839D01*
X112576625Y-86414625D01*
X112780001Y-86110252D01*
X112780001Y-89403748D01*
X112576625Y-89099375D01*
X112085418Y-88771161D01*
X111652256Y-88685000D01*
X111359744Y-88685000D01*
X110926582Y-88771161D01*
X110435375Y-89099375D01*
X110236000Y-89397761D01*
X110036625Y-89099375D01*
X110001000Y-89075571D01*
X110001000Y-89069853D01*
X110021276Y-88967919D01*
X110001000Y-88865984D01*
X109940948Y-88564082D01*
X109712193Y-88221726D01*
X109625773Y-88163982D01*
X109522017Y-88060226D01*
X109464273Y-87973806D01*
X109121917Y-87745051D01*
X108820015Y-87684999D01*
X108820014Y-87684999D01*
X108718080Y-87664723D01*
X108616146Y-87684999D01*
X102389935Y-87684999D01*
X102288001Y-87664723D01*
X102186066Y-87684999D01*
X101884164Y-87745051D01*
X101541808Y-87973806D01*
X101484064Y-88060226D01*
X101028225Y-88516065D01*
X101028222Y-88516067D01*
X100859289Y-88685000D01*
X100691744Y-88685000D01*
X100258582Y-88771161D01*
X99767375Y-89099375D01*
X99743571Y-89135000D01*
X99392429Y-89135000D01*
X99368625Y-89099375D01*
X98877418Y-88771161D01*
X98444256Y-88685000D01*
X98151744Y-88685000D01*
X97718582Y-88771161D01*
X97227375Y-89099375D01*
X97215184Y-89117619D01*
X97206157Y-89072235D01*
X97065809Y-88862191D01*
X96855765Y-88721843D01*
X96608000Y-88672560D01*
X95189597Y-88672560D01*
X96258408Y-87603749D01*
X96323953Y-87559953D01*
X96497454Y-87300292D01*
X96543000Y-87071316D01*
X96543000Y-87071312D01*
X96558378Y-86994000D01*
X96543000Y-86916688D01*
X96543000Y-86841440D01*
X96608000Y-86841440D01*
X96855765Y-86792157D01*
X97065809Y-86651809D01*
X97206157Y-86441765D01*
X97215184Y-86396381D01*
X97227375Y-86414625D01*
X97718582Y-86742839D01*
X98151744Y-86829000D01*
X98444256Y-86829000D01*
X98877418Y-86742839D01*
X99368625Y-86414625D01*
X99392429Y-86379000D01*
X99743571Y-86379000D01*
X99767375Y-86414625D01*
X100258582Y-86742839D01*
X100691744Y-86829000D01*
X100984256Y-86829000D01*
X101417418Y-86742839D01*
X101908625Y-86414625D01*
X102236839Y-85923418D01*
X102352092Y-85344000D01*
X102236839Y-84764582D01*
X101913720Y-84281000D01*
X104970928Y-84281000D01*
X104928560Y-84494000D01*
G36*
X108930203Y-70663849D02*
X109283044Y-70810000D01*
X109664956Y-70810000D01*
X110011536Y-70666443D01*
X110181375Y-70920625D01*
X110199619Y-70932816D01*
X110154235Y-70941843D01*
X109944191Y-71082191D01*
X109803843Y-71292235D01*
X109754560Y-71540000D01*
X109754560Y-71605000D01*
X108924075Y-71605000D01*
X108912534Y-71577138D01*
X108508862Y-71173466D01*
X107981439Y-70955000D01*
X107410561Y-70955000D01*
X106883138Y-71173466D01*
X106479466Y-71577138D01*
X106467925Y-71605000D01*
X101918646Y-71605000D01*
X101889797Y-71576151D01*
X101536956Y-71430000D01*
X101155044Y-71430000D01*
X100802203Y-71576151D01*
X100532151Y-71846203D01*
X100386000Y-72199044D01*
X100386000Y-72580956D01*
X100532151Y-72933797D01*
X100543354Y-72945000D01*
X91453912Y-72945000D01*
X91264190Y-72661060D01*
X90933644Y-72440197D01*
X91221178Y-72009872D01*
X91301570Y-71605712D01*
X91301570Y-70634287D01*
X91289777Y-70575001D01*
X108841355Y-70575001D01*
X108930203Y-70663849D01*
X108930203Y-70663849D01*
G37*
X108930203Y-70663849D02*
X109283044Y-70810000D01*
X109664956Y-70810000D01*
X110011536Y-70666443D01*
X110181375Y-70920625D01*
X110199619Y-70932816D01*
X110154235Y-70941843D01*
X109944191Y-71082191D01*
X109803843Y-71292235D01*
X109754560Y-71540000D01*
X109754560Y-71605000D01*
X108924075Y-71605000D01*
X108912534Y-71577138D01*
X108508862Y-71173466D01*
X107981439Y-70955000D01*
X107410561Y-70955000D01*
X106883138Y-71173466D01*
X106479466Y-71577138D01*
X106467925Y-71605000D01*
X101918646Y-71605000D01*
X101889797Y-71576151D01*
X101536956Y-71430000D01*
X101155044Y-71430000D01*
X100802203Y-71576151D01*
X100532151Y-71846203D01*
X100386000Y-72199044D01*
X100386000Y-72580956D01*
X100532151Y-72933797D01*
X100543354Y-72945000D01*
X91453912Y-72945000D01*
X91264190Y-72661060D01*
X90933644Y-72440197D01*
X91221178Y-72009872D01*
X91301570Y-71605712D01*
X91301570Y-70634287D01*
X91289777Y-70575001D01*
X108841355Y-70575001D01*
X108930203Y-70663849D01*
G36*
X80087035Y-66807223D02*
X80114222Y-67377454D01*
X80280136Y-67778005D01*
X80526253Y-67852139D01*
X80513392Y-67865000D01*
X79185354Y-67865000D01*
X79045849Y-67528203D01*
X78775797Y-67258151D01*
X78422956Y-67112000D01*
X78041044Y-67112000D01*
X77744205Y-67234955D01*
X77692250Y-67183000D01*
X76581000Y-67183000D01*
X76581000Y-67203000D01*
X76327000Y-67203000D01*
X76327000Y-67183000D01*
X76307000Y-67183000D01*
X76307000Y-66929000D01*
X76327000Y-66929000D01*
X76327000Y-66909000D01*
X76581000Y-66909000D01*
X76581000Y-66929000D01*
X77692250Y-66929000D01*
X77851000Y-66770250D01*
X77851000Y-66728999D01*
X79436689Y-66728999D01*
X79514001Y-66744377D01*
X79591313Y-66728999D01*
X79591317Y-66728999D01*
X79820293Y-66683453D01*
X80079954Y-66509952D01*
X80123750Y-66444407D01*
X80270021Y-66298136D01*
X80087035Y-66807223D01*
X80087035Y-66807223D01*
G37*
X80087035Y-66807223D02*
X80114222Y-67377454D01*
X80280136Y-67778005D01*
X80526253Y-67852139D01*
X80513392Y-67865000D01*
X79185354Y-67865000D01*
X79045849Y-67528203D01*
X78775797Y-67258151D01*
X78422956Y-67112000D01*
X78041044Y-67112000D01*
X77744205Y-67234955D01*
X77692250Y-67183000D01*
X76581000Y-67183000D01*
X76581000Y-67203000D01*
X76327000Y-67203000D01*
X76327000Y-67183000D01*
X76307000Y-67183000D01*
X76307000Y-66929000D01*
X76327000Y-66929000D01*
X76327000Y-66909000D01*
X76581000Y-66909000D01*
X76581000Y-66929000D01*
X77692250Y-66929000D01*
X77851000Y-66770250D01*
X77851000Y-66728999D01*
X79436689Y-66728999D01*
X79514001Y-66744377D01*
X79591313Y-66728999D01*
X79591317Y-66728999D01*
X79820293Y-66683453D01*
X80079954Y-66509952D01*
X80123750Y-66444407D01*
X80270021Y-66298136D01*
X80087035Y-66807223D01*
G36*
X81727748Y-67009858D02*
X81713605Y-67024000D01*
X81727748Y-67038142D01*
X81548142Y-67217748D01*
X81534000Y-67203605D01*
X81519858Y-67217748D01*
X81340252Y-67038142D01*
X81354395Y-67024000D01*
X81340252Y-67009858D01*
X81519858Y-66830253D01*
X81534000Y-66844395D01*
X81548143Y-66830253D01*
X81727748Y-67009858D01*
X81727748Y-67009858D01*
G37*
X81727748Y-67009858D02*
X81713605Y-67024000D01*
X81727748Y-67038142D01*
X81548142Y-67217748D01*
X81534000Y-67203605D01*
X81519858Y-67217748D01*
X81340252Y-67038142D01*
X81354395Y-67024000D01*
X81340252Y-67009858D01*
X81519858Y-66830253D01*
X81534000Y-66844395D01*
X81548143Y-66830253D01*
X81727748Y-67009858D01*
G36*
X69011055Y-46817783D02*
X68727598Y-46761400D01*
X68432402Y-46761400D01*
X67995275Y-46848350D01*
X67499570Y-47179570D01*
X67310000Y-47463281D01*
X67120430Y-47179570D01*
X66624725Y-46848350D01*
X66187598Y-46761400D01*
X65892402Y-46761400D01*
X65455275Y-46848350D01*
X64959570Y-47179570D01*
X64770000Y-47463281D01*
X64580430Y-47179570D01*
X64084725Y-46848350D01*
X63647598Y-46761400D01*
X63352402Y-46761400D01*
X62915275Y-46848350D01*
X62426932Y-47174651D01*
X62421757Y-47148635D01*
X62281409Y-46938591D01*
X62071365Y-46798243D01*
X61823600Y-46748960D01*
X60096400Y-46748960D01*
X59848635Y-46798243D01*
X59638591Y-46938591D01*
X59498243Y-47148635D01*
X59448960Y-47396400D01*
X59448960Y-49123600D01*
X59498243Y-49371365D01*
X59638591Y-49581409D01*
X59848635Y-49721757D01*
X59874651Y-49726932D01*
X59548350Y-50215275D01*
X59432041Y-50800000D01*
X59548350Y-51384725D01*
X59879570Y-51880430D01*
X60375275Y-52211650D01*
X60812402Y-52298600D01*
X61107598Y-52298600D01*
X61544725Y-52211650D01*
X62040430Y-51880430D01*
X62241854Y-51578979D01*
X62293179Y-51688490D01*
X62725053Y-52082688D01*
X63140974Y-52254958D01*
X63373000Y-52133817D01*
X63373000Y-50927000D01*
X63353000Y-50927000D01*
X63353000Y-50673000D01*
X63373000Y-50673000D01*
X63373000Y-50653000D01*
X63627000Y-50653000D01*
X63627000Y-50673000D01*
X63647000Y-50673000D01*
X63647000Y-50927000D01*
X63627000Y-50927000D01*
X63627000Y-52133817D01*
X63859026Y-52254958D01*
X64274947Y-52082688D01*
X64706821Y-51688490D01*
X64758146Y-51578979D01*
X64959570Y-51880430D01*
X65455275Y-52211650D01*
X65892402Y-52298600D01*
X66187598Y-52298600D01*
X66624725Y-52211650D01*
X67120430Y-51880430D01*
X67310000Y-51596719D01*
X67499570Y-51880430D01*
X67995275Y-52211650D01*
X68432402Y-52298600D01*
X68727598Y-52298600D01*
X69099787Y-52224567D01*
X69036151Y-52288203D01*
X68890000Y-52641044D01*
X68890000Y-53022956D01*
X68935582Y-53133000D01*
X61348646Y-53133000D01*
X61249797Y-53034151D01*
X60896956Y-52888000D01*
X60515044Y-52888000D01*
X60162203Y-53034151D01*
X59892151Y-53304203D01*
X59746000Y-53657044D01*
X59746000Y-54038956D01*
X59892151Y-54391797D01*
X60162203Y-54661849D01*
X60515044Y-54808000D01*
X60896956Y-54808000D01*
X61249797Y-54661849D01*
X61348646Y-54563000D01*
X66223601Y-54563000D01*
X66223601Y-54800956D01*
X66369752Y-55153797D01*
X66639804Y-55423849D01*
X66992645Y-55570000D01*
X67374557Y-55570000D01*
X67727398Y-55423849D01*
X67826247Y-55325000D01*
X70033583Y-55325000D01*
X70104000Y-55339007D01*
X70174417Y-55325000D01*
X70174418Y-55325000D01*
X70382979Y-55283515D01*
X70491507Y-55210999D01*
X73633720Y-55210999D01*
X73370203Y-55320151D01*
X73100151Y-55590203D01*
X72954000Y-55943044D01*
X72954000Y-56180999D01*
X68574647Y-56180999D01*
X68545798Y-56152150D01*
X68192957Y-56005999D01*
X67811045Y-56005999D01*
X67458204Y-56152150D01*
X67188152Y-56422202D01*
X67042001Y-56775043D01*
X67042001Y-57156955D01*
X67188152Y-57509796D01*
X67458204Y-57779848D01*
X67811045Y-57925999D01*
X68192957Y-57925999D01*
X68545798Y-57779848D01*
X68574647Y-57750999D01*
X73045676Y-57750999D01*
X72416212Y-58380464D01*
X72356514Y-58420353D01*
X72316625Y-58480051D01*
X72198485Y-58656860D01*
X72142992Y-58935839D01*
X72157000Y-59006261D01*
X72156999Y-64760000D01*
X71945044Y-64760000D01*
X71592203Y-64906151D01*
X71493354Y-65005000D01*
X70464646Y-65005000D01*
X70663849Y-64805797D01*
X70810000Y-64452956D01*
X70810000Y-64071044D01*
X70663849Y-63718203D01*
X70393797Y-63448151D01*
X70040956Y-63302000D01*
X69659044Y-63302000D01*
X69306203Y-63448151D01*
X69207354Y-63547000D01*
X65656396Y-63547000D01*
X65906534Y-63296862D01*
X65918075Y-63269000D01*
X67245354Y-63269000D01*
X67274203Y-63297849D01*
X67627044Y-63444000D01*
X68008956Y-63444000D01*
X68361797Y-63297849D01*
X68631849Y-63027797D01*
X68778000Y-62674956D01*
X68778000Y-62293044D01*
X68631849Y-61940203D01*
X68361797Y-61670151D01*
X68008956Y-61524000D01*
X67627044Y-61524000D01*
X67274203Y-61670151D01*
X67245354Y-61699000D01*
X66878203Y-61699000D01*
X67000000Y-61404956D01*
X67000000Y-61023044D01*
X66853849Y-60670203D01*
X66583797Y-60400151D01*
X66230956Y-60254000D01*
X65849044Y-60254000D01*
X65496203Y-60400151D01*
X65382774Y-60513580D01*
X64128066Y-60513580D01*
X64029217Y-60414731D01*
X63676376Y-60268580D01*
X63424290Y-60268580D01*
X63424290Y-58998872D01*
X64694764Y-57728399D01*
X64834557Y-57728399D01*
X65187398Y-57582248D01*
X65457450Y-57312196D01*
X65603601Y-56959355D01*
X65603601Y-56577443D01*
X65457450Y-56224602D01*
X65187398Y-55954550D01*
X64834557Y-55808399D01*
X64452645Y-55808399D01*
X64099804Y-55954550D01*
X63829752Y-56224602D01*
X63683601Y-56577443D01*
X63683601Y-56717236D01*
X62253503Y-58147335D01*
X62193805Y-58187224D01*
X62153916Y-58246922D01*
X62035776Y-58423731D01*
X61980283Y-58702710D01*
X61994291Y-58773132D01*
X61994290Y-62632064D01*
X61895441Y-62730913D01*
X61749290Y-63083754D01*
X61749290Y-63465666D01*
X61895441Y-63818507D01*
X62165493Y-64088559D01*
X62518334Y-64234710D01*
X62900246Y-64234710D01*
X63253087Y-64088559D01*
X63523139Y-63818507D01*
X63661376Y-63484772D01*
X63798479Y-63621875D01*
X63702151Y-63718203D01*
X63556000Y-64071044D01*
X63556000Y-64452956D01*
X63702151Y-64805797D01*
X63901354Y-65005000D01*
X60842416Y-65005000D01*
X60771999Y-64990993D01*
X60701582Y-65005000D01*
X60493021Y-65046485D01*
X60256514Y-65204514D01*
X60216625Y-65264212D01*
X60066967Y-65413870D01*
X59831333Y-65367000D01*
X59548667Y-65367000D01*
X59130091Y-65450260D01*
X59060000Y-65497093D01*
X59060000Y-63782436D01*
X59473223Y-63930965D01*
X60043454Y-63903778D01*
X60444005Y-63737864D01*
X60518139Y-63491745D01*
X59690000Y-62663605D01*
X59675858Y-62677748D01*
X59496252Y-62498142D01*
X59510395Y-62484000D01*
X59869605Y-62484000D01*
X60697745Y-63312139D01*
X60943864Y-63238005D01*
X61136965Y-62700777D01*
X61109778Y-62130546D01*
X60943864Y-61729995D01*
X60697745Y-61655861D01*
X59869605Y-62484000D01*
X59510395Y-62484000D01*
X59496252Y-62469858D01*
X59675858Y-62290252D01*
X59690000Y-62304395D01*
X60518139Y-61476255D01*
X60444005Y-61230136D01*
X59906777Y-61037035D01*
X59336546Y-61064222D01*
X59060000Y-61178771D01*
X59060000Y-46360000D01*
X69468837Y-46360000D01*
X69011055Y-46817783D01*
X69011055Y-46817783D01*
G37*
X69011055Y-46817783D02*
X68727598Y-46761400D01*
X68432402Y-46761400D01*
X67995275Y-46848350D01*
X67499570Y-47179570D01*
X67310000Y-47463281D01*
X67120430Y-47179570D01*
X66624725Y-46848350D01*
X66187598Y-46761400D01*
X65892402Y-46761400D01*
X65455275Y-46848350D01*
X64959570Y-47179570D01*
X64770000Y-47463281D01*
X64580430Y-47179570D01*
X64084725Y-46848350D01*
X63647598Y-46761400D01*
X63352402Y-46761400D01*
X62915275Y-46848350D01*
X62426932Y-47174651D01*
X62421757Y-47148635D01*
X62281409Y-46938591D01*
X62071365Y-46798243D01*
X61823600Y-46748960D01*
X60096400Y-46748960D01*
X59848635Y-46798243D01*
X59638591Y-46938591D01*
X59498243Y-47148635D01*
X59448960Y-47396400D01*
X59448960Y-49123600D01*
X59498243Y-49371365D01*
X59638591Y-49581409D01*
X59848635Y-49721757D01*
X59874651Y-49726932D01*
X59548350Y-50215275D01*
X59432041Y-50800000D01*
X59548350Y-51384725D01*
X59879570Y-51880430D01*
X60375275Y-52211650D01*
X60812402Y-52298600D01*
X61107598Y-52298600D01*
X61544725Y-52211650D01*
X62040430Y-51880430D01*
X62241854Y-51578979D01*
X62293179Y-51688490D01*
X62725053Y-52082688D01*
X63140974Y-52254958D01*
X63373000Y-52133817D01*
X63373000Y-50927000D01*
X63353000Y-50927000D01*
X63353000Y-50673000D01*
X63373000Y-50673000D01*
X63373000Y-50653000D01*
X63627000Y-50653000D01*
X63627000Y-50673000D01*
X63647000Y-50673000D01*
X63647000Y-50927000D01*
X63627000Y-50927000D01*
X63627000Y-52133817D01*
X63859026Y-52254958D01*
X64274947Y-52082688D01*
X64706821Y-51688490D01*
X64758146Y-51578979D01*
X64959570Y-51880430D01*
X65455275Y-52211650D01*
X65892402Y-52298600D01*
X66187598Y-52298600D01*
X66624725Y-52211650D01*
X67120430Y-51880430D01*
X67310000Y-51596719D01*
X67499570Y-51880430D01*
X67995275Y-52211650D01*
X68432402Y-52298600D01*
X68727598Y-52298600D01*
X69099787Y-52224567D01*
X69036151Y-52288203D01*
X68890000Y-52641044D01*
X68890000Y-53022956D01*
X68935582Y-53133000D01*
X61348646Y-53133000D01*
X61249797Y-53034151D01*
X60896956Y-52888000D01*
X60515044Y-52888000D01*
X60162203Y-53034151D01*
X59892151Y-53304203D01*
X59746000Y-53657044D01*
X59746000Y-54038956D01*
X59892151Y-54391797D01*
X60162203Y-54661849D01*
X60515044Y-54808000D01*
X60896956Y-54808000D01*
X61249797Y-54661849D01*
X61348646Y-54563000D01*
X66223601Y-54563000D01*
X66223601Y-54800956D01*
X66369752Y-55153797D01*
X66639804Y-55423849D01*
X66992645Y-55570000D01*
X67374557Y-55570000D01*
X67727398Y-55423849D01*
X67826247Y-55325000D01*
X70033583Y-55325000D01*
X70104000Y-55339007D01*
X70174417Y-55325000D01*
X70174418Y-55325000D01*
X70382979Y-55283515D01*
X70491507Y-55210999D01*
X73633720Y-55210999D01*
X73370203Y-55320151D01*
X73100151Y-55590203D01*
X72954000Y-55943044D01*
X72954000Y-56180999D01*
X68574647Y-56180999D01*
X68545798Y-56152150D01*
X68192957Y-56005999D01*
X67811045Y-56005999D01*
X67458204Y-56152150D01*
X67188152Y-56422202D01*
X67042001Y-56775043D01*
X67042001Y-57156955D01*
X67188152Y-57509796D01*
X67458204Y-57779848D01*
X67811045Y-57925999D01*
X68192957Y-57925999D01*
X68545798Y-57779848D01*
X68574647Y-57750999D01*
X73045676Y-57750999D01*
X72416212Y-58380464D01*
X72356514Y-58420353D01*
X72316625Y-58480051D01*
X72198485Y-58656860D01*
X72142992Y-58935839D01*
X72157000Y-59006261D01*
X72156999Y-64760000D01*
X71945044Y-64760000D01*
X71592203Y-64906151D01*
X71493354Y-65005000D01*
X70464646Y-65005000D01*
X70663849Y-64805797D01*
X70810000Y-64452956D01*
X70810000Y-64071044D01*
X70663849Y-63718203D01*
X70393797Y-63448151D01*
X70040956Y-63302000D01*
X69659044Y-63302000D01*
X69306203Y-63448151D01*
X69207354Y-63547000D01*
X65656396Y-63547000D01*
X65906534Y-63296862D01*
X65918075Y-63269000D01*
X67245354Y-63269000D01*
X67274203Y-63297849D01*
X67627044Y-63444000D01*
X68008956Y-63444000D01*
X68361797Y-63297849D01*
X68631849Y-63027797D01*
X68778000Y-62674956D01*
X68778000Y-62293044D01*
X68631849Y-61940203D01*
X68361797Y-61670151D01*
X68008956Y-61524000D01*
X67627044Y-61524000D01*
X67274203Y-61670151D01*
X67245354Y-61699000D01*
X66878203Y-61699000D01*
X67000000Y-61404956D01*
X67000000Y-61023044D01*
X66853849Y-60670203D01*
X66583797Y-60400151D01*
X66230956Y-60254000D01*
X65849044Y-60254000D01*
X65496203Y-60400151D01*
X65382774Y-60513580D01*
X64128066Y-60513580D01*
X64029217Y-60414731D01*
X63676376Y-60268580D01*
X63424290Y-60268580D01*
X63424290Y-58998872D01*
X64694764Y-57728399D01*
X64834557Y-57728399D01*
X65187398Y-57582248D01*
X65457450Y-57312196D01*
X65603601Y-56959355D01*
X65603601Y-56577443D01*
X65457450Y-56224602D01*
X65187398Y-55954550D01*
X64834557Y-55808399D01*
X64452645Y-55808399D01*
X64099804Y-55954550D01*
X63829752Y-56224602D01*
X63683601Y-56577443D01*
X63683601Y-56717236D01*
X62253503Y-58147335D01*
X62193805Y-58187224D01*
X62153916Y-58246922D01*
X62035776Y-58423731D01*
X61980283Y-58702710D01*
X61994291Y-58773132D01*
X61994290Y-62632064D01*
X61895441Y-62730913D01*
X61749290Y-63083754D01*
X61749290Y-63465666D01*
X61895441Y-63818507D01*
X62165493Y-64088559D01*
X62518334Y-64234710D01*
X62900246Y-64234710D01*
X63253087Y-64088559D01*
X63523139Y-63818507D01*
X63661376Y-63484772D01*
X63798479Y-63621875D01*
X63702151Y-63718203D01*
X63556000Y-64071044D01*
X63556000Y-64452956D01*
X63702151Y-64805797D01*
X63901354Y-65005000D01*
X60842416Y-65005000D01*
X60771999Y-64990993D01*
X60701582Y-65005000D01*
X60493021Y-65046485D01*
X60256514Y-65204514D01*
X60216625Y-65264212D01*
X60066967Y-65413870D01*
X59831333Y-65367000D01*
X59548667Y-65367000D01*
X59130091Y-65450260D01*
X59060000Y-65497093D01*
X59060000Y-63782436D01*
X59473223Y-63930965D01*
X60043454Y-63903778D01*
X60444005Y-63737864D01*
X60518139Y-63491745D01*
X59690000Y-62663605D01*
X59675858Y-62677748D01*
X59496252Y-62498142D01*
X59510395Y-62484000D01*
X59869605Y-62484000D01*
X60697745Y-63312139D01*
X60943864Y-63238005D01*
X61136965Y-62700777D01*
X61109778Y-62130546D01*
X60943864Y-61729995D01*
X60697745Y-61655861D01*
X59869605Y-62484000D01*
X59510395Y-62484000D01*
X59496252Y-62469858D01*
X59675858Y-62290252D01*
X59690000Y-62304395D01*
X60518139Y-61476255D01*
X60444005Y-61230136D01*
X59906777Y-61037035D01*
X59336546Y-61064222D01*
X59060000Y-61178771D01*
X59060000Y-46360000D01*
X69468837Y-46360000D01*
X69011055Y-46817783D01*
G36*
X112780000Y-48699771D02*
X112553310Y-48152493D01*
X112121507Y-47720690D01*
X111557330Y-47487000D01*
X110946670Y-47487000D01*
X110382493Y-47720690D01*
X110213275Y-47889908D01*
X110210157Y-47874235D01*
X110069809Y-47664191D01*
X109859765Y-47523843D01*
X109612000Y-47474560D01*
X107812000Y-47474560D01*
X107564235Y-47523843D01*
X107354191Y-47664191D01*
X107213843Y-47874235D01*
X107164560Y-48122000D01*
X107164560Y-49487001D01*
X106116862Y-49487001D01*
X106183000Y-49327330D01*
X106183000Y-48716670D01*
X105949310Y-48152493D01*
X105517507Y-47720690D01*
X104953330Y-47487000D01*
X104342670Y-47487000D01*
X103778493Y-47720690D01*
X103609275Y-47889908D01*
X103606157Y-47874235D01*
X103465809Y-47664191D01*
X103255765Y-47523843D01*
X103008000Y-47474560D01*
X101208000Y-47474560D01*
X100960235Y-47523843D01*
X100750191Y-47664191D01*
X100609843Y-47874235D01*
X100560560Y-48122000D01*
X100560560Y-49922000D01*
X100584497Y-50042340D01*
X98681302Y-51945536D01*
X98583439Y-51905000D01*
X98012561Y-51905000D01*
X97485138Y-52123466D01*
X97081466Y-52527138D01*
X96863000Y-53054561D01*
X96863000Y-53625439D01*
X97081466Y-54152862D01*
X97485138Y-54556534D01*
X98012561Y-54775000D01*
X98583439Y-54775000D01*
X99110862Y-54556534D01*
X99514534Y-54152862D01*
X99733000Y-53625439D01*
X99733000Y-53054561D01*
X99692464Y-52956698D01*
X101732162Y-50917001D01*
X102757836Y-50917001D01*
X101729302Y-51945536D01*
X101631439Y-51905000D01*
X101060561Y-51905000D01*
X100533138Y-52123466D01*
X100129466Y-52527138D01*
X99911000Y-53054561D01*
X99911000Y-53625439D01*
X100129466Y-54152862D01*
X100533138Y-54556534D01*
X101060561Y-54775000D01*
X101631439Y-54775000D01*
X102002571Y-54621272D01*
X101782843Y-54841000D01*
X93282646Y-54841000D01*
X93253797Y-54812151D01*
X92900956Y-54666000D01*
X92519044Y-54666000D01*
X92429440Y-54703115D01*
X92429440Y-53252000D01*
X92390168Y-53054561D01*
X93815000Y-53054561D01*
X93815000Y-53625439D01*
X94033466Y-54152862D01*
X94437138Y-54556534D01*
X94964561Y-54775000D01*
X95535439Y-54775000D01*
X96062862Y-54556534D01*
X96466534Y-54152862D01*
X96685000Y-53625439D01*
X96685000Y-53054561D01*
X96644464Y-52956698D01*
X98499790Y-51101373D01*
X98559485Y-51061486D01*
X98649347Y-50927000D01*
X98717515Y-50824979D01*
X98773007Y-50546000D01*
X98759000Y-50475582D01*
X98759000Y-50387309D01*
X98913507Y-50323310D01*
X99345310Y-49891507D01*
X99579000Y-49327330D01*
X99579000Y-48716670D01*
X99345310Y-48152493D01*
X98913507Y-47720690D01*
X98349330Y-47487000D01*
X97738670Y-47487000D01*
X97174493Y-47720690D01*
X97005275Y-47889908D01*
X97002157Y-47874235D01*
X96861809Y-47664191D01*
X96651765Y-47523843D01*
X96404000Y-47474560D01*
X94604000Y-47474560D01*
X94356235Y-47523843D01*
X94146191Y-47664191D01*
X94005843Y-47874235D01*
X93956560Y-48122000D01*
X93956560Y-49922000D01*
X94005843Y-50169765D01*
X94146191Y-50379809D01*
X94356235Y-50520157D01*
X94604000Y-50569440D01*
X96404000Y-50569440D01*
X96651765Y-50520157D01*
X96861809Y-50379809D01*
X97002157Y-50169765D01*
X97005275Y-50154092D01*
X97174493Y-50323310D01*
X97231793Y-50347044D01*
X95633302Y-51945536D01*
X95535439Y-51905000D01*
X94964561Y-51905000D01*
X94437138Y-52123466D01*
X94033466Y-52527138D01*
X93815000Y-53054561D01*
X92390168Y-53054561D01*
X92380157Y-53004235D01*
X92239809Y-52794191D01*
X92038030Y-52659366D01*
X92148534Y-52548862D01*
X92367000Y-52021439D01*
X92367000Y-51450561D01*
X92148534Y-50923138D01*
X91744862Y-50519466D01*
X91217439Y-50301000D01*
X90646561Y-50301000D01*
X90119138Y-50519466D01*
X89715466Y-50923138D01*
X89497000Y-51450561D01*
X89497000Y-52021439D01*
X89643311Y-52374665D01*
X89540797Y-52272151D01*
X89187956Y-52126000D01*
X88806044Y-52126000D01*
X88453203Y-52272151D01*
X88354354Y-52371000D01*
X86402163Y-52371000D01*
X86329763Y-52298600D01*
X86507598Y-52298600D01*
X86944725Y-52211650D01*
X87440430Y-51880430D01*
X87771650Y-51384725D01*
X87887959Y-50800000D01*
X87771650Y-50215275D01*
X87440430Y-49719570D01*
X87156719Y-49530000D01*
X87440430Y-49340430D01*
X87771650Y-48844725D01*
X87887959Y-48260000D01*
X87847636Y-48057282D01*
X87848203Y-48057849D01*
X88201044Y-48204000D01*
X88582956Y-48204000D01*
X88935797Y-48057849D01*
X89205849Y-47787797D01*
X89255167Y-47668732D01*
X89972000Y-48385565D01*
X89972000Y-48525358D01*
X90118151Y-48878199D01*
X90388203Y-49148251D01*
X90741044Y-49294402D01*
X91122956Y-49294402D01*
X91475797Y-49148251D01*
X91745849Y-48878199D01*
X91892000Y-48525358D01*
X91892000Y-48143446D01*
X91792988Y-47904408D01*
X92148534Y-47548862D01*
X92367000Y-47021439D01*
X92367000Y-46450561D01*
X92329488Y-46360000D01*
X112780000Y-46360000D01*
X112780000Y-48699771D01*
X112780000Y-48699771D01*
G37*
X112780000Y-48699771D02*
X112553310Y-48152493D01*
X112121507Y-47720690D01*
X111557330Y-47487000D01*
X110946670Y-47487000D01*
X110382493Y-47720690D01*
X110213275Y-47889908D01*
X110210157Y-47874235D01*
X110069809Y-47664191D01*
X109859765Y-47523843D01*
X109612000Y-47474560D01*
X107812000Y-47474560D01*
X107564235Y-47523843D01*
X107354191Y-47664191D01*
X107213843Y-47874235D01*
X107164560Y-48122000D01*
X107164560Y-49487001D01*
X106116862Y-49487001D01*
X106183000Y-49327330D01*
X106183000Y-48716670D01*
X105949310Y-48152493D01*
X105517507Y-47720690D01*
X104953330Y-47487000D01*
X104342670Y-47487000D01*
X103778493Y-47720690D01*
X103609275Y-47889908D01*
X103606157Y-47874235D01*
X103465809Y-47664191D01*
X103255765Y-47523843D01*
X103008000Y-47474560D01*
X101208000Y-47474560D01*
X100960235Y-47523843D01*
X100750191Y-47664191D01*
X100609843Y-47874235D01*
X100560560Y-48122000D01*
X100560560Y-49922000D01*
X100584497Y-50042340D01*
X98681302Y-51945536D01*
X98583439Y-51905000D01*
X98012561Y-51905000D01*
X97485138Y-52123466D01*
X97081466Y-52527138D01*
X96863000Y-53054561D01*
X96863000Y-53625439D01*
X97081466Y-54152862D01*
X97485138Y-54556534D01*
X98012561Y-54775000D01*
X98583439Y-54775000D01*
X99110862Y-54556534D01*
X99514534Y-54152862D01*
X99733000Y-53625439D01*
X99733000Y-53054561D01*
X99692464Y-52956698D01*
X101732162Y-50917001D01*
X102757836Y-50917001D01*
X101729302Y-51945536D01*
X101631439Y-51905000D01*
X101060561Y-51905000D01*
X100533138Y-52123466D01*
X100129466Y-52527138D01*
X99911000Y-53054561D01*
X99911000Y-53625439D01*
X100129466Y-54152862D01*
X100533138Y-54556534D01*
X101060561Y-54775000D01*
X101631439Y-54775000D01*
X102002571Y-54621272D01*
X101782843Y-54841000D01*
X93282646Y-54841000D01*
X93253797Y-54812151D01*
X92900956Y-54666000D01*
X92519044Y-54666000D01*
X92429440Y-54703115D01*
X92429440Y-53252000D01*
X92390168Y-53054561D01*
X93815000Y-53054561D01*
X93815000Y-53625439D01*
X94033466Y-54152862D01*
X94437138Y-54556534D01*
X94964561Y-54775000D01*
X95535439Y-54775000D01*
X96062862Y-54556534D01*
X96466534Y-54152862D01*
X96685000Y-53625439D01*
X96685000Y-53054561D01*
X96644464Y-52956698D01*
X98499790Y-51101373D01*
X98559485Y-51061486D01*
X98649347Y-50927000D01*
X98717515Y-50824979D01*
X98773007Y-50546000D01*
X98759000Y-50475582D01*
X98759000Y-50387309D01*
X98913507Y-50323310D01*
X99345310Y-49891507D01*
X99579000Y-49327330D01*
X99579000Y-48716670D01*
X99345310Y-48152493D01*
X98913507Y-47720690D01*
X98349330Y-47487000D01*
X97738670Y-47487000D01*
X97174493Y-47720690D01*
X97005275Y-47889908D01*
X97002157Y-47874235D01*
X96861809Y-47664191D01*
X96651765Y-47523843D01*
X96404000Y-47474560D01*
X94604000Y-47474560D01*
X94356235Y-47523843D01*
X94146191Y-47664191D01*
X94005843Y-47874235D01*
X93956560Y-48122000D01*
X93956560Y-49922000D01*
X94005843Y-50169765D01*
X94146191Y-50379809D01*
X94356235Y-50520157D01*
X94604000Y-50569440D01*
X96404000Y-50569440D01*
X96651765Y-50520157D01*
X96861809Y-50379809D01*
X97002157Y-50169765D01*
X97005275Y-50154092D01*
X97174493Y-50323310D01*
X97231793Y-50347044D01*
X95633302Y-51945536D01*
X95535439Y-51905000D01*
X94964561Y-51905000D01*
X94437138Y-52123466D01*
X94033466Y-52527138D01*
X93815000Y-53054561D01*
X92390168Y-53054561D01*
X92380157Y-53004235D01*
X92239809Y-52794191D01*
X92038030Y-52659366D01*
X92148534Y-52548862D01*
X92367000Y-52021439D01*
X92367000Y-51450561D01*
X92148534Y-50923138D01*
X91744862Y-50519466D01*
X91217439Y-50301000D01*
X90646561Y-50301000D01*
X90119138Y-50519466D01*
X89715466Y-50923138D01*
X89497000Y-51450561D01*
X89497000Y-52021439D01*
X89643311Y-52374665D01*
X89540797Y-52272151D01*
X89187956Y-52126000D01*
X88806044Y-52126000D01*
X88453203Y-52272151D01*
X88354354Y-52371000D01*
X86402163Y-52371000D01*
X86329763Y-52298600D01*
X86507598Y-52298600D01*
X86944725Y-52211650D01*
X87440430Y-51880430D01*
X87771650Y-51384725D01*
X87887959Y-50800000D01*
X87771650Y-50215275D01*
X87440430Y-49719570D01*
X87156719Y-49530000D01*
X87440430Y-49340430D01*
X87771650Y-48844725D01*
X87887959Y-48260000D01*
X87847636Y-48057282D01*
X87848203Y-48057849D01*
X88201044Y-48204000D01*
X88582956Y-48204000D01*
X88935797Y-48057849D01*
X89205849Y-47787797D01*
X89255167Y-47668732D01*
X89972000Y-48385565D01*
X89972000Y-48525358D01*
X90118151Y-48878199D01*
X90388203Y-49148251D01*
X90741044Y-49294402D01*
X91122956Y-49294402D01*
X91475797Y-49148251D01*
X91745849Y-48878199D01*
X91892000Y-48525358D01*
X91892000Y-48143446D01*
X91792988Y-47904408D01*
X92148534Y-47548862D01*
X92367000Y-47021439D01*
X92367000Y-46450561D01*
X92329488Y-46360000D01*
X112780000Y-46360000D01*
X112780000Y-48699771D01*
M02*
