%TF.GenerationSoftware,KiCad,Pcbnew,5.0.2-bee76a0~70~ubuntu18.04.1*%
%TF.CreationDate,2019-02-16T11:07:58+01:00*%
%TF.ProjectId,GP-Pcb,47502d50-6362-42e6-9b69-6361645f7063,2.0*%
%TF.SameCoordinates,Original*%
%TF.FileFunction,Copper,L2,Bot*%
%TF.FilePolarity,Positive*%
%FSLAX46Y46*%
G04 Gerber Fmt 4.6, Leading zero omitted, Abs format (unit mm)*
G04 Created by KiCad (PCBNEW 5.0.2-bee76a0~70~ubuntu18.04.1) date sab 16 feb 2019 11:07:58 CET*
%MOMM*%
%LPD*%
G01*
G04 APERTURE LIST*
%ADD10C,0.010000*%
%ADD11R,1.700000X1.700000*%
%ADD12C,1.600000*%
%ADD13R,1.600000X1.600000*%
%ADD14O,1.700000X1.700000*%
%ADD15R,1.524000X1.524000*%
%ADD16C,1.524000*%
%ADD17O,1.600000X1.600000*%
%ADD18R,0.800000X1.900000*%
%ADD19O,1.727200X1.727200*%
%ADD20R,1.727200X1.727200*%
%ADD21O,1.501140X2.199640*%
%ADD22O,2.199640X1.501140*%
%ADD23R,2.000000X2.000000*%
%ADD24C,2.000000*%
%ADD25R,1.800000X1.800000*%
%ADD26C,1.800000*%
%ADD27C,0.650000*%
%ADD28C,0.160000*%
%ADD29C,0.300000*%
%ADD30C,0.800000*%
%ADD31C,0.600000*%
%ADD32C,0.254000*%
G04 APERTURE END LIST*
D10*
X113420000Y-45720000D02*
X113420000Y-100720000D01*
X58420000Y-100720000D02*
X113420000Y-100720000D01*
X58420000Y-45720000D02*
X58420000Y-100720000D01*
X58420000Y-45720000D02*
X113420000Y-45720000D01*
D11*
X90932000Y-54102000D03*
D12*
X89916000Y-90170000D03*
X84916000Y-90170000D03*
D13*
X78994000Y-92710000D03*
D12*
X81494000Y-92710000D03*
D11*
X82550000Y-60706000D03*
D14*
X80010000Y-60706000D03*
X82550000Y-58166000D03*
X80010000Y-58166000D03*
X82550000Y-55626000D03*
X80010000Y-55626000D03*
D15*
X76454000Y-67056000D03*
D16*
X73914000Y-67056000D03*
X76454000Y-64516000D03*
X73914000Y-64516000D03*
X76454000Y-61976000D03*
X73914000Y-61976000D03*
X76454000Y-59436000D03*
X73914000Y-59436000D03*
D12*
X67310000Y-66802000D03*
D17*
X59690000Y-66802000D03*
D12*
X90932000Y-46736000D03*
X90932000Y-51736000D03*
X59690000Y-62484000D03*
X64690000Y-62484000D03*
D18*
X60772000Y-55904000D03*
X62672000Y-55904000D03*
X61722000Y-58904000D03*
D19*
X83820000Y-50800000D03*
X83820000Y-48260000D03*
X81280000Y-50800000D03*
X81280000Y-48260000D03*
X78740000Y-50800000D03*
X78740000Y-48260000D03*
X76200000Y-50800000D03*
X76200000Y-48260000D03*
X73660000Y-50800000D03*
X73660000Y-48260000D03*
X71120000Y-50800000D03*
X71120000Y-48260000D03*
D20*
X60960000Y-48260000D03*
D19*
X60960000Y-50800000D03*
X63500000Y-48260000D03*
X63500000Y-50800000D03*
X66040000Y-48260000D03*
X66040000Y-50800000D03*
X68580000Y-48260000D03*
X68580000Y-50800000D03*
X86360000Y-48260000D03*
X86360000Y-50800000D03*
D21*
X81026000Y-73660000D03*
X83566000Y-73660000D03*
X61976000Y-86360000D03*
X64516000Y-86360000D03*
X67056000Y-86360000D03*
X69596000Y-86360000D03*
X72136000Y-86360000D03*
X74676000Y-86360000D03*
X77216000Y-86360000D03*
X79756000Y-86360000D03*
X82296000Y-86360000D03*
X84836000Y-86360000D03*
X87376000Y-86360000D03*
X89916000Y-86360000D03*
X89916000Y-71120000D03*
X87376000Y-71120000D03*
X84836000Y-71120000D03*
X82296000Y-71120000D03*
X79756000Y-71120000D03*
X77216000Y-71120000D03*
X74676000Y-71120000D03*
X72136000Y-71120000D03*
X69596000Y-71120000D03*
X67056000Y-71120000D03*
X64516000Y-71120000D03*
X61976000Y-71120000D03*
X73406000Y-73660000D03*
X70866000Y-73660000D03*
D22*
X89916000Y-73660000D03*
X89916000Y-76200000D03*
X89916000Y-78740000D03*
D23*
X96012000Y-68580000D03*
D24*
X103612000Y-68580000D03*
D12*
X111252000Y-58340000D03*
X111252000Y-53340000D03*
X106426000Y-77216000D03*
X106426000Y-82216000D03*
X98512000Y-97028000D03*
D13*
X96012000Y-97028000D03*
D12*
X102616000Y-94568000D03*
X102616000Y-99568000D03*
D13*
X81534000Y-65024000D03*
D12*
X81534000Y-67024000D03*
D25*
X95504000Y-49022000D03*
D26*
X98044000Y-49022000D03*
D25*
X102108000Y-49022000D03*
D26*
X104648000Y-49022000D03*
X111252000Y-49022000D03*
D25*
X108712000Y-49022000D03*
D14*
X111252000Y-64770000D03*
X111252000Y-67310000D03*
X111252000Y-69850000D03*
D11*
X111252000Y-72390000D03*
D14*
X67310000Y-96266000D03*
X67310000Y-98806000D03*
X64770000Y-96266000D03*
X64770000Y-98806000D03*
X62230000Y-96266000D03*
D11*
X62230000Y-98806000D03*
D14*
X90932000Y-98044000D03*
X88392000Y-98044000D03*
X85852000Y-98044000D03*
D11*
X83312000Y-98044000D03*
D14*
X100838000Y-90170000D03*
X98298000Y-90170000D03*
D11*
X95758000Y-90170000D03*
X106426000Y-85344000D03*
D14*
X108966000Y-85344000D03*
X111506000Y-85344000D03*
X100838000Y-85344000D03*
X98298000Y-85344000D03*
D11*
X95758000Y-85344000D03*
X95758000Y-80518000D03*
D14*
X98298000Y-80518000D03*
X100838000Y-80518000D03*
D11*
X106426000Y-98806000D03*
D14*
X108966000Y-98806000D03*
X111506000Y-98806000D03*
D11*
X62230000Y-89916000D03*
D14*
X64770000Y-89916000D03*
X67310000Y-89916000D03*
X71374000Y-89916000D03*
D11*
X73914000Y-89916000D03*
X107696000Y-94488000D03*
D14*
X110236000Y-94488000D03*
X111506000Y-90170000D03*
X108966000Y-90170000D03*
D11*
X106426000Y-90170000D03*
D14*
X60452000Y-80264000D03*
D11*
X60452000Y-77724000D03*
X89408000Y-67564000D03*
D14*
X89408000Y-65024000D03*
D12*
X107696000Y-72390000D03*
D17*
X107696000Y-64770000D03*
D12*
X104394000Y-60960000D03*
D17*
X104394000Y-53340000D03*
X107442000Y-60960000D03*
D12*
X107442000Y-53340000D03*
X95250000Y-53340000D03*
D17*
X95250000Y-60960000D03*
X98298000Y-60960000D03*
D12*
X98298000Y-53340000D03*
X101346000Y-53340000D03*
D17*
X101346000Y-60960000D03*
D12*
X110998000Y-79248000D03*
X110998000Y-82248000D03*
D17*
X94996000Y-76708000D03*
D12*
X102616000Y-76708000D03*
D27*
X73914000Y-56134000D03*
X77856011Y-56134000D03*
X93980000Y-84917998D03*
X71374000Y-79756000D03*
X60678000Y-58420000D03*
X85852000Y-78994000D03*
X66802000Y-65024000D03*
X66802000Y-78994000D03*
X111760000Y-51054000D03*
X111506000Y-46736000D03*
X68326000Y-55372000D03*
X103632000Y-87122000D03*
X104648000Y-70866000D03*
X109474000Y-69850000D03*
X92964000Y-93167999D03*
X92710000Y-55626000D03*
X82296000Y-80264000D03*
X76185420Y-80249420D03*
X99568000Y-78486000D03*
X102616000Y-82804000D03*
X108776001Y-83247999D03*
X112268000Y-62484000D03*
X77470000Y-78232000D03*
X100330000Y-74930000D03*
X100330000Y-64770000D03*
X100584000Y-99822000D03*
X100584000Y-98672002D03*
X67818000Y-62484000D03*
X69596000Y-66802000D03*
X68002001Y-56965999D03*
X101346000Y-72390000D03*
X92710000Y-95504000D03*
X60452000Y-88138000D03*
X92074000Y-90678000D03*
X92202000Y-61722000D03*
X73152000Y-94742000D03*
X73152000Y-97536000D03*
X76962000Y-57912000D03*
X64516000Y-68580000D03*
X64516000Y-64262000D03*
X69850000Y-52832000D03*
X69850000Y-64262000D03*
X72136000Y-65720000D03*
X72136000Y-53848000D03*
X60706000Y-53848000D03*
X86360000Y-53848000D03*
X77596399Y-52324000D03*
X70866000Y-52324000D03*
X77724000Y-73660000D03*
X91440000Y-82296000D03*
X90932000Y-48334402D03*
X89408000Y-62484000D03*
X87630000Y-62992000D03*
X88997000Y-53086000D03*
X82296000Y-68580000D03*
X78232000Y-68072000D03*
X85344000Y-59436000D03*
X84074000Y-56896000D03*
X86360000Y-56896000D03*
X85598000Y-62230000D03*
X88392000Y-47244000D03*
X87376000Y-54864000D03*
X88392000Y-54864000D03*
X64643601Y-56768399D03*
X62709290Y-63274710D03*
X66040000Y-61214000D03*
X63485420Y-61228580D03*
X67056000Y-76200000D03*
X86614000Y-63754000D03*
X68580000Y-92202000D03*
X67183601Y-54610000D03*
D28*
X79756000Y-85100180D02*
X79756000Y-86360000D01*
X78725420Y-84069600D02*
X79756000Y-85100180D01*
X78725420Y-68848580D02*
X78725420Y-84069600D01*
X78725420Y-68848580D02*
X79248000Y-68326000D01*
X79248000Y-65786000D02*
X77856011Y-64394011D01*
X79248000Y-68326000D02*
X79248000Y-65786000D01*
X77856011Y-64394011D02*
X77856011Y-56134000D01*
X72516399Y-51687269D02*
X73914000Y-53084870D01*
X73660000Y-48260000D02*
X72516399Y-49403601D01*
X72516399Y-49403601D02*
X72516399Y-51687269D01*
X73914000Y-53084870D02*
X73914000Y-56134000D01*
X96888001Y-82009997D02*
X93980000Y-84917998D01*
X96888001Y-70616001D02*
X96888001Y-82009997D01*
X96012000Y-68580000D02*
X96012000Y-69740000D01*
X96012000Y-69740000D02*
X96888001Y-70616001D01*
X61162000Y-58904000D02*
X60678000Y-58420000D01*
X61722000Y-58904000D02*
X61162000Y-58904000D01*
X60678000Y-58420000D02*
X60452000Y-58420000D01*
X66229999Y-65136382D02*
X66229999Y-69660001D01*
X66802000Y-65024000D02*
X66342381Y-65024000D01*
X66342381Y-65024000D02*
X66229999Y-65136382D01*
X66025420Y-69864580D02*
X66025420Y-78217420D01*
X66229999Y-69660001D02*
X66025420Y-69864580D01*
X66025420Y-78217420D02*
X66802000Y-78994000D01*
D29*
X83058000Y-92710000D02*
X88392000Y-98044000D01*
X81494000Y-92710000D02*
X83058000Y-92710000D01*
X84916000Y-90170000D02*
X87884000Y-90170000D01*
D28*
X79883601Y-49403601D02*
X79603599Y-49123599D01*
X79883601Y-51348929D02*
X79883601Y-49403601D01*
X78879999Y-52352531D02*
X79883601Y-51348929D01*
X78879999Y-61248401D02*
X78879999Y-52352531D01*
X79608010Y-61976412D02*
X78879999Y-61248401D01*
X79608010Y-69712190D02*
X79608010Y-61976412D01*
X79603599Y-49123599D02*
X78740000Y-48260000D01*
X79756000Y-69860180D02*
X79608010Y-69712190D01*
X79756000Y-71120000D02*
X79756000Y-69860180D01*
X111252000Y-58340000D02*
X109474000Y-60118000D01*
X109474000Y-60118000D02*
X109474000Y-69850000D01*
D30*
X60580000Y-98806000D02*
X62230000Y-98806000D01*
X59436000Y-97662000D02*
X60580000Y-98806000D01*
X59436000Y-81280000D02*
X59436000Y-97662000D01*
X60452000Y-80264000D02*
X59436000Y-81280000D01*
D29*
X92964000Y-93167999D02*
X92964000Y-55880000D01*
X92964000Y-55880000D02*
X92710000Y-55626000D01*
D30*
X73736000Y-98806000D02*
X67310000Y-98806000D01*
X73736000Y-98806000D02*
X68512081Y-98806000D01*
X74498000Y-98044000D02*
X83312000Y-98044000D01*
X73736000Y-98806000D02*
X74498000Y-98044000D01*
X96012000Y-90424000D02*
X95758000Y-90170000D01*
X96012000Y-97028000D02*
X96012000Y-90424000D01*
X102616000Y-91948000D02*
X100838000Y-90170000D01*
X102616000Y-94568000D02*
X102616000Y-91948000D01*
D31*
X112355999Y-97956001D02*
X111506000Y-98806000D01*
X112856001Y-97455999D02*
X112355999Y-97956001D01*
X112154001Y-88819999D02*
X112856001Y-89521999D01*
X110316001Y-88819999D02*
X112154001Y-88819999D01*
X112856001Y-89521999D02*
X112856001Y-97455999D01*
X108966000Y-90170000D02*
X110316001Y-88819999D01*
D29*
X81534000Y-62230000D02*
X80010000Y-60706000D01*
X81534000Y-65024000D02*
X81534000Y-62230000D01*
X80010000Y-55626000D02*
X80010000Y-58166000D01*
X80010000Y-58166000D02*
X80010000Y-60706000D01*
D28*
X76185420Y-70822710D02*
X76185420Y-80249420D01*
X82296000Y-86360000D02*
X82296000Y-80264000D01*
X73660000Y-52321739D02*
X74956001Y-53617740D01*
X75184000Y-69821290D02*
X75212710Y-69850000D01*
X74956001Y-69593291D02*
X75212710Y-69850000D01*
X74956001Y-53617740D02*
X74956001Y-69593291D01*
X73660000Y-50800000D02*
X73660000Y-52321739D01*
X75212710Y-69850000D02*
X76185420Y-70822710D01*
X97217999Y-67299999D02*
X99568000Y-69650000D01*
X97217999Y-51795999D02*
X97217999Y-67299999D01*
X95504000Y-49022000D02*
X95504000Y-50082000D01*
X95504000Y-50082000D02*
X97217999Y-51795999D01*
X99568000Y-69650000D02*
X99568000Y-78486000D01*
X102426001Y-67871597D02*
X102108000Y-68189598D01*
X102426001Y-52821599D02*
X102426001Y-67871597D01*
X102108000Y-49022000D02*
X102108000Y-52503598D01*
X102108000Y-52503598D02*
X102426001Y-52821599D01*
X102108000Y-68189598D02*
X102108000Y-70866000D01*
X102108000Y-70866000D02*
X102616000Y-71374000D01*
X101535999Y-76189599D02*
X101535999Y-79543597D01*
X102616000Y-71374000D02*
X102616000Y-75109598D01*
X101535999Y-79543597D02*
X102616000Y-80623598D01*
X102616000Y-75109598D02*
X101535999Y-76189599D01*
X102616000Y-80623598D02*
X102616000Y-82804000D01*
X108776001Y-50146001D02*
X108776001Y-83247999D01*
X108712000Y-49022000D02*
X108712000Y-50082000D01*
X108712000Y-50082000D02*
X108776001Y-50146001D01*
X112101999Y-69000001D02*
X111252000Y-69850000D01*
X112592999Y-68509001D02*
X112101999Y-69000001D01*
X112592999Y-62808999D02*
X112592999Y-68509001D01*
X112268000Y-62484000D02*
X112592999Y-62808999D01*
X77216000Y-85100180D02*
X77470000Y-84846180D01*
X77216000Y-86360000D02*
X77216000Y-85100180D01*
X77470000Y-84846180D02*
X77470000Y-78232000D01*
X100330000Y-74930000D02*
X100330000Y-64770000D01*
D30*
X67310000Y-89916000D02*
X67310000Y-96266000D01*
D29*
X69596000Y-72519820D02*
X69596000Y-71120000D01*
X68159999Y-73955821D02*
X69596000Y-72519820D01*
X68159999Y-89066001D02*
X68159999Y-73955821D01*
X67310000Y-89916000D02*
X68159999Y-89066001D01*
X62286399Y-49473601D02*
X62636401Y-49123599D01*
X62636401Y-49123599D02*
X63500000Y-48260000D01*
X62286399Y-51419279D02*
X62286399Y-49473601D01*
X62672000Y-51804880D02*
X62286399Y-51419279D01*
X62672000Y-55904000D02*
X62672000Y-51804880D01*
X64690000Y-59172000D02*
X64690000Y-62484000D01*
X62672000Y-57154000D02*
X64690000Y-59172000D01*
X62672000Y-55904000D02*
X62672000Y-57154000D01*
D30*
X106426000Y-90170000D02*
X106426000Y-85344000D01*
D29*
X111506000Y-82756000D02*
X110998000Y-82248000D01*
X111506000Y-85344000D02*
X111506000Y-82756000D01*
X112148001Y-74436001D02*
X111252000Y-73540000D01*
X111252000Y-73540000D02*
X111252000Y-72390000D01*
X112148001Y-81097999D02*
X112148001Y-74436001D01*
X110998000Y-82248000D02*
X112148001Y-81097999D01*
D30*
X106426000Y-92830002D02*
X100584000Y-98672002D01*
X106426000Y-90170000D02*
X106426000Y-92830002D01*
X100584000Y-98672002D02*
X100584000Y-99822000D01*
D29*
X68109999Y-62775999D02*
X67818000Y-62484000D01*
X68109999Y-66002001D02*
X68109999Y-62775999D01*
X67310000Y-66802000D02*
X68109999Y-66002001D01*
X69596000Y-71120000D02*
X69596000Y-66802000D01*
X67818000Y-57150000D02*
X68002001Y-56965999D01*
X67818000Y-62484000D02*
X67818000Y-57150000D01*
X101346000Y-60960000D02*
X101346000Y-72390000D01*
X62230000Y-88766000D02*
X62230000Y-89916000D01*
X63076580Y-87919420D02*
X62230000Y-88766000D01*
X63076580Y-73620400D02*
X63076580Y-87919420D01*
X61976000Y-72519820D02*
X63076580Y-73620400D01*
X61976000Y-71120000D02*
X61976000Y-72519820D01*
D30*
X64770000Y-92456000D02*
X62230000Y-89916000D01*
X64770000Y-96266000D02*
X64770000Y-92456000D01*
X92382001Y-98740001D02*
X91554002Y-99568000D01*
X92710000Y-95504000D02*
X92382001Y-95831999D01*
X92382001Y-95831999D02*
X92382001Y-98740001D01*
D29*
X79502000Y-100330000D02*
X80264000Y-99568000D01*
D30*
X91554002Y-99568000D02*
X80264000Y-99568000D01*
D29*
X63569999Y-97466001D02*
X63569999Y-99382001D01*
D30*
X80264000Y-99568000D02*
X77216000Y-99568000D01*
D29*
X64770000Y-96266000D02*
X63569999Y-97466001D01*
X64517998Y-100330000D02*
X79502000Y-100330000D01*
X63569999Y-99382001D02*
X64517998Y-100330000D01*
X65619999Y-97115999D02*
X64770000Y-96266000D01*
X65970001Y-99244001D02*
X65970001Y-97466001D01*
X66732001Y-100006001D02*
X65970001Y-99244001D01*
X65970001Y-97466001D02*
X65619999Y-97115999D01*
X76777999Y-100006001D02*
X66732001Y-100006001D01*
X77216000Y-99568000D02*
X76777999Y-100006001D01*
X61652001Y-84778294D02*
X60452000Y-85978295D01*
X61652001Y-75622001D02*
X61652001Y-84778294D01*
X60452000Y-85978295D02*
X60452000Y-88138000D01*
X92202000Y-90550000D02*
X92074000Y-90678000D01*
X92202000Y-61722000D02*
X92202000Y-90550000D01*
X73152000Y-94742000D02*
X73152000Y-97536000D01*
X60186010Y-69438666D02*
X60186010Y-74156010D01*
X61840010Y-67784666D02*
X60186010Y-69438666D01*
X62472001Y-60209999D02*
X61840011Y-60841989D01*
X60960000Y-74930000D02*
X61652001Y-75622001D01*
X62472001Y-57673999D02*
X62472001Y-60209999D01*
X60186010Y-74156010D02*
X60960000Y-74930000D01*
X60875420Y-74845420D02*
X60960000Y-74930000D01*
X60960000Y-50800000D02*
X61823599Y-51663599D01*
X61823599Y-51663599D02*
X61823599Y-57025597D01*
X61840011Y-60841989D02*
X61840010Y-67784666D01*
X61823599Y-57025597D02*
X62472001Y-57673999D01*
D28*
X76962000Y-57912000D02*
X76962000Y-54864000D01*
X78519989Y-51020011D02*
X78740000Y-50800000D01*
X78519989Y-53306011D02*
X78519989Y-51020011D01*
X76962000Y-54864000D02*
X78519989Y-53306011D01*
X64516000Y-68580000D02*
X64516000Y-64262000D01*
X64516000Y-64262000D02*
X64516000Y-64256402D01*
X69850000Y-64262000D02*
X69850000Y-52832000D01*
X72136000Y-71120000D02*
X72136000Y-65720000D01*
X72136000Y-65720000D02*
X72136000Y-53848000D01*
X60772000Y-53914000D02*
X60706000Y-53848000D01*
X60772000Y-55904000D02*
X60772000Y-53914000D01*
X86360000Y-50800000D02*
X86360000Y-53848000D01*
X77596399Y-49656399D02*
X77596399Y-52324000D01*
X76200000Y-48260000D02*
X77596399Y-49656399D01*
X77596399Y-52324000D02*
X77596399Y-52450399D01*
X70866000Y-73660000D02*
X70866000Y-55880000D01*
X70866000Y-52324000D02*
X70866000Y-55880000D01*
X70866000Y-55880000D02*
X70866000Y-55626000D01*
X78246580Y-69985170D02*
X78246580Y-73137420D01*
X76200000Y-58147838D02*
X75411999Y-58935839D01*
X76200000Y-50800000D02*
X76200000Y-58147838D01*
X75411999Y-58935839D02*
X75411999Y-68042001D01*
X75411999Y-68042001D02*
X77110168Y-69740170D01*
X77110168Y-69740170D02*
X78001580Y-69740170D01*
X78001580Y-69740170D02*
X78246580Y-69985170D01*
X78246580Y-73137420D02*
X77724000Y-73660000D01*
D30*
X110236000Y-94996000D02*
X110236000Y-94488000D01*
X106426000Y-98806000D02*
X110236000Y-94996000D01*
X59436000Y-59048002D02*
X59436000Y-49784000D01*
X59944000Y-77724000D02*
X59436000Y-77216000D01*
X59436000Y-77216000D02*
X59436000Y-69128002D01*
X60452000Y-77724000D02*
X59944000Y-77724000D01*
X59436000Y-69128002D02*
X61090001Y-67474001D01*
X61090001Y-60702003D02*
X59436000Y-59048002D01*
X59436000Y-49784000D02*
X60960000Y-48260000D01*
X61090001Y-67474001D02*
X61090001Y-60702003D01*
D28*
X90418000Y-67564000D02*
X91440000Y-68586000D01*
X91440000Y-68586000D02*
X91440000Y-82296000D01*
X90418000Y-67564000D02*
X89408000Y-67564000D01*
X90538001Y-61861999D02*
X90538001Y-67443999D01*
X90538001Y-67443999D02*
X90418000Y-67564000D01*
X92104999Y-60295001D02*
X90538001Y-61861999D01*
X92104999Y-49507401D02*
X92104999Y-60295001D01*
X90932000Y-48334402D02*
X92104999Y-49507401D01*
X89408000Y-65024000D02*
X89408000Y-62484000D01*
X89916000Y-70770750D02*
X89916000Y-71120000D01*
X89005430Y-69860180D02*
X89916000Y-70770750D01*
X88656180Y-69860180D02*
X89005430Y-69860180D01*
X87630000Y-68834000D02*
X88656180Y-69860180D01*
X87630000Y-62992000D02*
X87630000Y-68834000D01*
X88997000Y-53086000D02*
X88997000Y-57180598D01*
X87954999Y-58222599D02*
X88138000Y-58039598D01*
X87954999Y-62667001D02*
X87954999Y-58222599D01*
X87630000Y-62992000D02*
X87954999Y-62667001D01*
X88997000Y-57180598D02*
X88138000Y-58039598D01*
X88138000Y-58039598D02*
X88011598Y-58166000D01*
X82296000Y-70770750D02*
X82296000Y-71120000D01*
X77496001Y-63018001D02*
X77496001Y-67336001D01*
X76454000Y-61976000D02*
X77496001Y-63018001D01*
X77496001Y-67336001D02*
X78232000Y-68072000D01*
X82296000Y-71120000D02*
X82296000Y-68580000D01*
X83680001Y-67195999D02*
X82296000Y-68580000D01*
X83680001Y-59829999D02*
X83680001Y-67195999D01*
X84963601Y-58546399D02*
X83680001Y-59829999D01*
X84963601Y-49403601D02*
X84963601Y-58546399D01*
X83820000Y-48260000D02*
X84963601Y-49403601D01*
X84836000Y-59944000D02*
X85344000Y-59436000D01*
X84836000Y-71120000D02*
X84836000Y-59944000D01*
X81280000Y-50800000D02*
X84074000Y-53594000D01*
X84074000Y-53594000D02*
X84074000Y-56896000D01*
X85668999Y-59111001D02*
X85668999Y-57587001D01*
X85344000Y-59436000D02*
X85668999Y-59111001D01*
X85668999Y-57587001D02*
X86360000Y-56896000D01*
X85598000Y-68992750D02*
X85598000Y-62230000D01*
X87376000Y-70770750D02*
X85598000Y-68992750D01*
X87376000Y-71120000D02*
X87376000Y-70770750D01*
X88392000Y-47244000D02*
X88392000Y-54864000D01*
X85598000Y-62230000D02*
X87376000Y-60452000D01*
X87376000Y-60452000D02*
X87376000Y-54864000D01*
X74676000Y-73123290D02*
X74676000Y-86360000D01*
X73166580Y-71613870D02*
X74676000Y-73123290D01*
X73166580Y-70343870D02*
X73166580Y-71613870D01*
X72741001Y-69918291D02*
X73166580Y-70343870D01*
X72741001Y-52421001D02*
X72741001Y-69918291D01*
X71120000Y-50800000D02*
X72741001Y-52421001D01*
X64643601Y-49656399D02*
X64643601Y-56768399D01*
X66040000Y-48260000D02*
X64643601Y-49656399D01*
X64643601Y-56642000D02*
X64643601Y-56768399D01*
X61976000Y-85100180D02*
X62230000Y-84846180D01*
X61976000Y-86360000D02*
X61976000Y-85100180D01*
X62230000Y-84846180D02*
X62230000Y-73381944D01*
X60945420Y-70343870D02*
X62709290Y-68580000D01*
X60945420Y-72097364D02*
X60945420Y-70343870D01*
X62230000Y-73381944D02*
X60945420Y-72097364D01*
X62709290Y-68580000D02*
X62709290Y-63274710D01*
X63485420Y-71896130D02*
X63485420Y-61228580D01*
X64516000Y-86360000D02*
X64516000Y-72926710D01*
X64516000Y-72926710D02*
X63485420Y-71896130D01*
X63485420Y-61228580D02*
X63500000Y-61214000D01*
X66040000Y-50800000D02*
X66040000Y-61214000D01*
X68086580Y-73421116D02*
X67056000Y-74451696D01*
X68086580Y-67623822D02*
X68086580Y-73421116D01*
X68580000Y-67130402D02*
X68086580Y-67623822D01*
X67056000Y-76200000D02*
X67056000Y-75946000D01*
X67056000Y-74451696D02*
X67056000Y-76200000D01*
X68580000Y-52021314D02*
X69088000Y-52529314D01*
X68580000Y-50800000D02*
X68580000Y-52021314D01*
X68580000Y-67130402D02*
X68580000Y-63754000D01*
X68580000Y-63754000D02*
X69088000Y-63246000D01*
X69088000Y-52529314D02*
X69088000Y-58928000D01*
X69088000Y-63246000D02*
X69088000Y-58928000D01*
X69088000Y-58928000D02*
X69088000Y-59944000D01*
X88406580Y-83590760D02*
X89916000Y-85100180D01*
X88406580Y-70343870D02*
X88406580Y-83590760D01*
X89916000Y-85100180D02*
X89916000Y-86360000D01*
X86614000Y-68551290D02*
X88406580Y-70343870D01*
X86614000Y-63754000D02*
X86614000Y-68551290D01*
D29*
X88646000Y-91440000D02*
X69342000Y-91440000D01*
X89916000Y-90170000D02*
X88646000Y-91440000D01*
X69342000Y-91440000D02*
X68580000Y-92202000D01*
X68580000Y-92202000D02*
X68580000Y-92202000D01*
D28*
X67056000Y-85100180D02*
X67056000Y-86360000D01*
X65546580Y-64755420D02*
X65546580Y-83590760D01*
X65546580Y-83590760D02*
X67056000Y-85100180D01*
X67183601Y-63118399D02*
X65546580Y-64755420D01*
X67183601Y-54610000D02*
X67183601Y-63118399D01*
D32*
G36*
X91260151Y-91221797D02*
X91530203Y-91491849D01*
X91883044Y-91638000D01*
X92179000Y-91638000D01*
X92179000Y-92595353D01*
X92150151Y-92624202D01*
X92004000Y-92977043D01*
X92004000Y-93358955D01*
X92150151Y-93711796D01*
X92420203Y-93981848D01*
X92773044Y-94127999D01*
X93154956Y-94127999D01*
X93507797Y-93981848D01*
X93777849Y-93711796D01*
X93841168Y-93558930D01*
X93616303Y-100080000D01*
X92505712Y-100080000D01*
X93041777Y-99543936D01*
X93128194Y-99486194D01*
X93356949Y-99143838D01*
X93417001Y-98841936D01*
X93417001Y-98841931D01*
X93437276Y-98740002D01*
X93417001Y-98638072D01*
X93417001Y-96260709D01*
X93513934Y-96163776D01*
X93684948Y-95907836D01*
X93765276Y-95504000D01*
X93684948Y-95100164D01*
X93456193Y-94757807D01*
X93113836Y-94529052D01*
X92710000Y-94448724D01*
X92306164Y-94529052D01*
X92050224Y-94700066D01*
X91722228Y-95028062D01*
X91635808Y-95085806D01*
X91425980Y-95399837D01*
X91407053Y-95428163D01*
X91326725Y-95831999D01*
X91347001Y-95933934D01*
X91347001Y-96626593D01*
X91288890Y-96602524D01*
X91059000Y-96723845D01*
X91059000Y-97917000D01*
X91079000Y-97917000D01*
X91079000Y-98171000D01*
X91059000Y-98171000D01*
X91059000Y-98191000D01*
X90805000Y-98191000D01*
X90805000Y-98171000D01*
X88519000Y-98171000D01*
X88519000Y-98191000D01*
X88265000Y-98191000D01*
X88265000Y-98171000D01*
X88245000Y-98171000D01*
X88245000Y-97917000D01*
X88265000Y-97917000D01*
X88265000Y-96723845D01*
X88519000Y-96723845D01*
X88519000Y-97917000D01*
X90805000Y-97917000D01*
X90805000Y-96723845D01*
X90575110Y-96602524D01*
X90165076Y-96772355D01*
X89736817Y-97162642D01*
X89662000Y-97321954D01*
X89587183Y-97162642D01*
X89158924Y-96772355D01*
X88748890Y-96602524D01*
X88519000Y-96723845D01*
X88265000Y-96723845D01*
X88035110Y-96602524D01*
X87625076Y-96772355D01*
X87196817Y-97162642D01*
X87135843Y-97292478D01*
X86922625Y-96973375D01*
X86431418Y-96645161D01*
X85998256Y-96559000D01*
X85705744Y-96559000D01*
X85272582Y-96645161D01*
X84781375Y-96973375D01*
X84769184Y-96991619D01*
X84760157Y-96946235D01*
X84619809Y-96736191D01*
X84409765Y-96595843D01*
X84162000Y-96546560D01*
X82462000Y-96546560D01*
X82214235Y-96595843D01*
X82004191Y-96736191D01*
X81863843Y-96946235D01*
X81851358Y-97009000D01*
X74599934Y-97009000D01*
X74498000Y-96988724D01*
X74396065Y-97009000D01*
X74094163Y-97069052D01*
X74018595Y-97119545D01*
X73965849Y-96992203D01*
X73937000Y-96963354D01*
X73937000Y-95314646D01*
X73965849Y-95285797D01*
X74112000Y-94932956D01*
X74112000Y-94551044D01*
X73965849Y-94198203D01*
X73695797Y-93928151D01*
X73342956Y-93782000D01*
X72961044Y-93782000D01*
X72608203Y-93928151D01*
X72338151Y-94198203D01*
X72192000Y-94551044D01*
X72192000Y-94932956D01*
X72338151Y-95285797D01*
X72367000Y-95314646D01*
X72367001Y-96963353D01*
X72338151Y-96992203D01*
X72192000Y-97345044D01*
X72192000Y-97726956D01*
X72210244Y-97771000D01*
X68404429Y-97771000D01*
X68380625Y-97735375D01*
X68082239Y-97536000D01*
X68380625Y-97336625D01*
X68708839Y-96845418D01*
X68824092Y-96266000D01*
X68708839Y-95686582D01*
X68380625Y-95195375D01*
X68345000Y-95171571D01*
X68345000Y-93143756D01*
X68389044Y-93162000D01*
X68770956Y-93162000D01*
X69123797Y-93015849D01*
X69393849Y-92745797D01*
X69540000Y-92392956D01*
X69540000Y-92352157D01*
X69667157Y-92225000D01*
X74295000Y-92225000D01*
X74295000Y-94488000D01*
X74304667Y-94536601D01*
X74332197Y-94577803D01*
X74373399Y-94605333D01*
X74422000Y-94615000D01*
X86106000Y-94615000D01*
X86154601Y-94605333D01*
X86195803Y-94577803D01*
X86223333Y-94536601D01*
X86233000Y-94488000D01*
X86233000Y-92225000D01*
X88568688Y-92225000D01*
X88646000Y-92240378D01*
X88723312Y-92225000D01*
X88723316Y-92225000D01*
X88952292Y-92179454D01*
X89211953Y-92005953D01*
X89255749Y-91940408D01*
X89602698Y-91593459D01*
X89630561Y-91605000D01*
X90201439Y-91605000D01*
X90728862Y-91386534D01*
X91132534Y-90982862D01*
X91146858Y-90948282D01*
X91260151Y-91221797D01*
X91260151Y-91221797D01*
G37*
X91260151Y-91221797D02*
X91530203Y-91491849D01*
X91883044Y-91638000D01*
X92179000Y-91638000D01*
X92179000Y-92595353D01*
X92150151Y-92624202D01*
X92004000Y-92977043D01*
X92004000Y-93358955D01*
X92150151Y-93711796D01*
X92420203Y-93981848D01*
X92773044Y-94127999D01*
X93154956Y-94127999D01*
X93507797Y-93981848D01*
X93777849Y-93711796D01*
X93841168Y-93558930D01*
X93616303Y-100080000D01*
X92505712Y-100080000D01*
X93041777Y-99543936D01*
X93128194Y-99486194D01*
X93356949Y-99143838D01*
X93417001Y-98841936D01*
X93417001Y-98841931D01*
X93437276Y-98740002D01*
X93417001Y-98638072D01*
X93417001Y-96260709D01*
X93513934Y-96163776D01*
X93684948Y-95907836D01*
X93765276Y-95504000D01*
X93684948Y-95100164D01*
X93456193Y-94757807D01*
X93113836Y-94529052D01*
X92710000Y-94448724D01*
X92306164Y-94529052D01*
X92050224Y-94700066D01*
X91722228Y-95028062D01*
X91635808Y-95085806D01*
X91425980Y-95399837D01*
X91407053Y-95428163D01*
X91326725Y-95831999D01*
X91347001Y-95933934D01*
X91347001Y-96626593D01*
X91288890Y-96602524D01*
X91059000Y-96723845D01*
X91059000Y-97917000D01*
X91079000Y-97917000D01*
X91079000Y-98171000D01*
X91059000Y-98171000D01*
X91059000Y-98191000D01*
X90805000Y-98191000D01*
X90805000Y-98171000D01*
X88519000Y-98171000D01*
X88519000Y-98191000D01*
X88265000Y-98191000D01*
X88265000Y-98171000D01*
X88245000Y-98171000D01*
X88245000Y-97917000D01*
X88265000Y-97917000D01*
X88265000Y-96723845D01*
X88519000Y-96723845D01*
X88519000Y-97917000D01*
X90805000Y-97917000D01*
X90805000Y-96723845D01*
X90575110Y-96602524D01*
X90165076Y-96772355D01*
X89736817Y-97162642D01*
X89662000Y-97321954D01*
X89587183Y-97162642D01*
X89158924Y-96772355D01*
X88748890Y-96602524D01*
X88519000Y-96723845D01*
X88265000Y-96723845D01*
X88035110Y-96602524D01*
X87625076Y-96772355D01*
X87196817Y-97162642D01*
X87135843Y-97292478D01*
X86922625Y-96973375D01*
X86431418Y-96645161D01*
X85998256Y-96559000D01*
X85705744Y-96559000D01*
X85272582Y-96645161D01*
X84781375Y-96973375D01*
X84769184Y-96991619D01*
X84760157Y-96946235D01*
X84619809Y-96736191D01*
X84409765Y-96595843D01*
X84162000Y-96546560D01*
X82462000Y-96546560D01*
X82214235Y-96595843D01*
X82004191Y-96736191D01*
X81863843Y-96946235D01*
X81851358Y-97009000D01*
X74599934Y-97009000D01*
X74498000Y-96988724D01*
X74396065Y-97009000D01*
X74094163Y-97069052D01*
X74018595Y-97119545D01*
X73965849Y-96992203D01*
X73937000Y-96963354D01*
X73937000Y-95314646D01*
X73965849Y-95285797D01*
X74112000Y-94932956D01*
X74112000Y-94551044D01*
X73965849Y-94198203D01*
X73695797Y-93928151D01*
X73342956Y-93782000D01*
X72961044Y-93782000D01*
X72608203Y-93928151D01*
X72338151Y-94198203D01*
X72192000Y-94551044D01*
X72192000Y-94932956D01*
X72338151Y-95285797D01*
X72367000Y-95314646D01*
X72367001Y-96963353D01*
X72338151Y-96992203D01*
X72192000Y-97345044D01*
X72192000Y-97726956D01*
X72210244Y-97771000D01*
X68404429Y-97771000D01*
X68380625Y-97735375D01*
X68082239Y-97536000D01*
X68380625Y-97336625D01*
X68708839Y-96845418D01*
X68824092Y-96266000D01*
X68708839Y-95686582D01*
X68380625Y-95195375D01*
X68345000Y-95171571D01*
X68345000Y-93143756D01*
X68389044Y-93162000D01*
X68770956Y-93162000D01*
X69123797Y-93015849D01*
X69393849Y-92745797D01*
X69540000Y-92392956D01*
X69540000Y-92352157D01*
X69667157Y-92225000D01*
X74295000Y-92225000D01*
X74295000Y-94488000D01*
X74304667Y-94536601D01*
X74332197Y-94577803D01*
X74373399Y-94605333D01*
X74422000Y-94615000D01*
X86106000Y-94615000D01*
X86154601Y-94605333D01*
X86195803Y-94577803D01*
X86223333Y-94536601D01*
X86233000Y-94488000D01*
X86233000Y-92225000D01*
X88568688Y-92225000D01*
X88646000Y-92240378D01*
X88723312Y-92225000D01*
X88723316Y-92225000D01*
X88952292Y-92179454D01*
X89211953Y-92005953D01*
X89255749Y-91940408D01*
X89602698Y-91593459D01*
X89630561Y-91605000D01*
X90201439Y-91605000D01*
X90728862Y-91386534D01*
X91132534Y-90982862D01*
X91146858Y-90948282D01*
X91260151Y-91221797D01*
G36*
X109093000Y-98679000D02*
X109113000Y-98679000D01*
X109113000Y-98933000D01*
X109093000Y-98933000D01*
X109093000Y-98953000D01*
X108839000Y-98953000D01*
X108839000Y-98933000D01*
X108819000Y-98933000D01*
X108819000Y-98679000D01*
X108839000Y-98679000D01*
X108839000Y-98659000D01*
X109093000Y-98659000D01*
X109093000Y-98679000D01*
X109093000Y-98679000D01*
G37*
X109093000Y-98679000D02*
X109113000Y-98679000D01*
X109113000Y-98933000D01*
X109093000Y-98933000D01*
X109093000Y-98953000D01*
X108839000Y-98953000D01*
X108839000Y-98933000D01*
X108819000Y-98933000D01*
X108819000Y-98679000D01*
X108839000Y-98679000D01*
X108839000Y-98659000D01*
X109093000Y-98659000D01*
X109093000Y-98679000D01*
G36*
X112780000Y-48699771D02*
X112553310Y-48152493D01*
X112121507Y-47720690D01*
X111557330Y-47487000D01*
X110946670Y-47487000D01*
X110382493Y-47720690D01*
X110213275Y-47889908D01*
X110210157Y-47874235D01*
X110069809Y-47664191D01*
X109859765Y-47523843D01*
X109612000Y-47474560D01*
X107812000Y-47474560D01*
X107564235Y-47523843D01*
X107354191Y-47664191D01*
X107213843Y-47874235D01*
X107164560Y-48122000D01*
X107164560Y-49922000D01*
X107213843Y-50169765D01*
X107354191Y-50379809D01*
X107564235Y-50520157D01*
X107812000Y-50569440D01*
X108061001Y-50569440D01*
X108061001Y-52037610D01*
X107658777Y-51893035D01*
X107088546Y-51920222D01*
X106687995Y-52086136D01*
X106613861Y-52332255D01*
X107442000Y-53160395D01*
X107456142Y-53146252D01*
X107635748Y-53325858D01*
X107621605Y-53340000D01*
X107635748Y-53354143D01*
X107456142Y-53533748D01*
X107442000Y-53519605D01*
X106613861Y-54347745D01*
X106687995Y-54593864D01*
X107225223Y-54786965D01*
X107795454Y-54759778D01*
X108061001Y-54649785D01*
X108061001Y-59647744D01*
X108001909Y-59608260D01*
X107583333Y-59525000D01*
X107300667Y-59525000D01*
X106882091Y-59608260D01*
X106407423Y-59925423D01*
X106090260Y-60400091D01*
X105978887Y-60960000D01*
X106090260Y-61519909D01*
X106407423Y-61994577D01*
X106882091Y-62311740D01*
X107300667Y-62395000D01*
X107583333Y-62395000D01*
X108001909Y-62311740D01*
X108061001Y-62272256D01*
X108061001Y-63379490D01*
X107837333Y-63335000D01*
X107554667Y-63335000D01*
X107136091Y-63418260D01*
X106661423Y-63735423D01*
X106344260Y-64210091D01*
X106232887Y-64770000D01*
X106344260Y-65329909D01*
X106661423Y-65804577D01*
X107136091Y-66121740D01*
X107554667Y-66205000D01*
X107837333Y-66205000D01*
X108061001Y-66160510D01*
X108061002Y-70987956D01*
X107981439Y-70955000D01*
X107410561Y-70955000D01*
X106883138Y-71173466D01*
X106479466Y-71577138D01*
X106261000Y-72104561D01*
X106261000Y-72675439D01*
X106479466Y-73202862D01*
X106883138Y-73606534D01*
X107410561Y-73825000D01*
X107981439Y-73825000D01*
X108061002Y-73792044D01*
X108061002Y-82605352D01*
X107962152Y-82704202D01*
X107816001Y-83057043D01*
X107816001Y-83438955D01*
X107962152Y-83791796D01*
X108224090Y-84053734D01*
X107895375Y-84273375D01*
X107883184Y-84291619D01*
X107874157Y-84246235D01*
X107733809Y-84036191D01*
X107523765Y-83895843D01*
X107276000Y-83846560D01*
X105576000Y-83846560D01*
X105328235Y-83895843D01*
X105118191Y-84036191D01*
X104977843Y-84246235D01*
X104928560Y-84494000D01*
X104928560Y-86194000D01*
X104977843Y-86441765D01*
X105118191Y-86651809D01*
X105328235Y-86792157D01*
X105391001Y-86804642D01*
X105391000Y-88709358D01*
X105328235Y-88721843D01*
X105118191Y-88862191D01*
X104977843Y-89072235D01*
X104928560Y-89320000D01*
X104928560Y-91020000D01*
X104977843Y-91267765D01*
X105118191Y-91477809D01*
X105328235Y-91618157D01*
X105391001Y-91630642D01*
X105391001Y-92401290D01*
X104519236Y-93273055D01*
X104520930Y-93222231D01*
X104511333Y-93169399D01*
X104483803Y-93128197D01*
X104442601Y-93100667D01*
X104394000Y-93091000D01*
X103651000Y-93091000D01*
X103651000Y-92049934D01*
X103671276Y-91948000D01*
X103590948Y-91544163D01*
X103555993Y-91491849D01*
X103362193Y-91201807D01*
X103275776Y-91144065D01*
X102343733Y-90212023D01*
X102352092Y-90170000D01*
X102236839Y-89590582D01*
X101908625Y-89099375D01*
X101417418Y-88771161D01*
X100984256Y-88685000D01*
X100691744Y-88685000D01*
X100258582Y-88771161D01*
X99767375Y-89099375D01*
X99568000Y-89397761D01*
X99368625Y-89099375D01*
X98877418Y-88771161D01*
X98444256Y-88685000D01*
X98151744Y-88685000D01*
X97718582Y-88771161D01*
X97227375Y-89099375D01*
X97215184Y-89117619D01*
X97206157Y-89072235D01*
X97065809Y-88862191D01*
X96855765Y-88721843D01*
X96608000Y-88672560D01*
X94908000Y-88672560D01*
X94660235Y-88721843D01*
X94450191Y-88862191D01*
X94309843Y-89072235D01*
X94260560Y-89320000D01*
X94260560Y-91020000D01*
X94309843Y-91267765D01*
X94450191Y-91477809D01*
X94660235Y-91618157D01*
X94908000Y-91667440D01*
X94977001Y-91667440D01*
X94977001Y-93091000D01*
X93980000Y-93091000D01*
X93935472Y-93099062D01*
X93924000Y-93106168D01*
X93924000Y-92977043D01*
X93777849Y-92624202D01*
X93749000Y-92595353D01*
X93749000Y-85861411D01*
X93789044Y-85877998D01*
X94170956Y-85877998D01*
X94260560Y-85840883D01*
X94260560Y-86194000D01*
X94309843Y-86441765D01*
X94450191Y-86651809D01*
X94660235Y-86792157D01*
X94908000Y-86841440D01*
X96608000Y-86841440D01*
X96855765Y-86792157D01*
X97065809Y-86651809D01*
X97206157Y-86441765D01*
X97215184Y-86396381D01*
X97227375Y-86414625D01*
X97718582Y-86742839D01*
X98151744Y-86829000D01*
X98444256Y-86829000D01*
X98877418Y-86742839D01*
X99368625Y-86414625D01*
X99568000Y-86116239D01*
X99767375Y-86414625D01*
X100258582Y-86742839D01*
X100691744Y-86829000D01*
X100984256Y-86829000D01*
X101417418Y-86742839D01*
X101908625Y-86414625D01*
X102236839Y-85923418D01*
X102352092Y-85344000D01*
X102236839Y-84764582D01*
X101908625Y-84273375D01*
X101417418Y-83945161D01*
X100984256Y-83859000D01*
X100691744Y-83859000D01*
X100258582Y-83945161D01*
X99767375Y-84273375D01*
X99568000Y-84571761D01*
X99368625Y-84273375D01*
X98877418Y-83945161D01*
X98444256Y-83859000D01*
X98151744Y-83859000D01*
X97718582Y-83945161D01*
X97227375Y-84273375D01*
X97215184Y-84291619D01*
X97206157Y-84246235D01*
X97065809Y-84036191D01*
X96855765Y-83895843D01*
X96608000Y-83846560D01*
X96062601Y-83846560D01*
X97343789Y-82565372D01*
X97403487Y-82525483D01*
X97561516Y-82288976D01*
X97603001Y-82080415D01*
X97603001Y-82080411D01*
X97617007Y-82009998D01*
X97603001Y-81939585D01*
X97603001Y-81819435D01*
X97941110Y-81959476D01*
X98171000Y-81838155D01*
X98171000Y-80645000D01*
X98425000Y-80645000D01*
X98425000Y-81838155D01*
X98654890Y-81959476D01*
X99064924Y-81789645D01*
X99493183Y-81399358D01*
X99568000Y-81240046D01*
X99642817Y-81399358D01*
X100071076Y-81789645D01*
X100481110Y-81959476D01*
X100711000Y-81838155D01*
X100711000Y-80645000D01*
X98425000Y-80645000D01*
X98171000Y-80645000D01*
X98151000Y-80645000D01*
X98151000Y-80391000D01*
X98171000Y-80391000D01*
X98171000Y-79197845D01*
X97941110Y-79076524D01*
X97603001Y-79216565D01*
X97603001Y-70686413D01*
X97617007Y-70616000D01*
X97603001Y-70545587D01*
X97603001Y-70545583D01*
X97561516Y-70337022D01*
X97488295Y-70227440D01*
X97443375Y-70160212D01*
X97443374Y-70160211D01*
X97403486Y-70100515D01*
X97389725Y-70091320D01*
X97469809Y-70037809D01*
X97610157Y-69827765D01*
X97659440Y-69580000D01*
X97659440Y-68752602D01*
X98853000Y-69946163D01*
X98853001Y-77843353D01*
X98754151Y-77942203D01*
X98608000Y-78295044D01*
X98608000Y-78676956D01*
X98754151Y-79029797D01*
X98904096Y-79179742D01*
X98654890Y-79076524D01*
X98425000Y-79197845D01*
X98425000Y-80391000D01*
X100711000Y-80391000D01*
X100711000Y-80371000D01*
X100965000Y-80371000D01*
X100965000Y-80391000D01*
X100985000Y-80391000D01*
X100985000Y-80645000D01*
X100965000Y-80645000D01*
X100965000Y-81838155D01*
X101194890Y-81959476D01*
X101604924Y-81789645D01*
X101901000Y-81519820D01*
X101901001Y-82161353D01*
X101802151Y-82260203D01*
X101656000Y-82613044D01*
X101656000Y-82994956D01*
X101802151Y-83347797D01*
X102072203Y-83617849D01*
X102425044Y-83764000D01*
X102806956Y-83764000D01*
X103159797Y-83617849D01*
X103429849Y-83347797D01*
X103481232Y-83223745D01*
X105597861Y-83223745D01*
X105671995Y-83469864D01*
X106209223Y-83662965D01*
X106779454Y-83635778D01*
X107180005Y-83469864D01*
X107254139Y-83223745D01*
X106426000Y-82395605D01*
X105597861Y-83223745D01*
X103481232Y-83223745D01*
X103576000Y-82994956D01*
X103576000Y-82613044D01*
X103429849Y-82260203D01*
X103331000Y-82161354D01*
X103331000Y-81999223D01*
X104979035Y-81999223D01*
X105006222Y-82569454D01*
X105172136Y-82970005D01*
X105418255Y-83044139D01*
X106246395Y-82216000D01*
X106605605Y-82216000D01*
X107433745Y-83044139D01*
X107679864Y-82970005D01*
X107872965Y-82432777D01*
X107845778Y-81862546D01*
X107679864Y-81461995D01*
X107433745Y-81387861D01*
X106605605Y-82216000D01*
X106246395Y-82216000D01*
X105418255Y-81387861D01*
X105172136Y-81461995D01*
X104979035Y-81999223D01*
X103331000Y-81999223D01*
X103331000Y-81208255D01*
X105597861Y-81208255D01*
X106426000Y-82036395D01*
X107254139Y-81208255D01*
X107180005Y-80962136D01*
X106642777Y-80769035D01*
X106072546Y-80796222D01*
X105671995Y-80962136D01*
X105597861Y-81208255D01*
X103331000Y-81208255D01*
X103331000Y-80694014D01*
X103345007Y-80623597D01*
X103329519Y-80545736D01*
X103289515Y-80344619D01*
X103131485Y-80108112D01*
X103071790Y-80068225D01*
X102250999Y-79247435D01*
X102250999Y-78110044D01*
X102330561Y-78143000D01*
X102901439Y-78143000D01*
X103428862Y-77924534D01*
X103832534Y-77520862D01*
X104051000Y-76993439D01*
X104051000Y-76930561D01*
X104991000Y-76930561D01*
X104991000Y-77501439D01*
X105209466Y-78028862D01*
X105613138Y-78432534D01*
X106140561Y-78651000D01*
X106711439Y-78651000D01*
X107238862Y-78432534D01*
X107642534Y-78028862D01*
X107861000Y-77501439D01*
X107861000Y-76930561D01*
X107642534Y-76403138D01*
X107238862Y-75999466D01*
X106711439Y-75781000D01*
X106140561Y-75781000D01*
X105613138Y-75999466D01*
X105209466Y-76403138D01*
X104991000Y-76930561D01*
X104051000Y-76930561D01*
X104051000Y-76422561D01*
X103832534Y-75895138D01*
X103428862Y-75491466D01*
X103265876Y-75423955D01*
X103289515Y-75388577D01*
X103331000Y-75180016D01*
X103345007Y-75109599D01*
X103331000Y-75039182D01*
X103331000Y-71444412D01*
X103345006Y-71373999D01*
X103331000Y-71303586D01*
X103331000Y-71303582D01*
X103289515Y-71095021D01*
X103221346Y-70993000D01*
X103171374Y-70918211D01*
X103171373Y-70918210D01*
X103131485Y-70858514D01*
X103071790Y-70818627D01*
X102823000Y-70569838D01*
X102823000Y-70031064D01*
X103347461Y-70225908D01*
X103997460Y-70201856D01*
X104486264Y-69999387D01*
X104584927Y-69732532D01*
X103612000Y-68759605D01*
X103597858Y-68773748D01*
X103418253Y-68594143D01*
X103432395Y-68580000D01*
X103791605Y-68580000D01*
X104764532Y-69552927D01*
X105031387Y-69454264D01*
X105257908Y-68844539D01*
X105233856Y-68194540D01*
X105031387Y-67705736D01*
X104764532Y-67607073D01*
X103791605Y-68580000D01*
X103432395Y-68580000D01*
X103418253Y-68565858D01*
X103597858Y-68386253D01*
X103612000Y-68400395D01*
X104584927Y-67427468D01*
X104486264Y-67160613D01*
X103876539Y-66934092D01*
X103226540Y-66958144D01*
X103141001Y-66993575D01*
X103141001Y-61684828D01*
X103177466Y-61772862D01*
X103581138Y-62176534D01*
X104108561Y-62395000D01*
X104679439Y-62395000D01*
X105206862Y-62176534D01*
X105610534Y-61772862D01*
X105829000Y-61245439D01*
X105829000Y-60674561D01*
X105610534Y-60147138D01*
X105206862Y-59743466D01*
X104679439Y-59525000D01*
X104108561Y-59525000D01*
X103581138Y-59743466D01*
X103177466Y-60147138D01*
X103141001Y-60235172D01*
X103141001Y-54047685D01*
X103359423Y-54374577D01*
X103834091Y-54691740D01*
X104252667Y-54775000D01*
X104535333Y-54775000D01*
X104953909Y-54691740D01*
X105428577Y-54374577D01*
X105745740Y-53899909D01*
X105857113Y-53340000D01*
X105813994Y-53123223D01*
X105995035Y-53123223D01*
X106022222Y-53693454D01*
X106188136Y-54094005D01*
X106434255Y-54168139D01*
X107262395Y-53340000D01*
X106434255Y-52511861D01*
X106188136Y-52585995D01*
X105995035Y-53123223D01*
X105813994Y-53123223D01*
X105745740Y-52780091D01*
X105428577Y-52305423D01*
X104953909Y-51988260D01*
X104535333Y-51905000D01*
X104252667Y-51905000D01*
X103834091Y-51988260D01*
X103359423Y-52305423D01*
X103122781Y-52659583D01*
X103099516Y-52542620D01*
X102941486Y-52306113D01*
X102881788Y-52266224D01*
X102823000Y-52207436D01*
X102823000Y-50569440D01*
X103008000Y-50569440D01*
X103255765Y-50520157D01*
X103465809Y-50379809D01*
X103606157Y-50169765D01*
X103609275Y-50154092D01*
X103778493Y-50323310D01*
X104342670Y-50557000D01*
X104953330Y-50557000D01*
X105517507Y-50323310D01*
X105949310Y-49891507D01*
X106183000Y-49327330D01*
X106183000Y-48716670D01*
X105949310Y-48152493D01*
X105517507Y-47720690D01*
X104953330Y-47487000D01*
X104342670Y-47487000D01*
X103778493Y-47720690D01*
X103609275Y-47889908D01*
X103606157Y-47874235D01*
X103465809Y-47664191D01*
X103255765Y-47523843D01*
X103008000Y-47474560D01*
X101208000Y-47474560D01*
X100960235Y-47523843D01*
X100750191Y-47664191D01*
X100609843Y-47874235D01*
X100560560Y-48122000D01*
X100560560Y-49922000D01*
X100609843Y-50169765D01*
X100750191Y-50379809D01*
X100960235Y-50520157D01*
X101208000Y-50569440D01*
X101393000Y-50569440D01*
X101393001Y-51905000D01*
X101060561Y-51905000D01*
X100533138Y-52123466D01*
X100129466Y-52527138D01*
X99911000Y-53054561D01*
X99911000Y-53625439D01*
X100129466Y-54152862D01*
X100533138Y-54556534D01*
X101060561Y-54775000D01*
X101631439Y-54775000D01*
X101711001Y-54742044D01*
X101711001Y-59569490D01*
X101487333Y-59525000D01*
X101204667Y-59525000D01*
X100786091Y-59608260D01*
X100311423Y-59925423D01*
X99994260Y-60400091D01*
X99882887Y-60960000D01*
X99994260Y-61519909D01*
X100311423Y-61994577D01*
X100561000Y-62161339D01*
X100561000Y-63826587D01*
X100520956Y-63810000D01*
X100139044Y-63810000D01*
X99786203Y-63956151D01*
X99516151Y-64226203D01*
X99370000Y-64579044D01*
X99370000Y-64960956D01*
X99516151Y-65313797D01*
X99615001Y-65412647D01*
X99615001Y-68685838D01*
X97932999Y-67003837D01*
X97932999Y-62350510D01*
X98156667Y-62395000D01*
X98439333Y-62395000D01*
X98857909Y-62311740D01*
X99332577Y-61994577D01*
X99649740Y-61519909D01*
X99761113Y-60960000D01*
X99649740Y-60400091D01*
X99332577Y-59925423D01*
X98857909Y-59608260D01*
X98439333Y-59525000D01*
X98156667Y-59525000D01*
X97932999Y-59569490D01*
X97932999Y-54742044D01*
X98012561Y-54775000D01*
X98583439Y-54775000D01*
X99110862Y-54556534D01*
X99514534Y-54152862D01*
X99733000Y-53625439D01*
X99733000Y-53054561D01*
X99514534Y-52527138D01*
X99110862Y-52123466D01*
X98583439Y-51905000D01*
X98012561Y-51905000D01*
X97932999Y-51937956D01*
X97932999Y-51866417D01*
X97947006Y-51795999D01*
X97891514Y-51517020D01*
X97773373Y-51340210D01*
X97773372Y-51340209D01*
X97733484Y-51280513D01*
X97673789Y-51240626D01*
X96832533Y-50399371D01*
X96861809Y-50379809D01*
X97002157Y-50169765D01*
X97005275Y-50154092D01*
X97174493Y-50323310D01*
X97738670Y-50557000D01*
X98349330Y-50557000D01*
X98913507Y-50323310D01*
X99345310Y-49891507D01*
X99579000Y-49327330D01*
X99579000Y-48716670D01*
X99345310Y-48152493D01*
X98913507Y-47720690D01*
X98349330Y-47487000D01*
X97738670Y-47487000D01*
X97174493Y-47720690D01*
X97005275Y-47889908D01*
X97002157Y-47874235D01*
X96861809Y-47664191D01*
X96651765Y-47523843D01*
X96404000Y-47474560D01*
X94604000Y-47474560D01*
X94356235Y-47523843D01*
X94146191Y-47664191D01*
X94005843Y-47874235D01*
X93956560Y-48122000D01*
X93956560Y-49922000D01*
X94005843Y-50169765D01*
X94146191Y-50379809D01*
X94356235Y-50520157D01*
X94604000Y-50569440D01*
X94969775Y-50569440D01*
X94988515Y-50597486D01*
X95048213Y-50637375D01*
X96502999Y-52092162D01*
X96502999Y-52615172D01*
X96466534Y-52527138D01*
X96062862Y-52123466D01*
X95535439Y-51905000D01*
X94964561Y-51905000D01*
X94437138Y-52123466D01*
X94033466Y-52527138D01*
X93815000Y-53054561D01*
X93815000Y-53625439D01*
X94033466Y-54152862D01*
X94437138Y-54556534D01*
X94964561Y-54775000D01*
X95535439Y-54775000D01*
X96062862Y-54556534D01*
X96466534Y-54152862D01*
X96502999Y-54064827D01*
X96503000Y-60252315D01*
X96284577Y-59925423D01*
X95809909Y-59608260D01*
X95391333Y-59525000D01*
X95108667Y-59525000D01*
X94690091Y-59608260D01*
X94215423Y-59925423D01*
X93898260Y-60400091D01*
X93786887Y-60960000D01*
X93898260Y-61519909D01*
X94215423Y-61994577D01*
X94690091Y-62311740D01*
X95108667Y-62395000D01*
X95391333Y-62395000D01*
X95809909Y-62311740D01*
X96284577Y-61994577D01*
X96503000Y-61667684D01*
X96503000Y-66932560D01*
X95012000Y-66932560D01*
X94764235Y-66981843D01*
X94554191Y-67122191D01*
X94413843Y-67332235D01*
X94364560Y-67580000D01*
X94364560Y-69580000D01*
X94413843Y-69827765D01*
X94554191Y-70037809D01*
X94764235Y-70178157D01*
X95012000Y-70227440D01*
X95477775Y-70227440D01*
X95496515Y-70255486D01*
X95556213Y-70295375D01*
X96173001Y-70912164D01*
X96173001Y-75910922D01*
X95851134Y-75555611D01*
X95345041Y-75316086D01*
X95123000Y-75437371D01*
X95123000Y-76581000D01*
X95143000Y-76581000D01*
X95143000Y-76835000D01*
X95123000Y-76835000D01*
X95123000Y-77978629D01*
X95345041Y-78099914D01*
X95851134Y-77860389D01*
X96173002Y-77505077D01*
X96173002Y-79033000D01*
X96043750Y-79033000D01*
X95885000Y-79191750D01*
X95885000Y-80391000D01*
X95905000Y-80391000D01*
X95905000Y-80645000D01*
X95885000Y-80645000D01*
X95885000Y-81844250D01*
X95963793Y-81923043D01*
X93928838Y-83957998D01*
X93789044Y-83957998D01*
X93749000Y-83974585D01*
X93749000Y-80803750D01*
X94273000Y-80803750D01*
X94273000Y-81494309D01*
X94369673Y-81727698D01*
X94548301Y-81906327D01*
X94781690Y-82003000D01*
X95472250Y-82003000D01*
X95631000Y-81844250D01*
X95631000Y-80645000D01*
X94431750Y-80645000D01*
X94273000Y-80803750D01*
X93749000Y-80803750D01*
X93749000Y-79541691D01*
X94273000Y-79541691D01*
X94273000Y-80232250D01*
X94431750Y-80391000D01*
X95631000Y-80391000D01*
X95631000Y-79191750D01*
X95472250Y-79033000D01*
X94781690Y-79033000D01*
X94548301Y-79129673D01*
X94369673Y-79308302D01*
X94273000Y-79541691D01*
X93749000Y-79541691D01*
X93749000Y-77406892D01*
X93764959Y-77445423D01*
X94140866Y-77860389D01*
X94646959Y-78099914D01*
X94869000Y-77978629D01*
X94869000Y-76835000D01*
X94849000Y-76835000D01*
X94849000Y-76581000D01*
X94869000Y-76581000D01*
X94869000Y-75437371D01*
X94646959Y-75316086D01*
X94140866Y-75555611D01*
X93764959Y-75970577D01*
X93749000Y-76009108D01*
X93749000Y-55957310D01*
X93764378Y-55879999D01*
X93749000Y-55802689D01*
X93749000Y-55802684D01*
X93703454Y-55573708D01*
X93670000Y-55523641D01*
X93670000Y-55435044D01*
X93523849Y-55082203D01*
X93253797Y-54812151D01*
X92900956Y-54666000D01*
X92819999Y-54666000D01*
X92819999Y-49577817D01*
X92834006Y-49507400D01*
X92801711Y-49345042D01*
X92778514Y-49228422D01*
X92708473Y-49123599D01*
X92660373Y-49051612D01*
X92660372Y-49051611D01*
X92620484Y-48991915D01*
X92560789Y-48952028D01*
X91892000Y-48283240D01*
X91892000Y-48143446D01*
X91792988Y-47904408D01*
X92148534Y-47548862D01*
X92367000Y-47021439D01*
X92367000Y-46450561D01*
X92329488Y-46360000D01*
X112780000Y-46360000D01*
X112780000Y-48699771D01*
X112780000Y-48699771D01*
G37*
X112780000Y-48699771D02*
X112553310Y-48152493D01*
X112121507Y-47720690D01*
X111557330Y-47487000D01*
X110946670Y-47487000D01*
X110382493Y-47720690D01*
X110213275Y-47889908D01*
X110210157Y-47874235D01*
X110069809Y-47664191D01*
X109859765Y-47523843D01*
X109612000Y-47474560D01*
X107812000Y-47474560D01*
X107564235Y-47523843D01*
X107354191Y-47664191D01*
X107213843Y-47874235D01*
X107164560Y-48122000D01*
X107164560Y-49922000D01*
X107213843Y-50169765D01*
X107354191Y-50379809D01*
X107564235Y-50520157D01*
X107812000Y-50569440D01*
X108061001Y-50569440D01*
X108061001Y-52037610D01*
X107658777Y-51893035D01*
X107088546Y-51920222D01*
X106687995Y-52086136D01*
X106613861Y-52332255D01*
X107442000Y-53160395D01*
X107456142Y-53146252D01*
X107635748Y-53325858D01*
X107621605Y-53340000D01*
X107635748Y-53354143D01*
X107456142Y-53533748D01*
X107442000Y-53519605D01*
X106613861Y-54347745D01*
X106687995Y-54593864D01*
X107225223Y-54786965D01*
X107795454Y-54759778D01*
X108061001Y-54649785D01*
X108061001Y-59647744D01*
X108001909Y-59608260D01*
X107583333Y-59525000D01*
X107300667Y-59525000D01*
X106882091Y-59608260D01*
X106407423Y-59925423D01*
X106090260Y-60400091D01*
X105978887Y-60960000D01*
X106090260Y-61519909D01*
X106407423Y-61994577D01*
X106882091Y-62311740D01*
X107300667Y-62395000D01*
X107583333Y-62395000D01*
X108001909Y-62311740D01*
X108061001Y-62272256D01*
X108061001Y-63379490D01*
X107837333Y-63335000D01*
X107554667Y-63335000D01*
X107136091Y-63418260D01*
X106661423Y-63735423D01*
X106344260Y-64210091D01*
X106232887Y-64770000D01*
X106344260Y-65329909D01*
X106661423Y-65804577D01*
X107136091Y-66121740D01*
X107554667Y-66205000D01*
X107837333Y-66205000D01*
X108061001Y-66160510D01*
X108061002Y-70987956D01*
X107981439Y-70955000D01*
X107410561Y-70955000D01*
X106883138Y-71173466D01*
X106479466Y-71577138D01*
X106261000Y-72104561D01*
X106261000Y-72675439D01*
X106479466Y-73202862D01*
X106883138Y-73606534D01*
X107410561Y-73825000D01*
X107981439Y-73825000D01*
X108061002Y-73792044D01*
X108061002Y-82605352D01*
X107962152Y-82704202D01*
X107816001Y-83057043D01*
X107816001Y-83438955D01*
X107962152Y-83791796D01*
X108224090Y-84053734D01*
X107895375Y-84273375D01*
X107883184Y-84291619D01*
X107874157Y-84246235D01*
X107733809Y-84036191D01*
X107523765Y-83895843D01*
X107276000Y-83846560D01*
X105576000Y-83846560D01*
X105328235Y-83895843D01*
X105118191Y-84036191D01*
X104977843Y-84246235D01*
X104928560Y-84494000D01*
X104928560Y-86194000D01*
X104977843Y-86441765D01*
X105118191Y-86651809D01*
X105328235Y-86792157D01*
X105391001Y-86804642D01*
X105391000Y-88709358D01*
X105328235Y-88721843D01*
X105118191Y-88862191D01*
X104977843Y-89072235D01*
X104928560Y-89320000D01*
X104928560Y-91020000D01*
X104977843Y-91267765D01*
X105118191Y-91477809D01*
X105328235Y-91618157D01*
X105391001Y-91630642D01*
X105391001Y-92401290D01*
X104519236Y-93273055D01*
X104520930Y-93222231D01*
X104511333Y-93169399D01*
X104483803Y-93128197D01*
X104442601Y-93100667D01*
X104394000Y-93091000D01*
X103651000Y-93091000D01*
X103651000Y-92049934D01*
X103671276Y-91948000D01*
X103590948Y-91544163D01*
X103555993Y-91491849D01*
X103362193Y-91201807D01*
X103275776Y-91144065D01*
X102343733Y-90212023D01*
X102352092Y-90170000D01*
X102236839Y-89590582D01*
X101908625Y-89099375D01*
X101417418Y-88771161D01*
X100984256Y-88685000D01*
X100691744Y-88685000D01*
X100258582Y-88771161D01*
X99767375Y-89099375D01*
X99568000Y-89397761D01*
X99368625Y-89099375D01*
X98877418Y-88771161D01*
X98444256Y-88685000D01*
X98151744Y-88685000D01*
X97718582Y-88771161D01*
X97227375Y-89099375D01*
X97215184Y-89117619D01*
X97206157Y-89072235D01*
X97065809Y-88862191D01*
X96855765Y-88721843D01*
X96608000Y-88672560D01*
X94908000Y-88672560D01*
X94660235Y-88721843D01*
X94450191Y-88862191D01*
X94309843Y-89072235D01*
X94260560Y-89320000D01*
X94260560Y-91020000D01*
X94309843Y-91267765D01*
X94450191Y-91477809D01*
X94660235Y-91618157D01*
X94908000Y-91667440D01*
X94977001Y-91667440D01*
X94977001Y-93091000D01*
X93980000Y-93091000D01*
X93935472Y-93099062D01*
X93924000Y-93106168D01*
X93924000Y-92977043D01*
X93777849Y-92624202D01*
X93749000Y-92595353D01*
X93749000Y-85861411D01*
X93789044Y-85877998D01*
X94170956Y-85877998D01*
X94260560Y-85840883D01*
X94260560Y-86194000D01*
X94309843Y-86441765D01*
X94450191Y-86651809D01*
X94660235Y-86792157D01*
X94908000Y-86841440D01*
X96608000Y-86841440D01*
X96855765Y-86792157D01*
X97065809Y-86651809D01*
X97206157Y-86441765D01*
X97215184Y-86396381D01*
X97227375Y-86414625D01*
X97718582Y-86742839D01*
X98151744Y-86829000D01*
X98444256Y-86829000D01*
X98877418Y-86742839D01*
X99368625Y-86414625D01*
X99568000Y-86116239D01*
X99767375Y-86414625D01*
X100258582Y-86742839D01*
X100691744Y-86829000D01*
X100984256Y-86829000D01*
X101417418Y-86742839D01*
X101908625Y-86414625D01*
X102236839Y-85923418D01*
X102352092Y-85344000D01*
X102236839Y-84764582D01*
X101908625Y-84273375D01*
X101417418Y-83945161D01*
X100984256Y-83859000D01*
X100691744Y-83859000D01*
X100258582Y-83945161D01*
X99767375Y-84273375D01*
X99568000Y-84571761D01*
X99368625Y-84273375D01*
X98877418Y-83945161D01*
X98444256Y-83859000D01*
X98151744Y-83859000D01*
X97718582Y-83945161D01*
X97227375Y-84273375D01*
X97215184Y-84291619D01*
X97206157Y-84246235D01*
X97065809Y-84036191D01*
X96855765Y-83895843D01*
X96608000Y-83846560D01*
X96062601Y-83846560D01*
X97343789Y-82565372D01*
X97403487Y-82525483D01*
X97561516Y-82288976D01*
X97603001Y-82080415D01*
X97603001Y-82080411D01*
X97617007Y-82009998D01*
X97603001Y-81939585D01*
X97603001Y-81819435D01*
X97941110Y-81959476D01*
X98171000Y-81838155D01*
X98171000Y-80645000D01*
X98425000Y-80645000D01*
X98425000Y-81838155D01*
X98654890Y-81959476D01*
X99064924Y-81789645D01*
X99493183Y-81399358D01*
X99568000Y-81240046D01*
X99642817Y-81399358D01*
X100071076Y-81789645D01*
X100481110Y-81959476D01*
X100711000Y-81838155D01*
X100711000Y-80645000D01*
X98425000Y-80645000D01*
X98171000Y-80645000D01*
X98151000Y-80645000D01*
X98151000Y-80391000D01*
X98171000Y-80391000D01*
X98171000Y-79197845D01*
X97941110Y-79076524D01*
X97603001Y-79216565D01*
X97603001Y-70686413D01*
X97617007Y-70616000D01*
X97603001Y-70545587D01*
X97603001Y-70545583D01*
X97561516Y-70337022D01*
X97488295Y-70227440D01*
X97443375Y-70160212D01*
X97443374Y-70160211D01*
X97403486Y-70100515D01*
X97389725Y-70091320D01*
X97469809Y-70037809D01*
X97610157Y-69827765D01*
X97659440Y-69580000D01*
X97659440Y-68752602D01*
X98853000Y-69946163D01*
X98853001Y-77843353D01*
X98754151Y-77942203D01*
X98608000Y-78295044D01*
X98608000Y-78676956D01*
X98754151Y-79029797D01*
X98904096Y-79179742D01*
X98654890Y-79076524D01*
X98425000Y-79197845D01*
X98425000Y-80391000D01*
X100711000Y-80391000D01*
X100711000Y-80371000D01*
X100965000Y-80371000D01*
X100965000Y-80391000D01*
X100985000Y-80391000D01*
X100985000Y-80645000D01*
X100965000Y-80645000D01*
X100965000Y-81838155D01*
X101194890Y-81959476D01*
X101604924Y-81789645D01*
X101901000Y-81519820D01*
X101901001Y-82161353D01*
X101802151Y-82260203D01*
X101656000Y-82613044D01*
X101656000Y-82994956D01*
X101802151Y-83347797D01*
X102072203Y-83617849D01*
X102425044Y-83764000D01*
X102806956Y-83764000D01*
X103159797Y-83617849D01*
X103429849Y-83347797D01*
X103481232Y-83223745D01*
X105597861Y-83223745D01*
X105671995Y-83469864D01*
X106209223Y-83662965D01*
X106779454Y-83635778D01*
X107180005Y-83469864D01*
X107254139Y-83223745D01*
X106426000Y-82395605D01*
X105597861Y-83223745D01*
X103481232Y-83223745D01*
X103576000Y-82994956D01*
X103576000Y-82613044D01*
X103429849Y-82260203D01*
X103331000Y-82161354D01*
X103331000Y-81999223D01*
X104979035Y-81999223D01*
X105006222Y-82569454D01*
X105172136Y-82970005D01*
X105418255Y-83044139D01*
X106246395Y-82216000D01*
X106605605Y-82216000D01*
X107433745Y-83044139D01*
X107679864Y-82970005D01*
X107872965Y-82432777D01*
X107845778Y-81862546D01*
X107679864Y-81461995D01*
X107433745Y-81387861D01*
X106605605Y-82216000D01*
X106246395Y-82216000D01*
X105418255Y-81387861D01*
X105172136Y-81461995D01*
X104979035Y-81999223D01*
X103331000Y-81999223D01*
X103331000Y-81208255D01*
X105597861Y-81208255D01*
X106426000Y-82036395D01*
X107254139Y-81208255D01*
X107180005Y-80962136D01*
X106642777Y-80769035D01*
X106072546Y-80796222D01*
X105671995Y-80962136D01*
X105597861Y-81208255D01*
X103331000Y-81208255D01*
X103331000Y-80694014D01*
X103345007Y-80623597D01*
X103329519Y-80545736D01*
X103289515Y-80344619D01*
X103131485Y-80108112D01*
X103071790Y-80068225D01*
X102250999Y-79247435D01*
X102250999Y-78110044D01*
X102330561Y-78143000D01*
X102901439Y-78143000D01*
X103428862Y-77924534D01*
X103832534Y-77520862D01*
X104051000Y-76993439D01*
X104051000Y-76930561D01*
X104991000Y-76930561D01*
X104991000Y-77501439D01*
X105209466Y-78028862D01*
X105613138Y-78432534D01*
X106140561Y-78651000D01*
X106711439Y-78651000D01*
X107238862Y-78432534D01*
X107642534Y-78028862D01*
X107861000Y-77501439D01*
X107861000Y-76930561D01*
X107642534Y-76403138D01*
X107238862Y-75999466D01*
X106711439Y-75781000D01*
X106140561Y-75781000D01*
X105613138Y-75999466D01*
X105209466Y-76403138D01*
X104991000Y-76930561D01*
X104051000Y-76930561D01*
X104051000Y-76422561D01*
X103832534Y-75895138D01*
X103428862Y-75491466D01*
X103265876Y-75423955D01*
X103289515Y-75388577D01*
X103331000Y-75180016D01*
X103345007Y-75109599D01*
X103331000Y-75039182D01*
X103331000Y-71444412D01*
X103345006Y-71373999D01*
X103331000Y-71303586D01*
X103331000Y-71303582D01*
X103289515Y-71095021D01*
X103221346Y-70993000D01*
X103171374Y-70918211D01*
X103171373Y-70918210D01*
X103131485Y-70858514D01*
X103071790Y-70818627D01*
X102823000Y-70569838D01*
X102823000Y-70031064D01*
X103347461Y-70225908D01*
X103997460Y-70201856D01*
X104486264Y-69999387D01*
X104584927Y-69732532D01*
X103612000Y-68759605D01*
X103597858Y-68773748D01*
X103418253Y-68594143D01*
X103432395Y-68580000D01*
X103791605Y-68580000D01*
X104764532Y-69552927D01*
X105031387Y-69454264D01*
X105257908Y-68844539D01*
X105233856Y-68194540D01*
X105031387Y-67705736D01*
X104764532Y-67607073D01*
X103791605Y-68580000D01*
X103432395Y-68580000D01*
X103418253Y-68565858D01*
X103597858Y-68386253D01*
X103612000Y-68400395D01*
X104584927Y-67427468D01*
X104486264Y-67160613D01*
X103876539Y-66934092D01*
X103226540Y-66958144D01*
X103141001Y-66993575D01*
X103141001Y-61684828D01*
X103177466Y-61772862D01*
X103581138Y-62176534D01*
X104108561Y-62395000D01*
X104679439Y-62395000D01*
X105206862Y-62176534D01*
X105610534Y-61772862D01*
X105829000Y-61245439D01*
X105829000Y-60674561D01*
X105610534Y-60147138D01*
X105206862Y-59743466D01*
X104679439Y-59525000D01*
X104108561Y-59525000D01*
X103581138Y-59743466D01*
X103177466Y-60147138D01*
X103141001Y-60235172D01*
X103141001Y-54047685D01*
X103359423Y-54374577D01*
X103834091Y-54691740D01*
X104252667Y-54775000D01*
X104535333Y-54775000D01*
X104953909Y-54691740D01*
X105428577Y-54374577D01*
X105745740Y-53899909D01*
X105857113Y-53340000D01*
X105813994Y-53123223D01*
X105995035Y-53123223D01*
X106022222Y-53693454D01*
X106188136Y-54094005D01*
X106434255Y-54168139D01*
X107262395Y-53340000D01*
X106434255Y-52511861D01*
X106188136Y-52585995D01*
X105995035Y-53123223D01*
X105813994Y-53123223D01*
X105745740Y-52780091D01*
X105428577Y-52305423D01*
X104953909Y-51988260D01*
X104535333Y-51905000D01*
X104252667Y-51905000D01*
X103834091Y-51988260D01*
X103359423Y-52305423D01*
X103122781Y-52659583D01*
X103099516Y-52542620D01*
X102941486Y-52306113D01*
X102881788Y-52266224D01*
X102823000Y-52207436D01*
X102823000Y-50569440D01*
X103008000Y-50569440D01*
X103255765Y-50520157D01*
X103465809Y-50379809D01*
X103606157Y-50169765D01*
X103609275Y-50154092D01*
X103778493Y-50323310D01*
X104342670Y-50557000D01*
X104953330Y-50557000D01*
X105517507Y-50323310D01*
X105949310Y-49891507D01*
X106183000Y-49327330D01*
X106183000Y-48716670D01*
X105949310Y-48152493D01*
X105517507Y-47720690D01*
X104953330Y-47487000D01*
X104342670Y-47487000D01*
X103778493Y-47720690D01*
X103609275Y-47889908D01*
X103606157Y-47874235D01*
X103465809Y-47664191D01*
X103255765Y-47523843D01*
X103008000Y-47474560D01*
X101208000Y-47474560D01*
X100960235Y-47523843D01*
X100750191Y-47664191D01*
X100609843Y-47874235D01*
X100560560Y-48122000D01*
X100560560Y-49922000D01*
X100609843Y-50169765D01*
X100750191Y-50379809D01*
X100960235Y-50520157D01*
X101208000Y-50569440D01*
X101393000Y-50569440D01*
X101393001Y-51905000D01*
X101060561Y-51905000D01*
X100533138Y-52123466D01*
X100129466Y-52527138D01*
X99911000Y-53054561D01*
X99911000Y-53625439D01*
X100129466Y-54152862D01*
X100533138Y-54556534D01*
X101060561Y-54775000D01*
X101631439Y-54775000D01*
X101711001Y-54742044D01*
X101711001Y-59569490D01*
X101487333Y-59525000D01*
X101204667Y-59525000D01*
X100786091Y-59608260D01*
X100311423Y-59925423D01*
X99994260Y-60400091D01*
X99882887Y-60960000D01*
X99994260Y-61519909D01*
X100311423Y-61994577D01*
X100561000Y-62161339D01*
X100561000Y-63826587D01*
X100520956Y-63810000D01*
X100139044Y-63810000D01*
X99786203Y-63956151D01*
X99516151Y-64226203D01*
X99370000Y-64579044D01*
X99370000Y-64960956D01*
X99516151Y-65313797D01*
X99615001Y-65412647D01*
X99615001Y-68685838D01*
X97932999Y-67003837D01*
X97932999Y-62350510D01*
X98156667Y-62395000D01*
X98439333Y-62395000D01*
X98857909Y-62311740D01*
X99332577Y-61994577D01*
X99649740Y-61519909D01*
X99761113Y-60960000D01*
X99649740Y-60400091D01*
X99332577Y-59925423D01*
X98857909Y-59608260D01*
X98439333Y-59525000D01*
X98156667Y-59525000D01*
X97932999Y-59569490D01*
X97932999Y-54742044D01*
X98012561Y-54775000D01*
X98583439Y-54775000D01*
X99110862Y-54556534D01*
X99514534Y-54152862D01*
X99733000Y-53625439D01*
X99733000Y-53054561D01*
X99514534Y-52527138D01*
X99110862Y-52123466D01*
X98583439Y-51905000D01*
X98012561Y-51905000D01*
X97932999Y-51937956D01*
X97932999Y-51866417D01*
X97947006Y-51795999D01*
X97891514Y-51517020D01*
X97773373Y-51340210D01*
X97773372Y-51340209D01*
X97733484Y-51280513D01*
X97673789Y-51240626D01*
X96832533Y-50399371D01*
X96861809Y-50379809D01*
X97002157Y-50169765D01*
X97005275Y-50154092D01*
X97174493Y-50323310D01*
X97738670Y-50557000D01*
X98349330Y-50557000D01*
X98913507Y-50323310D01*
X99345310Y-49891507D01*
X99579000Y-49327330D01*
X99579000Y-48716670D01*
X99345310Y-48152493D01*
X98913507Y-47720690D01*
X98349330Y-47487000D01*
X97738670Y-47487000D01*
X97174493Y-47720690D01*
X97005275Y-47889908D01*
X97002157Y-47874235D01*
X96861809Y-47664191D01*
X96651765Y-47523843D01*
X96404000Y-47474560D01*
X94604000Y-47474560D01*
X94356235Y-47523843D01*
X94146191Y-47664191D01*
X94005843Y-47874235D01*
X93956560Y-48122000D01*
X93956560Y-49922000D01*
X94005843Y-50169765D01*
X94146191Y-50379809D01*
X94356235Y-50520157D01*
X94604000Y-50569440D01*
X94969775Y-50569440D01*
X94988515Y-50597486D01*
X95048213Y-50637375D01*
X96502999Y-52092162D01*
X96502999Y-52615172D01*
X96466534Y-52527138D01*
X96062862Y-52123466D01*
X95535439Y-51905000D01*
X94964561Y-51905000D01*
X94437138Y-52123466D01*
X94033466Y-52527138D01*
X93815000Y-53054561D01*
X93815000Y-53625439D01*
X94033466Y-54152862D01*
X94437138Y-54556534D01*
X94964561Y-54775000D01*
X95535439Y-54775000D01*
X96062862Y-54556534D01*
X96466534Y-54152862D01*
X96502999Y-54064827D01*
X96503000Y-60252315D01*
X96284577Y-59925423D01*
X95809909Y-59608260D01*
X95391333Y-59525000D01*
X95108667Y-59525000D01*
X94690091Y-59608260D01*
X94215423Y-59925423D01*
X93898260Y-60400091D01*
X93786887Y-60960000D01*
X93898260Y-61519909D01*
X94215423Y-61994577D01*
X94690091Y-62311740D01*
X95108667Y-62395000D01*
X95391333Y-62395000D01*
X95809909Y-62311740D01*
X96284577Y-61994577D01*
X96503000Y-61667684D01*
X96503000Y-66932560D01*
X95012000Y-66932560D01*
X94764235Y-66981843D01*
X94554191Y-67122191D01*
X94413843Y-67332235D01*
X94364560Y-67580000D01*
X94364560Y-69580000D01*
X94413843Y-69827765D01*
X94554191Y-70037809D01*
X94764235Y-70178157D01*
X95012000Y-70227440D01*
X95477775Y-70227440D01*
X95496515Y-70255486D01*
X95556213Y-70295375D01*
X96173001Y-70912164D01*
X96173001Y-75910922D01*
X95851134Y-75555611D01*
X95345041Y-75316086D01*
X95123000Y-75437371D01*
X95123000Y-76581000D01*
X95143000Y-76581000D01*
X95143000Y-76835000D01*
X95123000Y-76835000D01*
X95123000Y-77978629D01*
X95345041Y-78099914D01*
X95851134Y-77860389D01*
X96173002Y-77505077D01*
X96173002Y-79033000D01*
X96043750Y-79033000D01*
X95885000Y-79191750D01*
X95885000Y-80391000D01*
X95905000Y-80391000D01*
X95905000Y-80645000D01*
X95885000Y-80645000D01*
X95885000Y-81844250D01*
X95963793Y-81923043D01*
X93928838Y-83957998D01*
X93789044Y-83957998D01*
X93749000Y-83974585D01*
X93749000Y-80803750D01*
X94273000Y-80803750D01*
X94273000Y-81494309D01*
X94369673Y-81727698D01*
X94548301Y-81906327D01*
X94781690Y-82003000D01*
X95472250Y-82003000D01*
X95631000Y-81844250D01*
X95631000Y-80645000D01*
X94431750Y-80645000D01*
X94273000Y-80803750D01*
X93749000Y-80803750D01*
X93749000Y-79541691D01*
X94273000Y-79541691D01*
X94273000Y-80232250D01*
X94431750Y-80391000D01*
X95631000Y-80391000D01*
X95631000Y-79191750D01*
X95472250Y-79033000D01*
X94781690Y-79033000D01*
X94548301Y-79129673D01*
X94369673Y-79308302D01*
X94273000Y-79541691D01*
X93749000Y-79541691D01*
X93749000Y-77406892D01*
X93764959Y-77445423D01*
X94140866Y-77860389D01*
X94646959Y-78099914D01*
X94869000Y-77978629D01*
X94869000Y-76835000D01*
X94849000Y-76835000D01*
X94849000Y-76581000D01*
X94869000Y-76581000D01*
X94869000Y-75437371D01*
X94646959Y-75316086D01*
X94140866Y-75555611D01*
X93764959Y-75970577D01*
X93749000Y-76009108D01*
X93749000Y-55957310D01*
X93764378Y-55879999D01*
X93749000Y-55802689D01*
X93749000Y-55802684D01*
X93703454Y-55573708D01*
X93670000Y-55523641D01*
X93670000Y-55435044D01*
X93523849Y-55082203D01*
X93253797Y-54812151D01*
X92900956Y-54666000D01*
X92819999Y-54666000D01*
X92819999Y-49577817D01*
X92834006Y-49507400D01*
X92801711Y-49345042D01*
X92778514Y-49228422D01*
X92708473Y-49123599D01*
X92660373Y-49051612D01*
X92660372Y-49051611D01*
X92620484Y-48991915D01*
X92560789Y-48952028D01*
X91892000Y-48283240D01*
X91892000Y-48143446D01*
X91792988Y-47904408D01*
X92148534Y-47548862D01*
X92367000Y-47021439D01*
X92367000Y-46450561D01*
X92329488Y-46360000D01*
X112780000Y-46360000D01*
X112780000Y-48699771D01*
G36*
X69480430Y-74145713D02*
X69560822Y-74549872D01*
X69867061Y-75008190D01*
X70325379Y-75314428D01*
X70866000Y-75421964D01*
X71406622Y-75314428D01*
X71864940Y-75008190D01*
X72136000Y-74602520D01*
X72407061Y-75008190D01*
X72865379Y-75314428D01*
X73406000Y-75421964D01*
X73946622Y-75314428D01*
X73961000Y-75304821D01*
X73961001Y-84822087D01*
X73677060Y-85011811D01*
X73406000Y-85417481D01*
X73134939Y-85011810D01*
X72676621Y-84705572D01*
X72136000Y-84598036D01*
X71595378Y-84705572D01*
X71137060Y-85011811D01*
X70850455Y-85440746D01*
X70827499Y-85363183D01*
X70485944Y-84941202D01*
X70008903Y-84682050D01*
X69937275Y-84667867D01*
X69723000Y-84790521D01*
X69723000Y-86233000D01*
X69743000Y-86233000D01*
X69743000Y-86487000D01*
X69723000Y-86487000D01*
X69723000Y-87929479D01*
X69937275Y-88052133D01*
X70008903Y-88037950D01*
X70485944Y-87778798D01*
X70827499Y-87356817D01*
X70850455Y-87279255D01*
X71137061Y-87708190D01*
X71595379Y-88014428D01*
X72136000Y-88121964D01*
X72676622Y-88014428D01*
X73134940Y-87708190D01*
X73406000Y-87302520D01*
X73677061Y-87708190D01*
X74135379Y-88014428D01*
X74676000Y-88121964D01*
X75216622Y-88014428D01*
X75674940Y-87708190D01*
X75946000Y-87302520D01*
X76217061Y-87708190D01*
X76675379Y-88014428D01*
X77216000Y-88121964D01*
X77756622Y-88014428D01*
X78214940Y-87708190D01*
X78486000Y-87302520D01*
X78757061Y-87708190D01*
X79215379Y-88014428D01*
X79756000Y-88121964D01*
X80296622Y-88014428D01*
X80754940Y-87708190D01*
X81026000Y-87302520D01*
X81297061Y-87708190D01*
X81755379Y-88014428D01*
X82296000Y-88121964D01*
X82836622Y-88014428D01*
X83294940Y-87708190D01*
X83566000Y-87302520D01*
X83837061Y-87708190D01*
X84295379Y-88014428D01*
X84836000Y-88121964D01*
X85376622Y-88014428D01*
X85834940Y-87708190D01*
X86106000Y-87302520D01*
X86377061Y-87708190D01*
X86835379Y-88014428D01*
X87376000Y-88121964D01*
X87916622Y-88014428D01*
X88374940Y-87708190D01*
X88646000Y-87302520D01*
X88917061Y-87708190D01*
X89375379Y-88014428D01*
X89916000Y-88121964D01*
X90456622Y-88014428D01*
X90914940Y-87708190D01*
X91221178Y-87249872D01*
X91301570Y-86845712D01*
X91301570Y-85874287D01*
X91221178Y-85470128D01*
X90914939Y-85011810D01*
X90557125Y-84772727D01*
X90487060Y-84667867D01*
X90471374Y-84644391D01*
X90471373Y-84644390D01*
X90431485Y-84584694D01*
X90371790Y-84544807D01*
X89121580Y-83294598D01*
X89121580Y-80031402D01*
X89439750Y-80125570D01*
X89789000Y-80125570D01*
X89789000Y-78867000D01*
X89769000Y-78867000D01*
X89769000Y-78613000D01*
X89789000Y-78613000D01*
X89789000Y-78593000D01*
X90043000Y-78593000D01*
X90043000Y-78613000D01*
X90063000Y-78613000D01*
X90063000Y-78867000D01*
X90043000Y-78867000D01*
X90043000Y-80125570D01*
X90392250Y-80125570D01*
X90725001Y-80027087D01*
X90725001Y-81653353D01*
X90626151Y-81752203D01*
X90480000Y-82105044D01*
X90480000Y-82486956D01*
X90626151Y-82839797D01*
X90896203Y-83109849D01*
X91249044Y-83256000D01*
X91417001Y-83256000D01*
X91417001Y-89977353D01*
X91351000Y-90043354D01*
X91351000Y-89884561D01*
X91132534Y-89357138D01*
X90728862Y-88953466D01*
X90201439Y-88735000D01*
X89630561Y-88735000D01*
X89103138Y-88953466D01*
X88699466Y-89357138D01*
X88481000Y-89884561D01*
X88481000Y-90455439D01*
X88492541Y-90483302D01*
X88320843Y-90655000D01*
X86266555Y-90655000D01*
X86362965Y-90386777D01*
X86335778Y-89816546D01*
X86233000Y-89568418D01*
X86233000Y-88646000D01*
X86223333Y-88597399D01*
X86195803Y-88556197D01*
X86154601Y-88528667D01*
X86106000Y-88519000D01*
X75088326Y-88519000D01*
X75011765Y-88467843D01*
X74764000Y-88418560D01*
X73064000Y-88418560D01*
X72816235Y-88467843D01*
X72606191Y-88608191D01*
X72465843Y-88818235D01*
X72456816Y-88863619D01*
X72444625Y-88845375D01*
X71953418Y-88517161D01*
X71520256Y-88431000D01*
X71227744Y-88431000D01*
X70794582Y-88517161D01*
X70303375Y-88845375D01*
X69975161Y-89336582D01*
X69859908Y-89916000D01*
X69975161Y-90495418D01*
X70081790Y-90655000D01*
X69419312Y-90655000D01*
X69342000Y-90639622D01*
X69264688Y-90655000D01*
X69264684Y-90655000D01*
X69035708Y-90700546D01*
X68776047Y-90874047D01*
X68732251Y-90939592D01*
X68429843Y-91242000D01*
X68389044Y-91242000D01*
X68345000Y-91260244D01*
X68345000Y-91010429D01*
X68380625Y-90986625D01*
X68708839Y-90495418D01*
X68824092Y-89916000D01*
X68758040Y-89583932D01*
X68769746Y-89566412D01*
X68769748Y-89566410D01*
X68899453Y-89372293D01*
X68900692Y-89366066D01*
X68944999Y-89143317D01*
X68944999Y-89143314D01*
X68960377Y-89066002D01*
X68944999Y-88988690D01*
X68944999Y-87908604D01*
X69183097Y-88037950D01*
X69254725Y-88052133D01*
X69469000Y-87929479D01*
X69469000Y-86487000D01*
X69449000Y-86487000D01*
X69449000Y-86233000D01*
X69469000Y-86233000D01*
X69469000Y-84790521D01*
X69254725Y-84667867D01*
X69183097Y-84682050D01*
X68944999Y-84811396D01*
X68944999Y-74280978D01*
X69480430Y-73745548D01*
X69480430Y-74145713D01*
X69480430Y-74145713D01*
G37*
X69480430Y-74145713D02*
X69560822Y-74549872D01*
X69867061Y-75008190D01*
X70325379Y-75314428D01*
X70866000Y-75421964D01*
X71406622Y-75314428D01*
X71864940Y-75008190D01*
X72136000Y-74602520D01*
X72407061Y-75008190D01*
X72865379Y-75314428D01*
X73406000Y-75421964D01*
X73946622Y-75314428D01*
X73961000Y-75304821D01*
X73961001Y-84822087D01*
X73677060Y-85011811D01*
X73406000Y-85417481D01*
X73134939Y-85011810D01*
X72676621Y-84705572D01*
X72136000Y-84598036D01*
X71595378Y-84705572D01*
X71137060Y-85011811D01*
X70850455Y-85440746D01*
X70827499Y-85363183D01*
X70485944Y-84941202D01*
X70008903Y-84682050D01*
X69937275Y-84667867D01*
X69723000Y-84790521D01*
X69723000Y-86233000D01*
X69743000Y-86233000D01*
X69743000Y-86487000D01*
X69723000Y-86487000D01*
X69723000Y-87929479D01*
X69937275Y-88052133D01*
X70008903Y-88037950D01*
X70485944Y-87778798D01*
X70827499Y-87356817D01*
X70850455Y-87279255D01*
X71137061Y-87708190D01*
X71595379Y-88014428D01*
X72136000Y-88121964D01*
X72676622Y-88014428D01*
X73134940Y-87708190D01*
X73406000Y-87302520D01*
X73677061Y-87708190D01*
X74135379Y-88014428D01*
X74676000Y-88121964D01*
X75216622Y-88014428D01*
X75674940Y-87708190D01*
X75946000Y-87302520D01*
X76217061Y-87708190D01*
X76675379Y-88014428D01*
X77216000Y-88121964D01*
X77756622Y-88014428D01*
X78214940Y-87708190D01*
X78486000Y-87302520D01*
X78757061Y-87708190D01*
X79215379Y-88014428D01*
X79756000Y-88121964D01*
X80296622Y-88014428D01*
X80754940Y-87708190D01*
X81026000Y-87302520D01*
X81297061Y-87708190D01*
X81755379Y-88014428D01*
X82296000Y-88121964D01*
X82836622Y-88014428D01*
X83294940Y-87708190D01*
X83566000Y-87302520D01*
X83837061Y-87708190D01*
X84295379Y-88014428D01*
X84836000Y-88121964D01*
X85376622Y-88014428D01*
X85834940Y-87708190D01*
X86106000Y-87302520D01*
X86377061Y-87708190D01*
X86835379Y-88014428D01*
X87376000Y-88121964D01*
X87916622Y-88014428D01*
X88374940Y-87708190D01*
X88646000Y-87302520D01*
X88917061Y-87708190D01*
X89375379Y-88014428D01*
X89916000Y-88121964D01*
X90456622Y-88014428D01*
X90914940Y-87708190D01*
X91221178Y-87249872D01*
X91301570Y-86845712D01*
X91301570Y-85874287D01*
X91221178Y-85470128D01*
X90914939Y-85011810D01*
X90557125Y-84772727D01*
X90487060Y-84667867D01*
X90471374Y-84644391D01*
X90471373Y-84644390D01*
X90431485Y-84584694D01*
X90371790Y-84544807D01*
X89121580Y-83294598D01*
X89121580Y-80031402D01*
X89439750Y-80125570D01*
X89789000Y-80125570D01*
X89789000Y-78867000D01*
X89769000Y-78867000D01*
X89769000Y-78613000D01*
X89789000Y-78613000D01*
X89789000Y-78593000D01*
X90043000Y-78593000D01*
X90043000Y-78613000D01*
X90063000Y-78613000D01*
X90063000Y-78867000D01*
X90043000Y-78867000D01*
X90043000Y-80125570D01*
X90392250Y-80125570D01*
X90725001Y-80027087D01*
X90725001Y-81653353D01*
X90626151Y-81752203D01*
X90480000Y-82105044D01*
X90480000Y-82486956D01*
X90626151Y-82839797D01*
X90896203Y-83109849D01*
X91249044Y-83256000D01*
X91417001Y-83256000D01*
X91417001Y-89977353D01*
X91351000Y-90043354D01*
X91351000Y-89884561D01*
X91132534Y-89357138D01*
X90728862Y-88953466D01*
X90201439Y-88735000D01*
X89630561Y-88735000D01*
X89103138Y-88953466D01*
X88699466Y-89357138D01*
X88481000Y-89884561D01*
X88481000Y-90455439D01*
X88492541Y-90483302D01*
X88320843Y-90655000D01*
X86266555Y-90655000D01*
X86362965Y-90386777D01*
X86335778Y-89816546D01*
X86233000Y-89568418D01*
X86233000Y-88646000D01*
X86223333Y-88597399D01*
X86195803Y-88556197D01*
X86154601Y-88528667D01*
X86106000Y-88519000D01*
X75088326Y-88519000D01*
X75011765Y-88467843D01*
X74764000Y-88418560D01*
X73064000Y-88418560D01*
X72816235Y-88467843D01*
X72606191Y-88608191D01*
X72465843Y-88818235D01*
X72456816Y-88863619D01*
X72444625Y-88845375D01*
X71953418Y-88517161D01*
X71520256Y-88431000D01*
X71227744Y-88431000D01*
X70794582Y-88517161D01*
X70303375Y-88845375D01*
X69975161Y-89336582D01*
X69859908Y-89916000D01*
X69975161Y-90495418D01*
X70081790Y-90655000D01*
X69419312Y-90655000D01*
X69342000Y-90639622D01*
X69264688Y-90655000D01*
X69264684Y-90655000D01*
X69035708Y-90700546D01*
X68776047Y-90874047D01*
X68732251Y-90939592D01*
X68429843Y-91242000D01*
X68389044Y-91242000D01*
X68345000Y-91260244D01*
X68345000Y-91010429D01*
X68380625Y-90986625D01*
X68708839Y-90495418D01*
X68824092Y-89916000D01*
X68758040Y-89583932D01*
X68769746Y-89566412D01*
X68769748Y-89566410D01*
X68899453Y-89372293D01*
X68900692Y-89366066D01*
X68944999Y-89143317D01*
X68944999Y-89143314D01*
X68960377Y-89066002D01*
X68944999Y-88988690D01*
X68944999Y-87908604D01*
X69183097Y-88037950D01*
X69254725Y-88052133D01*
X69469000Y-87929479D01*
X69469000Y-86487000D01*
X69449000Y-86487000D01*
X69449000Y-86233000D01*
X69469000Y-86233000D01*
X69469000Y-84790521D01*
X69254725Y-84667867D01*
X69183097Y-84682050D01*
X68944999Y-84811396D01*
X68944999Y-74280978D01*
X69480430Y-73745548D01*
X69480430Y-74145713D01*
G36*
X86377061Y-72468190D02*
X86835379Y-72774428D01*
X87376000Y-72881964D01*
X87691580Y-72819191D01*
X87691581Y-83520338D01*
X87677573Y-83590760D01*
X87717562Y-83791796D01*
X87733066Y-83869739D01*
X87891095Y-84106246D01*
X87950793Y-84146135D01*
X88876769Y-85072111D01*
X88646000Y-85417481D01*
X88374939Y-85011810D01*
X87916621Y-84705572D01*
X87376000Y-84598036D01*
X86835378Y-84705572D01*
X86377060Y-85011811D01*
X86106000Y-85417481D01*
X85834939Y-85011810D01*
X85376621Y-84705572D01*
X84836000Y-84598036D01*
X84295378Y-84705572D01*
X83837060Y-85011811D01*
X83566000Y-85417481D01*
X83294939Y-85011810D01*
X83011000Y-84822088D01*
X83011000Y-80906646D01*
X83109849Y-80807797D01*
X83256000Y-80454956D01*
X83256000Y-80073044D01*
X83109849Y-79720203D01*
X82839797Y-79450151D01*
X82486956Y-79304000D01*
X82105044Y-79304000D01*
X81752203Y-79450151D01*
X81482151Y-79720203D01*
X81336000Y-80073044D01*
X81336000Y-80454956D01*
X81482151Y-80807797D01*
X81581001Y-80906647D01*
X81581000Y-84822088D01*
X81297060Y-85011811D01*
X81026000Y-85417481D01*
X80754939Y-85011810D01*
X80397125Y-84772727D01*
X80327060Y-84667867D01*
X80311374Y-84644391D01*
X80311373Y-84644390D01*
X80271485Y-84584694D01*
X80211790Y-84544807D01*
X79440420Y-83773438D01*
X79440420Y-72819191D01*
X79700762Y-72870977D01*
X79640430Y-73174288D01*
X79640430Y-74145713D01*
X79720822Y-74549872D01*
X80027061Y-75008190D01*
X80485379Y-75314428D01*
X81026000Y-75421964D01*
X81566622Y-75314428D01*
X82024940Y-75008190D01*
X82296000Y-74602520D01*
X82567061Y-75008190D01*
X83025379Y-75314428D01*
X83566000Y-75421964D01*
X84106622Y-75314428D01*
X84564940Y-75008190D01*
X84871178Y-74549872D01*
X84951570Y-74145712D01*
X84951570Y-73174287D01*
X84891238Y-72870977D01*
X85376622Y-72774428D01*
X85834940Y-72468190D01*
X86106000Y-72062520D01*
X86377061Y-72468190D01*
X86377061Y-72468190D01*
G37*
X86377061Y-72468190D02*
X86835379Y-72774428D01*
X87376000Y-72881964D01*
X87691580Y-72819191D01*
X87691581Y-83520338D01*
X87677573Y-83590760D01*
X87717562Y-83791796D01*
X87733066Y-83869739D01*
X87891095Y-84106246D01*
X87950793Y-84146135D01*
X88876769Y-85072111D01*
X88646000Y-85417481D01*
X88374939Y-85011810D01*
X87916621Y-84705572D01*
X87376000Y-84598036D01*
X86835378Y-84705572D01*
X86377060Y-85011811D01*
X86106000Y-85417481D01*
X85834939Y-85011810D01*
X85376621Y-84705572D01*
X84836000Y-84598036D01*
X84295378Y-84705572D01*
X83837060Y-85011811D01*
X83566000Y-85417481D01*
X83294939Y-85011810D01*
X83011000Y-84822088D01*
X83011000Y-80906646D01*
X83109849Y-80807797D01*
X83256000Y-80454956D01*
X83256000Y-80073044D01*
X83109849Y-79720203D01*
X82839797Y-79450151D01*
X82486956Y-79304000D01*
X82105044Y-79304000D01*
X81752203Y-79450151D01*
X81482151Y-79720203D01*
X81336000Y-80073044D01*
X81336000Y-80454956D01*
X81482151Y-80807797D01*
X81581001Y-80906647D01*
X81581000Y-84822088D01*
X81297060Y-85011811D01*
X81026000Y-85417481D01*
X80754939Y-85011810D01*
X80397125Y-84772727D01*
X80327060Y-84667867D01*
X80311374Y-84644391D01*
X80311373Y-84644390D01*
X80271485Y-84584694D01*
X80211790Y-84544807D01*
X79440420Y-83773438D01*
X79440420Y-72819191D01*
X79700762Y-72870977D01*
X79640430Y-73174288D01*
X79640430Y-74145713D01*
X79720822Y-74549872D01*
X80027061Y-75008190D01*
X80485379Y-75314428D01*
X81026000Y-75421964D01*
X81566622Y-75314428D01*
X82024940Y-75008190D01*
X82296000Y-74602520D01*
X82567061Y-75008190D01*
X83025379Y-75314428D01*
X83566000Y-75421964D01*
X84106622Y-75314428D01*
X84564940Y-75008190D01*
X84871178Y-74549872D01*
X84951570Y-74145712D01*
X84951570Y-73174287D01*
X84891238Y-72870977D01*
X85376622Y-72774428D01*
X85834940Y-72468190D01*
X86106000Y-72062520D01*
X86377061Y-72468190D01*
G36*
X66512203Y-77013849D02*
X66865044Y-77160000D01*
X67246956Y-77160000D01*
X67375000Y-77106963D01*
X67374999Y-84408016D01*
X66261580Y-83294598D01*
X66261580Y-76763226D01*
X66512203Y-77013849D01*
X66512203Y-77013849D01*
G37*
X66512203Y-77013849D02*
X66865044Y-77160000D01*
X67246956Y-77160000D01*
X67375000Y-77106963D01*
X67374999Y-84408016D01*
X66261580Y-83294598D01*
X66261580Y-76763226D01*
X66512203Y-77013849D01*
G36*
X64643000Y-70993000D02*
X64663000Y-70993000D01*
X64663000Y-71247000D01*
X64643000Y-71247000D01*
X64643000Y-71267000D01*
X64389000Y-71267000D01*
X64389000Y-71247000D01*
X64369000Y-71247000D01*
X64369000Y-70993000D01*
X64389000Y-70993000D01*
X64389000Y-70973000D01*
X64643000Y-70973000D01*
X64643000Y-70993000D01*
X64643000Y-70993000D01*
G37*
X64643000Y-70993000D02*
X64663000Y-70993000D01*
X64663000Y-71247000D01*
X64643000Y-71247000D01*
X64643000Y-71267000D01*
X64389000Y-71267000D01*
X64389000Y-71247000D01*
X64369000Y-71247000D01*
X64369000Y-70993000D01*
X64389000Y-70993000D01*
X64389000Y-70973000D01*
X64643000Y-70973000D01*
X64643000Y-70993000D01*
G36*
X81727748Y-67009858D02*
X81713605Y-67024000D01*
X81727748Y-67038142D01*
X81548142Y-67217748D01*
X81534000Y-67203605D01*
X80705861Y-68031745D01*
X80779995Y-68277864D01*
X81317223Y-68470965D01*
X81336000Y-68470070D01*
X81336000Y-68770956D01*
X81482151Y-69123797D01*
X81581001Y-69222647D01*
X81581001Y-69582088D01*
X81297060Y-69771811D01*
X81026000Y-70177481D01*
X80754939Y-69771810D01*
X80397126Y-69532727D01*
X80323010Y-69421805D01*
X80323010Y-67790919D01*
X80526255Y-67852139D01*
X81354395Y-67024000D01*
X81340252Y-67009858D01*
X81519858Y-66830253D01*
X81534000Y-66844395D01*
X81548143Y-66830253D01*
X81727748Y-67009858D01*
X81727748Y-67009858D01*
G37*
X81727748Y-67009858D02*
X81713605Y-67024000D01*
X81727748Y-67038142D01*
X81548142Y-67217748D01*
X81534000Y-67203605D01*
X80705861Y-68031745D01*
X80779995Y-68277864D01*
X81317223Y-68470965D01*
X81336000Y-68470070D01*
X81336000Y-68770956D01*
X81482151Y-69123797D01*
X81581001Y-69222647D01*
X81581001Y-69582088D01*
X81297060Y-69771811D01*
X81026000Y-70177481D01*
X80754939Y-69771810D01*
X80397126Y-69532727D01*
X80323010Y-69421805D01*
X80323010Y-67790919D01*
X80526255Y-67852139D01*
X81354395Y-67024000D01*
X81340252Y-67009858D01*
X81519858Y-66830253D01*
X81534000Y-66844395D01*
X81548143Y-66830253D01*
X81727748Y-67009858D01*
G36*
X66497138Y-68018534D02*
X67024561Y-68237000D01*
X67371580Y-68237000D01*
X67371580Y-69420809D01*
X67056000Y-69358036D01*
X66515378Y-69465572D01*
X66261580Y-69635155D01*
X66261580Y-67782976D01*
X66497138Y-68018534D01*
X66497138Y-68018534D01*
G37*
X66497138Y-68018534D02*
X67024561Y-68237000D01*
X67371580Y-68237000D01*
X67371580Y-69420809D01*
X67056000Y-69358036D01*
X66515378Y-69465572D01*
X66261580Y-69635155D01*
X66261580Y-67782976D01*
X66497138Y-68018534D01*
G36*
X76581000Y-66929000D02*
X76601000Y-66929000D01*
X76601000Y-67183000D01*
X76581000Y-67183000D01*
X76581000Y-67203000D01*
X76327000Y-67203000D01*
X76327000Y-67183000D01*
X76307000Y-67183000D01*
X76307000Y-66929000D01*
X76327000Y-66929000D01*
X76327000Y-66909000D01*
X76581000Y-66909000D01*
X76581000Y-66929000D01*
X76581000Y-66929000D01*
G37*
X76581000Y-66929000D02*
X76601000Y-66929000D01*
X76601000Y-67183000D01*
X76581000Y-67183000D01*
X76581000Y-67203000D01*
X76327000Y-67203000D01*
X76327000Y-67183000D01*
X76307000Y-67183000D01*
X76307000Y-66929000D01*
X76327000Y-66929000D01*
X76327000Y-66909000D01*
X76581000Y-66909000D01*
X76581000Y-66929000D01*
G36*
X67324999Y-65367000D02*
X67024561Y-65367000D01*
X66497138Y-65585466D01*
X66261580Y-65821024D01*
X66261580Y-65051582D01*
X67325000Y-63988163D01*
X67324999Y-65367000D01*
X67324999Y-65367000D01*
G37*
X67324999Y-65367000D02*
X67024561Y-65367000D01*
X66497138Y-65585466D01*
X66261580Y-65821024D01*
X66261580Y-65051582D01*
X67325000Y-63988163D01*
X67324999Y-65367000D01*
G36*
X112780000Y-61656980D02*
X112458956Y-61524000D01*
X112077044Y-61524000D01*
X111724203Y-61670151D01*
X111454151Y-61940203D01*
X111308000Y-62293044D01*
X111308000Y-62674956D01*
X111454151Y-63027797D01*
X111724203Y-63297849D01*
X111877999Y-63361553D01*
X111877999Y-63454894D01*
X111608892Y-63328514D01*
X111379000Y-63449181D01*
X111379000Y-64643000D01*
X111399000Y-64643000D01*
X111399000Y-64897000D01*
X111379000Y-64897000D01*
X111379000Y-64917000D01*
X111125000Y-64917000D01*
X111125000Y-64897000D01*
X111105000Y-64897000D01*
X111105000Y-64643000D01*
X111125000Y-64643000D01*
X111125000Y-63449181D01*
X110895108Y-63328514D01*
X110370642Y-63574817D01*
X110189000Y-63774131D01*
X110189000Y-60414162D01*
X110868699Y-59734464D01*
X110966561Y-59775000D01*
X111537439Y-59775000D01*
X112064862Y-59556534D01*
X112468534Y-59152862D01*
X112687000Y-58625439D01*
X112687000Y-58054561D01*
X112468534Y-57527138D01*
X112064862Y-57123466D01*
X111537439Y-56905000D01*
X110966561Y-56905000D01*
X110439138Y-57123466D01*
X110035466Y-57527138D01*
X109817000Y-58054561D01*
X109817000Y-58625439D01*
X109857536Y-58723301D01*
X109491001Y-59089837D01*
X109491001Y-54347745D01*
X110423861Y-54347745D01*
X110497995Y-54593864D01*
X111035223Y-54786965D01*
X111605454Y-54759778D01*
X112006005Y-54593864D01*
X112080139Y-54347745D01*
X111252000Y-53519605D01*
X110423861Y-54347745D01*
X109491001Y-54347745D01*
X109491001Y-53123223D01*
X109805035Y-53123223D01*
X109832222Y-53693454D01*
X109998136Y-54094005D01*
X110244255Y-54168139D01*
X111072395Y-53340000D01*
X111431605Y-53340000D01*
X112259745Y-54168139D01*
X112505864Y-54094005D01*
X112698965Y-53556777D01*
X112671778Y-52986546D01*
X112505864Y-52585995D01*
X112259745Y-52511861D01*
X111431605Y-53340000D01*
X111072395Y-53340000D01*
X110244255Y-52511861D01*
X109998136Y-52585995D01*
X109805035Y-53123223D01*
X109491001Y-53123223D01*
X109491001Y-52332255D01*
X110423861Y-52332255D01*
X111252000Y-53160395D01*
X112080139Y-52332255D01*
X112006005Y-52086136D01*
X111468777Y-51893035D01*
X110898546Y-51920222D01*
X110497995Y-52086136D01*
X110423861Y-52332255D01*
X109491001Y-52332255D01*
X109491001Y-50569440D01*
X109612000Y-50569440D01*
X109859765Y-50520157D01*
X110069809Y-50379809D01*
X110210157Y-50169765D01*
X110213275Y-50154092D01*
X110382493Y-50323310D01*
X110946670Y-50557000D01*
X111557330Y-50557000D01*
X112121507Y-50323310D01*
X112553310Y-49891507D01*
X112780000Y-49344229D01*
X112780000Y-61656980D01*
X112780000Y-61656980D01*
G37*
X112780000Y-61656980D02*
X112458956Y-61524000D01*
X112077044Y-61524000D01*
X111724203Y-61670151D01*
X111454151Y-61940203D01*
X111308000Y-62293044D01*
X111308000Y-62674956D01*
X111454151Y-63027797D01*
X111724203Y-63297849D01*
X111877999Y-63361553D01*
X111877999Y-63454894D01*
X111608892Y-63328514D01*
X111379000Y-63449181D01*
X111379000Y-64643000D01*
X111399000Y-64643000D01*
X111399000Y-64897000D01*
X111379000Y-64897000D01*
X111379000Y-64917000D01*
X111125000Y-64917000D01*
X111125000Y-64897000D01*
X111105000Y-64897000D01*
X111105000Y-64643000D01*
X111125000Y-64643000D01*
X111125000Y-63449181D01*
X110895108Y-63328514D01*
X110370642Y-63574817D01*
X110189000Y-63774131D01*
X110189000Y-60414162D01*
X110868699Y-59734464D01*
X110966561Y-59775000D01*
X111537439Y-59775000D01*
X112064862Y-59556534D01*
X112468534Y-59152862D01*
X112687000Y-58625439D01*
X112687000Y-58054561D01*
X112468534Y-57527138D01*
X112064862Y-57123466D01*
X111537439Y-56905000D01*
X110966561Y-56905000D01*
X110439138Y-57123466D01*
X110035466Y-57527138D01*
X109817000Y-58054561D01*
X109817000Y-58625439D01*
X109857536Y-58723301D01*
X109491001Y-59089837D01*
X109491001Y-54347745D01*
X110423861Y-54347745D01*
X110497995Y-54593864D01*
X111035223Y-54786965D01*
X111605454Y-54759778D01*
X112006005Y-54593864D01*
X112080139Y-54347745D01*
X111252000Y-53519605D01*
X110423861Y-54347745D01*
X109491001Y-54347745D01*
X109491001Y-53123223D01*
X109805035Y-53123223D01*
X109832222Y-53693454D01*
X109998136Y-54094005D01*
X110244255Y-54168139D01*
X111072395Y-53340000D01*
X111431605Y-53340000D01*
X112259745Y-54168139D01*
X112505864Y-54094005D01*
X112698965Y-53556777D01*
X112671778Y-52986546D01*
X112505864Y-52585995D01*
X112259745Y-52511861D01*
X111431605Y-53340000D01*
X111072395Y-53340000D01*
X110244255Y-52511861D01*
X109998136Y-52585995D01*
X109805035Y-53123223D01*
X109491001Y-53123223D01*
X109491001Y-52332255D01*
X110423861Y-52332255D01*
X111252000Y-53160395D01*
X112080139Y-52332255D01*
X112006005Y-52086136D01*
X111468777Y-51893035D01*
X110898546Y-51920222D01*
X110497995Y-52086136D01*
X110423861Y-52332255D01*
X109491001Y-52332255D01*
X109491001Y-50569440D01*
X109612000Y-50569440D01*
X109859765Y-50520157D01*
X110069809Y-50379809D01*
X110210157Y-50169765D01*
X110213275Y-50154092D01*
X110382493Y-50323310D01*
X110946670Y-50557000D01*
X111557330Y-50557000D01*
X112121507Y-50323310D01*
X112553310Y-49891507D01*
X112780000Y-49344229D01*
X112780000Y-61656980D01*
G36*
X59690000Y-62304395D02*
X59704143Y-62290253D01*
X59883748Y-62469858D01*
X59869605Y-62484000D01*
X59883748Y-62498142D01*
X59704143Y-62677748D01*
X59690000Y-62663605D01*
X59675858Y-62677748D01*
X59496252Y-62498142D01*
X59510395Y-62484000D01*
X59496252Y-62469858D01*
X59675858Y-62290252D01*
X59690000Y-62304395D01*
X59690000Y-62304395D01*
G37*
X59690000Y-62304395D02*
X59704143Y-62290253D01*
X59883748Y-62469858D01*
X59869605Y-62484000D01*
X59883748Y-62498142D01*
X59704143Y-62677748D01*
X59690000Y-62663605D01*
X59675858Y-62677748D01*
X59496252Y-62498142D01*
X59510395Y-62484000D01*
X59496252Y-62469858D01*
X59675858Y-62290252D01*
X59690000Y-62304395D01*
G36*
X61687002Y-59051000D02*
X61595000Y-59051000D01*
X61595000Y-59031000D01*
X61575000Y-59031000D01*
X61575000Y-58777000D01*
X61595000Y-58777000D01*
X61595000Y-58757000D01*
X61687001Y-58757000D01*
X61687002Y-59051000D01*
X61687002Y-59051000D01*
G37*
X61687002Y-59051000D02*
X61595000Y-59051000D01*
X61595000Y-59031000D01*
X61575000Y-59031000D01*
X61575000Y-58777000D01*
X61595000Y-58777000D01*
X61595000Y-58757000D01*
X61687001Y-58757000D01*
X61687002Y-59051000D01*
G36*
X60783673Y-57594302D02*
X60687000Y-57827691D01*
X60687000Y-58618250D01*
X60845748Y-58776998D01*
X60687000Y-58776998D01*
X60687000Y-58835292D01*
X60471000Y-58619292D01*
X60471000Y-57501440D01*
X60876534Y-57501440D01*
X60783673Y-57594302D01*
X60783673Y-57594302D01*
G37*
X60783673Y-57594302D02*
X60687000Y-57827691D01*
X60687000Y-58618250D01*
X60845748Y-58776998D01*
X60687000Y-58776998D01*
X60687000Y-58835292D01*
X60471000Y-58619292D01*
X60471000Y-57501440D01*
X60876534Y-57501440D01*
X60783673Y-57594302D01*
G36*
X63627000Y-50673000D02*
X63647000Y-50673000D01*
X63647000Y-50927000D01*
X63627000Y-50927000D01*
X63627000Y-52133817D01*
X63859026Y-52254958D01*
X63928601Y-52226141D01*
X63928602Y-56125752D01*
X63829752Y-56224602D01*
X63719440Y-56490920D01*
X63719440Y-54954000D01*
X63670157Y-54706235D01*
X63529809Y-54496191D01*
X63457000Y-54447541D01*
X63457000Y-51882190D01*
X63472378Y-51804879D01*
X63457000Y-51727568D01*
X63457000Y-51727564D01*
X63411454Y-51498588D01*
X63373000Y-51441038D01*
X63373000Y-50927000D01*
X63353000Y-50927000D01*
X63353000Y-50673000D01*
X63373000Y-50673000D01*
X63373000Y-50653000D01*
X63627000Y-50653000D01*
X63627000Y-50673000D01*
X63627000Y-50673000D01*
G37*
X63627000Y-50673000D02*
X63647000Y-50673000D01*
X63647000Y-50927000D01*
X63627000Y-50927000D01*
X63627000Y-52133817D01*
X63859026Y-52254958D01*
X63928601Y-52226141D01*
X63928602Y-56125752D01*
X63829752Y-56224602D01*
X63719440Y-56490920D01*
X63719440Y-54954000D01*
X63670157Y-54706235D01*
X63529809Y-54496191D01*
X63457000Y-54447541D01*
X63457000Y-51882190D01*
X63472378Y-51804879D01*
X63457000Y-51727568D01*
X63457000Y-51727564D01*
X63411454Y-51498588D01*
X63373000Y-51441038D01*
X63373000Y-50927000D01*
X63353000Y-50927000D01*
X63353000Y-50673000D01*
X63373000Y-50673000D01*
X63373000Y-50653000D01*
X63627000Y-50653000D01*
X63627000Y-50673000D01*
G36*
X67499570Y-51880430D02*
X67872541Y-52129642D01*
X67897195Y-52253583D01*
X67906486Y-52300293D01*
X68064515Y-52536800D01*
X68124212Y-52576689D01*
X68373000Y-52825477D01*
X68373001Y-56080575D01*
X68192957Y-56005999D01*
X67898601Y-56005999D01*
X67898601Y-55252646D01*
X67997450Y-55153797D01*
X68143601Y-54800956D01*
X68143601Y-54419044D01*
X67997450Y-54066203D01*
X67727398Y-53796151D01*
X67374557Y-53650000D01*
X66992645Y-53650000D01*
X66755000Y-53748435D01*
X66755000Y-52124603D01*
X67120430Y-51880430D01*
X67310000Y-51596719D01*
X67499570Y-51880430D01*
X67499570Y-51880430D01*
G37*
X67499570Y-51880430D02*
X67872541Y-52129642D01*
X67897195Y-52253583D01*
X67906486Y-52300293D01*
X68064515Y-52536800D01*
X68124212Y-52576689D01*
X68373000Y-52825477D01*
X68373001Y-56080575D01*
X68192957Y-56005999D01*
X67898601Y-56005999D01*
X67898601Y-55252646D01*
X67997450Y-55153797D01*
X68143601Y-54800956D01*
X68143601Y-54419044D01*
X67997450Y-54066203D01*
X67727398Y-53796151D01*
X67374557Y-53650000D01*
X66992645Y-53650000D01*
X66755000Y-53748435D01*
X66755000Y-52124603D01*
X67120430Y-51880430D01*
X67310000Y-51596719D01*
X67499570Y-51880430D01*
M02*
